M48
; DRILL file {KiCad 8.0.1} date 2024-09-25T11:56:56+0200
; FORMAT={-:-/ absolute / metric / decimal}
; #@! TF.CreationDate,2024-09-25T11:56:56+02:00
; #@! TF.GenerationSoftware,Kicad,Pcbnew,8.0.1
; #@! TF.FileFunction,Plated,1,2,PTH
FMAT,2
METRIC
; #@! TA.AperFunction,Plated,PTH,ViaDrill
T1C0.300
; #@! TA.AperFunction,Plated,PTH,ComponentDrill
T2C0.650
%
G90
G05
T1
X125.52Y-60.91
X125.7Y-63.79
X126.75Y-57.88
X127.07Y-65.08
X127.07Y-67.19
X128.59Y-55.68
X129.37Y-69.39
X129.59Y-58.43
X132.62Y-56.55
X132.85Y-59.39
X134.18Y-52.93
X134.32Y-65.26
X134.73Y-57.56
X137.29Y-66.54
X137.43Y-70.17
X138.05Y-64.97
X138.07Y-63.71
X139.82Y-55.27
X141.1Y-64.94
X141.14Y-67.19
X142.11Y-58.2
X142.61Y-62.42
T2
X131.04Y-54.69
X132.31Y-54.69
X133.58Y-54.69
X134.85Y-54.69
X136.12Y-54.69
X137.39Y-54.69
M30
