%TF.GenerationSoftware,KiCad,Pcbnew,8.0.1*%
%TF.CreationDate,2024-09-25T11:56:53+02:00*%
%TF.ProjectId,dot_projector,646f745f-7072-46f6-9a65-63746f722e6b,rev?*%
%TF.SameCoordinates,Original*%
%TF.FileFunction,Copper,L2,Bot*%
%TF.FilePolarity,Positive*%
%FSLAX46Y46*%
G04 Gerber Fmt 4.6, Leading zero omitted, Abs format (unit mm)*
G04 Created by KiCad (PCBNEW 8.0.1) date 2024-09-25 11:56:53*
%MOMM*%
%LPD*%
G01*
G04 APERTURE LIST*
%TA.AperFunction,ComponentPad*%
%ADD10R,1.000000X1.000000*%
%TD*%
%TA.AperFunction,ComponentPad*%
%ADD11O,1.000000X1.000000*%
%TD*%
%TA.AperFunction,ViaPad*%
%ADD12C,0.600000*%
%TD*%
G04 APERTURE END LIST*
D10*
%TO.P,J1,1,Pin_1*%
%TO.N,EN1*%
X131040000Y-54690000D03*
D11*
%TO.P,J1,2,Pin_2*%
%TO.N,GND*%
X132310000Y-54690000D03*
%TO.P,J1,3,Pin_3*%
%TO.N,VCI*%
X133580000Y-54690000D03*
%TO.P,J1,4,Pin_4*%
%TO.N,GND*%
X134850000Y-54690000D03*
%TO.P,J1,5,Pin_5*%
%TO.N,+5VA*%
X136120000Y-54690000D03*
%TO.P,J1,6,Pin_6*%
%TO.N,GND*%
X137390000Y-54690000D03*
%TD*%
D12*
%TO.N,GND*%
X138050000Y-64970000D03*
X138070000Y-63710000D03*
X134180000Y-52930000D03*
X127070000Y-65080000D03*
X129590000Y-58430000D03*
X141100000Y-64940000D03*
X137290000Y-66540000D03*
X134320000Y-65260000D03*
X132850000Y-59390000D03*
X134730000Y-57560000D03*
X132620000Y-56550000D03*
X139820000Y-55270000D03*
X142110000Y-58200000D03*
X142610000Y-62420000D03*
X141140000Y-67190000D03*
X137430000Y-70170000D03*
X129370000Y-69390000D03*
X127070000Y-67190000D03*
X125700000Y-63790000D03*
X125520000Y-60910000D03*
X126750000Y-57880000D03*
X128590000Y-55680000D03*
%TD*%
%TA.AperFunction,Conductor*%
%TO.N,GND*%
G36*
X134497143Y-51465715D02*
G01*
X135134965Y-51505054D01*
X135142566Y-51505758D01*
X135776750Y-51584288D01*
X135784269Y-51585454D01*
X136412457Y-51702883D01*
X136419879Y-51704508D01*
X137039637Y-51860384D01*
X137046944Y-51862463D01*
X137655926Y-52056194D01*
X137663106Y-52058724D01*
X138259020Y-52289582D01*
X138266007Y-52292540D01*
X138846561Y-52559637D01*
X138853382Y-52563033D01*
X139416389Y-52865361D01*
X139423003Y-52869180D01*
X139966316Y-53205586D01*
X139972682Y-53209805D01*
X140494236Y-53579005D01*
X140500328Y-53583604D01*
X140952755Y-53947671D01*
X140998197Y-53984238D01*
X141003996Y-53989207D01*
X141476228Y-54419704D01*
X141481711Y-54425020D01*
X141926578Y-54883805D01*
X141931711Y-54889436D01*
X142347469Y-55374713D01*
X142352257Y-55380662D01*
X142737356Y-55890614D01*
X142741765Y-55896843D01*
X142947493Y-56207317D01*
X143094747Y-56429544D01*
X143098767Y-56436037D01*
X143418280Y-56989450D01*
X143421892Y-56996176D01*
X143706739Y-57568228D01*
X143709920Y-57575142D01*
X143959001Y-58163620D01*
X143961760Y-58170741D01*
X144174146Y-58773449D01*
X144176461Y-58780727D01*
X144351336Y-59395348D01*
X144353199Y-59402754D01*
X144489906Y-60026979D01*
X144491310Y-60034486D01*
X144589334Y-60665968D01*
X144590272Y-60673548D01*
X144649233Y-61309839D01*
X144649703Y-61317461D01*
X144669382Y-61956181D01*
X144669382Y-61963819D01*
X144649703Y-62602538D01*
X144649233Y-62610160D01*
X144590272Y-63246451D01*
X144589334Y-63254031D01*
X144491310Y-63885513D01*
X144489906Y-63893020D01*
X144353199Y-64517245D01*
X144351336Y-64524651D01*
X144176461Y-65139272D01*
X144174146Y-65146550D01*
X143961760Y-65749258D01*
X143959001Y-65756379D01*
X143709920Y-66344857D01*
X143706733Y-66351784D01*
X143563002Y-66640436D01*
X143421893Y-66923821D01*
X143418280Y-66930549D01*
X143098767Y-67483962D01*
X143094747Y-67490455D01*
X142741769Y-68023151D01*
X142737356Y-68029385D01*
X142352257Y-68539337D01*
X142347469Y-68545286D01*
X141931711Y-69030563D01*
X141926566Y-69036208D01*
X141481711Y-69494979D01*
X141476228Y-69500295D01*
X141003996Y-69930792D01*
X140998197Y-69935761D01*
X140500331Y-70336392D01*
X140494236Y-70340994D01*
X139972682Y-70710194D01*
X139966316Y-70714413D01*
X139423003Y-71050819D01*
X139416389Y-71054638D01*
X138853390Y-71356962D01*
X138846553Y-71360366D01*
X138266030Y-71627449D01*
X138258997Y-71630426D01*
X137663117Y-71861271D01*
X137655914Y-71863809D01*
X137046964Y-72057530D01*
X137039618Y-72059620D01*
X136419898Y-72215486D01*
X136412438Y-72217120D01*
X135784283Y-72334542D01*
X135776736Y-72335713D01*
X135142568Y-72414240D01*
X135134964Y-72414945D01*
X134533588Y-72452037D01*
X134497142Y-72454285D01*
X134489510Y-72454520D01*
X133850490Y-72454520D01*
X133842857Y-72454285D01*
X133803792Y-72451875D01*
X133205035Y-72414945D01*
X133197431Y-72414240D01*
X132563263Y-72335713D01*
X132555716Y-72334542D01*
X131927561Y-72217120D01*
X131920101Y-72215486D01*
X131300381Y-72059620D01*
X131293035Y-72057530D01*
X130684085Y-71863809D01*
X130676882Y-71861271D01*
X130378942Y-71745848D01*
X130080995Y-71630423D01*
X130073976Y-71627452D01*
X129493446Y-71360366D01*
X129486609Y-71356962D01*
X128923610Y-71054638D01*
X128916996Y-71050819D01*
X128373683Y-70714413D01*
X128367317Y-70710194D01*
X127845763Y-70340994D01*
X127839668Y-70336392D01*
X127341802Y-69935761D01*
X127336003Y-69930792D01*
X126863771Y-69500295D01*
X126858288Y-69494979D01*
X126723047Y-69355507D01*
X126413419Y-69036193D01*
X126408288Y-69030563D01*
X125992530Y-68545286D01*
X125987742Y-68539337D01*
X125602643Y-68029385D01*
X125598238Y-68023162D01*
X125245240Y-67490436D01*
X125241244Y-67483981D01*
X124921719Y-66930549D01*
X124918113Y-66923835D01*
X124633253Y-66351757D01*
X124630091Y-66344883D01*
X124380990Y-65756358D01*
X124378247Y-65749279D01*
X124165853Y-65146550D01*
X124163538Y-65139272D01*
X124013892Y-64613320D01*
X123988657Y-64524627D01*
X123986805Y-64517268D01*
X123850090Y-63893004D01*
X123848692Y-63885530D01*
X123750663Y-63254017D01*
X123749727Y-63246451D01*
X123690766Y-62610160D01*
X123690296Y-62602538D01*
X123670617Y-61963797D01*
X123670617Y-61956202D01*
X123690296Y-61317451D01*
X123690766Y-61309839D01*
X123692510Y-61291022D01*
X123749729Y-60673529D01*
X123750662Y-60665986D01*
X123848693Y-60034463D01*
X123850088Y-60027001D01*
X123986807Y-59402723D01*
X123988655Y-59395379D01*
X124163540Y-58780719D01*
X124165853Y-58773449D01*
X124205752Y-58660224D01*
X124378251Y-58170709D01*
X124380985Y-58163652D01*
X124630096Y-57575104D01*
X124633247Y-57568254D01*
X124918120Y-56996151D01*
X124921711Y-56989464D01*
X125241252Y-56436003D01*
X125245231Y-56429577D01*
X125598248Y-55896821D01*
X125602624Y-55890640D01*
X125987746Y-55380656D01*
X125992530Y-55374713D01*
X126109769Y-55237870D01*
X130039500Y-55237870D01*
X130039501Y-55237876D01*
X130045908Y-55297483D01*
X130096202Y-55432328D01*
X130096206Y-55432335D01*
X130182452Y-55547544D01*
X130182455Y-55547547D01*
X130297664Y-55633793D01*
X130297671Y-55633797D01*
X130432517Y-55684091D01*
X130432516Y-55684091D01*
X130439444Y-55684835D01*
X130492127Y-55690500D01*
X131587872Y-55690499D01*
X131647483Y-55684091D01*
X131669112Y-55676024D01*
X131782329Y-55633797D01*
X131782329Y-55633796D01*
X131782331Y-55633796D01*
X131790822Y-55627439D01*
X131856284Y-55603021D01*
X131919628Y-55616502D01*
X131919830Y-55616016D01*
X131922461Y-55617105D01*
X131923585Y-55617345D01*
X131925462Y-55618348D01*
X132060000Y-55659159D01*
X132060000Y-54899618D01*
X132110446Y-54950064D01*
X132184555Y-54992851D01*
X132267213Y-55015000D01*
X132352787Y-55015000D01*
X132435445Y-54992851D01*
X132509554Y-54950064D01*
X132560000Y-54899618D01*
X132560000Y-55659159D01*
X132694534Y-55618349D01*
X132868259Y-55525492D01*
X132873320Y-55522111D01*
X132874444Y-55523793D01*
X132930203Y-55500086D01*
X132999075Y-55511851D01*
X133016186Y-55522843D01*
X133016399Y-55522526D01*
X133021457Y-55525906D01*
X133021462Y-55525910D01*
X133159594Y-55599743D01*
X133192524Y-55617345D01*
X133195273Y-55618814D01*
X133383868Y-55676024D01*
X133580000Y-55695341D01*
X133776132Y-55676024D01*
X133964727Y-55618814D01*
X134138538Y-55525910D01*
X134138544Y-55525904D01*
X134143607Y-55522523D01*
X134144624Y-55524045D01*
X134201021Y-55500084D01*
X134269890Y-55511866D01*
X134286424Y-55522489D01*
X134286678Y-55522110D01*
X134291738Y-55525491D01*
X134465465Y-55618349D01*
X134600000Y-55659159D01*
X134600000Y-54899618D01*
X134650446Y-54950064D01*
X134724555Y-54992851D01*
X134807213Y-55015000D01*
X134892787Y-55015000D01*
X134975445Y-54992851D01*
X135049554Y-54950064D01*
X135100000Y-54899618D01*
X135100000Y-55659159D01*
X135234534Y-55618349D01*
X135408259Y-55525492D01*
X135413320Y-55522111D01*
X135414444Y-55523793D01*
X135470203Y-55500086D01*
X135539075Y-55511851D01*
X135556186Y-55522843D01*
X135556399Y-55522526D01*
X135561457Y-55525906D01*
X135561462Y-55525910D01*
X135699594Y-55599743D01*
X135732524Y-55617345D01*
X135735273Y-55618814D01*
X135923868Y-55676024D01*
X136120000Y-55695341D01*
X136316132Y-55676024D01*
X136504727Y-55618814D01*
X136678538Y-55525910D01*
X136678544Y-55525904D01*
X136683607Y-55522523D01*
X136684624Y-55524045D01*
X136741021Y-55500084D01*
X136809890Y-55511866D01*
X136826424Y-55522489D01*
X136826678Y-55522110D01*
X136831738Y-55525491D01*
X137005465Y-55618349D01*
X137140000Y-55659159D01*
X137140000Y-54899618D01*
X137190446Y-54950064D01*
X137264555Y-54992851D01*
X137347213Y-55015000D01*
X137432787Y-55015000D01*
X137515445Y-54992851D01*
X137589554Y-54950064D01*
X137599618Y-54940000D01*
X137640000Y-54940000D01*
X137640000Y-55659159D01*
X137774534Y-55618349D01*
X137948260Y-55525491D01*
X138100528Y-55400528D01*
X138225492Y-55248260D01*
X138225496Y-55248253D01*
X138318347Y-55074541D01*
X138359160Y-54940000D01*
X137640000Y-54940000D01*
X137599618Y-54940000D01*
X137650064Y-54889554D01*
X137692851Y-54815445D01*
X137715000Y-54732787D01*
X137715000Y-54647213D01*
X137692851Y-54564555D01*
X137650064Y-54490446D01*
X137589554Y-54429936D01*
X137515445Y-54387149D01*
X137432787Y-54365000D01*
X137347213Y-54365000D01*
X137264555Y-54387149D01*
X137190446Y-54429936D01*
X137140000Y-54480382D01*
X137140000Y-53720839D01*
X137640000Y-53720839D01*
X137640000Y-54440000D01*
X138359160Y-54440000D01*
X138359160Y-54439999D01*
X138318347Y-54305458D01*
X138225496Y-54131746D01*
X138225492Y-54131739D01*
X138100528Y-53979471D01*
X137948260Y-53854507D01*
X137948253Y-53854503D01*
X137774541Y-53761652D01*
X137640000Y-53720839D01*
X137140000Y-53720839D01*
X137139999Y-53720839D01*
X137005458Y-53761652D01*
X136831742Y-53854505D01*
X136826673Y-53857893D01*
X136825556Y-53856221D01*
X136769715Y-53879921D01*
X136700851Y-53868111D01*
X136683811Y-53857158D01*
X136683601Y-53857473D01*
X136678532Y-53854086D01*
X136504733Y-53761188D01*
X136504727Y-53761186D01*
X136316132Y-53703976D01*
X136316129Y-53703975D01*
X136120000Y-53684659D01*
X135923870Y-53703975D01*
X135735266Y-53761188D01*
X135561467Y-53854086D01*
X135556399Y-53857473D01*
X135555386Y-53855958D01*
X135498936Y-53879920D01*
X135430071Y-53868115D01*
X135413574Y-53857511D01*
X135413322Y-53857890D01*
X135408253Y-53854503D01*
X135234541Y-53761652D01*
X135100000Y-53720839D01*
X135100000Y-54480382D01*
X135049554Y-54429936D01*
X134975445Y-54387149D01*
X134892787Y-54365000D01*
X134807213Y-54365000D01*
X134724555Y-54387149D01*
X134650446Y-54429936D01*
X134600000Y-54480382D01*
X134600000Y-53720839D01*
X134599999Y-53720839D01*
X134465458Y-53761652D01*
X134291742Y-53854505D01*
X134286673Y-53857893D01*
X134285556Y-53856221D01*
X134229715Y-53879921D01*
X134160851Y-53868111D01*
X134143811Y-53857158D01*
X134143601Y-53857473D01*
X134138532Y-53854086D01*
X133964733Y-53761188D01*
X133964727Y-53761186D01*
X133776132Y-53703976D01*
X133776129Y-53703975D01*
X133580000Y-53684659D01*
X133383870Y-53703975D01*
X133195266Y-53761188D01*
X133021467Y-53854086D01*
X133016399Y-53857473D01*
X133015386Y-53855958D01*
X132958936Y-53879920D01*
X132890071Y-53868115D01*
X132873574Y-53857511D01*
X132873322Y-53857890D01*
X132868253Y-53854503D01*
X132694541Y-53761652D01*
X132560000Y-53720839D01*
X132560000Y-54480382D01*
X132509554Y-54429936D01*
X132435445Y-54387149D01*
X132352787Y-54365000D01*
X132267213Y-54365000D01*
X132184555Y-54387149D01*
X132110446Y-54429936D01*
X132060000Y-54480382D01*
X132060000Y-53720839D01*
X132059999Y-53720839D01*
X131925464Y-53761650D01*
X131923586Y-53762655D01*
X131922486Y-53762883D01*
X131919838Y-53763981D01*
X131919629Y-53763478D01*
X131855183Y-53776895D01*
X131790824Y-53752561D01*
X131782335Y-53746206D01*
X131782328Y-53746202D01*
X131647482Y-53695908D01*
X131647483Y-53695908D01*
X131587883Y-53689501D01*
X131587881Y-53689500D01*
X131587873Y-53689500D01*
X131587864Y-53689500D01*
X130492129Y-53689500D01*
X130492123Y-53689501D01*
X130432516Y-53695908D01*
X130297671Y-53746202D01*
X130297664Y-53746206D01*
X130182455Y-53832452D01*
X130182452Y-53832455D01*
X130096206Y-53947664D01*
X130096202Y-53947671D01*
X130045908Y-54082517D01*
X130039501Y-54142116D01*
X130039500Y-54142135D01*
X130039500Y-55237870D01*
X126109769Y-55237870D01*
X126159119Y-55180268D01*
X126408302Y-54889420D01*
X126413404Y-54883822D01*
X126858304Y-54425003D01*
X126863753Y-54419721D01*
X127336019Y-53989193D01*
X127341785Y-53984252D01*
X127839687Y-53583592D01*
X127845744Y-53579018D01*
X128367329Y-53209796D01*
X128373671Y-53205593D01*
X128917015Y-52869169D01*
X128923592Y-52865371D01*
X129486629Y-52563026D01*
X129493425Y-52559643D01*
X130074004Y-52292535D01*
X130080967Y-52289587D01*
X130676903Y-52058720D01*
X130684062Y-52056197D01*
X131293063Y-51862460D01*
X131300353Y-51860386D01*
X131920127Y-51704507D01*
X131927535Y-51702884D01*
X132555735Y-51585453D01*
X132563244Y-51584288D01*
X133197436Y-51505758D01*
X133205031Y-51505054D01*
X133842857Y-51465715D01*
X133850490Y-51465480D01*
X134489510Y-51465480D01*
X134497143Y-51465715D01*
G37*
%TD.AperFunction*%
%TD*%
M02*
