%TF.GenerationSoftware,KiCad,Pcbnew,8.0.1*%
%TF.CreationDate,2024-09-25T11:56:57+02:00*%
%TF.ProjectId,dot_projector,646f745f-7072-46f6-9a65-63746f722e6b,rev?*%
%TF.SameCoordinates,Original*%
%TF.FileFunction,Drillmap*%
%TF.FilePolarity,Positive*%
%FSLAX45Y45*%
G04 Gerber Fmt 4.5, Leading zero omitted, Abs format (unit mm)*
G04 Created by KiCad (PCBNEW 8.0.1) date 2024-09-25 11:56:57*
%MOMM*%
%LPD*%
G01*
G04 APERTURE LIST*
%ADD10C,0.200000*%
%ADD11C,0.100000*%
G04 APERTURE END LIST*
D10*
X14517000Y-6196000D02*
G75*
G02*
X12317000Y-6196000I-1100000J0D01*
G01*
X12317000Y-6196000D02*
G75*
G02*
X14517000Y-6196000I1100000J0D01*
G01*
D11*
X12537000Y-6076000D02*
X12567000Y-6106000D01*
X12567000Y-6076000D02*
X12537000Y-6106000D01*
X12555000Y-6364000D02*
X12585000Y-6394000D01*
X12585000Y-6364000D02*
X12555000Y-6394000D01*
X12660000Y-5773000D02*
X12690000Y-5803000D01*
X12690000Y-5773000D02*
X12660000Y-5803000D01*
X12692000Y-6493000D02*
X12722000Y-6523000D01*
X12722000Y-6493000D02*
X12692000Y-6523000D01*
X12692000Y-6704000D02*
X12722000Y-6734000D01*
X12722000Y-6704000D02*
X12692000Y-6734000D01*
X12844000Y-5553000D02*
X12874000Y-5583000D01*
X12874000Y-5553000D02*
X12844000Y-5583000D01*
X12922000Y-6924000D02*
X12952000Y-6954000D01*
X12952000Y-6924000D02*
X12922000Y-6954000D01*
X12944000Y-5828000D02*
X12974000Y-5858000D01*
X12974000Y-5828000D02*
X12944000Y-5858000D01*
X13247000Y-5640000D02*
X13277000Y-5670000D01*
X13277000Y-5640000D02*
X13247000Y-5670000D01*
X13270000Y-5924000D02*
X13300000Y-5954000D01*
X13300000Y-5924000D02*
X13270000Y-5954000D01*
X13403000Y-5278000D02*
X13433000Y-5308000D01*
X13433000Y-5278000D02*
X13403000Y-5308000D01*
X13417000Y-6511000D02*
X13447000Y-6541000D01*
X13447000Y-6511000D02*
X13417000Y-6541000D01*
X13458000Y-5741000D02*
X13488000Y-5771000D01*
X13488000Y-5741000D02*
X13458000Y-5771000D01*
X13714000Y-6639000D02*
X13744000Y-6669000D01*
X13744000Y-6639000D02*
X13714000Y-6669000D01*
X13728000Y-7002000D02*
X13758000Y-7032000D01*
X13758000Y-7002000D02*
X13728000Y-7032000D01*
X13790000Y-6482000D02*
X13820000Y-6512000D01*
X13820000Y-6482000D02*
X13790000Y-6512000D01*
X13792000Y-6356000D02*
X13822000Y-6386000D01*
X13822000Y-6356000D02*
X13792000Y-6386000D01*
X13967000Y-5512000D02*
X13997000Y-5542000D01*
X13997000Y-5512000D02*
X13967000Y-5542000D01*
X14095000Y-6479000D02*
X14125000Y-6509000D01*
X14125000Y-6479000D02*
X14095000Y-6509000D01*
X14099000Y-6704000D02*
X14129000Y-6734000D01*
X14129000Y-6704000D02*
X14099000Y-6734000D01*
X14196000Y-5805000D02*
X14226000Y-5835000D01*
X14226000Y-5805000D02*
X14196000Y-5835000D01*
X14246000Y-6227000D02*
X14276000Y-6257000D01*
X14276000Y-6227000D02*
X14246000Y-6257000D01*
X13136500Y-5469000D02*
G75*
G02*
X13071500Y-5469000I-32500J0D01*
G01*
X13071500Y-5469000D02*
G75*
G02*
X13136500Y-5469000I32500J0D01*
G01*
X13263500Y-5469000D02*
G75*
G02*
X13198500Y-5469000I-32500J0D01*
G01*
X13198500Y-5469000D02*
G75*
G02*
X13263500Y-5469000I32500J0D01*
G01*
X13390500Y-5469000D02*
G75*
G02*
X13325500Y-5469000I-32500J0D01*
G01*
X13325500Y-5469000D02*
G75*
G02*
X13390500Y-5469000I32500J0D01*
G01*
X13517500Y-5469000D02*
G75*
G02*
X13452500Y-5469000I-32500J0D01*
G01*
X13452500Y-5469000D02*
G75*
G02*
X13517500Y-5469000I32500J0D01*
G01*
X13644500Y-5469000D02*
G75*
G02*
X13579500Y-5469000I-32500J0D01*
G01*
X13579500Y-5469000D02*
G75*
G02*
X13644500Y-5469000I32500J0D01*
G01*
X13771500Y-5469000D02*
G75*
G02*
X13706500Y-5469000I-32500J0D01*
G01*
X13706500Y-5469000D02*
G75*
G02*
X13771500Y-5469000I32500J0D01*
G01*
D10*
X12567777Y-7617484D02*
X12567777Y-7417484D01*
X12567777Y-7417484D02*
X12615396Y-7417484D01*
X12615396Y-7417484D02*
X12643967Y-7427008D01*
X12643967Y-7427008D02*
X12663015Y-7446055D01*
X12663015Y-7446055D02*
X12672539Y-7465103D01*
X12672539Y-7465103D02*
X12682062Y-7503198D01*
X12682062Y-7503198D02*
X12682062Y-7531769D01*
X12682062Y-7531769D02*
X12672539Y-7569865D01*
X12672539Y-7569865D02*
X12663015Y-7588912D01*
X12663015Y-7588912D02*
X12643967Y-7607960D01*
X12643967Y-7607960D02*
X12615396Y-7617484D01*
X12615396Y-7617484D02*
X12567777Y-7617484D01*
X12767777Y-7617484D02*
X12767777Y-7484150D01*
X12767777Y-7522246D02*
X12777301Y-7503198D01*
X12777301Y-7503198D02*
X12786824Y-7493674D01*
X12786824Y-7493674D02*
X12805872Y-7484150D01*
X12805872Y-7484150D02*
X12824920Y-7484150D01*
X12891586Y-7617484D02*
X12891586Y-7484150D01*
X12891586Y-7417484D02*
X12882062Y-7427008D01*
X12882062Y-7427008D02*
X12891586Y-7436531D01*
X12891586Y-7436531D02*
X12901110Y-7427008D01*
X12901110Y-7427008D02*
X12891586Y-7417484D01*
X12891586Y-7417484D02*
X12891586Y-7436531D01*
X13015396Y-7617484D02*
X12996348Y-7607960D01*
X12996348Y-7607960D02*
X12986824Y-7588912D01*
X12986824Y-7588912D02*
X12986824Y-7417484D01*
X13120158Y-7617484D02*
X13101110Y-7607960D01*
X13101110Y-7607960D02*
X13091586Y-7588912D01*
X13091586Y-7588912D02*
X13091586Y-7417484D01*
X13348729Y-7617484D02*
X13348729Y-7417484D01*
X13348729Y-7417484D02*
X13415396Y-7560341D01*
X13415396Y-7560341D02*
X13482062Y-7417484D01*
X13482062Y-7417484D02*
X13482062Y-7617484D01*
X13663015Y-7617484D02*
X13663015Y-7512722D01*
X13663015Y-7512722D02*
X13653491Y-7493674D01*
X13653491Y-7493674D02*
X13634443Y-7484150D01*
X13634443Y-7484150D02*
X13596348Y-7484150D01*
X13596348Y-7484150D02*
X13577301Y-7493674D01*
X13663015Y-7607960D02*
X13643967Y-7617484D01*
X13643967Y-7617484D02*
X13596348Y-7617484D01*
X13596348Y-7617484D02*
X13577301Y-7607960D01*
X13577301Y-7607960D02*
X13567777Y-7588912D01*
X13567777Y-7588912D02*
X13567777Y-7569865D01*
X13567777Y-7569865D02*
X13577301Y-7550817D01*
X13577301Y-7550817D02*
X13596348Y-7541293D01*
X13596348Y-7541293D02*
X13643967Y-7541293D01*
X13643967Y-7541293D02*
X13663015Y-7531769D01*
X13758253Y-7484150D02*
X13758253Y-7684150D01*
X13758253Y-7493674D02*
X13777301Y-7484150D01*
X13777301Y-7484150D02*
X13815396Y-7484150D01*
X13815396Y-7484150D02*
X13834443Y-7493674D01*
X13834443Y-7493674D02*
X13843967Y-7503198D01*
X13843967Y-7503198D02*
X13853491Y-7522246D01*
X13853491Y-7522246D02*
X13853491Y-7579388D01*
X13853491Y-7579388D02*
X13843967Y-7598436D01*
X13843967Y-7598436D02*
X13834443Y-7607960D01*
X13834443Y-7607960D02*
X13815396Y-7617484D01*
X13815396Y-7617484D02*
X13777301Y-7617484D01*
X13777301Y-7617484D02*
X13758253Y-7607960D01*
X13939205Y-7598436D02*
X13948729Y-7607960D01*
X13948729Y-7607960D02*
X13939205Y-7617484D01*
X13939205Y-7617484D02*
X13929682Y-7607960D01*
X13929682Y-7607960D02*
X13939205Y-7598436D01*
X13939205Y-7598436D02*
X13939205Y-7617484D01*
X13939205Y-7493674D02*
X13948729Y-7503198D01*
X13948729Y-7503198D02*
X13939205Y-7512722D01*
X13939205Y-7512722D02*
X13929682Y-7503198D01*
X13929682Y-7503198D02*
X13939205Y-7493674D01*
X13939205Y-7493674D02*
X13939205Y-7512722D01*
D11*
X12277000Y-7931000D02*
X12307000Y-7961000D01*
X12307000Y-7931000D02*
X12277000Y-7961000D01*
D10*
X12605872Y-7837484D02*
X12624920Y-7837484D01*
X12624920Y-7837484D02*
X12643967Y-7847008D01*
X12643967Y-7847008D02*
X12653491Y-7856531D01*
X12653491Y-7856531D02*
X12663015Y-7875579D01*
X12663015Y-7875579D02*
X12672539Y-7913674D01*
X12672539Y-7913674D02*
X12672539Y-7961293D01*
X12672539Y-7961293D02*
X12663015Y-7999388D01*
X12663015Y-7999388D02*
X12653491Y-8018436D01*
X12653491Y-8018436D02*
X12643967Y-8027960D01*
X12643967Y-8027960D02*
X12624920Y-8037484D01*
X12624920Y-8037484D02*
X12605872Y-8037484D01*
X12605872Y-8037484D02*
X12586824Y-8027960D01*
X12586824Y-8027960D02*
X12577301Y-8018436D01*
X12577301Y-8018436D02*
X12567777Y-7999388D01*
X12567777Y-7999388D02*
X12558253Y-7961293D01*
X12558253Y-7961293D02*
X12558253Y-7913674D01*
X12558253Y-7913674D02*
X12567777Y-7875579D01*
X12567777Y-7875579D02*
X12577301Y-7856531D01*
X12577301Y-7856531D02*
X12586824Y-7847008D01*
X12586824Y-7847008D02*
X12605872Y-7837484D01*
X12758253Y-8018436D02*
X12767777Y-8027960D01*
X12767777Y-8027960D02*
X12758253Y-8037484D01*
X12758253Y-8037484D02*
X12748729Y-8027960D01*
X12748729Y-8027960D02*
X12758253Y-8018436D01*
X12758253Y-8018436D02*
X12758253Y-8037484D01*
X12834443Y-7837484D02*
X12958253Y-7837484D01*
X12958253Y-7837484D02*
X12891586Y-7913674D01*
X12891586Y-7913674D02*
X12920158Y-7913674D01*
X12920158Y-7913674D02*
X12939205Y-7923198D01*
X12939205Y-7923198D02*
X12948729Y-7932722D01*
X12948729Y-7932722D02*
X12958253Y-7951769D01*
X12958253Y-7951769D02*
X12958253Y-7999388D01*
X12958253Y-7999388D02*
X12948729Y-8018436D01*
X12948729Y-8018436D02*
X12939205Y-8027960D01*
X12939205Y-8027960D02*
X12920158Y-8037484D01*
X12920158Y-8037484D02*
X12863015Y-8037484D01*
X12863015Y-8037484D02*
X12843967Y-8027960D01*
X12843967Y-8027960D02*
X12834443Y-8018436D01*
X13082062Y-7837484D02*
X13101110Y-7837484D01*
X13101110Y-7837484D02*
X13120158Y-7847008D01*
X13120158Y-7847008D02*
X13129682Y-7856531D01*
X13129682Y-7856531D02*
X13139205Y-7875579D01*
X13139205Y-7875579D02*
X13148729Y-7913674D01*
X13148729Y-7913674D02*
X13148729Y-7961293D01*
X13148729Y-7961293D02*
X13139205Y-7999388D01*
X13139205Y-7999388D02*
X13129682Y-8018436D01*
X13129682Y-8018436D02*
X13120158Y-8027960D01*
X13120158Y-8027960D02*
X13101110Y-8037484D01*
X13101110Y-8037484D02*
X13082062Y-8037484D01*
X13082062Y-8037484D02*
X13063015Y-8027960D01*
X13063015Y-8027960D02*
X13053491Y-8018436D01*
X13053491Y-8018436D02*
X13043967Y-7999388D01*
X13043967Y-7999388D02*
X13034443Y-7961293D01*
X13034443Y-7961293D02*
X13034443Y-7913674D01*
X13034443Y-7913674D02*
X13043967Y-7875579D01*
X13043967Y-7875579D02*
X13053491Y-7856531D01*
X13053491Y-7856531D02*
X13063015Y-7847008D01*
X13063015Y-7847008D02*
X13082062Y-7837484D01*
X13272539Y-7837484D02*
X13291586Y-7837484D01*
X13291586Y-7837484D02*
X13310634Y-7847008D01*
X13310634Y-7847008D02*
X13320158Y-7856531D01*
X13320158Y-7856531D02*
X13329682Y-7875579D01*
X13329682Y-7875579D02*
X13339205Y-7913674D01*
X13339205Y-7913674D02*
X13339205Y-7961293D01*
X13339205Y-7961293D02*
X13329682Y-7999388D01*
X13329682Y-7999388D02*
X13320158Y-8018436D01*
X13320158Y-8018436D02*
X13310634Y-8027960D01*
X13310634Y-8027960D02*
X13291586Y-8037484D01*
X13291586Y-8037484D02*
X13272539Y-8037484D01*
X13272539Y-8037484D02*
X13253491Y-8027960D01*
X13253491Y-8027960D02*
X13243967Y-8018436D01*
X13243967Y-8018436D02*
X13234443Y-7999388D01*
X13234443Y-7999388D02*
X13224920Y-7961293D01*
X13224920Y-7961293D02*
X13224920Y-7913674D01*
X13224920Y-7913674D02*
X13234443Y-7875579D01*
X13234443Y-7875579D02*
X13243967Y-7856531D01*
X13243967Y-7856531D02*
X13253491Y-7847008D01*
X13253491Y-7847008D02*
X13272539Y-7837484D01*
X13424920Y-8037484D02*
X13424920Y-7904150D01*
X13424920Y-7923198D02*
X13434443Y-7913674D01*
X13434443Y-7913674D02*
X13453491Y-7904150D01*
X13453491Y-7904150D02*
X13482063Y-7904150D01*
X13482063Y-7904150D02*
X13501110Y-7913674D01*
X13501110Y-7913674D02*
X13510634Y-7932722D01*
X13510634Y-7932722D02*
X13510634Y-8037484D01*
X13510634Y-7932722D02*
X13520158Y-7913674D01*
X13520158Y-7913674D02*
X13539205Y-7904150D01*
X13539205Y-7904150D02*
X13567777Y-7904150D01*
X13567777Y-7904150D02*
X13586824Y-7913674D01*
X13586824Y-7913674D02*
X13596348Y-7932722D01*
X13596348Y-7932722D02*
X13596348Y-8037484D01*
X13691586Y-8037484D02*
X13691586Y-7904150D01*
X13691586Y-7923198D02*
X13701110Y-7913674D01*
X13701110Y-7913674D02*
X13720158Y-7904150D01*
X13720158Y-7904150D02*
X13748729Y-7904150D01*
X13748729Y-7904150D02*
X13767777Y-7913674D01*
X13767777Y-7913674D02*
X13777301Y-7932722D01*
X13777301Y-7932722D02*
X13777301Y-8037484D01*
X13777301Y-7932722D02*
X13786824Y-7913674D01*
X13786824Y-7913674D02*
X13805872Y-7904150D01*
X13805872Y-7904150D02*
X13834443Y-7904150D01*
X13834443Y-7904150D02*
X13853491Y-7913674D01*
X13853491Y-7913674D02*
X13863015Y-7932722D01*
X13863015Y-7932722D02*
X13863015Y-8037484D01*
X14253491Y-7827960D02*
X14082063Y-8085103D01*
X14510634Y-7837484D02*
X14529682Y-7837484D01*
X14529682Y-7837484D02*
X14548729Y-7847008D01*
X14548729Y-7847008D02*
X14558253Y-7856531D01*
X14558253Y-7856531D02*
X14567777Y-7875579D01*
X14567777Y-7875579D02*
X14577301Y-7913674D01*
X14577301Y-7913674D02*
X14577301Y-7961293D01*
X14577301Y-7961293D02*
X14567777Y-7999388D01*
X14567777Y-7999388D02*
X14558253Y-8018436D01*
X14558253Y-8018436D02*
X14548729Y-8027960D01*
X14548729Y-8027960D02*
X14529682Y-8037484D01*
X14529682Y-8037484D02*
X14510634Y-8037484D01*
X14510634Y-8037484D02*
X14491586Y-8027960D01*
X14491586Y-8027960D02*
X14482063Y-8018436D01*
X14482063Y-8018436D02*
X14472539Y-7999388D01*
X14472539Y-7999388D02*
X14463015Y-7961293D01*
X14463015Y-7961293D02*
X14463015Y-7913674D01*
X14463015Y-7913674D02*
X14472539Y-7875579D01*
X14472539Y-7875579D02*
X14482063Y-7856531D01*
X14482063Y-7856531D02*
X14491586Y-7847008D01*
X14491586Y-7847008D02*
X14510634Y-7837484D01*
X14663015Y-8018436D02*
X14672539Y-8027960D01*
X14672539Y-8027960D02*
X14663015Y-8037484D01*
X14663015Y-8037484D02*
X14653491Y-8027960D01*
X14653491Y-8027960D02*
X14663015Y-8018436D01*
X14663015Y-8018436D02*
X14663015Y-8037484D01*
X14796348Y-7837484D02*
X14815396Y-7837484D01*
X14815396Y-7837484D02*
X14834444Y-7847008D01*
X14834444Y-7847008D02*
X14843967Y-7856531D01*
X14843967Y-7856531D02*
X14853491Y-7875579D01*
X14853491Y-7875579D02*
X14863015Y-7913674D01*
X14863015Y-7913674D02*
X14863015Y-7961293D01*
X14863015Y-7961293D02*
X14853491Y-7999388D01*
X14853491Y-7999388D02*
X14843967Y-8018436D01*
X14843967Y-8018436D02*
X14834444Y-8027960D01*
X14834444Y-8027960D02*
X14815396Y-8037484D01*
X14815396Y-8037484D02*
X14796348Y-8037484D01*
X14796348Y-8037484D02*
X14777301Y-8027960D01*
X14777301Y-8027960D02*
X14767777Y-8018436D01*
X14767777Y-8018436D02*
X14758253Y-7999388D01*
X14758253Y-7999388D02*
X14748729Y-7961293D01*
X14748729Y-7961293D02*
X14748729Y-7913674D01*
X14748729Y-7913674D02*
X14758253Y-7875579D01*
X14758253Y-7875579D02*
X14767777Y-7856531D01*
X14767777Y-7856531D02*
X14777301Y-7847008D01*
X14777301Y-7847008D02*
X14796348Y-7837484D01*
X15053491Y-8037484D02*
X14939206Y-8037484D01*
X14996348Y-8037484D02*
X14996348Y-7837484D01*
X14996348Y-7837484D02*
X14977301Y-7866055D01*
X14977301Y-7866055D02*
X14958253Y-7885103D01*
X14958253Y-7885103D02*
X14939206Y-7894627D01*
X15243967Y-8037484D02*
X15129682Y-8037484D01*
X15186825Y-8037484D02*
X15186825Y-7837484D01*
X15186825Y-7837484D02*
X15167777Y-7866055D01*
X15167777Y-7866055D02*
X15148729Y-7885103D01*
X15148729Y-7885103D02*
X15129682Y-7894627D01*
X15358253Y-7923198D02*
X15339206Y-7913674D01*
X15339206Y-7913674D02*
X15329682Y-7904150D01*
X15329682Y-7904150D02*
X15320158Y-7885103D01*
X15320158Y-7885103D02*
X15320158Y-7875579D01*
X15320158Y-7875579D02*
X15329682Y-7856531D01*
X15329682Y-7856531D02*
X15339206Y-7847008D01*
X15339206Y-7847008D02*
X15358253Y-7837484D01*
X15358253Y-7837484D02*
X15396348Y-7837484D01*
X15396348Y-7837484D02*
X15415396Y-7847008D01*
X15415396Y-7847008D02*
X15424920Y-7856531D01*
X15424920Y-7856531D02*
X15434444Y-7875579D01*
X15434444Y-7875579D02*
X15434444Y-7885103D01*
X15434444Y-7885103D02*
X15424920Y-7904150D01*
X15424920Y-7904150D02*
X15415396Y-7913674D01*
X15415396Y-7913674D02*
X15396348Y-7923198D01*
X15396348Y-7923198D02*
X15358253Y-7923198D01*
X15358253Y-7923198D02*
X15339206Y-7932722D01*
X15339206Y-7932722D02*
X15329682Y-7942246D01*
X15329682Y-7942246D02*
X15320158Y-7961293D01*
X15320158Y-7961293D02*
X15320158Y-7999388D01*
X15320158Y-7999388D02*
X15329682Y-8018436D01*
X15329682Y-8018436D02*
X15339206Y-8027960D01*
X15339206Y-8027960D02*
X15358253Y-8037484D01*
X15358253Y-8037484D02*
X15396348Y-8037484D01*
X15396348Y-8037484D02*
X15415396Y-8027960D01*
X15415396Y-8027960D02*
X15424920Y-8018436D01*
X15424920Y-8018436D02*
X15434444Y-7999388D01*
X15434444Y-7999388D02*
X15434444Y-7961293D01*
X15434444Y-7961293D02*
X15424920Y-7942246D01*
X15424920Y-7942246D02*
X15415396Y-7932722D01*
X15415396Y-7932722D02*
X15396348Y-7923198D01*
X15510634Y-7837484D02*
X15510634Y-7875579D01*
X15586825Y-7837484D02*
X15586825Y-7875579D01*
X15882063Y-8113674D02*
X15872539Y-8104150D01*
X15872539Y-8104150D02*
X15853491Y-8075579D01*
X15853491Y-8075579D02*
X15843968Y-8056531D01*
X15843968Y-8056531D02*
X15834444Y-8027960D01*
X15834444Y-8027960D02*
X15824920Y-7980341D01*
X15824920Y-7980341D02*
X15824920Y-7942246D01*
X15824920Y-7942246D02*
X15834444Y-7894627D01*
X15834444Y-7894627D02*
X15843968Y-7866055D01*
X15843968Y-7866055D02*
X15853491Y-7847008D01*
X15853491Y-7847008D02*
X15872539Y-7818436D01*
X15872539Y-7818436D02*
X15882063Y-7808912D01*
X15948729Y-7856531D02*
X15958253Y-7847008D01*
X15958253Y-7847008D02*
X15977301Y-7837484D01*
X15977301Y-7837484D02*
X16024920Y-7837484D01*
X16024920Y-7837484D02*
X16043968Y-7847008D01*
X16043968Y-7847008D02*
X16053491Y-7856531D01*
X16053491Y-7856531D02*
X16063015Y-7875579D01*
X16063015Y-7875579D02*
X16063015Y-7894627D01*
X16063015Y-7894627D02*
X16053491Y-7923198D01*
X16053491Y-7923198D02*
X15939206Y-8037484D01*
X15939206Y-8037484D02*
X16063015Y-8037484D01*
X16139206Y-7856531D02*
X16148729Y-7847008D01*
X16148729Y-7847008D02*
X16167777Y-7837484D01*
X16167777Y-7837484D02*
X16215396Y-7837484D01*
X16215396Y-7837484D02*
X16234444Y-7847008D01*
X16234444Y-7847008D02*
X16243968Y-7856531D01*
X16243968Y-7856531D02*
X16253491Y-7875579D01*
X16253491Y-7875579D02*
X16253491Y-7894627D01*
X16253491Y-7894627D02*
X16243968Y-7923198D01*
X16243968Y-7923198D02*
X16129682Y-8037484D01*
X16129682Y-8037484D02*
X16253491Y-8037484D01*
X16491587Y-8037484D02*
X16491587Y-7837484D01*
X16577301Y-8037484D02*
X16577301Y-7932722D01*
X16577301Y-7932722D02*
X16567777Y-7913674D01*
X16567777Y-7913674D02*
X16548730Y-7904150D01*
X16548730Y-7904150D02*
X16520158Y-7904150D01*
X16520158Y-7904150D02*
X16501110Y-7913674D01*
X16501110Y-7913674D02*
X16491587Y-7923198D01*
X16701110Y-8037484D02*
X16682063Y-8027960D01*
X16682063Y-8027960D02*
X16672539Y-8018436D01*
X16672539Y-8018436D02*
X16663015Y-7999388D01*
X16663015Y-7999388D02*
X16663015Y-7942246D01*
X16663015Y-7942246D02*
X16672539Y-7923198D01*
X16672539Y-7923198D02*
X16682063Y-7913674D01*
X16682063Y-7913674D02*
X16701110Y-7904150D01*
X16701110Y-7904150D02*
X16729682Y-7904150D01*
X16729682Y-7904150D02*
X16748730Y-7913674D01*
X16748730Y-7913674D02*
X16758253Y-7923198D01*
X16758253Y-7923198D02*
X16767777Y-7942246D01*
X16767777Y-7942246D02*
X16767777Y-7999388D01*
X16767777Y-7999388D02*
X16758253Y-8018436D01*
X16758253Y-8018436D02*
X16748730Y-8027960D01*
X16748730Y-8027960D02*
X16729682Y-8037484D01*
X16729682Y-8037484D02*
X16701110Y-8037484D01*
X16882063Y-8037484D02*
X16863015Y-8027960D01*
X16863015Y-8027960D02*
X16853492Y-8008912D01*
X16853492Y-8008912D02*
X16853492Y-7837484D01*
X17034444Y-8027960D02*
X17015396Y-8037484D01*
X17015396Y-8037484D02*
X16977301Y-8037484D01*
X16977301Y-8037484D02*
X16958253Y-8027960D01*
X16958253Y-8027960D02*
X16948730Y-8008912D01*
X16948730Y-8008912D02*
X16948730Y-7932722D01*
X16948730Y-7932722D02*
X16958253Y-7913674D01*
X16958253Y-7913674D02*
X16977301Y-7904150D01*
X16977301Y-7904150D02*
X17015396Y-7904150D01*
X17015396Y-7904150D02*
X17034444Y-7913674D01*
X17034444Y-7913674D02*
X17043968Y-7932722D01*
X17043968Y-7932722D02*
X17043968Y-7951769D01*
X17043968Y-7951769D02*
X16948730Y-7970817D01*
X17120158Y-8027960D02*
X17139206Y-8037484D01*
X17139206Y-8037484D02*
X17177301Y-8037484D01*
X17177301Y-8037484D02*
X17196349Y-8027960D01*
X17196349Y-8027960D02*
X17205873Y-8008912D01*
X17205873Y-8008912D02*
X17205873Y-7999388D01*
X17205873Y-7999388D02*
X17196349Y-7980341D01*
X17196349Y-7980341D02*
X17177301Y-7970817D01*
X17177301Y-7970817D02*
X17148730Y-7970817D01*
X17148730Y-7970817D02*
X17129682Y-7961293D01*
X17129682Y-7961293D02*
X17120158Y-7942246D01*
X17120158Y-7942246D02*
X17120158Y-7932722D01*
X17120158Y-7932722D02*
X17129682Y-7913674D01*
X17129682Y-7913674D02*
X17148730Y-7904150D01*
X17148730Y-7904150D02*
X17177301Y-7904150D01*
X17177301Y-7904150D02*
X17196349Y-7913674D01*
X17272539Y-8113674D02*
X17282063Y-8104150D01*
X17282063Y-8104150D02*
X17301111Y-8075579D01*
X17301111Y-8075579D02*
X17310634Y-8056531D01*
X17310634Y-8056531D02*
X17320158Y-8027960D01*
X17320158Y-8027960D02*
X17329682Y-7980341D01*
X17329682Y-7980341D02*
X17329682Y-7942246D01*
X17329682Y-7942246D02*
X17320158Y-7894627D01*
X17320158Y-7894627D02*
X17310634Y-7866055D01*
X17310634Y-7866055D02*
X17301111Y-7847008D01*
X17301111Y-7847008D02*
X17282063Y-7818436D01*
X17282063Y-7818436D02*
X17272539Y-7808912D01*
D11*
X12307000Y-8210000D02*
G75*
G02*
X12242000Y-8210000I-32500J0D01*
G01*
X12242000Y-8210000D02*
G75*
G02*
X12307000Y-8210000I32500J0D01*
G01*
D10*
X12605872Y-8101484D02*
X12624920Y-8101484D01*
X12624920Y-8101484D02*
X12643967Y-8111008D01*
X12643967Y-8111008D02*
X12653491Y-8120531D01*
X12653491Y-8120531D02*
X12663015Y-8139579D01*
X12663015Y-8139579D02*
X12672539Y-8177674D01*
X12672539Y-8177674D02*
X12672539Y-8225293D01*
X12672539Y-8225293D02*
X12663015Y-8263388D01*
X12663015Y-8263388D02*
X12653491Y-8282436D01*
X12653491Y-8282436D02*
X12643967Y-8291960D01*
X12643967Y-8291960D02*
X12624920Y-8301484D01*
X12624920Y-8301484D02*
X12605872Y-8301484D01*
X12605872Y-8301484D02*
X12586824Y-8291960D01*
X12586824Y-8291960D02*
X12577301Y-8282436D01*
X12577301Y-8282436D02*
X12567777Y-8263388D01*
X12567777Y-8263388D02*
X12558253Y-8225293D01*
X12558253Y-8225293D02*
X12558253Y-8177674D01*
X12558253Y-8177674D02*
X12567777Y-8139579D01*
X12567777Y-8139579D02*
X12577301Y-8120531D01*
X12577301Y-8120531D02*
X12586824Y-8111008D01*
X12586824Y-8111008D02*
X12605872Y-8101484D01*
X12758253Y-8282436D02*
X12767777Y-8291960D01*
X12767777Y-8291960D02*
X12758253Y-8301484D01*
X12758253Y-8301484D02*
X12748729Y-8291960D01*
X12748729Y-8291960D02*
X12758253Y-8282436D01*
X12758253Y-8282436D02*
X12758253Y-8301484D01*
X12939205Y-8101484D02*
X12901110Y-8101484D01*
X12901110Y-8101484D02*
X12882062Y-8111008D01*
X12882062Y-8111008D02*
X12872539Y-8120531D01*
X12872539Y-8120531D02*
X12853491Y-8149103D01*
X12853491Y-8149103D02*
X12843967Y-8187198D01*
X12843967Y-8187198D02*
X12843967Y-8263388D01*
X12843967Y-8263388D02*
X12853491Y-8282436D01*
X12853491Y-8282436D02*
X12863015Y-8291960D01*
X12863015Y-8291960D02*
X12882062Y-8301484D01*
X12882062Y-8301484D02*
X12920158Y-8301484D01*
X12920158Y-8301484D02*
X12939205Y-8291960D01*
X12939205Y-8291960D02*
X12948729Y-8282436D01*
X12948729Y-8282436D02*
X12958253Y-8263388D01*
X12958253Y-8263388D02*
X12958253Y-8215769D01*
X12958253Y-8215769D02*
X12948729Y-8196722D01*
X12948729Y-8196722D02*
X12939205Y-8187198D01*
X12939205Y-8187198D02*
X12920158Y-8177674D01*
X12920158Y-8177674D02*
X12882062Y-8177674D01*
X12882062Y-8177674D02*
X12863015Y-8187198D01*
X12863015Y-8187198D02*
X12853491Y-8196722D01*
X12853491Y-8196722D02*
X12843967Y-8215769D01*
X13139205Y-8101484D02*
X13043967Y-8101484D01*
X13043967Y-8101484D02*
X13034443Y-8196722D01*
X13034443Y-8196722D02*
X13043967Y-8187198D01*
X13043967Y-8187198D02*
X13063015Y-8177674D01*
X13063015Y-8177674D02*
X13110634Y-8177674D01*
X13110634Y-8177674D02*
X13129682Y-8187198D01*
X13129682Y-8187198D02*
X13139205Y-8196722D01*
X13139205Y-8196722D02*
X13148729Y-8215769D01*
X13148729Y-8215769D02*
X13148729Y-8263388D01*
X13148729Y-8263388D02*
X13139205Y-8282436D01*
X13139205Y-8282436D02*
X13129682Y-8291960D01*
X13129682Y-8291960D02*
X13110634Y-8301484D01*
X13110634Y-8301484D02*
X13063015Y-8301484D01*
X13063015Y-8301484D02*
X13043967Y-8291960D01*
X13043967Y-8291960D02*
X13034443Y-8282436D01*
X13272539Y-8101484D02*
X13291586Y-8101484D01*
X13291586Y-8101484D02*
X13310634Y-8111008D01*
X13310634Y-8111008D02*
X13320158Y-8120531D01*
X13320158Y-8120531D02*
X13329682Y-8139579D01*
X13329682Y-8139579D02*
X13339205Y-8177674D01*
X13339205Y-8177674D02*
X13339205Y-8225293D01*
X13339205Y-8225293D02*
X13329682Y-8263388D01*
X13329682Y-8263388D02*
X13320158Y-8282436D01*
X13320158Y-8282436D02*
X13310634Y-8291960D01*
X13310634Y-8291960D02*
X13291586Y-8301484D01*
X13291586Y-8301484D02*
X13272539Y-8301484D01*
X13272539Y-8301484D02*
X13253491Y-8291960D01*
X13253491Y-8291960D02*
X13243967Y-8282436D01*
X13243967Y-8282436D02*
X13234443Y-8263388D01*
X13234443Y-8263388D02*
X13224920Y-8225293D01*
X13224920Y-8225293D02*
X13224920Y-8177674D01*
X13224920Y-8177674D02*
X13234443Y-8139579D01*
X13234443Y-8139579D02*
X13243967Y-8120531D01*
X13243967Y-8120531D02*
X13253491Y-8111008D01*
X13253491Y-8111008D02*
X13272539Y-8101484D01*
X13424920Y-8301484D02*
X13424920Y-8168150D01*
X13424920Y-8187198D02*
X13434443Y-8177674D01*
X13434443Y-8177674D02*
X13453491Y-8168150D01*
X13453491Y-8168150D02*
X13482063Y-8168150D01*
X13482063Y-8168150D02*
X13501110Y-8177674D01*
X13501110Y-8177674D02*
X13510634Y-8196722D01*
X13510634Y-8196722D02*
X13510634Y-8301484D01*
X13510634Y-8196722D02*
X13520158Y-8177674D01*
X13520158Y-8177674D02*
X13539205Y-8168150D01*
X13539205Y-8168150D02*
X13567777Y-8168150D01*
X13567777Y-8168150D02*
X13586824Y-8177674D01*
X13586824Y-8177674D02*
X13596348Y-8196722D01*
X13596348Y-8196722D02*
X13596348Y-8301484D01*
X13691586Y-8301484D02*
X13691586Y-8168150D01*
X13691586Y-8187198D02*
X13701110Y-8177674D01*
X13701110Y-8177674D02*
X13720158Y-8168150D01*
X13720158Y-8168150D02*
X13748729Y-8168150D01*
X13748729Y-8168150D02*
X13767777Y-8177674D01*
X13767777Y-8177674D02*
X13777301Y-8196722D01*
X13777301Y-8196722D02*
X13777301Y-8301484D01*
X13777301Y-8196722D02*
X13786824Y-8177674D01*
X13786824Y-8177674D02*
X13805872Y-8168150D01*
X13805872Y-8168150D02*
X13834443Y-8168150D01*
X13834443Y-8168150D02*
X13853491Y-8177674D01*
X13853491Y-8177674D02*
X13863015Y-8196722D01*
X13863015Y-8196722D02*
X13863015Y-8301484D01*
X14253491Y-8091960D02*
X14082063Y-8349103D01*
X14510634Y-8101484D02*
X14529682Y-8101484D01*
X14529682Y-8101484D02*
X14548729Y-8111008D01*
X14548729Y-8111008D02*
X14558253Y-8120531D01*
X14558253Y-8120531D02*
X14567777Y-8139579D01*
X14567777Y-8139579D02*
X14577301Y-8177674D01*
X14577301Y-8177674D02*
X14577301Y-8225293D01*
X14577301Y-8225293D02*
X14567777Y-8263388D01*
X14567777Y-8263388D02*
X14558253Y-8282436D01*
X14558253Y-8282436D02*
X14548729Y-8291960D01*
X14548729Y-8291960D02*
X14529682Y-8301484D01*
X14529682Y-8301484D02*
X14510634Y-8301484D01*
X14510634Y-8301484D02*
X14491586Y-8291960D01*
X14491586Y-8291960D02*
X14482063Y-8282436D01*
X14482063Y-8282436D02*
X14472539Y-8263388D01*
X14472539Y-8263388D02*
X14463015Y-8225293D01*
X14463015Y-8225293D02*
X14463015Y-8177674D01*
X14463015Y-8177674D02*
X14472539Y-8139579D01*
X14472539Y-8139579D02*
X14482063Y-8120531D01*
X14482063Y-8120531D02*
X14491586Y-8111008D01*
X14491586Y-8111008D02*
X14510634Y-8101484D01*
X14663015Y-8282436D02*
X14672539Y-8291960D01*
X14672539Y-8291960D02*
X14663015Y-8301484D01*
X14663015Y-8301484D02*
X14653491Y-8291960D01*
X14653491Y-8291960D02*
X14663015Y-8282436D01*
X14663015Y-8282436D02*
X14663015Y-8301484D01*
X14796348Y-8101484D02*
X14815396Y-8101484D01*
X14815396Y-8101484D02*
X14834444Y-8111008D01*
X14834444Y-8111008D02*
X14843967Y-8120531D01*
X14843967Y-8120531D02*
X14853491Y-8139579D01*
X14853491Y-8139579D02*
X14863015Y-8177674D01*
X14863015Y-8177674D02*
X14863015Y-8225293D01*
X14863015Y-8225293D02*
X14853491Y-8263388D01*
X14853491Y-8263388D02*
X14843967Y-8282436D01*
X14843967Y-8282436D02*
X14834444Y-8291960D01*
X14834444Y-8291960D02*
X14815396Y-8301484D01*
X14815396Y-8301484D02*
X14796348Y-8301484D01*
X14796348Y-8301484D02*
X14777301Y-8291960D01*
X14777301Y-8291960D02*
X14767777Y-8282436D01*
X14767777Y-8282436D02*
X14758253Y-8263388D01*
X14758253Y-8263388D02*
X14748729Y-8225293D01*
X14748729Y-8225293D02*
X14748729Y-8177674D01*
X14748729Y-8177674D02*
X14758253Y-8139579D01*
X14758253Y-8139579D02*
X14767777Y-8120531D01*
X14767777Y-8120531D02*
X14777301Y-8111008D01*
X14777301Y-8111008D02*
X14796348Y-8101484D01*
X14939206Y-8120531D02*
X14948729Y-8111008D01*
X14948729Y-8111008D02*
X14967777Y-8101484D01*
X14967777Y-8101484D02*
X15015396Y-8101484D01*
X15015396Y-8101484D02*
X15034444Y-8111008D01*
X15034444Y-8111008D02*
X15043967Y-8120531D01*
X15043967Y-8120531D02*
X15053491Y-8139579D01*
X15053491Y-8139579D02*
X15053491Y-8158627D01*
X15053491Y-8158627D02*
X15043967Y-8187198D01*
X15043967Y-8187198D02*
X14929682Y-8301484D01*
X14929682Y-8301484D02*
X15053491Y-8301484D01*
X15234444Y-8101484D02*
X15139206Y-8101484D01*
X15139206Y-8101484D02*
X15129682Y-8196722D01*
X15129682Y-8196722D02*
X15139206Y-8187198D01*
X15139206Y-8187198D02*
X15158253Y-8177674D01*
X15158253Y-8177674D02*
X15205872Y-8177674D01*
X15205872Y-8177674D02*
X15224920Y-8187198D01*
X15224920Y-8187198D02*
X15234444Y-8196722D01*
X15234444Y-8196722D02*
X15243967Y-8215769D01*
X15243967Y-8215769D02*
X15243967Y-8263388D01*
X15243967Y-8263388D02*
X15234444Y-8282436D01*
X15234444Y-8282436D02*
X15224920Y-8291960D01*
X15224920Y-8291960D02*
X15205872Y-8301484D01*
X15205872Y-8301484D02*
X15158253Y-8301484D01*
X15158253Y-8301484D02*
X15139206Y-8291960D01*
X15139206Y-8291960D02*
X15129682Y-8282436D01*
X15415396Y-8101484D02*
X15377301Y-8101484D01*
X15377301Y-8101484D02*
X15358253Y-8111008D01*
X15358253Y-8111008D02*
X15348729Y-8120531D01*
X15348729Y-8120531D02*
X15329682Y-8149103D01*
X15329682Y-8149103D02*
X15320158Y-8187198D01*
X15320158Y-8187198D02*
X15320158Y-8263388D01*
X15320158Y-8263388D02*
X15329682Y-8282436D01*
X15329682Y-8282436D02*
X15339206Y-8291960D01*
X15339206Y-8291960D02*
X15358253Y-8301484D01*
X15358253Y-8301484D02*
X15396348Y-8301484D01*
X15396348Y-8301484D02*
X15415396Y-8291960D01*
X15415396Y-8291960D02*
X15424920Y-8282436D01*
X15424920Y-8282436D02*
X15434444Y-8263388D01*
X15434444Y-8263388D02*
X15434444Y-8215769D01*
X15434444Y-8215769D02*
X15424920Y-8196722D01*
X15424920Y-8196722D02*
X15415396Y-8187198D01*
X15415396Y-8187198D02*
X15396348Y-8177674D01*
X15396348Y-8177674D02*
X15358253Y-8177674D01*
X15358253Y-8177674D02*
X15339206Y-8187198D01*
X15339206Y-8187198D02*
X15329682Y-8196722D01*
X15329682Y-8196722D02*
X15320158Y-8215769D01*
X15510634Y-8101484D02*
X15510634Y-8139579D01*
X15586825Y-8101484D02*
X15586825Y-8139579D01*
X15882063Y-8377674D02*
X15872539Y-8368150D01*
X15872539Y-8368150D02*
X15853491Y-8339579D01*
X15853491Y-8339579D02*
X15843968Y-8320531D01*
X15843968Y-8320531D02*
X15834444Y-8291960D01*
X15834444Y-8291960D02*
X15824920Y-8244341D01*
X15824920Y-8244341D02*
X15824920Y-8206246D01*
X15824920Y-8206246D02*
X15834444Y-8158627D01*
X15834444Y-8158627D02*
X15843968Y-8130055D01*
X15843968Y-8130055D02*
X15853491Y-8111008D01*
X15853491Y-8111008D02*
X15872539Y-8082436D01*
X15872539Y-8082436D02*
X15882063Y-8072912D01*
X16043968Y-8101484D02*
X16005872Y-8101484D01*
X16005872Y-8101484D02*
X15986825Y-8111008D01*
X15986825Y-8111008D02*
X15977301Y-8120531D01*
X15977301Y-8120531D02*
X15958253Y-8149103D01*
X15958253Y-8149103D02*
X15948729Y-8187198D01*
X15948729Y-8187198D02*
X15948729Y-8263388D01*
X15948729Y-8263388D02*
X15958253Y-8282436D01*
X15958253Y-8282436D02*
X15967777Y-8291960D01*
X15967777Y-8291960D02*
X15986825Y-8301484D01*
X15986825Y-8301484D02*
X16024920Y-8301484D01*
X16024920Y-8301484D02*
X16043968Y-8291960D01*
X16043968Y-8291960D02*
X16053491Y-8282436D01*
X16053491Y-8282436D02*
X16063015Y-8263388D01*
X16063015Y-8263388D02*
X16063015Y-8215769D01*
X16063015Y-8215769D02*
X16053491Y-8196722D01*
X16053491Y-8196722D02*
X16043968Y-8187198D01*
X16043968Y-8187198D02*
X16024920Y-8177674D01*
X16024920Y-8177674D02*
X15986825Y-8177674D01*
X15986825Y-8177674D02*
X15967777Y-8187198D01*
X15967777Y-8187198D02*
X15958253Y-8196722D01*
X15958253Y-8196722D02*
X15948729Y-8215769D01*
X16301110Y-8301484D02*
X16301110Y-8101484D01*
X16386825Y-8301484D02*
X16386825Y-8196722D01*
X16386825Y-8196722D02*
X16377301Y-8177674D01*
X16377301Y-8177674D02*
X16358253Y-8168150D01*
X16358253Y-8168150D02*
X16329682Y-8168150D01*
X16329682Y-8168150D02*
X16310634Y-8177674D01*
X16310634Y-8177674D02*
X16301110Y-8187198D01*
X16510634Y-8301484D02*
X16491587Y-8291960D01*
X16491587Y-8291960D02*
X16482063Y-8282436D01*
X16482063Y-8282436D02*
X16472539Y-8263388D01*
X16472539Y-8263388D02*
X16472539Y-8206246D01*
X16472539Y-8206246D02*
X16482063Y-8187198D01*
X16482063Y-8187198D02*
X16491587Y-8177674D01*
X16491587Y-8177674D02*
X16510634Y-8168150D01*
X16510634Y-8168150D02*
X16539206Y-8168150D01*
X16539206Y-8168150D02*
X16558253Y-8177674D01*
X16558253Y-8177674D02*
X16567777Y-8187198D01*
X16567777Y-8187198D02*
X16577301Y-8206246D01*
X16577301Y-8206246D02*
X16577301Y-8263388D01*
X16577301Y-8263388D02*
X16567777Y-8282436D01*
X16567777Y-8282436D02*
X16558253Y-8291960D01*
X16558253Y-8291960D02*
X16539206Y-8301484D01*
X16539206Y-8301484D02*
X16510634Y-8301484D01*
X16691587Y-8301484D02*
X16672539Y-8291960D01*
X16672539Y-8291960D02*
X16663015Y-8272912D01*
X16663015Y-8272912D02*
X16663015Y-8101484D01*
X16843968Y-8291960D02*
X16824920Y-8301484D01*
X16824920Y-8301484D02*
X16786825Y-8301484D01*
X16786825Y-8301484D02*
X16767777Y-8291960D01*
X16767777Y-8291960D02*
X16758253Y-8272912D01*
X16758253Y-8272912D02*
X16758253Y-8196722D01*
X16758253Y-8196722D02*
X16767777Y-8177674D01*
X16767777Y-8177674D02*
X16786825Y-8168150D01*
X16786825Y-8168150D02*
X16824920Y-8168150D01*
X16824920Y-8168150D02*
X16843968Y-8177674D01*
X16843968Y-8177674D02*
X16853492Y-8196722D01*
X16853492Y-8196722D02*
X16853492Y-8215769D01*
X16853492Y-8215769D02*
X16758253Y-8234817D01*
X16929682Y-8291960D02*
X16948730Y-8301484D01*
X16948730Y-8301484D02*
X16986825Y-8301484D01*
X16986825Y-8301484D02*
X17005873Y-8291960D01*
X17005873Y-8291960D02*
X17015396Y-8272912D01*
X17015396Y-8272912D02*
X17015396Y-8263388D01*
X17015396Y-8263388D02*
X17005873Y-8244341D01*
X17005873Y-8244341D02*
X16986825Y-8234817D01*
X16986825Y-8234817D02*
X16958253Y-8234817D01*
X16958253Y-8234817D02*
X16939206Y-8225293D01*
X16939206Y-8225293D02*
X16929682Y-8206246D01*
X16929682Y-8206246D02*
X16929682Y-8196722D01*
X16929682Y-8196722D02*
X16939206Y-8177674D01*
X16939206Y-8177674D02*
X16958253Y-8168150D01*
X16958253Y-8168150D02*
X16986825Y-8168150D01*
X16986825Y-8168150D02*
X17005873Y-8177674D01*
X17082063Y-8377674D02*
X17091587Y-8368150D01*
X17091587Y-8368150D02*
X17110634Y-8339579D01*
X17110634Y-8339579D02*
X17120158Y-8320531D01*
X17120158Y-8320531D02*
X17129682Y-8291960D01*
X17129682Y-8291960D02*
X17139206Y-8244341D01*
X17139206Y-8244341D02*
X17139206Y-8206246D01*
X17139206Y-8206246D02*
X17129682Y-8158627D01*
X17129682Y-8158627D02*
X17120158Y-8130055D01*
X17120158Y-8130055D02*
X17110634Y-8111008D01*
X17110634Y-8111008D02*
X17091587Y-8082436D01*
X17091587Y-8082436D02*
X17082063Y-8072912D01*
M02*
