%TF.GenerationSoftware,KiCad,Pcbnew,8.0.1*%
%TF.CreationDate,2024-09-25T11:56:57+02:00*%
%TF.ProjectId,dot_projector,646f745f-7072-46f6-9a65-63746f722e6b,rev?*%
%TF.SameCoordinates,Original*%
%TF.FileFunction,Drillmap*%
%TF.FilePolarity,Positive*%
%FSLAX45Y45*%
G04 Gerber Fmt 4.5, Leading zero omitted, Abs format (unit mm)*
G04 Created by KiCad (PCBNEW 8.0.1) date 2024-09-25 11:56:57*
%MOMM*%
%LPD*%
G01*
G04 APERTURE LIST*
%ADD10C,0.200000*%
G04 APERTURE END LIST*
D10*
X14517000Y-6196000D02*
G75*
G02*
X12317000Y-6196000I-1100000J0D01*
G01*
X12317000Y-6196000D02*
G75*
G02*
X14517000Y-6196000I1100000J0D01*
G01*
X12567777Y-7617484D02*
X12567777Y-7417484D01*
X12567777Y-7417484D02*
X12615396Y-7417484D01*
X12615396Y-7417484D02*
X12643967Y-7427008D01*
X12643967Y-7427008D02*
X12663015Y-7446055D01*
X12663015Y-7446055D02*
X12672539Y-7465103D01*
X12672539Y-7465103D02*
X12682062Y-7503198D01*
X12682062Y-7503198D02*
X12682062Y-7531769D01*
X12682062Y-7531769D02*
X12672539Y-7569865D01*
X12672539Y-7569865D02*
X12663015Y-7588912D01*
X12663015Y-7588912D02*
X12643967Y-7607960D01*
X12643967Y-7607960D02*
X12615396Y-7617484D01*
X12615396Y-7617484D02*
X12567777Y-7617484D01*
X12767777Y-7617484D02*
X12767777Y-7484150D01*
X12767777Y-7522246D02*
X12777301Y-7503198D01*
X12777301Y-7503198D02*
X12786824Y-7493674D01*
X12786824Y-7493674D02*
X12805872Y-7484150D01*
X12805872Y-7484150D02*
X12824920Y-7484150D01*
X12891586Y-7617484D02*
X12891586Y-7484150D01*
X12891586Y-7417484D02*
X12882062Y-7427008D01*
X12882062Y-7427008D02*
X12891586Y-7436531D01*
X12891586Y-7436531D02*
X12901110Y-7427008D01*
X12901110Y-7427008D02*
X12891586Y-7417484D01*
X12891586Y-7417484D02*
X12891586Y-7436531D01*
X13015396Y-7617484D02*
X12996348Y-7607960D01*
X12996348Y-7607960D02*
X12986824Y-7588912D01*
X12986824Y-7588912D02*
X12986824Y-7417484D01*
X13120158Y-7617484D02*
X13101110Y-7607960D01*
X13101110Y-7607960D02*
X13091586Y-7588912D01*
X13091586Y-7588912D02*
X13091586Y-7417484D01*
X13348729Y-7617484D02*
X13348729Y-7417484D01*
X13348729Y-7417484D02*
X13415396Y-7560341D01*
X13415396Y-7560341D02*
X13482062Y-7417484D01*
X13482062Y-7417484D02*
X13482062Y-7617484D01*
X13663015Y-7617484D02*
X13663015Y-7512722D01*
X13663015Y-7512722D02*
X13653491Y-7493674D01*
X13653491Y-7493674D02*
X13634443Y-7484150D01*
X13634443Y-7484150D02*
X13596348Y-7484150D01*
X13596348Y-7484150D02*
X13577301Y-7493674D01*
X13663015Y-7607960D02*
X13643967Y-7617484D01*
X13643967Y-7617484D02*
X13596348Y-7617484D01*
X13596348Y-7617484D02*
X13577301Y-7607960D01*
X13577301Y-7607960D02*
X13567777Y-7588912D01*
X13567777Y-7588912D02*
X13567777Y-7569865D01*
X13567777Y-7569865D02*
X13577301Y-7550817D01*
X13577301Y-7550817D02*
X13596348Y-7541293D01*
X13596348Y-7541293D02*
X13643967Y-7541293D01*
X13643967Y-7541293D02*
X13663015Y-7531769D01*
X13758253Y-7484150D02*
X13758253Y-7684150D01*
X13758253Y-7493674D02*
X13777301Y-7484150D01*
X13777301Y-7484150D02*
X13815396Y-7484150D01*
X13815396Y-7484150D02*
X13834443Y-7493674D01*
X13834443Y-7493674D02*
X13843967Y-7503198D01*
X13843967Y-7503198D02*
X13853491Y-7522246D01*
X13853491Y-7522246D02*
X13853491Y-7579388D01*
X13853491Y-7579388D02*
X13843967Y-7598436D01*
X13843967Y-7598436D02*
X13834443Y-7607960D01*
X13834443Y-7607960D02*
X13815396Y-7617484D01*
X13815396Y-7617484D02*
X13777301Y-7617484D01*
X13777301Y-7617484D02*
X13758253Y-7607960D01*
X13939205Y-7598436D02*
X13948729Y-7607960D01*
X13948729Y-7607960D02*
X13939205Y-7617484D01*
X13939205Y-7617484D02*
X13929682Y-7607960D01*
X13929682Y-7607960D02*
X13939205Y-7598436D01*
X13939205Y-7598436D02*
X13939205Y-7617484D01*
X13939205Y-7493674D02*
X13948729Y-7503198D01*
X13948729Y-7503198D02*
X13939205Y-7512722D01*
X13939205Y-7512722D02*
X13929682Y-7503198D01*
X13929682Y-7503198D02*
X13939205Y-7493674D01*
X13939205Y-7493674D02*
X13939205Y-7512722D01*
M02*
