%TF.GenerationSoftware,KiCad,Pcbnew,8.0.1*%
%TF.CreationDate,2024-09-25T11:56:53+02:00*%
%TF.ProjectId,dot_projector,646f745f-7072-46f6-9a65-63746f722e6b,rev?*%
%TF.SameCoordinates,Original*%
%TF.FileFunction,Copper,L1,Top*%
%TF.FilePolarity,Positive*%
%FSLAX46Y46*%
G04 Gerber Fmt 4.6, Leading zero omitted, Abs format (unit mm)*
G04 Created by KiCad (PCBNEW 8.0.1) date 2024-09-25 11:56:53*
%MOMM*%
%LPD*%
G01*
G04 APERTURE LIST*
G04 Aperture macros list*
%AMRoundRect*
0 Rectangle with rounded corners*
0 $1 Rounding radius*
0 $2 $3 $4 $5 $6 $7 $8 $9 X,Y pos of 4 corners*
0 Add a 4 corners polygon primitive as box body*
4,1,4,$2,$3,$4,$5,$6,$7,$8,$9,$2,$3,0*
0 Add four circle primitives for the rounded corners*
1,1,$1+$1,$2,$3*
1,1,$1+$1,$4,$5*
1,1,$1+$1,$6,$7*
1,1,$1+$1,$8,$9*
0 Add four rect primitives between the rounded corners*
20,1,$1+$1,$2,$3,$4,$5,0*
20,1,$1+$1,$4,$5,$6,$7,0*
20,1,$1+$1,$6,$7,$8,$9,0*
20,1,$1+$1,$8,$9,$2,$3,0*%
G04 Aperture macros list end*
%TA.AperFunction,SMDPad,CuDef*%
%ADD10R,0.750000X0.300000*%
%TD*%
%TA.AperFunction,SMDPad,CuDef*%
%ADD11R,2.050000X2.800000*%
%TD*%
%TA.AperFunction,SMDPad,CuDef*%
%ADD12R,0.350000X0.510000*%
%TD*%
%TA.AperFunction,SMDPad,CuDef*%
%ADD13R,0.300000X0.500000*%
%TD*%
%TA.AperFunction,SMDPad,CuDef*%
%ADD14R,0.950000X0.750000*%
%TD*%
%TA.AperFunction,SMDPad,CuDef*%
%ADD15R,0.520000X0.310000*%
%TD*%
%TA.AperFunction,SMDPad,CuDef*%
%ADD16RoundRect,0.200000X0.275000X-0.200000X0.275000X0.200000X-0.275000X0.200000X-0.275000X-0.200000X0*%
%TD*%
%TA.AperFunction,SMDPad,CuDef*%
%ADD17RoundRect,0.225000X-0.225000X-0.250000X0.225000X-0.250000X0.225000X0.250000X-0.225000X0.250000X0*%
%TD*%
%TA.AperFunction,ComponentPad*%
%ADD18R,1.000000X1.000000*%
%TD*%
%TA.AperFunction,ComponentPad*%
%ADD19O,1.000000X1.000000*%
%TD*%
%TA.AperFunction,SMDPad,CuDef*%
%ADD20R,1.500000X0.700000*%
%TD*%
%TA.AperFunction,SMDPad,CuDef*%
%ADD21R,2.290000X2.290000*%
%TD*%
%TA.AperFunction,ViaPad*%
%ADD22C,0.600000*%
%TD*%
%TA.AperFunction,Conductor*%
%ADD23C,0.200000*%
%TD*%
%TA.AperFunction,Conductor*%
%ADD24C,0.700000*%
%TD*%
G04 APERTURE END LIST*
%TA.AperFunction,EtchedComponent*%
%TO.C,LD1*%
G36*
X135125000Y-67460000D02*
G01*
X136075000Y-67460000D01*
X136075000Y-68210000D01*
X135125000Y-68210000D01*
X135125000Y-67460000D01*
G37*
%TD.AperFunction*%
%TA.AperFunction,EtchedComponent*%
G36*
X135125000Y-69510000D02*
G01*
X136075000Y-69510000D01*
X136075000Y-70260000D01*
X135125000Y-70260000D01*
X135125000Y-69510000D01*
G37*
%TD.AperFunction*%
%TA.AperFunction,EtchedComponent*%
G36*
X135460000Y-66960000D02*
G01*
X135760000Y-66960000D01*
X135760000Y-67460000D01*
X135460000Y-67460000D01*
X135460000Y-66960000D01*
G37*
%TD.AperFunction*%
%TA.AperFunction,EtchedComponent*%
G36*
X135460000Y-70260000D02*
G01*
X135760000Y-70260000D01*
X135760000Y-70760000D01*
X135460000Y-70760000D01*
X135460000Y-70260000D01*
G37*
%TD.AperFunction*%
%TD*%
D10*
%TO.P,LD1,1,K*%
%TO.N,/LDK*%
X132460000Y-68830000D03*
D11*
X133850000Y-68860000D03*
D12*
X133855000Y-67205000D03*
D13*
X133870000Y-70510000D03*
D14*
%TO.P,LD1,2,A*%
%TO.N,+5VA*%
X135600000Y-68860000D03*
D15*
X136330000Y-68855000D03*
%TD*%
D16*
%TO.P,R1,1*%
%TO.N,Net-(IC1-AGND1)*%
X128880000Y-62415000D03*
%TO.P,R1,2*%
%TO.N,GND*%
X128880000Y-60765000D03*
%TD*%
D17*
%TO.P,C3,1*%
%TO.N,GND*%
X135365000Y-59250000D03*
%TO.P,C3,2*%
%TO.N,VCI*%
X136915000Y-59250000D03*
%TD*%
%TO.P,C2,1*%
%TO.N,+5VA*%
X138915000Y-60960000D03*
%TO.P,C2,2*%
%TO.N,GND*%
X140465000Y-60960000D03*
%TD*%
D18*
%TO.P,J1,1,Pin_1*%
%TO.N,EN1*%
X131040000Y-54690000D03*
D19*
%TO.P,J1,2,Pin_2*%
%TO.N,GND*%
X132310000Y-54690000D03*
%TO.P,J1,3,Pin_3*%
%TO.N,VCI*%
X133580000Y-54690000D03*
%TO.P,J1,4,Pin_4*%
%TO.N,GND*%
X134850000Y-54690000D03*
%TO.P,J1,5,Pin_5*%
%TO.N,+5VA*%
X136120000Y-54690000D03*
%TO.P,J1,6,Pin_6*%
%TO.N,GND*%
X137390000Y-54690000D03*
%TD*%
D20*
%TO.P,IC1,1,EN1*%
%TO.N,EN1*%
X131240000Y-61185000D03*
%TO.P,IC1,2,AGND1*%
%TO.N,Net-(IC1-AGND1)*%
X131240000Y-62455000D03*
%TO.P,IC1,3,LDK*%
%TO.N,/LDK*%
X131240000Y-63725000D03*
%TO.P,IC1,4,AGND2*%
%TO.N,unconnected-(IC1-AGND2-Pad4)*%
X131240000Y-64995000D03*
%TO.P,IC1,5,EN2*%
%TO.N,GND*%
X136640000Y-64995000D03*
%TO.P,IC1,6,GND_1*%
X136640000Y-63725000D03*
%TO.P,IC1,7,VDD*%
%TO.N,+5VA*%
X136640000Y-62455000D03*
%TO.P,IC1,8,CI*%
%TO.N,VCI*%
X136640000Y-61185000D03*
D21*
%TO.P,IC1,9,GND_2*%
%TO.N,GND*%
X133940000Y-63090000D03*
%TD*%
D17*
%TO.P,C1,1*%
%TO.N,+5VA*%
X138920000Y-62480000D03*
%TO.P,C1,2*%
%TO.N,GND*%
X140470000Y-62480000D03*
%TD*%
D22*
%TO.N,GND*%
X138050000Y-64970000D03*
X138070000Y-63710000D03*
X134180000Y-52930000D03*
X127070000Y-65080000D03*
X129590000Y-58430000D03*
X141100000Y-64940000D03*
X137290000Y-66540000D03*
X134320000Y-65260000D03*
X132850000Y-59390000D03*
X134730000Y-57560000D03*
X132620000Y-56550000D03*
X139820000Y-55270000D03*
X142110000Y-58200000D03*
X142610000Y-62420000D03*
X141140000Y-67190000D03*
X137430000Y-70170000D03*
X129370000Y-69390000D03*
X127070000Y-67190000D03*
X125700000Y-63790000D03*
X125520000Y-60910000D03*
X126750000Y-57880000D03*
X128590000Y-55680000D03*
%TD*%
D23*
%TO.N,GND*%
X138025000Y-64995000D02*
X138050000Y-64970000D01*
X136640000Y-64995000D02*
X138025000Y-64995000D01*
X138055000Y-63725000D02*
X138070000Y-63710000D01*
X136640000Y-63725000D02*
X138055000Y-63725000D01*
D24*
%TO.N,+5VA*%
X136120000Y-54690000D02*
X136120000Y-55470000D01*
X136120000Y-55470000D02*
X138915000Y-58265000D01*
X138915000Y-58265000D02*
X138915000Y-60960000D01*
%TO.N,/LDK*%
X131240000Y-63725000D02*
X130840000Y-63725000D01*
X130840000Y-63725000D02*
X130835000Y-63730000D01*
X129530000Y-63730000D02*
X128820000Y-64440000D01*
X130835000Y-63730000D02*
X129530000Y-63730000D01*
X131790000Y-70250000D02*
X132750000Y-71210000D01*
X128820000Y-64440000D02*
X128820000Y-65000000D01*
X128820000Y-65000000D02*
X131790000Y-67970000D01*
X131790000Y-67970000D02*
X131790000Y-70250000D01*
X132750000Y-71210000D02*
X133480000Y-71210000D01*
X133480000Y-71210000D02*
X133880000Y-70810000D01*
X133855000Y-66905000D02*
X133540000Y-66590000D01*
X132840000Y-66590000D02*
X131625000Y-67805000D01*
X133540000Y-66590000D02*
X132840000Y-66590000D01*
%TO.N,+5VA*%
X137570000Y-68860000D02*
X136780000Y-68860000D01*
X137960000Y-68850000D02*
X137580000Y-68850000D01*
X137580000Y-68850000D02*
X137570000Y-68860000D01*
X138920000Y-62480000D02*
X138920000Y-67890000D01*
X138920000Y-67890000D02*
X137960000Y-68850000D01*
X138920000Y-62480000D02*
X136665000Y-62480000D01*
X136665000Y-62480000D02*
X136640000Y-62455000D01*
X138920000Y-62480000D02*
X138920000Y-60965000D01*
X138920000Y-60965000D02*
X138915000Y-60960000D01*
D23*
%TO.N,VCI*%
X136640000Y-61185000D02*
X136640000Y-59525000D01*
X136640000Y-59525000D02*
X136915000Y-59250000D01*
X136860000Y-57970000D02*
X136860000Y-58100000D01*
X136860000Y-58100000D02*
X136915000Y-58155000D01*
X133580000Y-54690000D02*
X136860000Y-57970000D01*
X136915000Y-58155000D02*
X136915000Y-59250000D01*
%TO.N,Net-(IC1-AGND1)*%
X131240000Y-62455000D02*
X128920000Y-62455000D01*
X128920000Y-62455000D02*
X128880000Y-62415000D01*
%TO.N,EN1*%
X131040000Y-54690000D02*
X131040000Y-60985000D01*
X131040000Y-60985000D02*
X131240000Y-61185000D01*
%TD*%
%TA.AperFunction,Conductor*%
%TO.N,GND*%
G36*
X132560000Y-55659159D02*
G01*
X132694534Y-55618349D01*
X132868259Y-55525492D01*
X132873320Y-55522111D01*
X132874444Y-55523793D01*
X132930203Y-55500086D01*
X132999075Y-55511851D01*
X133016186Y-55522843D01*
X133016399Y-55522526D01*
X133021457Y-55525906D01*
X133021462Y-55525910D01*
X133159594Y-55599743D01*
X133192524Y-55617345D01*
X133195273Y-55618814D01*
X133383868Y-55676024D01*
X133580000Y-55695341D01*
X133663745Y-55687092D01*
X133732389Y-55700110D01*
X133763579Y-55722814D01*
X136250527Y-58209762D01*
X136282621Y-58265352D01*
X136289429Y-58290762D01*
X136287765Y-58360612D01*
X136248602Y-58418474D01*
X136239885Y-58424716D01*
X136236952Y-58427035D01*
X136227324Y-58436663D01*
X136166000Y-58470146D01*
X136096308Y-58465159D01*
X136051965Y-58436660D01*
X136042732Y-58427427D01*
X136042728Y-58427424D01*
X135898492Y-58338457D01*
X135898481Y-58338452D01*
X135737606Y-58285144D01*
X135638322Y-58275000D01*
X135615000Y-58275000D01*
X135615000Y-60224999D01*
X135622847Y-60232846D01*
X135656332Y-60294169D01*
X135651348Y-60363861D01*
X135609478Y-60419793D01*
X135532452Y-60477455D01*
X135446206Y-60592664D01*
X135446202Y-60592671D01*
X135395908Y-60727517D01*
X135389501Y-60787116D01*
X135389501Y-60787123D01*
X135389500Y-60787135D01*
X135389500Y-61346331D01*
X135369815Y-61413370D01*
X135317011Y-61459125D01*
X135247853Y-61469069D01*
X135222167Y-61462513D01*
X135192380Y-61451403D01*
X135192372Y-61451401D01*
X135132844Y-61445000D01*
X134190000Y-61445000D01*
X134190000Y-64735000D01*
X135132828Y-64735000D01*
X135132844Y-64734999D01*
X135192372Y-64728598D01*
X135192376Y-64728597D01*
X135249702Y-64707216D01*
X135319394Y-64702232D01*
X135380717Y-64735716D01*
X135380717Y-64735717D01*
X135390000Y-64745000D01*
X136390000Y-64745000D01*
X136390000Y-63599000D01*
X136409685Y-63531961D01*
X136462489Y-63486206D01*
X136514000Y-63475000D01*
X136766000Y-63475000D01*
X136833039Y-63494685D01*
X136878794Y-63547489D01*
X136890000Y-63599000D01*
X136890000Y-65845000D01*
X137437828Y-65845000D01*
X137437844Y-65844999D01*
X137497372Y-65838598D01*
X137497379Y-65838596D01*
X137632086Y-65788354D01*
X137632093Y-65788350D01*
X137747187Y-65702190D01*
X137747190Y-65702187D01*
X137833350Y-65587093D01*
X137836668Y-65581018D01*
X137886074Y-65531613D01*
X137954347Y-65516762D01*
X138019811Y-65541179D01*
X138061682Y-65597113D01*
X138069500Y-65640446D01*
X138069500Y-67486349D01*
X138049815Y-67553388D01*
X138033181Y-67574030D01*
X137644030Y-67963181D01*
X137582707Y-67996666D01*
X137556349Y-67999500D01*
X137496232Y-67999500D01*
X137473783Y-68003965D01*
X137457938Y-68007117D01*
X137433748Y-68009500D01*
X136699500Y-68009500D01*
X136632461Y-67989815D01*
X136586706Y-67937011D01*
X136575500Y-67885500D01*
X136575500Y-67394110D01*
X136575500Y-67394108D01*
X136541392Y-67266814D01*
X136475500Y-67152686D01*
X136382314Y-67059500D01*
X136382312Y-67059499D01*
X136382310Y-67059497D01*
X136322500Y-67024966D01*
X136274284Y-66974399D01*
X136260500Y-66917579D01*
X136260500Y-66894110D01*
X136260500Y-66894108D01*
X136226392Y-66766814D01*
X136160500Y-66652686D01*
X136067314Y-66559500D01*
X135989424Y-66514530D01*
X135953187Y-66493608D01*
X135889539Y-66476554D01*
X135825892Y-66459500D01*
X135525892Y-66459500D01*
X135394108Y-66459500D01*
X135266812Y-66493608D01*
X135152686Y-66559500D01*
X135152683Y-66559502D01*
X135059502Y-66652683D01*
X135059500Y-66652686D01*
X134993608Y-66766812D01*
X134966605Y-66867593D01*
X134930240Y-66927254D01*
X134867393Y-66957783D01*
X134846830Y-66959500D01*
X134829499Y-66959500D01*
X134762460Y-66939815D01*
X134716705Y-66887011D01*
X134705499Y-66835500D01*
X134705499Y-66821232D01*
X134705498Y-66821228D01*
X134672816Y-66656924D01*
X134672815Y-66656918D01*
X134672812Y-66656911D01*
X134672811Y-66656907D01*
X134608706Y-66502142D01*
X134608705Y-66502140D01*
X134608704Y-66502137D01*
X134515626Y-66362838D01*
X134515622Y-66362834D01*
X134515620Y-66362831D01*
X134515619Y-66362830D01*
X134082165Y-65929375D01*
X134082161Y-65929372D01*
X133942866Y-65836297D01*
X133942863Y-65836296D01*
X133833416Y-65790962D01*
X133833414Y-65790961D01*
X133788086Y-65772185D01*
X133788074Y-65772182D01*
X133623771Y-65739500D01*
X133623767Y-65739500D01*
X132756233Y-65739500D01*
X132756228Y-65739500D01*
X132591925Y-65772182D01*
X132591914Y-65772185D01*
X132579746Y-65777225D01*
X132510276Y-65784691D01*
X132447798Y-65753413D01*
X132412148Y-65693323D01*
X132414645Y-65623498D01*
X132433035Y-65588347D01*
X132433796Y-65587331D01*
X132484091Y-65452483D01*
X132490500Y-65392873D01*
X132490500Y-65245000D01*
X135390000Y-65245000D01*
X135390000Y-65392844D01*
X135396401Y-65452372D01*
X135396403Y-65452379D01*
X135446645Y-65587086D01*
X135446649Y-65587093D01*
X135532809Y-65702187D01*
X135532812Y-65702190D01*
X135647906Y-65788350D01*
X135647913Y-65788354D01*
X135782620Y-65838596D01*
X135782627Y-65838598D01*
X135842155Y-65844999D01*
X135842172Y-65845000D01*
X136390000Y-65845000D01*
X136390000Y-65245000D01*
X135390000Y-65245000D01*
X132490500Y-65245000D01*
X132490499Y-64833666D01*
X132510183Y-64766629D01*
X132562987Y-64720874D01*
X132632146Y-64710930D01*
X132657833Y-64717487D01*
X132687616Y-64728595D01*
X132687627Y-64728598D01*
X132747155Y-64734999D01*
X132747172Y-64735000D01*
X133690000Y-64735000D01*
X133690000Y-61445000D01*
X132747155Y-61445000D01*
X132687627Y-61451401D01*
X132687616Y-61451404D01*
X132657831Y-61462513D01*
X132588139Y-61467497D01*
X132526816Y-61434011D01*
X132493332Y-61372687D01*
X132490499Y-61346337D01*
X132490499Y-60787128D01*
X132484091Y-60727517D01*
X132462539Y-60669734D01*
X132433797Y-60592671D01*
X132433793Y-60592664D01*
X132347547Y-60477455D01*
X132347544Y-60477452D01*
X132232335Y-60391206D01*
X132232328Y-60391202D01*
X132097482Y-60340908D01*
X132097483Y-60340908D01*
X132037883Y-60334501D01*
X132037881Y-60334500D01*
X132037873Y-60334500D01*
X132037865Y-60334500D01*
X131764500Y-60334500D01*
X131697461Y-60314815D01*
X131651706Y-60262011D01*
X131640500Y-60210500D01*
X131640500Y-59500000D01*
X134415001Y-59500000D01*
X134415001Y-59548322D01*
X134425144Y-59647607D01*
X134478452Y-59808481D01*
X134478457Y-59808492D01*
X134567424Y-59952728D01*
X134567427Y-59952732D01*
X134687267Y-60072572D01*
X134687271Y-60072575D01*
X134831507Y-60161542D01*
X134831518Y-60161547D01*
X134992393Y-60214855D01*
X135091683Y-60224999D01*
X135115000Y-60224998D01*
X135115000Y-59500000D01*
X134415001Y-59500000D01*
X131640500Y-59500000D01*
X131640500Y-59000000D01*
X134415000Y-59000000D01*
X135115000Y-59000000D01*
X135115000Y-58274999D01*
X135091693Y-58275000D01*
X135091674Y-58275001D01*
X134992392Y-58285144D01*
X134831518Y-58338452D01*
X134831507Y-58338457D01*
X134687271Y-58427424D01*
X134687267Y-58427427D01*
X134567427Y-58547267D01*
X134567424Y-58547271D01*
X134478457Y-58691507D01*
X134478452Y-58691518D01*
X134425144Y-58852393D01*
X134415000Y-58951677D01*
X134415000Y-59000000D01*
X131640500Y-59000000D01*
X131640500Y-55772790D01*
X131660185Y-55705751D01*
X131712989Y-55659996D01*
X131721146Y-55656616D01*
X131782331Y-55633796D01*
X131790822Y-55627439D01*
X131856284Y-55603021D01*
X131919628Y-55616502D01*
X131919830Y-55616016D01*
X131922461Y-55617105D01*
X131923585Y-55617345D01*
X131925462Y-55618348D01*
X132060000Y-55659159D01*
X132060000Y-54899618D01*
X132110446Y-54950064D01*
X132184555Y-54992851D01*
X132267213Y-55015000D01*
X132352787Y-55015000D01*
X132435445Y-54992851D01*
X132509554Y-54950064D01*
X132560000Y-54899618D01*
X132560000Y-55659159D01*
G37*
%TD.AperFunction*%
%TA.AperFunction,Conductor*%
G36*
X134497143Y-51465715D02*
G01*
X135134965Y-51505054D01*
X135142566Y-51505758D01*
X135776750Y-51584288D01*
X135784269Y-51585454D01*
X136412457Y-51702883D01*
X136419879Y-51704508D01*
X137039637Y-51860384D01*
X137046944Y-51862463D01*
X137655926Y-52056194D01*
X137663106Y-52058724D01*
X138259020Y-52289582D01*
X138266007Y-52292540D01*
X138846561Y-52559637D01*
X138853382Y-52563033D01*
X139416389Y-52865361D01*
X139423003Y-52869180D01*
X139966316Y-53205586D01*
X139972682Y-53209805D01*
X140494236Y-53579005D01*
X140500328Y-53583604D01*
X140952755Y-53947671D01*
X140998197Y-53984238D01*
X141003996Y-53989207D01*
X141476228Y-54419704D01*
X141481711Y-54425020D01*
X141926578Y-54883805D01*
X141931711Y-54889436D01*
X142347469Y-55374713D01*
X142352257Y-55380662D01*
X142737356Y-55890614D01*
X142741765Y-55896843D01*
X142947493Y-56207317D01*
X143094747Y-56429544D01*
X143098767Y-56436037D01*
X143418280Y-56989450D01*
X143421892Y-56996176D01*
X143706739Y-57568228D01*
X143709915Y-57575131D01*
X143959001Y-58163620D01*
X143961760Y-58170741D01*
X144174146Y-58773449D01*
X144176461Y-58780727D01*
X144351336Y-59395348D01*
X144353199Y-59402754D01*
X144489906Y-60026979D01*
X144491310Y-60034486D01*
X144589334Y-60665968D01*
X144590272Y-60673548D01*
X144649233Y-61309839D01*
X144649703Y-61317461D01*
X144669382Y-61956181D01*
X144669382Y-61963819D01*
X144649703Y-62602538D01*
X144649233Y-62610160D01*
X144590272Y-63246451D01*
X144589334Y-63254031D01*
X144491310Y-63885513D01*
X144489906Y-63893020D01*
X144353199Y-64517245D01*
X144351336Y-64524651D01*
X144176461Y-65139272D01*
X144174146Y-65146550D01*
X143961760Y-65749258D01*
X143959001Y-65756379D01*
X143709920Y-66344857D01*
X143706733Y-66351784D01*
X143582036Y-66602211D01*
X143421893Y-66923821D01*
X143418280Y-66930549D01*
X143098767Y-67483962D01*
X143094747Y-67490455D01*
X142741769Y-68023151D01*
X142737356Y-68029385D01*
X142352257Y-68539337D01*
X142347469Y-68545286D01*
X141931711Y-69030563D01*
X141926566Y-69036208D01*
X141481711Y-69494979D01*
X141476228Y-69500295D01*
X141003996Y-69930792D01*
X140998197Y-69935761D01*
X140500331Y-70336392D01*
X140494236Y-70340994D01*
X139972682Y-70710194D01*
X139966316Y-70714413D01*
X139423003Y-71050819D01*
X139416389Y-71054638D01*
X138853390Y-71356962D01*
X138846553Y-71360366D01*
X138266030Y-71627449D01*
X138258997Y-71630426D01*
X137663117Y-71861271D01*
X137655914Y-71863809D01*
X137046964Y-72057530D01*
X137039618Y-72059620D01*
X136419898Y-72215486D01*
X136412438Y-72217120D01*
X135784283Y-72334542D01*
X135776736Y-72335713D01*
X135142568Y-72414240D01*
X135134964Y-72414945D01*
X134533588Y-72452037D01*
X134497142Y-72454285D01*
X134489510Y-72454520D01*
X133850490Y-72454520D01*
X133842857Y-72454285D01*
X133803792Y-72451875D01*
X133205035Y-72414945D01*
X133197431Y-72414240D01*
X132563263Y-72335713D01*
X132555716Y-72334542D01*
X131927561Y-72217120D01*
X131920101Y-72215486D01*
X131300381Y-72059620D01*
X131293035Y-72057530D01*
X130684085Y-71863809D01*
X130676882Y-71861271D01*
X130378942Y-71745848D01*
X130080995Y-71630423D01*
X130073976Y-71627452D01*
X129493446Y-71360366D01*
X129486609Y-71356962D01*
X128923610Y-71054638D01*
X128916996Y-71050819D01*
X128373683Y-70714413D01*
X128367317Y-70710194D01*
X127845763Y-70340994D01*
X127839668Y-70336392D01*
X127341802Y-69935761D01*
X127336003Y-69930792D01*
X126863771Y-69500295D01*
X126858288Y-69494979D01*
X126723047Y-69355507D01*
X126413419Y-69036193D01*
X126408288Y-69030563D01*
X125992530Y-68545286D01*
X125987742Y-68539337D01*
X125793638Y-68282302D01*
X125602635Y-68029374D01*
X125598238Y-68023162D01*
X125245240Y-67490436D01*
X125241244Y-67483981D01*
X124921719Y-66930549D01*
X124918113Y-66923835D01*
X124633253Y-66351757D01*
X124630091Y-66344883D01*
X124380990Y-65756358D01*
X124378247Y-65749279D01*
X124165853Y-65146550D01*
X124163538Y-65139272D01*
X124048717Y-64735717D01*
X123988657Y-64524627D01*
X123986805Y-64517268D01*
X123850090Y-63893004D01*
X123848692Y-63885530D01*
X123750663Y-63254017D01*
X123749727Y-63246451D01*
X123743822Y-63182728D01*
X123696460Y-62671613D01*
X127904500Y-62671613D01*
X127910913Y-62742192D01*
X127961522Y-62904606D01*
X128049530Y-63050188D01*
X128169811Y-63170469D01*
X128169813Y-63170470D01*
X128169815Y-63170472D01*
X128315394Y-63258478D01*
X128477804Y-63309086D01*
X128477808Y-63309086D01*
X128484068Y-63311037D01*
X128483533Y-63312753D01*
X128537645Y-63341049D01*
X128572227Y-63401759D01*
X128568498Y-63471529D01*
X128539236Y-63517974D01*
X128159375Y-63897834D01*
X128159372Y-63897838D01*
X128066299Y-64037130D01*
X128066292Y-64037143D01*
X128021825Y-64144500D01*
X128002184Y-64191916D01*
X128002181Y-64191925D01*
X127969500Y-64356228D01*
X127969500Y-65083771D01*
X128002181Y-65248073D01*
X128002184Y-65248082D01*
X128066296Y-65402863D01*
X128066297Y-65402866D01*
X128159372Y-65542161D01*
X128159375Y-65542165D01*
X130903181Y-68285969D01*
X130936666Y-68347292D01*
X130939500Y-68373650D01*
X130939500Y-70333767D01*
X130946205Y-70367481D01*
X130972182Y-70498074D01*
X130972184Y-70498082D01*
X131036296Y-70652863D01*
X131036297Y-70652866D01*
X131129372Y-70792161D01*
X131129375Y-70792165D01*
X132207834Y-71870624D01*
X132207838Y-71870627D01*
X132347137Y-71963704D01*
X132347139Y-71963705D01*
X132347143Y-71963707D01*
X132429222Y-71997703D01*
X132456584Y-72009037D01*
X132501918Y-72027816D01*
X132651302Y-72057530D01*
X132666228Y-72060499D01*
X132666232Y-72060500D01*
X132666233Y-72060500D01*
X133563768Y-72060500D01*
X133563769Y-72060499D01*
X133618538Y-72049605D01*
X133728074Y-72027818D01*
X133728078Y-72027816D01*
X133728082Y-72027816D01*
X133773415Y-72009037D01*
X133882863Y-71963704D01*
X134022162Y-71870627D01*
X134540626Y-71352162D01*
X134633703Y-71212863D01*
X134697815Y-71058082D01*
X134718680Y-70953186D01*
X134731688Y-70887792D01*
X134733856Y-70888223D01*
X134756271Y-70832653D01*
X134813290Y-70792272D01*
X134883089Y-70789129D01*
X134943507Y-70824220D01*
X134973318Y-70877463D01*
X134993608Y-70953187D01*
X135026554Y-71010250D01*
X135059500Y-71067314D01*
X135152686Y-71160500D01*
X135266814Y-71226392D01*
X135394108Y-71260500D01*
X135394110Y-71260500D01*
X135825890Y-71260500D01*
X135825892Y-71260500D01*
X135953186Y-71226392D01*
X136067314Y-71160500D01*
X136160500Y-71067314D01*
X136226392Y-70953186D01*
X136260500Y-70825892D01*
X136260500Y-70802420D01*
X136280185Y-70735381D01*
X136322497Y-70695034D01*
X136382314Y-70660500D01*
X136475500Y-70567314D01*
X136541392Y-70453186D01*
X136575500Y-70325892D01*
X136575500Y-69834500D01*
X136595185Y-69767461D01*
X136647989Y-69721706D01*
X136699500Y-69710500D01*
X137653768Y-69710500D01*
X137653768Y-69710499D01*
X137692061Y-69702882D01*
X137716252Y-69700500D01*
X138043768Y-69700500D01*
X138043769Y-69700499D01*
X138114231Y-69686484D01*
X138208074Y-69667818D01*
X138208078Y-69667816D01*
X138208082Y-69667816D01*
X138253415Y-69649037D01*
X138362863Y-69603704D01*
X138502162Y-69510627D01*
X139580627Y-68432162D01*
X139673704Y-68292863D01*
X139719035Y-68183418D01*
X139719037Y-68183417D01*
X139737815Y-68138084D01*
X139737818Y-68138074D01*
X139770499Y-67973771D01*
X139770500Y-67973768D01*
X139770500Y-63508254D01*
X139790185Y-63441215D01*
X139842989Y-63395460D01*
X139912147Y-63385516D01*
X139933504Y-63390548D01*
X140097393Y-63444855D01*
X140196683Y-63454999D01*
X140220000Y-63454998D01*
X140220000Y-62730000D01*
X140720000Y-62730000D01*
X140720000Y-63454999D01*
X140743308Y-63454999D01*
X140743322Y-63454998D01*
X140842607Y-63444855D01*
X141003481Y-63391547D01*
X141003492Y-63391542D01*
X141147728Y-63302575D01*
X141147732Y-63302572D01*
X141267572Y-63182732D01*
X141267575Y-63182728D01*
X141356542Y-63038492D01*
X141356547Y-63038481D01*
X141409855Y-62877606D01*
X141419999Y-62778322D01*
X141420000Y-62778309D01*
X141420000Y-62730000D01*
X140720000Y-62730000D01*
X140220000Y-62730000D01*
X140220000Y-61951962D01*
X140217834Y-61947996D01*
X140215000Y-61921638D01*
X140215000Y-61210000D01*
X140715000Y-61210000D01*
X140715000Y-61488037D01*
X140717166Y-61492004D01*
X140720000Y-61518362D01*
X140720000Y-62230000D01*
X141419999Y-62230000D01*
X141419999Y-62181692D01*
X141419998Y-62181677D01*
X141409855Y-62082392D01*
X141356547Y-61921518D01*
X141356542Y-61921507D01*
X141269902Y-61781043D01*
X141251461Y-61713651D01*
X141269902Y-61650848D01*
X141351544Y-61518488D01*
X141351547Y-61518481D01*
X141404855Y-61357606D01*
X141414999Y-61258322D01*
X141415000Y-61258309D01*
X141415000Y-61210000D01*
X140715000Y-61210000D01*
X140215000Y-61210000D01*
X140215000Y-59985000D01*
X140715000Y-59985000D01*
X140715000Y-60710000D01*
X141414999Y-60710000D01*
X141414999Y-60661692D01*
X141414998Y-60661677D01*
X141404855Y-60562392D01*
X141351547Y-60401518D01*
X141351542Y-60401507D01*
X141262575Y-60257271D01*
X141262572Y-60257267D01*
X141142732Y-60137427D01*
X141142728Y-60137424D01*
X140998492Y-60048457D01*
X140998481Y-60048452D01*
X140837606Y-59995144D01*
X140738322Y-59985000D01*
X140715000Y-59985000D01*
X140215000Y-59985000D01*
X140215000Y-59984999D01*
X140191693Y-59985000D01*
X140191674Y-59985001D01*
X140092392Y-59995144D01*
X139928504Y-60049451D01*
X139858675Y-60051853D01*
X139798633Y-60016121D01*
X139767441Y-59953600D01*
X139765500Y-59931745D01*
X139765500Y-58181232D01*
X139765499Y-58181228D01*
X139761997Y-58163620D01*
X139732816Y-58016918D01*
X139694003Y-57923216D01*
X139668704Y-57862137D01*
X139668703Y-57862135D01*
X139668702Y-57862133D01*
X139575627Y-57722838D01*
X139575624Y-57722834D01*
X137688039Y-55835250D01*
X137654554Y-55773927D01*
X137659538Y-55704235D01*
X137701410Y-55648302D01*
X137739727Y-55628908D01*
X137774537Y-55618349D01*
X137948253Y-55525496D01*
X137948260Y-55525492D01*
X138100528Y-55400528D01*
X138225492Y-55248260D01*
X138225496Y-55248253D01*
X138318347Y-55074541D01*
X138359160Y-54940000D01*
X137599618Y-54940000D01*
X137650064Y-54889554D01*
X137692851Y-54815445D01*
X137715000Y-54732787D01*
X137715000Y-54647213D01*
X137692851Y-54564555D01*
X137650064Y-54490446D01*
X137589554Y-54429936D01*
X137515445Y-54387149D01*
X137432787Y-54365000D01*
X137347213Y-54365000D01*
X137264555Y-54387149D01*
X137190446Y-54429936D01*
X137140000Y-54480382D01*
X137140000Y-53720839D01*
X137640000Y-53720839D01*
X137640000Y-54440000D01*
X138359160Y-54440000D01*
X138359160Y-54439999D01*
X138318347Y-54305458D01*
X138225496Y-54131746D01*
X138225492Y-54131739D01*
X138100528Y-53979471D01*
X137948260Y-53854507D01*
X137948253Y-53854503D01*
X137774541Y-53761652D01*
X137640000Y-53720839D01*
X137140000Y-53720839D01*
X137139999Y-53720839D01*
X137005458Y-53761652D01*
X136831742Y-53854505D01*
X136826673Y-53857893D01*
X136825556Y-53856221D01*
X136769715Y-53879921D01*
X136700851Y-53868111D01*
X136683811Y-53857158D01*
X136683601Y-53857473D01*
X136678532Y-53854086D01*
X136504733Y-53761188D01*
X136504727Y-53761186D01*
X136316132Y-53703976D01*
X136316129Y-53703975D01*
X136120000Y-53684659D01*
X135923870Y-53703975D01*
X135735266Y-53761188D01*
X135561467Y-53854086D01*
X135556399Y-53857473D01*
X135555386Y-53855958D01*
X135498936Y-53879920D01*
X135430071Y-53868115D01*
X135413574Y-53857511D01*
X135413322Y-53857890D01*
X135408253Y-53854503D01*
X135234541Y-53761652D01*
X135100000Y-53720839D01*
X135100000Y-54480382D01*
X135049554Y-54429936D01*
X134975445Y-54387149D01*
X134892787Y-54365000D01*
X134807213Y-54365000D01*
X134724555Y-54387149D01*
X134650446Y-54429936D01*
X134600000Y-54480382D01*
X134600000Y-53720839D01*
X134599999Y-53720839D01*
X134465458Y-53761652D01*
X134291742Y-53854505D01*
X134286673Y-53857893D01*
X134285556Y-53856221D01*
X134229715Y-53879921D01*
X134160851Y-53868111D01*
X134143811Y-53857158D01*
X134143601Y-53857473D01*
X134138532Y-53854086D01*
X133964733Y-53761188D01*
X133964727Y-53761186D01*
X133776132Y-53703976D01*
X133776129Y-53703975D01*
X133580000Y-53684659D01*
X133383870Y-53703975D01*
X133195266Y-53761188D01*
X133021467Y-53854086D01*
X133016399Y-53857473D01*
X133015386Y-53855958D01*
X132958936Y-53879920D01*
X132890071Y-53868115D01*
X132873574Y-53857511D01*
X132873322Y-53857890D01*
X132868253Y-53854503D01*
X132694541Y-53761652D01*
X132560000Y-53720839D01*
X132560000Y-54480382D01*
X132509554Y-54429936D01*
X132435445Y-54387149D01*
X132352787Y-54365000D01*
X132267213Y-54365000D01*
X132184555Y-54387149D01*
X132110446Y-54429936D01*
X132060000Y-54480382D01*
X132060000Y-53720839D01*
X132059999Y-53720839D01*
X131925464Y-53761650D01*
X131923586Y-53762655D01*
X131922486Y-53762883D01*
X131919838Y-53763981D01*
X131919629Y-53763478D01*
X131855183Y-53776895D01*
X131790824Y-53752561D01*
X131782335Y-53746206D01*
X131782328Y-53746202D01*
X131647482Y-53695908D01*
X131647483Y-53695908D01*
X131587883Y-53689501D01*
X131587881Y-53689500D01*
X131587873Y-53689500D01*
X131587864Y-53689500D01*
X130492129Y-53689500D01*
X130492123Y-53689501D01*
X130432516Y-53695908D01*
X130297671Y-53746202D01*
X130297664Y-53746206D01*
X130182455Y-53832452D01*
X130182452Y-53832455D01*
X130096206Y-53947664D01*
X130096202Y-53947671D01*
X130045908Y-54082517D01*
X130039501Y-54142116D01*
X130039500Y-54142135D01*
X130039500Y-55237870D01*
X130039501Y-55237876D01*
X130045908Y-55297483D01*
X130096202Y-55432328D01*
X130096206Y-55432335D01*
X130182452Y-55547544D01*
X130182455Y-55547547D01*
X130297664Y-55633793D01*
X130297669Y-55633796D01*
X130358833Y-55656608D01*
X130414766Y-55698478D01*
X130439184Y-55763942D01*
X130439500Y-55772790D01*
X130439500Y-60233560D01*
X130419815Y-60300599D01*
X130367011Y-60346354D01*
X130358833Y-60349742D01*
X130247671Y-60391202D01*
X130247664Y-60391206D01*
X130132455Y-60477452D01*
X130076055Y-60552792D01*
X130020121Y-60594663D01*
X129950429Y-60599646D01*
X129889106Y-60566160D01*
X129855622Y-60504836D01*
X129853298Y-60489699D01*
X129848591Y-60437897D01*
X129848590Y-60437892D01*
X129798018Y-60275603D01*
X129710072Y-60130122D01*
X129589877Y-60009927D01*
X129444395Y-59921980D01*
X129444396Y-59921980D01*
X129282105Y-59871409D01*
X129282106Y-59871409D01*
X129211572Y-59865000D01*
X129130000Y-59865000D01*
X129130000Y-60891000D01*
X129110315Y-60958039D01*
X129057511Y-61003794D01*
X129006000Y-61015000D01*
X127905001Y-61015000D01*
X127905001Y-61021582D01*
X127911408Y-61092102D01*
X127911409Y-61092107D01*
X127961981Y-61254396D01*
X128049927Y-61399877D01*
X128152015Y-61501965D01*
X128185500Y-61563288D01*
X128180516Y-61632980D01*
X128152015Y-61677327D01*
X128049531Y-61779810D01*
X128049530Y-61779811D01*
X127961522Y-61925393D01*
X127910913Y-62087807D01*
X127904500Y-62158386D01*
X127904500Y-62671613D01*
X123696460Y-62671613D01*
X123690765Y-62610153D01*
X123690296Y-62602538D01*
X123670617Y-61963797D01*
X123670617Y-61956202D01*
X123690296Y-61317451D01*
X123690766Y-61309839D01*
X123692510Y-61291022D01*
X123749729Y-60673529D01*
X123750662Y-60665986D01*
X123774099Y-60515000D01*
X127905000Y-60515000D01*
X128630000Y-60515000D01*
X128630000Y-59865000D01*
X128629999Y-59864999D01*
X128548417Y-59865000D01*
X128477897Y-59871408D01*
X128477892Y-59871409D01*
X128315603Y-59921981D01*
X128170122Y-60009927D01*
X128049927Y-60130122D01*
X127961980Y-60275604D01*
X127911409Y-60437893D01*
X127905000Y-60508427D01*
X127905000Y-60515000D01*
X123774099Y-60515000D01*
X123848693Y-60034463D01*
X123850088Y-60027001D01*
X123986807Y-59402723D01*
X123988655Y-59395379D01*
X124163540Y-58780719D01*
X124165853Y-58773449D01*
X124378251Y-58170709D01*
X124380985Y-58163652D01*
X124630096Y-57575104D01*
X124633247Y-57568254D01*
X124918120Y-56996151D01*
X124921711Y-56989464D01*
X125241252Y-56436003D01*
X125245231Y-56429577D01*
X125598248Y-55896821D01*
X125602624Y-55890640D01*
X125987746Y-55380656D01*
X125992530Y-55374713D01*
X126181819Y-55153773D01*
X126408302Y-54889420D01*
X126413404Y-54883822D01*
X126858304Y-54425003D01*
X126863753Y-54419721D01*
X127336019Y-53989193D01*
X127341785Y-53984252D01*
X127839687Y-53583592D01*
X127845744Y-53579018D01*
X128367329Y-53209796D01*
X128373671Y-53205593D01*
X128917015Y-52869169D01*
X128923592Y-52865371D01*
X129486629Y-52563026D01*
X129493425Y-52559643D01*
X130074004Y-52292535D01*
X130080967Y-52289587D01*
X130676903Y-52058720D01*
X130684062Y-52056197D01*
X131293063Y-51862460D01*
X131300353Y-51860386D01*
X131920127Y-51704507D01*
X131927535Y-51702884D01*
X132555735Y-51585453D01*
X132563244Y-51584288D01*
X133197436Y-51505758D01*
X133205031Y-51505054D01*
X133842857Y-51465715D01*
X133850490Y-51465480D01*
X134489510Y-51465480D01*
X134497143Y-51465715D01*
G37*
%TD.AperFunction*%
%TD*%
M02*
