%TF.GenerationSoftware,KiCad,Pcbnew,8.0.1*%
%TF.CreationDate,2024-09-25T01:00:24+02:00*%
%TF.ProjectId,speckle_amp_pcb_rev1,73706563-6b6c-4655-9f61-6d705f706362,rev?*%
%TF.SameCoordinates,Original*%
%TF.FileFunction,Drillmap*%
%TF.FilePolarity,Positive*%
%FSLAX45Y45*%
G04 Gerber Fmt 4.5, Leading zero omitted, Abs format (unit mm)*
G04 Created by KiCad (PCBNEW 8.0.1) date 2024-09-25 01:00:24*
%MOMM*%
%LPD*%
G01*
G04 APERTURE LIST*
%ADD10C,0.200000*%
%ADD11C,0.100000*%
%ADD12C,0.320000*%
G04 APERTURE END LIST*
D10*
X14635000Y-8760000D02*
X21635000Y-8760000D01*
X21635000Y-12260000D01*
X14635000Y-12260000D01*
X14635000Y-8760000D01*
D11*
X14720000Y-9527500D02*
X14740000Y-9547500D01*
X14740000Y-9527500D02*
X14720000Y-9547500D01*
X14720000Y-9725000D02*
X14740000Y-9745000D01*
X14740000Y-9725000D02*
X14720000Y-9745000D01*
X14730000Y-11292500D02*
X14750000Y-11312500D01*
X14750000Y-11292500D02*
X14730000Y-11312500D01*
X14730000Y-11497500D02*
X14750000Y-11517500D01*
X14750000Y-11497500D02*
X14730000Y-11517500D01*
X14732500Y-10035000D02*
X14752500Y-10055000D01*
X14752500Y-10035000D02*
X14732500Y-10055000D01*
X14732500Y-10287500D02*
X14752500Y-10307500D01*
X14752500Y-10287500D02*
X14732500Y-10307500D01*
X14732500Y-10490000D02*
X14752500Y-10510000D01*
X14752500Y-10490000D02*
X14732500Y-10510000D01*
X14732500Y-10750000D02*
X14752500Y-10770000D01*
X14752500Y-10750000D02*
X14732500Y-10770000D01*
X14732500Y-11075000D02*
X14752500Y-11095000D01*
X14752500Y-11075000D02*
X14732500Y-11095000D01*
X14892500Y-9897500D02*
X14912500Y-9917500D01*
X14912500Y-9897500D02*
X14892500Y-9917500D01*
X14900000Y-9530000D02*
X14920000Y-9550000D01*
X14920000Y-9530000D02*
X14900000Y-9550000D01*
X14905000Y-10880000D02*
X14925000Y-10900000D01*
X14925000Y-10880000D02*
X14905000Y-10900000D01*
X14920000Y-10610000D02*
X14940000Y-10630000D01*
X14940000Y-10610000D02*
X14920000Y-10630000D01*
X14945000Y-11332500D02*
X14965000Y-11352500D01*
X14965000Y-11332500D02*
X14945000Y-11352500D01*
X15005000Y-11097500D02*
X15025000Y-11117500D01*
X15025000Y-11097500D02*
X15005000Y-11117500D01*
X15007500Y-9720000D02*
X15027500Y-9740000D01*
X15027500Y-9720000D02*
X15007500Y-9740000D01*
X15025000Y-10112500D02*
X15045000Y-10132500D01*
X15045000Y-10112500D02*
X15025000Y-10132500D01*
X15082500Y-10447500D02*
X15102500Y-10467500D01*
X15102500Y-10447500D02*
X15082500Y-10467500D01*
X15097500Y-9530000D02*
X15117500Y-9550000D01*
X15117500Y-9530000D02*
X15097500Y-9550000D01*
X15175000Y-11305000D02*
X15195000Y-11325000D01*
X15195000Y-11305000D02*
X15175000Y-11325000D01*
X15220000Y-9857500D02*
X15240000Y-9877500D01*
X15240000Y-9857500D02*
X15220000Y-9877500D01*
X15225000Y-9740000D02*
X15245000Y-9760000D01*
X15245000Y-9740000D02*
X15225000Y-9760000D01*
X15229000Y-11066000D02*
X15249000Y-11086000D01*
X15249000Y-11066000D02*
X15229000Y-11086000D01*
X15231000Y-10976000D02*
X15251000Y-10996000D01*
X15251000Y-10976000D02*
X15231000Y-10996000D01*
X15250000Y-11138000D02*
X15270000Y-11158000D01*
X15270000Y-11138000D02*
X15250000Y-11158000D01*
X15305000Y-9927500D02*
X15325000Y-9947500D01*
X15325000Y-9927500D02*
X15305000Y-9947500D01*
X15305000Y-11615000D02*
X15325000Y-11635000D01*
X15325000Y-11615000D02*
X15305000Y-11635000D01*
X15307500Y-8825000D02*
X15327500Y-8845000D01*
X15327500Y-8825000D02*
X15307500Y-8845000D01*
X15309000Y-10933000D02*
X15329000Y-10953000D01*
X15329000Y-10933000D02*
X15309000Y-10953000D01*
X15320000Y-10297500D02*
X15340000Y-10317500D01*
X15340000Y-10297500D02*
X15320000Y-10317500D01*
X15337500Y-9687500D02*
X15357500Y-9707500D01*
X15357500Y-9687500D02*
X15337500Y-9707500D01*
X15352500Y-10762500D02*
X15372500Y-10782500D01*
X15372500Y-10762500D02*
X15352500Y-10782500D01*
X15355000Y-9332500D02*
X15375000Y-9352500D01*
X15375000Y-9332500D02*
X15355000Y-9352500D01*
X15369000Y-11143000D02*
X15389000Y-11163000D01*
X15389000Y-11143000D02*
X15369000Y-11163000D01*
X15430000Y-10933000D02*
X15450000Y-10953000D01*
X15450000Y-10933000D02*
X15430000Y-10953000D01*
X15437500Y-9930000D02*
X15457500Y-9950000D01*
X15457500Y-9930000D02*
X15437500Y-9950000D01*
X15450000Y-12157500D02*
X15470000Y-12177500D01*
X15470000Y-12157500D02*
X15450000Y-12177500D01*
X15462500Y-10492500D02*
X15482500Y-10512500D01*
X15482500Y-10492500D02*
X15462500Y-10512500D01*
X15467500Y-9037500D02*
X15487500Y-9057500D01*
X15487500Y-9037500D02*
X15467500Y-9057500D01*
X15476000Y-11146000D02*
X15496000Y-11166000D01*
X15496000Y-11146000D02*
X15476000Y-11166000D01*
X15490000Y-10152500D02*
X15510000Y-10172500D01*
X15510000Y-10152500D02*
X15490000Y-10172500D01*
X15492500Y-9695000D02*
X15512500Y-9715000D01*
X15512500Y-9695000D02*
X15492500Y-9715000D01*
X15523000Y-10975000D02*
X15543000Y-10995000D01*
X15543000Y-10975000D02*
X15523000Y-10995000D01*
X15530000Y-9902500D02*
X15550000Y-9922500D01*
X15550000Y-9902500D02*
X15530000Y-9922500D01*
X15544000Y-11098000D02*
X15564000Y-11118000D01*
X15564000Y-11098000D02*
X15544000Y-11118000D01*
X15567500Y-11915000D02*
X15587500Y-11935000D01*
X15587500Y-11915000D02*
X15567500Y-11935000D01*
X15573000Y-9745000D02*
X15593000Y-9765000D01*
X15593000Y-9745000D02*
X15573000Y-9765000D01*
X15580000Y-11395000D02*
X15600000Y-11415000D01*
X15600000Y-11395000D02*
X15580000Y-11415000D01*
X15580000Y-11692500D02*
X15600000Y-11712500D01*
X15600000Y-11692500D02*
X15580000Y-11712500D01*
X15593000Y-10981000D02*
X15613000Y-11001000D01*
X15613000Y-10981000D02*
X15593000Y-11001000D01*
X15600000Y-9849000D02*
X15620000Y-9869000D01*
X15620000Y-9849000D02*
X15600000Y-9869000D01*
X15602500Y-9420000D02*
X15622500Y-9440000D01*
X15622500Y-9420000D02*
X15602500Y-9440000D01*
X15615000Y-11250000D02*
X15635000Y-11270000D01*
X15635000Y-11250000D02*
X15615000Y-11270000D01*
X15647500Y-10105000D02*
X15667500Y-10125000D01*
X15667500Y-10105000D02*
X15647500Y-10125000D01*
X15660000Y-10605000D02*
X15680000Y-10625000D01*
X15680000Y-10605000D02*
X15660000Y-10625000D01*
X15715000Y-10000000D02*
X15735000Y-10020000D01*
X15735000Y-10000000D02*
X15715000Y-10020000D01*
X15720000Y-10342500D02*
X15740000Y-10362500D01*
X15740000Y-10342500D02*
X15720000Y-10362500D01*
X15727500Y-11542500D02*
X15747500Y-11562500D01*
X15747500Y-11542500D02*
X15727500Y-11562500D01*
X15755000Y-12157500D02*
X15775000Y-12177500D01*
X15775000Y-12157500D02*
X15755000Y-12177500D01*
X15762500Y-9310000D02*
X15782500Y-9330000D01*
X15782500Y-9310000D02*
X15762500Y-9330000D01*
X15772500Y-10852500D02*
X15792500Y-10872500D01*
X15792500Y-10852500D02*
X15772500Y-10872500D01*
X15820000Y-9587500D02*
X15840000Y-9607500D01*
X15840000Y-9587500D02*
X15820000Y-9607500D01*
X15830000Y-10945000D02*
X15850000Y-10965000D01*
X15850000Y-10945000D02*
X15830000Y-10965000D01*
X15832500Y-10077500D02*
X15852500Y-10097500D01*
X15852500Y-10077500D02*
X15832500Y-10097500D01*
X15840000Y-9927500D02*
X15860000Y-9947500D01*
X15860000Y-9927500D02*
X15840000Y-9947500D01*
X15845000Y-8825000D02*
X15865000Y-8845000D01*
X15865000Y-8825000D02*
X15845000Y-8845000D01*
X15850000Y-10445000D02*
X15870000Y-10465000D01*
X15870000Y-10445000D02*
X15850000Y-10465000D01*
X15865000Y-9395000D02*
X15885000Y-9415000D01*
X15885000Y-9395000D02*
X15865000Y-9415000D01*
X15886000Y-9847000D02*
X15906000Y-9867000D01*
X15906000Y-9847000D02*
X15886000Y-9867000D01*
X15887500Y-9775000D02*
X15907500Y-9795000D01*
X15907500Y-9775000D02*
X15887500Y-9795000D01*
X15890000Y-11015000D02*
X15910000Y-11035000D01*
X15910000Y-11015000D02*
X15890000Y-11035000D01*
X15897500Y-10207500D02*
X15917500Y-10227500D01*
X15917500Y-10207500D02*
X15897500Y-10227500D01*
X15897500Y-11187500D02*
X15917500Y-11207500D01*
X15917500Y-11187500D02*
X15897500Y-11207500D01*
X15902500Y-12020000D02*
X15922500Y-12040000D01*
X15922500Y-12020000D02*
X15902500Y-12040000D01*
X15905000Y-10900000D02*
X15925000Y-10920000D01*
X15925000Y-10900000D02*
X15905000Y-10920000D01*
X15913000Y-11736000D02*
X15933000Y-11756000D01*
X15933000Y-11736000D02*
X15913000Y-11756000D01*
X15916000Y-11098000D02*
X15936000Y-11118000D01*
X15936000Y-11098000D02*
X15916000Y-11118000D01*
X15947500Y-9907500D02*
X15967500Y-9927500D01*
X15967500Y-9907500D02*
X15947500Y-9927500D01*
X15950000Y-11497500D02*
X15970000Y-11517500D01*
X15970000Y-11497500D02*
X15950000Y-11517500D01*
X15951000Y-10605000D02*
X15971000Y-10625000D01*
X15971000Y-10605000D02*
X15951000Y-10625000D01*
X15952500Y-10030000D02*
X15972500Y-10050000D01*
X15972500Y-10030000D02*
X15952500Y-10050000D01*
X15957500Y-10357500D02*
X15977500Y-10377500D01*
X15977500Y-10357500D02*
X15957500Y-10377500D01*
X15960000Y-10277500D02*
X15980000Y-10297500D01*
X15980000Y-10277500D02*
X15960000Y-10297500D01*
X15962000Y-10513000D02*
X15982000Y-10533000D01*
X15982000Y-10513000D02*
X15962000Y-10533000D01*
X15972500Y-9120000D02*
X15992500Y-9140000D01*
X15992500Y-9120000D02*
X15972500Y-9140000D01*
X15974000Y-10851000D02*
X15994000Y-10871000D01*
X15994000Y-10851000D02*
X15974000Y-10871000D01*
X15975000Y-10125000D02*
X15995000Y-10145000D01*
X15995000Y-10125000D02*
X15975000Y-10145000D01*
X15983000Y-10990000D02*
X16003000Y-11010000D01*
X16003000Y-10990000D02*
X15983000Y-11010000D01*
X15988000Y-10675000D02*
X16008000Y-10695000D01*
X16008000Y-10675000D02*
X15988000Y-10695000D01*
X16019000Y-10768000D02*
X16039000Y-10788000D01*
X16039000Y-10768000D02*
X16019000Y-10788000D01*
X16025000Y-9827500D02*
X16045000Y-9847500D01*
X16045000Y-9827500D02*
X16025000Y-9847500D01*
X16035000Y-9910000D02*
X16055000Y-9930000D01*
X16055000Y-9910000D02*
X16035000Y-9930000D01*
X16038000Y-11108000D02*
X16058000Y-11128000D01*
X16058000Y-11108000D02*
X16038000Y-11128000D01*
X16047000Y-10505000D02*
X16067000Y-10525000D01*
X16067000Y-10505000D02*
X16047000Y-10525000D01*
X16067000Y-10912000D02*
X16087000Y-10932000D01*
X16087000Y-10912000D02*
X16067000Y-10932000D01*
X16085000Y-11937500D02*
X16105000Y-11957500D01*
X16105000Y-11937500D02*
X16085000Y-11957500D01*
X16087000Y-10242000D02*
X16107000Y-10262000D01*
X16107000Y-10242000D02*
X16087000Y-10262000D01*
X16087500Y-11287500D02*
X16107500Y-11307500D01*
X16107500Y-11287500D02*
X16087500Y-11307500D01*
X16102500Y-11472500D02*
X16122500Y-11492500D01*
X16122500Y-11472500D02*
X16102500Y-11492500D01*
X16103000Y-11592000D02*
X16123000Y-11612000D01*
X16123000Y-11592000D02*
X16103000Y-11612000D01*
X16127500Y-10010000D02*
X16147500Y-10030000D01*
X16147500Y-10010000D02*
X16127500Y-10030000D01*
X16127500Y-11802500D02*
X16147500Y-11822500D01*
X16147500Y-11802500D02*
X16127500Y-11822500D01*
X16132500Y-9260000D02*
X16152500Y-9280000D01*
X16152500Y-9260000D02*
X16132500Y-9280000D01*
X16145000Y-10705000D02*
X16165000Y-10725000D01*
X16165000Y-10705000D02*
X16145000Y-10725000D01*
X16145000Y-10820000D02*
X16165000Y-10840000D01*
X16165000Y-10820000D02*
X16145000Y-10840000D01*
X16150000Y-10505000D02*
X16170000Y-10525000D01*
X16170000Y-10505000D02*
X16150000Y-10525000D01*
X16160000Y-10920000D02*
X16180000Y-10940000D01*
X16180000Y-10920000D02*
X16160000Y-10940000D01*
X16165000Y-9422500D02*
X16185000Y-9442500D01*
X16185000Y-9422500D02*
X16165000Y-9442500D01*
X16180000Y-11395000D02*
X16200000Y-11415000D01*
X16200000Y-11395000D02*
X16180000Y-11415000D01*
X16195000Y-8917500D02*
X16215000Y-8937500D01*
X16215000Y-8917500D02*
X16195000Y-8937500D01*
X16202500Y-10192500D02*
X16222500Y-10212500D01*
X16222500Y-10192500D02*
X16202500Y-10212500D01*
X16207500Y-10365000D02*
X16227500Y-10385000D01*
X16227500Y-10365000D02*
X16207500Y-10385000D01*
X16225000Y-12162500D02*
X16245000Y-12182500D01*
X16245000Y-12162500D02*
X16225000Y-12182500D01*
X16235000Y-10267500D02*
X16255000Y-10287500D01*
X16255000Y-10267500D02*
X16235000Y-10287500D01*
X16237500Y-10120000D02*
X16257500Y-10140000D01*
X16257500Y-10120000D02*
X16237500Y-10140000D01*
X16244000Y-10923000D02*
X16264000Y-10943000D01*
X16264000Y-10923000D02*
X16244000Y-10943000D01*
X16257000Y-11046000D02*
X16277000Y-11066000D01*
X16277000Y-11046000D02*
X16257000Y-11066000D01*
X16260000Y-9863280D02*
X16280000Y-9883280D01*
X16280000Y-9863280D02*
X16260000Y-9883280D01*
X16277500Y-9965000D02*
X16297500Y-9985000D01*
X16297500Y-9965000D02*
X16277500Y-9985000D01*
X16280000Y-10045000D02*
X16300000Y-10065000D01*
X16300000Y-10045000D02*
X16280000Y-10065000D01*
X16290000Y-11115000D02*
X16310000Y-11135000D01*
X16310000Y-11115000D02*
X16290000Y-11135000D01*
X16311000Y-11197000D02*
X16331000Y-11217000D01*
X16331000Y-11197000D02*
X16311000Y-11217000D01*
X16317000Y-11585000D02*
X16337000Y-11605000D01*
X16337000Y-11585000D02*
X16317000Y-11605000D01*
X16340000Y-10629000D02*
X16360000Y-10649000D01*
X16360000Y-10629000D02*
X16340000Y-10649000D01*
X16342500Y-9812500D02*
X16362500Y-9832500D01*
X16362500Y-9812500D02*
X16342500Y-9832500D01*
X16345000Y-11477500D02*
X16365000Y-11497500D01*
X16365000Y-11477500D02*
X16345000Y-11497500D01*
X16367500Y-10287500D02*
X16387500Y-10307500D01*
X16387500Y-10287500D02*
X16367500Y-10307500D01*
X16368000Y-10859000D02*
X16388000Y-10879000D01*
X16388000Y-10859000D02*
X16368000Y-10879000D01*
X16376000Y-11046000D02*
X16396000Y-11066000D01*
X16396000Y-11046000D02*
X16376000Y-11066000D01*
X16377000Y-9909000D02*
X16397000Y-9929000D01*
X16397000Y-9909000D02*
X16377000Y-9929000D01*
X16377500Y-11982500D02*
X16397500Y-12002500D01*
X16397500Y-11982500D02*
X16377500Y-12002500D01*
X16380000Y-9235000D02*
X16400000Y-9255000D01*
X16400000Y-9235000D02*
X16380000Y-9255000D01*
X16380000Y-10957000D02*
X16400000Y-10977000D01*
X16400000Y-10957000D02*
X16380000Y-10977000D01*
X16386000Y-11177000D02*
X16406000Y-11197000D01*
X16406000Y-11177000D02*
X16386000Y-11197000D01*
X16387500Y-9112500D02*
X16407500Y-9132500D01*
X16407500Y-9112500D02*
X16387500Y-9132500D01*
X16407000Y-10791000D02*
X16427000Y-10811000D01*
X16427000Y-10791000D02*
X16407000Y-10811000D01*
X16415000Y-9762500D02*
X16435000Y-9782500D01*
X16435000Y-9762500D02*
X16415000Y-9782500D01*
X16415000Y-11790000D02*
X16435000Y-11810000D01*
X16435000Y-11790000D02*
X16415000Y-11810000D01*
X16430000Y-10015000D02*
X16450000Y-10035000D01*
X16450000Y-10015000D02*
X16430000Y-10035000D01*
X16435000Y-10100000D02*
X16455000Y-10120000D01*
X16455000Y-10100000D02*
X16435000Y-10120000D01*
X16436000Y-11238000D02*
X16456000Y-11258000D01*
X16456000Y-11238000D02*
X16436000Y-11258000D01*
X16443000Y-10631000D02*
X16463000Y-10651000D01*
X16463000Y-10631000D02*
X16443000Y-10651000D01*
X16490000Y-10265000D02*
X16510000Y-10285000D01*
X16510000Y-10265000D02*
X16490000Y-10285000D01*
X16492000Y-10729000D02*
X16512000Y-10749000D01*
X16512000Y-10729000D02*
X16492000Y-10749000D01*
X16502500Y-10160000D02*
X16522500Y-10180000D01*
X16522500Y-10160000D02*
X16502500Y-10180000D01*
X16505000Y-10999000D02*
X16525000Y-11019000D01*
X16525000Y-10999000D02*
X16505000Y-11019000D01*
X16520000Y-8825000D02*
X16540000Y-8845000D01*
X16540000Y-8825000D02*
X16520000Y-8845000D01*
X16520000Y-9755000D02*
X16540000Y-9775000D01*
X16540000Y-9755000D02*
X16520000Y-9775000D01*
X16540000Y-9982500D02*
X16560000Y-10002500D01*
X16560000Y-9982500D02*
X16540000Y-10002500D01*
X16543000Y-11225000D02*
X16563000Y-11245000D01*
X16563000Y-11225000D02*
X16543000Y-11245000D01*
X16552500Y-11575000D02*
X16572500Y-11595000D01*
X16572500Y-11575000D02*
X16552500Y-11595000D01*
X16565000Y-11907500D02*
X16585000Y-11927500D01*
X16585000Y-11907500D02*
X16565000Y-11927500D01*
X16578000Y-10457000D02*
X16598000Y-10477000D01*
X16598000Y-10457000D02*
X16578000Y-10477000D01*
X16602500Y-10632500D02*
X16622500Y-10652500D01*
X16622500Y-10632500D02*
X16602500Y-10652500D01*
X16602500Y-12162500D02*
X16622500Y-12182500D01*
X16622500Y-12162500D02*
X16602500Y-12182500D01*
X16630000Y-9772500D02*
X16650000Y-9792500D01*
X16650000Y-9772500D02*
X16630000Y-9792500D01*
X16632500Y-9972500D02*
X16652500Y-9992500D01*
X16652500Y-9972500D02*
X16632500Y-9992500D01*
X16641000Y-11027000D02*
X16661000Y-11047000D01*
X16661000Y-11027000D02*
X16641000Y-11047000D01*
X16645000Y-11687500D02*
X16665000Y-11707500D01*
X16665000Y-11687500D02*
X16645000Y-11707500D01*
X16647500Y-9877500D02*
X16667500Y-9897500D01*
X16667500Y-9877500D02*
X16647500Y-9897500D01*
X16651000Y-11222000D02*
X16671000Y-11242000D01*
X16671000Y-11222000D02*
X16651000Y-11242000D01*
X16653000Y-11112000D02*
X16673000Y-11132000D01*
X16673000Y-11112000D02*
X16653000Y-11132000D01*
X16655000Y-10792500D02*
X16675000Y-10812500D01*
X16675000Y-10792500D02*
X16655000Y-10812500D01*
X16665000Y-10260000D02*
X16685000Y-10280000D01*
X16685000Y-10260000D02*
X16665000Y-10280000D01*
X16667500Y-10902500D02*
X16687500Y-10922500D01*
X16687500Y-10902500D02*
X16667500Y-10922500D01*
X16687500Y-11775000D02*
X16707500Y-11795000D01*
X16707500Y-11775000D02*
X16687500Y-11795000D01*
X16705000Y-9700000D02*
X16725000Y-9720000D01*
X16725000Y-9700000D02*
X16705000Y-9720000D01*
X16707500Y-10550000D02*
X16727500Y-10570000D01*
X16727500Y-10550000D02*
X16707500Y-10570000D01*
X16710000Y-9810000D02*
X16730000Y-9830000D01*
X16730000Y-9810000D02*
X16710000Y-9830000D01*
X16715000Y-10077500D02*
X16735000Y-10097500D01*
X16735000Y-10077500D02*
X16715000Y-10097500D01*
X16765000Y-9920000D02*
X16785000Y-9940000D01*
X16785000Y-9920000D02*
X16765000Y-9940000D01*
X16770000Y-11987500D02*
X16790000Y-12007500D01*
X16790000Y-11987500D02*
X16770000Y-12007500D01*
X16790000Y-10670000D02*
X16810000Y-10690000D01*
X16810000Y-10670000D02*
X16790000Y-10690000D01*
X16820000Y-11150000D02*
X16840000Y-11170000D01*
X16840000Y-11150000D02*
X16820000Y-11170000D01*
X16825000Y-10920000D02*
X16845000Y-10940000D01*
X16845000Y-10920000D02*
X16825000Y-10940000D01*
X16840000Y-9675000D02*
X16860000Y-9695000D01*
X16860000Y-9675000D02*
X16840000Y-9695000D01*
X16840000Y-10430000D02*
X16860000Y-10450000D01*
X16860000Y-10430000D02*
X16840000Y-10450000D01*
X16855000Y-11865000D02*
X16875000Y-11885000D01*
X16875000Y-11865000D02*
X16855000Y-11885000D01*
X16877500Y-8912500D02*
X16897500Y-8932500D01*
X16897500Y-8912500D02*
X16877500Y-8932500D01*
X16920000Y-10300000D02*
X16940000Y-10320000D01*
X16940000Y-10300000D02*
X16920000Y-10320000D01*
X16920000Y-10600000D02*
X16940000Y-10620000D01*
X16940000Y-10600000D02*
X16920000Y-10620000D01*
X16925000Y-9910000D02*
X16945000Y-9930000D01*
X16945000Y-9910000D02*
X16925000Y-9930000D01*
X16965000Y-10740000D02*
X16985000Y-10760000D01*
X16985000Y-10740000D02*
X16965000Y-10760000D01*
X16965000Y-10895000D02*
X16985000Y-10915000D01*
X16985000Y-10895000D02*
X16965000Y-10915000D01*
X16970000Y-10425000D02*
X16990000Y-10445000D01*
X16990000Y-10425000D02*
X16970000Y-10445000D01*
X16980000Y-10985000D02*
X17000000Y-11005000D01*
X17000000Y-10985000D02*
X16980000Y-11005000D01*
X16982500Y-11972500D02*
X17002500Y-11992500D01*
X17002500Y-11972500D02*
X16982500Y-11992500D01*
X16985000Y-11120000D02*
X17005000Y-11140000D01*
X17005000Y-11120000D02*
X16985000Y-11140000D01*
X16995000Y-10200000D02*
X17015000Y-10220000D01*
X17015000Y-10200000D02*
X16995000Y-10220000D01*
X17015000Y-9730000D02*
X17035000Y-9750000D01*
X17035000Y-9730000D02*
X17015000Y-9750000D01*
X17025000Y-9860000D02*
X17045000Y-9880000D01*
X17045000Y-9860000D02*
X17025000Y-9880000D01*
X17037500Y-9440000D02*
X17057500Y-9460000D01*
X17057500Y-9440000D02*
X17037500Y-9460000D01*
X17040000Y-11045000D02*
X17060000Y-11065000D01*
X17060000Y-11045000D02*
X17040000Y-11065000D01*
X17045000Y-10500000D02*
X17065000Y-10520000D01*
X17065000Y-10500000D02*
X17045000Y-10520000D01*
X17067500Y-12162500D02*
X17087500Y-12182500D01*
X17087500Y-12162500D02*
X17067500Y-12182500D01*
X17080000Y-10115000D02*
X17100000Y-10135000D01*
X17100000Y-10115000D02*
X17080000Y-10135000D01*
X17107500Y-11595000D02*
X17127500Y-11615000D01*
X17127500Y-11595000D02*
X17107500Y-11615000D01*
X17110000Y-10675000D02*
X17130000Y-10695000D01*
X17130000Y-10675000D02*
X17110000Y-10695000D01*
X17110000Y-10755000D02*
X17130000Y-10775000D01*
X17130000Y-10755000D02*
X17110000Y-10775000D01*
X17115000Y-10435000D02*
X17135000Y-10455000D01*
X17135000Y-10435000D02*
X17115000Y-10455000D01*
X17120000Y-10890000D02*
X17140000Y-10910000D01*
X17140000Y-10890000D02*
X17120000Y-10910000D01*
X17172500Y-9400000D02*
X17192500Y-9420000D01*
X17192500Y-9400000D02*
X17172500Y-9420000D01*
X17200000Y-10235000D02*
X17220000Y-10255000D01*
X17220000Y-10235000D02*
X17200000Y-10255000D01*
X17205000Y-10770000D02*
X17225000Y-10790000D01*
X17225000Y-10770000D02*
X17205000Y-10790000D01*
X17215000Y-10340000D02*
X17235000Y-10360000D01*
X17235000Y-10340000D02*
X17215000Y-10360000D01*
X17215000Y-10645000D02*
X17235000Y-10665000D01*
X17235000Y-10645000D02*
X17215000Y-10665000D01*
X17220000Y-9552500D02*
X17240000Y-9572500D01*
X17240000Y-9552500D02*
X17220000Y-9572500D01*
X17225000Y-10010000D02*
X17245000Y-10030000D01*
X17245000Y-10010000D02*
X17225000Y-10030000D01*
X17230000Y-8825000D02*
X17250000Y-8845000D01*
X17250000Y-8825000D02*
X17230000Y-8845000D01*
X17240000Y-10125000D02*
X17260000Y-10145000D01*
X17260000Y-10125000D02*
X17240000Y-10145000D01*
X17252500Y-11472500D02*
X17272500Y-11492500D01*
X17272500Y-11472500D02*
X17252500Y-11492500D01*
X17260000Y-10545000D02*
X17280000Y-10565000D01*
X17280000Y-10545000D02*
X17260000Y-10565000D01*
X17270000Y-10850000D02*
X17290000Y-10870000D01*
X17290000Y-10850000D02*
X17270000Y-10870000D01*
X17280000Y-9930000D02*
X17300000Y-9950000D01*
X17300000Y-9930000D02*
X17280000Y-9950000D01*
X17295000Y-10980000D02*
X17315000Y-11000000D01*
X17315000Y-10980000D02*
X17295000Y-11000000D01*
X17302500Y-9462500D02*
X17322500Y-9482500D01*
X17322500Y-9462500D02*
X17302500Y-9482500D01*
X17322500Y-9632500D02*
X17342500Y-9652500D01*
X17342500Y-9632500D02*
X17322500Y-9652500D01*
X17329000Y-9840000D02*
X17349000Y-9860000D01*
X17349000Y-9840000D02*
X17329000Y-9860000D01*
X17335000Y-10290000D02*
X17355000Y-10310000D01*
X17355000Y-10290000D02*
X17335000Y-10310000D01*
X17335000Y-10615000D02*
X17355000Y-10635000D01*
X17355000Y-10615000D02*
X17335000Y-10635000D01*
X17340000Y-11092500D02*
X17360000Y-11112500D01*
X17360000Y-11092500D02*
X17340000Y-11112500D01*
X17365000Y-10035000D02*
X17385000Y-10055000D01*
X17385000Y-10035000D02*
X17365000Y-10055000D01*
X17370000Y-9770000D02*
X17390000Y-9790000D01*
X17390000Y-9770000D02*
X17370000Y-9790000D01*
X17375000Y-10360000D02*
X17395000Y-10380000D01*
X17395000Y-10360000D02*
X17375000Y-10380000D01*
X17410000Y-9920000D02*
X17430000Y-9940000D01*
X17430000Y-9920000D02*
X17410000Y-9940000D01*
X17410000Y-10555000D02*
X17430000Y-10575000D01*
X17430000Y-10555000D02*
X17410000Y-10575000D01*
X17410000Y-11722500D02*
X17430000Y-11742500D01*
X17430000Y-11722500D02*
X17410000Y-11742500D01*
X17415000Y-10930000D02*
X17435000Y-10950000D01*
X17435000Y-10930000D02*
X17415000Y-10950000D01*
X17420000Y-10820000D02*
X17440000Y-10840000D01*
X17440000Y-10820000D02*
X17420000Y-10840000D01*
X17425000Y-10115000D02*
X17445000Y-10135000D01*
X17445000Y-10115000D02*
X17425000Y-10135000D01*
X17437500Y-11262500D02*
X17457500Y-11282500D01*
X17457500Y-11262500D02*
X17437500Y-11282500D01*
X17440000Y-11095000D02*
X17460000Y-11115000D01*
X17460000Y-11095000D02*
X17440000Y-11115000D01*
X17450000Y-9397500D02*
X17470000Y-9417500D01*
X17470000Y-9397500D02*
X17450000Y-9417500D01*
X17455000Y-11010000D02*
X17475000Y-11030000D01*
X17475000Y-11010000D02*
X17455000Y-11030000D01*
X17480000Y-10625000D02*
X17500000Y-10645000D01*
X17500000Y-10625000D02*
X17480000Y-10645000D01*
X17495000Y-9865000D02*
X17515000Y-9885000D01*
X17515000Y-9865000D02*
X17495000Y-9885000D01*
X17505000Y-10297500D02*
X17525000Y-10317500D01*
X17525000Y-10297500D02*
X17505000Y-10317500D01*
X17505000Y-12177500D02*
X17525000Y-12197500D01*
X17525000Y-12177500D02*
X17505000Y-12197500D01*
X17515000Y-10715000D02*
X17535000Y-10735000D01*
X17535000Y-10715000D02*
X17515000Y-10735000D01*
X17550000Y-10115000D02*
X17570000Y-10135000D01*
X17570000Y-10115000D02*
X17550000Y-10135000D01*
X17557500Y-11545000D02*
X17577500Y-11565000D01*
X17577500Y-11545000D02*
X17557500Y-11565000D01*
X17567500Y-8917500D02*
X17587500Y-8937500D01*
X17587500Y-8917500D02*
X17567500Y-8937500D01*
X17572500Y-11345000D02*
X17592500Y-11365000D01*
X17592500Y-11345000D02*
X17572500Y-11365000D01*
X17582500Y-10832500D02*
X17602500Y-10852500D01*
X17602500Y-10832500D02*
X17582500Y-10852500D01*
X17587500Y-10552500D02*
X17607500Y-10572500D01*
X17607500Y-10552500D02*
X17587500Y-10572500D01*
X17590000Y-10440000D02*
X17610000Y-10460000D01*
X17610000Y-10440000D02*
X17590000Y-10460000D01*
X17593000Y-9371000D02*
X17613000Y-9391000D01*
X17613000Y-9371000D02*
X17593000Y-9391000D01*
X17610000Y-10045000D02*
X17630000Y-10065000D01*
X17630000Y-10045000D02*
X17610000Y-10065000D01*
X17610000Y-10910000D02*
X17630000Y-10930000D01*
X17630000Y-10910000D02*
X17610000Y-10930000D01*
X17630000Y-10195000D02*
X17650000Y-10215000D01*
X17650000Y-10195000D02*
X17630000Y-10215000D01*
X17677500Y-10755000D02*
X17697500Y-10775000D01*
X17697500Y-10755000D02*
X17677500Y-10775000D01*
X17695000Y-9975000D02*
X17715000Y-9995000D01*
X17715000Y-9975000D02*
X17695000Y-9995000D01*
X17697500Y-9655000D02*
X17717500Y-9675000D01*
X17717500Y-9655000D02*
X17697500Y-9675000D01*
X17720000Y-10325000D02*
X17740000Y-10345000D01*
X17740000Y-10325000D02*
X17720000Y-10345000D01*
X17733000Y-9535000D02*
X17753000Y-9555000D01*
X17753000Y-9535000D02*
X17733000Y-9555000D01*
X17735000Y-10095000D02*
X17755000Y-10115000D01*
X17755000Y-10095000D02*
X17735000Y-10115000D01*
X17735000Y-11750000D02*
X17755000Y-11770000D01*
X17755000Y-11750000D02*
X17735000Y-11770000D01*
X17740000Y-9865000D02*
X17760000Y-9885000D01*
X17760000Y-9865000D02*
X17740000Y-9885000D01*
X17747500Y-10517500D02*
X17767500Y-10537500D01*
X17767500Y-10517500D02*
X17747500Y-10537500D01*
X17755000Y-11055000D02*
X17775000Y-11075000D01*
X17775000Y-11055000D02*
X17755000Y-11075000D01*
X17760000Y-11175000D02*
X17780000Y-11195000D01*
X17780000Y-11175000D02*
X17760000Y-11195000D01*
X17790000Y-9785000D02*
X17810000Y-9805000D01*
X17810000Y-9785000D02*
X17790000Y-9805000D01*
X17790000Y-10200000D02*
X17810000Y-10220000D01*
X17810000Y-10200000D02*
X17790000Y-10220000D01*
X17792500Y-11522500D02*
X17812500Y-11542500D01*
X17812500Y-11522500D02*
X17792500Y-11542500D01*
X17800000Y-9930000D02*
X17820000Y-9950000D01*
X17820000Y-9930000D02*
X17800000Y-9950000D01*
X17802500Y-10907500D02*
X17822500Y-10927500D01*
X17822500Y-10907500D02*
X17802500Y-10927500D01*
X17817500Y-9675000D02*
X17837500Y-9695000D01*
X17837500Y-9675000D02*
X17817500Y-9695000D01*
X17850000Y-10997500D02*
X17870000Y-11017500D01*
X17870000Y-10997500D02*
X17850000Y-11017500D01*
X17875000Y-12177500D02*
X17895000Y-12197500D01*
X17895000Y-12177500D02*
X17875000Y-12197500D01*
X17877500Y-10685000D02*
X17897500Y-10705000D01*
X17897500Y-10685000D02*
X17877500Y-10705000D01*
X17897500Y-8825000D02*
X17917500Y-8845000D01*
X17917500Y-8825000D02*
X17897500Y-8845000D01*
X17912500Y-10812500D02*
X17932500Y-10832500D01*
X17932500Y-10812500D02*
X17912500Y-10832500D01*
X17917500Y-10522500D02*
X17937500Y-10542500D01*
X17937500Y-10522500D02*
X17917500Y-10542500D01*
X17920000Y-11215000D02*
X17940000Y-11235000D01*
X17940000Y-11215000D02*
X17920000Y-11235000D01*
X17935000Y-9745000D02*
X17955000Y-9765000D01*
X17955000Y-9745000D02*
X17935000Y-9765000D01*
X17940000Y-9995000D02*
X17960000Y-10015000D01*
X17960000Y-9995000D02*
X17940000Y-10015000D01*
X17945000Y-10330000D02*
X17965000Y-10350000D01*
X17965000Y-10330000D02*
X17945000Y-10350000D01*
X17975000Y-10205000D02*
X17995000Y-10225000D01*
X17995000Y-10205000D02*
X17975000Y-10225000D01*
X17982500Y-10997500D02*
X18002500Y-11017500D01*
X18002500Y-10997500D02*
X17982500Y-11017500D01*
X18020000Y-11515000D02*
X18040000Y-11535000D01*
X18040000Y-11515000D02*
X18020000Y-11535000D01*
X18030000Y-10600000D02*
X18050000Y-10620000D01*
X18050000Y-10600000D02*
X18030000Y-10620000D01*
X18032500Y-10915000D02*
X18052500Y-10935000D01*
X18052500Y-10915000D02*
X18032500Y-10935000D01*
X18050000Y-9960000D02*
X18070000Y-9980000D01*
X18070000Y-9960000D02*
X18050000Y-9980000D01*
X18052500Y-10727500D02*
X18072500Y-10747500D01*
X18072500Y-10727500D02*
X18052500Y-10747500D01*
X18070000Y-9820000D02*
X18090000Y-9840000D01*
X18090000Y-9820000D02*
X18070000Y-9840000D01*
X18070000Y-11215000D02*
X18090000Y-11235000D01*
X18090000Y-11215000D02*
X18070000Y-11235000D01*
X18077500Y-11117500D02*
X18097500Y-11137500D01*
X18097500Y-11117500D02*
X18077500Y-11137500D01*
X18097500Y-10857500D02*
X18117500Y-10877500D01*
X18117500Y-10857500D02*
X18097500Y-10877500D01*
X18105000Y-8905000D02*
X18125000Y-8925000D01*
X18125000Y-8905000D02*
X18105000Y-8925000D01*
X18117500Y-9597500D02*
X18137500Y-9617500D01*
X18137500Y-9597500D02*
X18117500Y-9617500D01*
X18130000Y-10345000D02*
X18150000Y-10365000D01*
X18150000Y-10345000D02*
X18130000Y-10365000D01*
X18145000Y-9935000D02*
X18165000Y-9955000D01*
X18165000Y-9935000D02*
X18145000Y-9955000D01*
X18155000Y-10215000D02*
X18175000Y-10235000D01*
X18175000Y-10215000D02*
X18155000Y-10235000D01*
X18160000Y-10712500D02*
X18180000Y-10732500D01*
X18180000Y-10712500D02*
X18160000Y-10732500D01*
X18175000Y-12177500D02*
X18195000Y-12197500D01*
X18195000Y-12177500D02*
X18175000Y-12197500D01*
X18180000Y-9665000D02*
X18200000Y-9685000D01*
X18200000Y-9665000D02*
X18180000Y-9685000D01*
X18200000Y-11732500D02*
X18220000Y-11752500D01*
X18220000Y-11732500D02*
X18200000Y-11752500D01*
X18202500Y-11107500D02*
X18222500Y-11127500D01*
X18222500Y-11107500D02*
X18202500Y-11127500D01*
X18205000Y-10270000D02*
X18225000Y-10290000D01*
X18225000Y-10270000D02*
X18205000Y-10290000D01*
X18217840Y-10660000D02*
X18237840Y-10680000D01*
X18237840Y-10660000D02*
X18217840Y-10680000D01*
X18225000Y-11005000D02*
X18245000Y-11025000D01*
X18245000Y-11005000D02*
X18225000Y-11025000D01*
X18227500Y-9927500D02*
X18247500Y-9947500D01*
X18247500Y-9927500D02*
X18227500Y-9947500D01*
X18237500Y-11327500D02*
X18257500Y-11347500D01*
X18257500Y-11327500D02*
X18237500Y-11347500D01*
X18248000Y-9347000D02*
X18268000Y-9367000D01*
X18268000Y-9347000D02*
X18248000Y-9367000D01*
X18267500Y-11492500D02*
X18287500Y-11512500D01*
X18287500Y-11492500D02*
X18267500Y-11512500D01*
X18295000Y-10300000D02*
X18315000Y-10320000D01*
X18315000Y-10300000D02*
X18295000Y-10320000D01*
X18295000Y-10720000D02*
X18315000Y-10740000D01*
X18315000Y-10720000D02*
X18295000Y-10740000D01*
X18315000Y-10397500D02*
X18335000Y-10417500D01*
X18335000Y-10397500D02*
X18315000Y-10417500D01*
X18325000Y-9625000D02*
X18345000Y-9645000D01*
X18345000Y-9625000D02*
X18325000Y-9645000D01*
X18335000Y-9945000D02*
X18355000Y-9965000D01*
X18355000Y-9945000D02*
X18335000Y-9965000D01*
X18337500Y-10877500D02*
X18357500Y-10897500D01*
X18357500Y-10877500D02*
X18337500Y-10897500D01*
X18337500Y-10980000D02*
X18357500Y-11000000D01*
X18357500Y-10980000D02*
X18337500Y-11000000D01*
X18350000Y-8802500D02*
X18370000Y-8822500D01*
X18370000Y-8802500D02*
X18350000Y-8822500D01*
X18377500Y-10255000D02*
X18397500Y-10275000D01*
X18397500Y-10255000D02*
X18377500Y-10275000D01*
X18400000Y-9870000D02*
X18420000Y-9890000D01*
X18420000Y-9870000D02*
X18400000Y-9890000D01*
X18410000Y-10747500D02*
X18430000Y-10767500D01*
X18430000Y-10747500D02*
X18410000Y-10767500D01*
X18425000Y-9675000D02*
X18445000Y-9695000D01*
X18445000Y-9675000D02*
X18425000Y-9695000D01*
X18435000Y-9795000D02*
X18455000Y-9815000D01*
X18455000Y-9795000D02*
X18435000Y-9815000D01*
X18452500Y-11042500D02*
X18472500Y-11062500D01*
X18472500Y-11042500D02*
X18452500Y-11062500D01*
X18495000Y-12177500D02*
X18515000Y-12197500D01*
X18515000Y-12177500D02*
X18495000Y-12197500D01*
X18522500Y-11685000D02*
X18542500Y-11705000D01*
X18542500Y-11685000D02*
X18522500Y-11705000D01*
X18557500Y-10167500D02*
X18577500Y-10187500D01*
X18577500Y-10167500D02*
X18557500Y-10187500D01*
X18565000Y-8882500D02*
X18585000Y-8902500D01*
X18585000Y-8882500D02*
X18565000Y-8902500D01*
X18585000Y-10025000D02*
X18605000Y-10045000D01*
X18605000Y-10025000D02*
X18585000Y-10045000D01*
X18595000Y-11320000D02*
X18615000Y-11340000D01*
X18615000Y-11320000D02*
X18595000Y-11340000D01*
X18615000Y-9105000D02*
X18635000Y-9125000D01*
X18635000Y-9105000D02*
X18615000Y-9125000D01*
X18670000Y-11120000D02*
X18690000Y-11140000D01*
X18690000Y-11120000D02*
X18670000Y-11140000D01*
X18697000Y-10602000D02*
X18717000Y-10622000D01*
X18717000Y-10602000D02*
X18697000Y-10622000D01*
X18697500Y-9432500D02*
X18717500Y-9452500D01*
X18717500Y-9432500D02*
X18697500Y-9452500D01*
X18700000Y-9850000D02*
X18720000Y-9870000D01*
X18720000Y-9850000D02*
X18700000Y-9870000D01*
X18710000Y-10162500D02*
X18730000Y-10182500D01*
X18730000Y-10162500D02*
X18710000Y-10182500D01*
X18712500Y-11495000D02*
X18732500Y-11515000D01*
X18732500Y-11495000D02*
X18712500Y-11515000D01*
X18722500Y-9107500D02*
X18742500Y-9127500D01*
X18742500Y-9107500D02*
X18722500Y-9127500D01*
X18722500Y-10012500D02*
X18742500Y-10032500D01*
X18742500Y-10012500D02*
X18722500Y-10032500D01*
X18740000Y-10680000D02*
X18760000Y-10700000D01*
X18760000Y-10680000D02*
X18740000Y-10700000D01*
X18817500Y-11732500D02*
X18837500Y-11752500D01*
X18837500Y-11732500D02*
X18817500Y-11752500D01*
X18822500Y-9412500D02*
X18842500Y-9432500D01*
X18842500Y-9412500D02*
X18822500Y-9432500D01*
X18842500Y-10352500D02*
X18862500Y-10372500D01*
X18862500Y-10352500D02*
X18842500Y-10372500D01*
X18855000Y-10816000D02*
X18875000Y-10836000D01*
X18875000Y-10816000D02*
X18855000Y-10836000D01*
X18865000Y-10745000D02*
X18885000Y-10765000D01*
X18885000Y-10745000D02*
X18865000Y-10765000D01*
X18890000Y-9892500D02*
X18910000Y-9912500D01*
X18910000Y-9892500D02*
X18890000Y-9912500D01*
X18915000Y-12170000D02*
X18935000Y-12190000D01*
X18935000Y-12170000D02*
X18915000Y-12190000D01*
X18917500Y-8950000D02*
X18937500Y-8970000D01*
X18937500Y-8950000D02*
X18917500Y-8970000D01*
X18937500Y-8802500D02*
X18957500Y-8822500D01*
X18957500Y-8802500D02*
X18937500Y-8822500D01*
X18950000Y-9130000D02*
X18970000Y-9150000D01*
X18970000Y-9130000D02*
X18950000Y-9150000D01*
X18970000Y-9462500D02*
X18990000Y-9482500D01*
X18990000Y-9462500D02*
X18970000Y-9482500D01*
X18971000Y-11841000D02*
X18991000Y-11861000D01*
X18991000Y-11841000D02*
X18971000Y-11861000D01*
X18980000Y-11575000D02*
X19000000Y-11595000D01*
X19000000Y-11575000D02*
X18980000Y-11595000D01*
X19010000Y-9900000D02*
X19030000Y-9920000D01*
X19030000Y-9900000D02*
X19010000Y-9920000D01*
X19010000Y-11310000D02*
X19030000Y-11330000D01*
X19030000Y-11310000D02*
X19010000Y-11330000D01*
X19017500Y-10077500D02*
X19037500Y-10097500D01*
X19037500Y-10077500D02*
X19017500Y-10097500D01*
X19022500Y-11092500D02*
X19042500Y-11112500D01*
X19042500Y-11092500D02*
X19022500Y-11112500D01*
X19082500Y-10362500D02*
X19102500Y-10382500D01*
X19102500Y-10362500D02*
X19082500Y-10382500D01*
X19100000Y-10820000D02*
X19120000Y-10840000D01*
X19120000Y-10820000D02*
X19100000Y-10840000D01*
X19102500Y-9262500D02*
X19122500Y-9282500D01*
X19122500Y-9262500D02*
X19102500Y-9282500D01*
X19157500Y-11982500D02*
X19177500Y-12002500D01*
X19177500Y-11982500D02*
X19157500Y-12002500D01*
X19167500Y-10262500D02*
X19187500Y-10282500D01*
X19187500Y-10262500D02*
X19167500Y-10282500D01*
X19220000Y-9977500D02*
X19240000Y-9997500D01*
X19240000Y-9977500D02*
X19220000Y-9997500D01*
X19260000Y-11553000D02*
X19280000Y-11573000D01*
X19280000Y-11553000D02*
X19260000Y-11573000D01*
X19262500Y-9087500D02*
X19282500Y-9107500D01*
X19282500Y-9087500D02*
X19262500Y-9107500D01*
X19275000Y-12170000D02*
X19295000Y-12190000D01*
X19295000Y-12170000D02*
X19275000Y-12190000D01*
X19295000Y-11062500D02*
X19315000Y-11082500D01*
X19315000Y-11062500D02*
X19295000Y-11082500D01*
X19300000Y-11287500D02*
X19320000Y-11307500D01*
X19320000Y-11287500D02*
X19300000Y-11307500D01*
X19310000Y-9382500D02*
X19330000Y-9402500D01*
X19330000Y-9382500D02*
X19310000Y-9402500D01*
X19312500Y-8980000D02*
X19332500Y-9000000D01*
X19332500Y-8980000D02*
X19312500Y-9000000D01*
X19315000Y-10830000D02*
X19335000Y-10850000D01*
X19335000Y-10830000D02*
X19315000Y-10850000D01*
X19330000Y-10352500D02*
X19350000Y-10372500D01*
X19350000Y-10352500D02*
X19330000Y-10372500D01*
X19335000Y-9610000D02*
X19355000Y-9630000D01*
X19355000Y-9610000D02*
X19335000Y-9630000D01*
X19360000Y-11797500D02*
X19380000Y-11817500D01*
X19380000Y-11797500D02*
X19360000Y-11817500D01*
X19405000Y-10182500D02*
X19425000Y-10202500D01*
X19425000Y-10182500D02*
X19405000Y-10202500D01*
X19455000Y-12050000D02*
X19475000Y-12070000D01*
X19475000Y-12050000D02*
X19455000Y-12070000D01*
X19485000Y-10730000D02*
X19505000Y-10750000D01*
X19505000Y-10730000D02*
X19485000Y-10750000D01*
X19505000Y-9865000D02*
X19525000Y-9885000D01*
X19525000Y-9865000D02*
X19505000Y-9885000D01*
X19517500Y-11500000D02*
X19537500Y-11520000D01*
X19537500Y-11500000D02*
X19517500Y-11520000D01*
X19525000Y-10830000D02*
X19545000Y-10850000D01*
X19545000Y-10830000D02*
X19525000Y-10850000D01*
X19530000Y-11175000D02*
X19550000Y-11195000D01*
X19550000Y-11175000D02*
X19530000Y-11195000D01*
X19555000Y-11275000D02*
X19575000Y-11295000D01*
X19575000Y-11275000D02*
X19555000Y-11295000D01*
X19610000Y-12162500D02*
X19630000Y-12182500D01*
X19630000Y-12162500D02*
X19610000Y-12182500D01*
X19612500Y-8832500D02*
X19632500Y-8852500D01*
X19632500Y-8832500D02*
X19612500Y-8852500D01*
X19612500Y-9610000D02*
X19632500Y-9630000D01*
X19632500Y-9610000D02*
X19612500Y-9630000D01*
X19670000Y-10087500D02*
X19690000Y-10107500D01*
X19690000Y-10087500D02*
X19670000Y-10107500D01*
X19680000Y-11750000D02*
X19700000Y-11770000D01*
X19700000Y-11750000D02*
X19680000Y-11770000D01*
X19687500Y-10722500D02*
X19707500Y-10742500D01*
X19707500Y-10722500D02*
X19687500Y-10742500D01*
X19690000Y-9865000D02*
X19710000Y-9885000D01*
X19710000Y-9865000D02*
X19690000Y-9885000D01*
X19692500Y-10922500D02*
X19712500Y-10942500D01*
X19712500Y-10922500D02*
X19692500Y-10942500D01*
X19742500Y-11132500D02*
X19762500Y-11152500D01*
X19762500Y-11132500D02*
X19742500Y-11152500D01*
X19745000Y-10352500D02*
X19765000Y-10372500D01*
X19765000Y-10352500D02*
X19745000Y-10372500D01*
X19782500Y-12050000D02*
X19802500Y-12070000D01*
X19802500Y-12050000D02*
X19782500Y-12070000D01*
X19787500Y-9025000D02*
X19807500Y-9045000D01*
X19807500Y-9025000D02*
X19787500Y-9045000D01*
X19787500Y-11470000D02*
X19807500Y-11490000D01*
X19807500Y-11470000D02*
X19787500Y-11490000D01*
X19802500Y-10647500D02*
X19822500Y-10667500D01*
X19822500Y-10647500D02*
X19802500Y-10667500D01*
X19945000Y-10087500D02*
X19965000Y-10107500D01*
X19965000Y-10087500D02*
X19945000Y-10107500D01*
X19977000Y-10919000D02*
X19997000Y-10939000D01*
X19997000Y-10919000D02*
X19977000Y-10939000D01*
X19982500Y-9277500D02*
X20002500Y-9297500D01*
X20002500Y-9277500D02*
X19982500Y-9297500D01*
X19997500Y-12162500D02*
X20017500Y-12182500D01*
X20017500Y-12162500D02*
X19997500Y-12182500D01*
X20032500Y-11870000D02*
X20052500Y-11890000D01*
X20052500Y-11870000D02*
X20032500Y-11890000D01*
X20062500Y-10362500D02*
X20082500Y-10382500D01*
X20082500Y-10362500D02*
X20062500Y-10382500D01*
X20103000Y-10657000D02*
X20123000Y-10677000D01*
X20123000Y-10657000D02*
X20103000Y-10677000D01*
X20105000Y-9485000D02*
X20125000Y-9505000D01*
X20125000Y-9485000D02*
X20105000Y-9505000D01*
X20147500Y-10917500D02*
X20167500Y-10937500D01*
X20167500Y-10917500D02*
X20147500Y-10937500D01*
X20197500Y-11562500D02*
X20217500Y-11582500D01*
X20217500Y-11562500D02*
X20197500Y-11582500D01*
X20225000Y-8950000D02*
X20245000Y-8970000D01*
X20245000Y-8950000D02*
X20225000Y-8970000D01*
X20247500Y-11965000D02*
X20267500Y-11985000D01*
X20267500Y-11965000D02*
X20247500Y-11985000D01*
X20252500Y-9277500D02*
X20272500Y-9297500D01*
X20272500Y-9277500D02*
X20252500Y-9297500D01*
X20280000Y-10535000D02*
X20300000Y-10555000D01*
X20300000Y-10535000D02*
X20280000Y-10555000D01*
X20297500Y-9532500D02*
X20317500Y-9552500D01*
X20317500Y-9532500D02*
X20297500Y-9552500D01*
X20302500Y-9762500D02*
X20322500Y-9782500D01*
X20322500Y-9762500D02*
X20302500Y-9782500D01*
X20342500Y-11300000D02*
X20362500Y-11320000D01*
X20362500Y-11300000D02*
X20342500Y-11320000D01*
X20372500Y-9065000D02*
X20392500Y-9085000D01*
X20392500Y-9065000D02*
X20372500Y-9085000D01*
X20381000Y-10334000D02*
X20401000Y-10354000D01*
X20401000Y-10334000D02*
X20381000Y-10354000D01*
X20385000Y-12145000D02*
X20405000Y-12165000D01*
X20405000Y-12145000D02*
X20385000Y-12165000D01*
X20390000Y-11705000D02*
X20410000Y-11725000D01*
X20410000Y-11705000D02*
X20390000Y-11725000D01*
X20435000Y-9662500D02*
X20455000Y-9682500D01*
X20455000Y-9662500D02*
X20435000Y-9682500D01*
X20512500Y-9315000D02*
X20532500Y-9335000D01*
X20532500Y-9315000D02*
X20512500Y-9335000D01*
X20512500Y-11582500D02*
X20532500Y-11602500D01*
X20532500Y-11582500D02*
X20512500Y-11602500D01*
X20515000Y-11415000D02*
X20535000Y-11435000D01*
X20535000Y-11415000D02*
X20515000Y-11435000D01*
X20527500Y-9485000D02*
X20547500Y-9505000D01*
X20547500Y-9485000D02*
X20527500Y-9505000D01*
X20540000Y-9800000D02*
X20560000Y-9820000D01*
X20560000Y-9800000D02*
X20540000Y-9820000D01*
X20542500Y-9117500D02*
X20562500Y-9137500D01*
X20562500Y-9117500D02*
X20542500Y-9137500D01*
X20555000Y-11965000D02*
X20575000Y-11985000D01*
X20575000Y-11965000D02*
X20555000Y-11985000D01*
X20570000Y-9992500D02*
X20590000Y-10012500D01*
X20590000Y-9992500D02*
X20570000Y-10012500D01*
X20572500Y-11032500D02*
X20592500Y-11052500D01*
X20592500Y-11032500D02*
X20572500Y-11052500D01*
X20627500Y-11135000D02*
X20647500Y-11155000D01*
X20647500Y-11135000D02*
X20627500Y-11155000D01*
X20645000Y-8842500D02*
X20665000Y-8862500D01*
X20665000Y-8842500D02*
X20645000Y-8862500D01*
X20650000Y-11740000D02*
X20670000Y-11760000D01*
X20670000Y-11740000D02*
X20650000Y-11760000D01*
X20660000Y-9930000D02*
X20680000Y-9950000D01*
X20680000Y-9930000D02*
X20660000Y-9950000D01*
X20662500Y-11277500D02*
X20682500Y-11297500D01*
X20682500Y-11277500D02*
X20662500Y-11297500D01*
X20672500Y-10535000D02*
X20692500Y-10555000D01*
X20692500Y-10535000D02*
X20672500Y-10555000D01*
X20737500Y-12135000D02*
X20757500Y-12155000D01*
X20757500Y-12135000D02*
X20737500Y-12155000D01*
X20752500Y-10772500D02*
X20772500Y-10792500D01*
X20772500Y-10772500D02*
X20752500Y-10792500D01*
X20762500Y-10595000D02*
X20782500Y-10615000D01*
X20782500Y-10595000D02*
X20762500Y-10615000D01*
X20772500Y-10017500D02*
X20792500Y-10037500D01*
X20792500Y-10017500D02*
X20772500Y-10037500D01*
X20777500Y-10205000D02*
X20797500Y-10225000D01*
X20797500Y-10205000D02*
X20777500Y-10225000D01*
X20787500Y-9117500D02*
X20807500Y-9137500D01*
X20807500Y-9117500D02*
X20787500Y-9137500D01*
X20792500Y-10855000D02*
X20812500Y-10875000D01*
X20812500Y-10855000D02*
X20792500Y-10875000D01*
X20797500Y-10287500D02*
X20817500Y-10307500D01*
X20817500Y-10287500D02*
X20797500Y-10307500D01*
X20807500Y-11030000D02*
X20827500Y-11050000D01*
X20827500Y-11030000D02*
X20807500Y-11050000D01*
X20822500Y-11965000D02*
X20842500Y-11985000D01*
X20842500Y-11965000D02*
X20822500Y-11985000D01*
X20847500Y-11542500D02*
X20867500Y-11562500D01*
X20867500Y-11542500D02*
X20847500Y-11562500D01*
X20855000Y-9490000D02*
X20875000Y-9510000D01*
X20875000Y-9490000D02*
X20855000Y-9510000D01*
X20885000Y-9752500D02*
X20905000Y-9772500D01*
X20905000Y-9752500D02*
X20885000Y-9772500D01*
X20897500Y-9315000D02*
X20917500Y-9335000D01*
X20917500Y-9315000D02*
X20897500Y-9335000D01*
X20932500Y-9972500D02*
X20952500Y-9992500D01*
X20952500Y-9972500D02*
X20932500Y-9992500D01*
X20932500Y-10777500D02*
X20952500Y-10797500D01*
X20952500Y-10777500D02*
X20932500Y-10797500D01*
X20935000Y-8842500D02*
X20955000Y-8862500D01*
X20955000Y-8842500D02*
X20935000Y-8862500D01*
X20995000Y-12127500D02*
X21015000Y-12147500D01*
X21015000Y-12127500D02*
X20995000Y-12147500D01*
X21062500Y-11337500D02*
X21082500Y-11357500D01*
X21082500Y-11337500D02*
X21062500Y-11357500D01*
X21115000Y-11475000D02*
X21135000Y-11495000D01*
X21135000Y-11475000D02*
X21115000Y-11495000D01*
X21175000Y-9515000D02*
X21195000Y-9535000D01*
X21195000Y-9515000D02*
X21175000Y-9535000D01*
X21255000Y-9720000D02*
X21275000Y-9740000D01*
X21275000Y-9720000D02*
X21255000Y-9740000D01*
X21262500Y-9982500D02*
X21282500Y-10002500D01*
X21282500Y-9982500D02*
X21262500Y-10002500D01*
X21272500Y-10240000D02*
X21292500Y-10260000D01*
X21292500Y-10240000D02*
X21272500Y-10260000D01*
X21282500Y-10745000D02*
X21302500Y-10765000D01*
X21302500Y-10745000D02*
X21282500Y-10765000D01*
X21292500Y-11002500D02*
X21312500Y-11022500D01*
X21312500Y-11002500D02*
X21292500Y-11022500D01*
X21295000Y-10492500D02*
X21315000Y-10512500D01*
X21315000Y-10492500D02*
X21295000Y-10512500D01*
X21372500Y-11320000D02*
X21392500Y-11340000D01*
X21392500Y-11320000D02*
X21372500Y-11340000D01*
X21400000Y-11130000D02*
X21420000Y-11150000D01*
X21420000Y-11130000D02*
X21400000Y-11150000D01*
X21465000Y-10872500D02*
X21485000Y-10892500D01*
X21485000Y-10872500D02*
X21465000Y-10892500D01*
X21470000Y-10620000D02*
X21490000Y-10640000D01*
X21490000Y-10620000D02*
X21470000Y-10640000D01*
X21487500Y-10110000D02*
X21507500Y-10130000D01*
X21507500Y-10110000D02*
X21487500Y-10130000D01*
X21492500Y-9862500D02*
X21512500Y-9882500D01*
X21512500Y-9862500D02*
X21492500Y-9882500D01*
X21492500Y-10362500D02*
X21512500Y-10382500D01*
X21512500Y-10362500D02*
X21492500Y-10382500D01*
X21540000Y-9397500D02*
X21560000Y-9417500D01*
X21560000Y-9397500D02*
X21540000Y-9417500D01*
X21547500Y-9600000D02*
X21567500Y-9620000D01*
X21567500Y-9600000D02*
X21547500Y-9620000D01*
X21067500Y-9805000D02*
G75*
G02*
X21002500Y-9805000I-32500J0D01*
G01*
X21002500Y-9805000D02*
G75*
G02*
X21067500Y-9805000I32500J0D01*
G01*
X21067500Y-9932000D02*
G75*
G02*
X21002500Y-9932000I-32500J0D01*
G01*
X21002500Y-9932000D02*
G75*
G02*
X21067500Y-9932000I32500J0D01*
G01*
X21067500Y-10059000D02*
G75*
G02*
X21002500Y-10059000I-32500J0D01*
G01*
X21002500Y-10059000D02*
G75*
G02*
X21067500Y-10059000I32500J0D01*
G01*
X21067500Y-10186000D02*
G75*
G02*
X21002500Y-10186000I-32500J0D01*
G01*
X21002500Y-10186000D02*
G75*
G02*
X21067500Y-10186000I32500J0D01*
G01*
X21067500Y-10313000D02*
G75*
G02*
X21002500Y-10313000I-32500J0D01*
G01*
X21002500Y-10313000D02*
G75*
G02*
X21067500Y-10313000I32500J0D01*
G01*
X21067500Y-10440000D02*
G75*
G02*
X21002500Y-10440000I-32500J0D01*
G01*
X21002500Y-10440000D02*
G75*
G02*
X21067500Y-10440000I32500J0D01*
G01*
X21067500Y-10567000D02*
G75*
G02*
X21002500Y-10567000I-32500J0D01*
G01*
X21002500Y-10567000D02*
G75*
G02*
X21067500Y-10567000I32500J0D01*
G01*
X21067500Y-10694000D02*
G75*
G02*
X21002500Y-10694000I-32500J0D01*
G01*
X21002500Y-10694000D02*
G75*
G02*
X21067500Y-10694000I32500J0D01*
G01*
X21067500Y-10821000D02*
G75*
G02*
X21002500Y-10821000I-32500J0D01*
G01*
X21002500Y-10821000D02*
G75*
G02*
X21067500Y-10821000I32500J0D01*
G01*
X21067500Y-10948000D02*
G75*
G02*
X21002500Y-10948000I-32500J0D01*
G01*
X21002500Y-10948000D02*
G75*
G02*
X21067500Y-10948000I32500J0D01*
G01*
X21067500Y-11075000D02*
G75*
G02*
X21002500Y-11075000I-32500J0D01*
G01*
X21002500Y-11075000D02*
G75*
G02*
X21067500Y-11075000I32500J0D01*
G01*
X21067500Y-11202000D02*
G75*
G02*
X21002500Y-11202000I-32500J0D01*
G01*
X21002500Y-11202000D02*
G75*
G02*
X21067500Y-11202000I32500J0D01*
G01*
D12*
X14995000Y-8960000D02*
X14995000Y-9280000D01*
X14835000Y-9120000D02*
X15155000Y-9120000D01*
X14997500Y-11737500D02*
X14997500Y-12057500D01*
X14837500Y-11897500D02*
X15157500Y-11897500D01*
X21275000Y-11740000D02*
X21275000Y-12060000D01*
X21115000Y-11900000D02*
X21435000Y-11900000D01*
X21277500Y-8957500D02*
X21277500Y-9277500D01*
X21117500Y-9117500D02*
X21437500Y-9117500D01*
D10*
X14885777Y-12581484D02*
X14885777Y-12381484D01*
X14885777Y-12381484D02*
X14933396Y-12381484D01*
X14933396Y-12381484D02*
X14961967Y-12391008D01*
X14961967Y-12391008D02*
X14981015Y-12410055D01*
X14981015Y-12410055D02*
X14990539Y-12429103D01*
X14990539Y-12429103D02*
X15000062Y-12467198D01*
X15000062Y-12467198D02*
X15000062Y-12495769D01*
X15000062Y-12495769D02*
X14990539Y-12533865D01*
X14990539Y-12533865D02*
X14981015Y-12552912D01*
X14981015Y-12552912D02*
X14961967Y-12571960D01*
X14961967Y-12571960D02*
X14933396Y-12581484D01*
X14933396Y-12581484D02*
X14885777Y-12581484D01*
X15085777Y-12581484D02*
X15085777Y-12448150D01*
X15085777Y-12486246D02*
X15095301Y-12467198D01*
X15095301Y-12467198D02*
X15104824Y-12457674D01*
X15104824Y-12457674D02*
X15123872Y-12448150D01*
X15123872Y-12448150D02*
X15142920Y-12448150D01*
X15209586Y-12581484D02*
X15209586Y-12448150D01*
X15209586Y-12381484D02*
X15200062Y-12391008D01*
X15200062Y-12391008D02*
X15209586Y-12400531D01*
X15209586Y-12400531D02*
X15219110Y-12391008D01*
X15219110Y-12391008D02*
X15209586Y-12381484D01*
X15209586Y-12381484D02*
X15209586Y-12400531D01*
X15333396Y-12581484D02*
X15314348Y-12571960D01*
X15314348Y-12571960D02*
X15304824Y-12552912D01*
X15304824Y-12552912D02*
X15304824Y-12381484D01*
X15438158Y-12581484D02*
X15419110Y-12571960D01*
X15419110Y-12571960D02*
X15409586Y-12552912D01*
X15409586Y-12552912D02*
X15409586Y-12381484D01*
X15666729Y-12581484D02*
X15666729Y-12381484D01*
X15666729Y-12381484D02*
X15733396Y-12524341D01*
X15733396Y-12524341D02*
X15800062Y-12381484D01*
X15800062Y-12381484D02*
X15800062Y-12581484D01*
X15981015Y-12581484D02*
X15981015Y-12476722D01*
X15981015Y-12476722D02*
X15971491Y-12457674D01*
X15971491Y-12457674D02*
X15952443Y-12448150D01*
X15952443Y-12448150D02*
X15914348Y-12448150D01*
X15914348Y-12448150D02*
X15895301Y-12457674D01*
X15981015Y-12571960D02*
X15961967Y-12581484D01*
X15961967Y-12581484D02*
X15914348Y-12581484D01*
X15914348Y-12581484D02*
X15895301Y-12571960D01*
X15895301Y-12571960D02*
X15885777Y-12552912D01*
X15885777Y-12552912D02*
X15885777Y-12533865D01*
X15885777Y-12533865D02*
X15895301Y-12514817D01*
X15895301Y-12514817D02*
X15914348Y-12505293D01*
X15914348Y-12505293D02*
X15961967Y-12505293D01*
X15961967Y-12505293D02*
X15981015Y-12495769D01*
X16076253Y-12448150D02*
X16076253Y-12648150D01*
X16076253Y-12457674D02*
X16095301Y-12448150D01*
X16095301Y-12448150D02*
X16133396Y-12448150D01*
X16133396Y-12448150D02*
X16152443Y-12457674D01*
X16152443Y-12457674D02*
X16161967Y-12467198D01*
X16161967Y-12467198D02*
X16171491Y-12486246D01*
X16171491Y-12486246D02*
X16171491Y-12543388D01*
X16171491Y-12543388D02*
X16161967Y-12562436D01*
X16161967Y-12562436D02*
X16152443Y-12571960D01*
X16152443Y-12571960D02*
X16133396Y-12581484D01*
X16133396Y-12581484D02*
X16095301Y-12581484D01*
X16095301Y-12581484D02*
X16076253Y-12571960D01*
X16257205Y-12562436D02*
X16266729Y-12571960D01*
X16266729Y-12571960D02*
X16257205Y-12581484D01*
X16257205Y-12581484D02*
X16247682Y-12571960D01*
X16247682Y-12571960D02*
X16257205Y-12562436D01*
X16257205Y-12562436D02*
X16257205Y-12581484D01*
X16257205Y-12457674D02*
X16266729Y-12467198D01*
X16266729Y-12467198D02*
X16257205Y-12476722D01*
X16257205Y-12476722D02*
X16247682Y-12467198D01*
X16247682Y-12467198D02*
X16257205Y-12457674D01*
X16257205Y-12457674D02*
X16257205Y-12476722D01*
D11*
X14605000Y-12900000D02*
X14625000Y-12920000D01*
X14625000Y-12900000D02*
X14605000Y-12920000D01*
D10*
X14923872Y-12801484D02*
X14942920Y-12801484D01*
X14942920Y-12801484D02*
X14961967Y-12811008D01*
X14961967Y-12811008D02*
X14971491Y-12820531D01*
X14971491Y-12820531D02*
X14981015Y-12839579D01*
X14981015Y-12839579D02*
X14990539Y-12877674D01*
X14990539Y-12877674D02*
X14990539Y-12925293D01*
X14990539Y-12925293D02*
X14981015Y-12963388D01*
X14981015Y-12963388D02*
X14971491Y-12982436D01*
X14971491Y-12982436D02*
X14961967Y-12991960D01*
X14961967Y-12991960D02*
X14942920Y-13001484D01*
X14942920Y-13001484D02*
X14923872Y-13001484D01*
X14923872Y-13001484D02*
X14904824Y-12991960D01*
X14904824Y-12991960D02*
X14895301Y-12982436D01*
X14895301Y-12982436D02*
X14885777Y-12963388D01*
X14885777Y-12963388D02*
X14876253Y-12925293D01*
X14876253Y-12925293D02*
X14876253Y-12877674D01*
X14876253Y-12877674D02*
X14885777Y-12839579D01*
X14885777Y-12839579D02*
X14895301Y-12820531D01*
X14895301Y-12820531D02*
X14904824Y-12811008D01*
X14904824Y-12811008D02*
X14923872Y-12801484D01*
X15076253Y-12982436D02*
X15085777Y-12991960D01*
X15085777Y-12991960D02*
X15076253Y-13001484D01*
X15076253Y-13001484D02*
X15066729Y-12991960D01*
X15066729Y-12991960D02*
X15076253Y-12982436D01*
X15076253Y-12982436D02*
X15076253Y-13001484D01*
X15161967Y-12820531D02*
X15171491Y-12811008D01*
X15171491Y-12811008D02*
X15190539Y-12801484D01*
X15190539Y-12801484D02*
X15238158Y-12801484D01*
X15238158Y-12801484D02*
X15257205Y-12811008D01*
X15257205Y-12811008D02*
X15266729Y-12820531D01*
X15266729Y-12820531D02*
X15276253Y-12839579D01*
X15276253Y-12839579D02*
X15276253Y-12858627D01*
X15276253Y-12858627D02*
X15266729Y-12887198D01*
X15266729Y-12887198D02*
X15152443Y-13001484D01*
X15152443Y-13001484D02*
X15276253Y-13001484D01*
X15400062Y-12801484D02*
X15419110Y-12801484D01*
X15419110Y-12801484D02*
X15438158Y-12811008D01*
X15438158Y-12811008D02*
X15447682Y-12820531D01*
X15447682Y-12820531D02*
X15457205Y-12839579D01*
X15457205Y-12839579D02*
X15466729Y-12877674D01*
X15466729Y-12877674D02*
X15466729Y-12925293D01*
X15466729Y-12925293D02*
X15457205Y-12963388D01*
X15457205Y-12963388D02*
X15447682Y-12982436D01*
X15447682Y-12982436D02*
X15438158Y-12991960D01*
X15438158Y-12991960D02*
X15419110Y-13001484D01*
X15419110Y-13001484D02*
X15400062Y-13001484D01*
X15400062Y-13001484D02*
X15381015Y-12991960D01*
X15381015Y-12991960D02*
X15371491Y-12982436D01*
X15371491Y-12982436D02*
X15361967Y-12963388D01*
X15361967Y-12963388D02*
X15352443Y-12925293D01*
X15352443Y-12925293D02*
X15352443Y-12877674D01*
X15352443Y-12877674D02*
X15361967Y-12839579D01*
X15361967Y-12839579D02*
X15371491Y-12820531D01*
X15371491Y-12820531D02*
X15381015Y-12811008D01*
X15381015Y-12811008D02*
X15400062Y-12801484D01*
X15590539Y-12801484D02*
X15609586Y-12801484D01*
X15609586Y-12801484D02*
X15628634Y-12811008D01*
X15628634Y-12811008D02*
X15638158Y-12820531D01*
X15638158Y-12820531D02*
X15647682Y-12839579D01*
X15647682Y-12839579D02*
X15657205Y-12877674D01*
X15657205Y-12877674D02*
X15657205Y-12925293D01*
X15657205Y-12925293D02*
X15647682Y-12963388D01*
X15647682Y-12963388D02*
X15638158Y-12982436D01*
X15638158Y-12982436D02*
X15628634Y-12991960D01*
X15628634Y-12991960D02*
X15609586Y-13001484D01*
X15609586Y-13001484D02*
X15590539Y-13001484D01*
X15590539Y-13001484D02*
X15571491Y-12991960D01*
X15571491Y-12991960D02*
X15561967Y-12982436D01*
X15561967Y-12982436D02*
X15552443Y-12963388D01*
X15552443Y-12963388D02*
X15542920Y-12925293D01*
X15542920Y-12925293D02*
X15542920Y-12877674D01*
X15542920Y-12877674D02*
X15552443Y-12839579D01*
X15552443Y-12839579D02*
X15561967Y-12820531D01*
X15561967Y-12820531D02*
X15571491Y-12811008D01*
X15571491Y-12811008D02*
X15590539Y-12801484D01*
X15742920Y-13001484D02*
X15742920Y-12868150D01*
X15742920Y-12887198D02*
X15752443Y-12877674D01*
X15752443Y-12877674D02*
X15771491Y-12868150D01*
X15771491Y-12868150D02*
X15800063Y-12868150D01*
X15800063Y-12868150D02*
X15819110Y-12877674D01*
X15819110Y-12877674D02*
X15828634Y-12896722D01*
X15828634Y-12896722D02*
X15828634Y-13001484D01*
X15828634Y-12896722D02*
X15838158Y-12877674D01*
X15838158Y-12877674D02*
X15857205Y-12868150D01*
X15857205Y-12868150D02*
X15885777Y-12868150D01*
X15885777Y-12868150D02*
X15904824Y-12877674D01*
X15904824Y-12877674D02*
X15914348Y-12896722D01*
X15914348Y-12896722D02*
X15914348Y-13001484D01*
X16009586Y-13001484D02*
X16009586Y-12868150D01*
X16009586Y-12887198D02*
X16019110Y-12877674D01*
X16019110Y-12877674D02*
X16038158Y-12868150D01*
X16038158Y-12868150D02*
X16066729Y-12868150D01*
X16066729Y-12868150D02*
X16085777Y-12877674D01*
X16085777Y-12877674D02*
X16095301Y-12896722D01*
X16095301Y-12896722D02*
X16095301Y-13001484D01*
X16095301Y-12896722D02*
X16104824Y-12877674D01*
X16104824Y-12877674D02*
X16123872Y-12868150D01*
X16123872Y-12868150D02*
X16152443Y-12868150D01*
X16152443Y-12868150D02*
X16171491Y-12877674D01*
X16171491Y-12877674D02*
X16181015Y-12896722D01*
X16181015Y-12896722D02*
X16181015Y-13001484D01*
X16571491Y-12791960D02*
X16400063Y-13049103D01*
X16828634Y-12801484D02*
X16847682Y-12801484D01*
X16847682Y-12801484D02*
X16866729Y-12811008D01*
X16866729Y-12811008D02*
X16876253Y-12820531D01*
X16876253Y-12820531D02*
X16885777Y-12839579D01*
X16885777Y-12839579D02*
X16895301Y-12877674D01*
X16895301Y-12877674D02*
X16895301Y-12925293D01*
X16895301Y-12925293D02*
X16885777Y-12963388D01*
X16885777Y-12963388D02*
X16876253Y-12982436D01*
X16876253Y-12982436D02*
X16866729Y-12991960D01*
X16866729Y-12991960D02*
X16847682Y-13001484D01*
X16847682Y-13001484D02*
X16828634Y-13001484D01*
X16828634Y-13001484D02*
X16809587Y-12991960D01*
X16809587Y-12991960D02*
X16800063Y-12982436D01*
X16800063Y-12982436D02*
X16790539Y-12963388D01*
X16790539Y-12963388D02*
X16781015Y-12925293D01*
X16781015Y-12925293D02*
X16781015Y-12877674D01*
X16781015Y-12877674D02*
X16790539Y-12839579D01*
X16790539Y-12839579D02*
X16800063Y-12820531D01*
X16800063Y-12820531D02*
X16809587Y-12811008D01*
X16809587Y-12811008D02*
X16828634Y-12801484D01*
X16981015Y-12982436D02*
X16990539Y-12991960D01*
X16990539Y-12991960D02*
X16981015Y-13001484D01*
X16981015Y-13001484D02*
X16971491Y-12991960D01*
X16971491Y-12991960D02*
X16981015Y-12982436D01*
X16981015Y-12982436D02*
X16981015Y-13001484D01*
X17114348Y-12801484D02*
X17133396Y-12801484D01*
X17133396Y-12801484D02*
X17152444Y-12811008D01*
X17152444Y-12811008D02*
X17161968Y-12820531D01*
X17161968Y-12820531D02*
X17171491Y-12839579D01*
X17171491Y-12839579D02*
X17181015Y-12877674D01*
X17181015Y-12877674D02*
X17181015Y-12925293D01*
X17181015Y-12925293D02*
X17171491Y-12963388D01*
X17171491Y-12963388D02*
X17161968Y-12982436D01*
X17161968Y-12982436D02*
X17152444Y-12991960D01*
X17152444Y-12991960D02*
X17133396Y-13001484D01*
X17133396Y-13001484D02*
X17114348Y-13001484D01*
X17114348Y-13001484D02*
X17095301Y-12991960D01*
X17095301Y-12991960D02*
X17085777Y-12982436D01*
X17085777Y-12982436D02*
X17076253Y-12963388D01*
X17076253Y-12963388D02*
X17066729Y-12925293D01*
X17066729Y-12925293D02*
X17066729Y-12877674D01*
X17066729Y-12877674D02*
X17076253Y-12839579D01*
X17076253Y-12839579D02*
X17085777Y-12820531D01*
X17085777Y-12820531D02*
X17095301Y-12811008D01*
X17095301Y-12811008D02*
X17114348Y-12801484D01*
X17304825Y-12801484D02*
X17323872Y-12801484D01*
X17323872Y-12801484D02*
X17342920Y-12811008D01*
X17342920Y-12811008D02*
X17352444Y-12820531D01*
X17352444Y-12820531D02*
X17361968Y-12839579D01*
X17361968Y-12839579D02*
X17371491Y-12877674D01*
X17371491Y-12877674D02*
X17371491Y-12925293D01*
X17371491Y-12925293D02*
X17361968Y-12963388D01*
X17361968Y-12963388D02*
X17352444Y-12982436D01*
X17352444Y-12982436D02*
X17342920Y-12991960D01*
X17342920Y-12991960D02*
X17323872Y-13001484D01*
X17323872Y-13001484D02*
X17304825Y-13001484D01*
X17304825Y-13001484D02*
X17285777Y-12991960D01*
X17285777Y-12991960D02*
X17276253Y-12982436D01*
X17276253Y-12982436D02*
X17266729Y-12963388D01*
X17266729Y-12963388D02*
X17257206Y-12925293D01*
X17257206Y-12925293D02*
X17257206Y-12877674D01*
X17257206Y-12877674D02*
X17266729Y-12839579D01*
X17266729Y-12839579D02*
X17276253Y-12820531D01*
X17276253Y-12820531D02*
X17285777Y-12811008D01*
X17285777Y-12811008D02*
X17304825Y-12801484D01*
X17438158Y-12801484D02*
X17571491Y-12801484D01*
X17571491Y-12801484D02*
X17485777Y-13001484D01*
X17657206Y-13001484D02*
X17695301Y-13001484D01*
X17695301Y-13001484D02*
X17714349Y-12991960D01*
X17714349Y-12991960D02*
X17723872Y-12982436D01*
X17723872Y-12982436D02*
X17742920Y-12953865D01*
X17742920Y-12953865D02*
X17752444Y-12915769D01*
X17752444Y-12915769D02*
X17752444Y-12839579D01*
X17752444Y-12839579D02*
X17742920Y-12820531D01*
X17742920Y-12820531D02*
X17733396Y-12811008D01*
X17733396Y-12811008D02*
X17714349Y-12801484D01*
X17714349Y-12801484D02*
X17676253Y-12801484D01*
X17676253Y-12801484D02*
X17657206Y-12811008D01*
X17657206Y-12811008D02*
X17647682Y-12820531D01*
X17647682Y-12820531D02*
X17638158Y-12839579D01*
X17638158Y-12839579D02*
X17638158Y-12887198D01*
X17638158Y-12887198D02*
X17647682Y-12906246D01*
X17647682Y-12906246D02*
X17657206Y-12915769D01*
X17657206Y-12915769D02*
X17676253Y-12925293D01*
X17676253Y-12925293D02*
X17714349Y-12925293D01*
X17714349Y-12925293D02*
X17733396Y-12915769D01*
X17733396Y-12915769D02*
X17742920Y-12906246D01*
X17742920Y-12906246D02*
X17752444Y-12887198D01*
X17828634Y-12801484D02*
X17828634Y-12839579D01*
X17904825Y-12801484D02*
X17904825Y-12839579D01*
X18200063Y-13077674D02*
X18190539Y-13068150D01*
X18190539Y-13068150D02*
X18171491Y-13039579D01*
X18171491Y-13039579D02*
X18161968Y-13020531D01*
X18161968Y-13020531D02*
X18152444Y-12991960D01*
X18152444Y-12991960D02*
X18142920Y-12944341D01*
X18142920Y-12944341D02*
X18142920Y-12906246D01*
X18142920Y-12906246D02*
X18152444Y-12858627D01*
X18152444Y-12858627D02*
X18161968Y-12830055D01*
X18161968Y-12830055D02*
X18171491Y-12811008D01*
X18171491Y-12811008D02*
X18190539Y-12782436D01*
X18190539Y-12782436D02*
X18200063Y-12772912D01*
X18361968Y-12868150D02*
X18361968Y-13001484D01*
X18314349Y-12791960D02*
X18266730Y-12934817D01*
X18266730Y-12934817D02*
X18390539Y-12934817D01*
X18552444Y-12801484D02*
X18514349Y-12801484D01*
X18514349Y-12801484D02*
X18495301Y-12811008D01*
X18495301Y-12811008D02*
X18485777Y-12820531D01*
X18485777Y-12820531D02*
X18466730Y-12849103D01*
X18466730Y-12849103D02*
X18457206Y-12887198D01*
X18457206Y-12887198D02*
X18457206Y-12963388D01*
X18457206Y-12963388D02*
X18466730Y-12982436D01*
X18466730Y-12982436D02*
X18476253Y-12991960D01*
X18476253Y-12991960D02*
X18495301Y-13001484D01*
X18495301Y-13001484D02*
X18533396Y-13001484D01*
X18533396Y-13001484D02*
X18552444Y-12991960D01*
X18552444Y-12991960D02*
X18561968Y-12982436D01*
X18561968Y-12982436D02*
X18571491Y-12963388D01*
X18571491Y-12963388D02*
X18571491Y-12915769D01*
X18571491Y-12915769D02*
X18561968Y-12896722D01*
X18561968Y-12896722D02*
X18552444Y-12887198D01*
X18552444Y-12887198D02*
X18533396Y-12877674D01*
X18533396Y-12877674D02*
X18495301Y-12877674D01*
X18495301Y-12877674D02*
X18476253Y-12887198D01*
X18476253Y-12887198D02*
X18466730Y-12896722D01*
X18466730Y-12896722D02*
X18457206Y-12915769D01*
X18742920Y-12868150D02*
X18742920Y-13001484D01*
X18695301Y-12791960D02*
X18647682Y-12934817D01*
X18647682Y-12934817D02*
X18771491Y-12934817D01*
X19000063Y-13001484D02*
X19000063Y-12801484D01*
X19085777Y-13001484D02*
X19085777Y-12896722D01*
X19085777Y-12896722D02*
X19076253Y-12877674D01*
X19076253Y-12877674D02*
X19057206Y-12868150D01*
X19057206Y-12868150D02*
X19028634Y-12868150D01*
X19028634Y-12868150D02*
X19009587Y-12877674D01*
X19009587Y-12877674D02*
X19000063Y-12887198D01*
X19209587Y-13001484D02*
X19190539Y-12991960D01*
X19190539Y-12991960D02*
X19181015Y-12982436D01*
X19181015Y-12982436D02*
X19171492Y-12963388D01*
X19171492Y-12963388D02*
X19171492Y-12906246D01*
X19171492Y-12906246D02*
X19181015Y-12887198D01*
X19181015Y-12887198D02*
X19190539Y-12877674D01*
X19190539Y-12877674D02*
X19209587Y-12868150D01*
X19209587Y-12868150D02*
X19238158Y-12868150D01*
X19238158Y-12868150D02*
X19257206Y-12877674D01*
X19257206Y-12877674D02*
X19266730Y-12887198D01*
X19266730Y-12887198D02*
X19276253Y-12906246D01*
X19276253Y-12906246D02*
X19276253Y-12963388D01*
X19276253Y-12963388D02*
X19266730Y-12982436D01*
X19266730Y-12982436D02*
X19257206Y-12991960D01*
X19257206Y-12991960D02*
X19238158Y-13001484D01*
X19238158Y-13001484D02*
X19209587Y-13001484D01*
X19390539Y-13001484D02*
X19371492Y-12991960D01*
X19371492Y-12991960D02*
X19361968Y-12972912D01*
X19361968Y-12972912D02*
X19361968Y-12801484D01*
X19542920Y-12991960D02*
X19523873Y-13001484D01*
X19523873Y-13001484D02*
X19485777Y-13001484D01*
X19485777Y-13001484D02*
X19466730Y-12991960D01*
X19466730Y-12991960D02*
X19457206Y-12972912D01*
X19457206Y-12972912D02*
X19457206Y-12896722D01*
X19457206Y-12896722D02*
X19466730Y-12877674D01*
X19466730Y-12877674D02*
X19485777Y-12868150D01*
X19485777Y-12868150D02*
X19523873Y-12868150D01*
X19523873Y-12868150D02*
X19542920Y-12877674D01*
X19542920Y-12877674D02*
X19552444Y-12896722D01*
X19552444Y-12896722D02*
X19552444Y-12915769D01*
X19552444Y-12915769D02*
X19457206Y-12934817D01*
X19628634Y-12991960D02*
X19647682Y-13001484D01*
X19647682Y-13001484D02*
X19685777Y-13001484D01*
X19685777Y-13001484D02*
X19704825Y-12991960D01*
X19704825Y-12991960D02*
X19714349Y-12972912D01*
X19714349Y-12972912D02*
X19714349Y-12963388D01*
X19714349Y-12963388D02*
X19704825Y-12944341D01*
X19704825Y-12944341D02*
X19685777Y-12934817D01*
X19685777Y-12934817D02*
X19657206Y-12934817D01*
X19657206Y-12934817D02*
X19638158Y-12925293D01*
X19638158Y-12925293D02*
X19628634Y-12906246D01*
X19628634Y-12906246D02*
X19628634Y-12896722D01*
X19628634Y-12896722D02*
X19638158Y-12877674D01*
X19638158Y-12877674D02*
X19657206Y-12868150D01*
X19657206Y-12868150D02*
X19685777Y-12868150D01*
X19685777Y-12868150D02*
X19704825Y-12877674D01*
X19781015Y-13077674D02*
X19790539Y-13068150D01*
X19790539Y-13068150D02*
X19809587Y-13039579D01*
X19809587Y-13039579D02*
X19819111Y-13020531D01*
X19819111Y-13020531D02*
X19828634Y-12991960D01*
X19828634Y-12991960D02*
X19838158Y-12944341D01*
X19838158Y-12944341D02*
X19838158Y-12906246D01*
X19838158Y-12906246D02*
X19828634Y-12858627D01*
X19828634Y-12858627D02*
X19819111Y-12830055D01*
X19819111Y-12830055D02*
X19809587Y-12811008D01*
X19809587Y-12811008D02*
X19790539Y-12782436D01*
X19790539Y-12782436D02*
X19781015Y-12772912D01*
D11*
X14625000Y-13174000D02*
G75*
G02*
X14560000Y-13174000I-32500J0D01*
G01*
X14560000Y-13174000D02*
G75*
G02*
X14625000Y-13174000I32500J0D01*
G01*
D10*
X14923872Y-13065484D02*
X14942920Y-13065484D01*
X14942920Y-13065484D02*
X14961967Y-13075008D01*
X14961967Y-13075008D02*
X14971491Y-13084531D01*
X14971491Y-13084531D02*
X14981015Y-13103579D01*
X14981015Y-13103579D02*
X14990539Y-13141674D01*
X14990539Y-13141674D02*
X14990539Y-13189293D01*
X14990539Y-13189293D02*
X14981015Y-13227388D01*
X14981015Y-13227388D02*
X14971491Y-13246436D01*
X14971491Y-13246436D02*
X14961967Y-13255960D01*
X14961967Y-13255960D02*
X14942920Y-13265484D01*
X14942920Y-13265484D02*
X14923872Y-13265484D01*
X14923872Y-13265484D02*
X14904824Y-13255960D01*
X14904824Y-13255960D02*
X14895301Y-13246436D01*
X14895301Y-13246436D02*
X14885777Y-13227388D01*
X14885777Y-13227388D02*
X14876253Y-13189293D01*
X14876253Y-13189293D02*
X14876253Y-13141674D01*
X14876253Y-13141674D02*
X14885777Y-13103579D01*
X14885777Y-13103579D02*
X14895301Y-13084531D01*
X14895301Y-13084531D02*
X14904824Y-13075008D01*
X14904824Y-13075008D02*
X14923872Y-13065484D01*
X15076253Y-13246436D02*
X15085777Y-13255960D01*
X15085777Y-13255960D02*
X15076253Y-13265484D01*
X15076253Y-13265484D02*
X15066729Y-13255960D01*
X15066729Y-13255960D02*
X15076253Y-13246436D01*
X15076253Y-13246436D02*
X15076253Y-13265484D01*
X15257205Y-13065484D02*
X15219110Y-13065484D01*
X15219110Y-13065484D02*
X15200062Y-13075008D01*
X15200062Y-13075008D02*
X15190539Y-13084531D01*
X15190539Y-13084531D02*
X15171491Y-13113103D01*
X15171491Y-13113103D02*
X15161967Y-13151198D01*
X15161967Y-13151198D02*
X15161967Y-13227388D01*
X15161967Y-13227388D02*
X15171491Y-13246436D01*
X15171491Y-13246436D02*
X15181015Y-13255960D01*
X15181015Y-13255960D02*
X15200062Y-13265484D01*
X15200062Y-13265484D02*
X15238158Y-13265484D01*
X15238158Y-13265484D02*
X15257205Y-13255960D01*
X15257205Y-13255960D02*
X15266729Y-13246436D01*
X15266729Y-13246436D02*
X15276253Y-13227388D01*
X15276253Y-13227388D02*
X15276253Y-13179769D01*
X15276253Y-13179769D02*
X15266729Y-13160722D01*
X15266729Y-13160722D02*
X15257205Y-13151198D01*
X15257205Y-13151198D02*
X15238158Y-13141674D01*
X15238158Y-13141674D02*
X15200062Y-13141674D01*
X15200062Y-13141674D02*
X15181015Y-13151198D01*
X15181015Y-13151198D02*
X15171491Y-13160722D01*
X15171491Y-13160722D02*
X15161967Y-13179769D01*
X15457205Y-13065484D02*
X15361967Y-13065484D01*
X15361967Y-13065484D02*
X15352443Y-13160722D01*
X15352443Y-13160722D02*
X15361967Y-13151198D01*
X15361967Y-13151198D02*
X15381015Y-13141674D01*
X15381015Y-13141674D02*
X15428634Y-13141674D01*
X15428634Y-13141674D02*
X15447682Y-13151198D01*
X15447682Y-13151198D02*
X15457205Y-13160722D01*
X15457205Y-13160722D02*
X15466729Y-13179769D01*
X15466729Y-13179769D02*
X15466729Y-13227388D01*
X15466729Y-13227388D02*
X15457205Y-13246436D01*
X15457205Y-13246436D02*
X15447682Y-13255960D01*
X15447682Y-13255960D02*
X15428634Y-13265484D01*
X15428634Y-13265484D02*
X15381015Y-13265484D01*
X15381015Y-13265484D02*
X15361967Y-13255960D01*
X15361967Y-13255960D02*
X15352443Y-13246436D01*
X15590539Y-13065484D02*
X15609586Y-13065484D01*
X15609586Y-13065484D02*
X15628634Y-13075008D01*
X15628634Y-13075008D02*
X15638158Y-13084531D01*
X15638158Y-13084531D02*
X15647682Y-13103579D01*
X15647682Y-13103579D02*
X15657205Y-13141674D01*
X15657205Y-13141674D02*
X15657205Y-13189293D01*
X15657205Y-13189293D02*
X15647682Y-13227388D01*
X15647682Y-13227388D02*
X15638158Y-13246436D01*
X15638158Y-13246436D02*
X15628634Y-13255960D01*
X15628634Y-13255960D02*
X15609586Y-13265484D01*
X15609586Y-13265484D02*
X15590539Y-13265484D01*
X15590539Y-13265484D02*
X15571491Y-13255960D01*
X15571491Y-13255960D02*
X15561967Y-13246436D01*
X15561967Y-13246436D02*
X15552443Y-13227388D01*
X15552443Y-13227388D02*
X15542920Y-13189293D01*
X15542920Y-13189293D02*
X15542920Y-13141674D01*
X15542920Y-13141674D02*
X15552443Y-13103579D01*
X15552443Y-13103579D02*
X15561967Y-13084531D01*
X15561967Y-13084531D02*
X15571491Y-13075008D01*
X15571491Y-13075008D02*
X15590539Y-13065484D01*
X15742920Y-13265484D02*
X15742920Y-13132150D01*
X15742920Y-13151198D02*
X15752443Y-13141674D01*
X15752443Y-13141674D02*
X15771491Y-13132150D01*
X15771491Y-13132150D02*
X15800063Y-13132150D01*
X15800063Y-13132150D02*
X15819110Y-13141674D01*
X15819110Y-13141674D02*
X15828634Y-13160722D01*
X15828634Y-13160722D02*
X15828634Y-13265484D01*
X15828634Y-13160722D02*
X15838158Y-13141674D01*
X15838158Y-13141674D02*
X15857205Y-13132150D01*
X15857205Y-13132150D02*
X15885777Y-13132150D01*
X15885777Y-13132150D02*
X15904824Y-13141674D01*
X15904824Y-13141674D02*
X15914348Y-13160722D01*
X15914348Y-13160722D02*
X15914348Y-13265484D01*
X16009586Y-13265484D02*
X16009586Y-13132150D01*
X16009586Y-13151198D02*
X16019110Y-13141674D01*
X16019110Y-13141674D02*
X16038158Y-13132150D01*
X16038158Y-13132150D02*
X16066729Y-13132150D01*
X16066729Y-13132150D02*
X16085777Y-13141674D01*
X16085777Y-13141674D02*
X16095301Y-13160722D01*
X16095301Y-13160722D02*
X16095301Y-13265484D01*
X16095301Y-13160722D02*
X16104824Y-13141674D01*
X16104824Y-13141674D02*
X16123872Y-13132150D01*
X16123872Y-13132150D02*
X16152443Y-13132150D01*
X16152443Y-13132150D02*
X16171491Y-13141674D01*
X16171491Y-13141674D02*
X16181015Y-13160722D01*
X16181015Y-13160722D02*
X16181015Y-13265484D01*
X16571491Y-13055960D02*
X16400063Y-13313103D01*
X16828634Y-13065484D02*
X16847682Y-13065484D01*
X16847682Y-13065484D02*
X16866729Y-13075008D01*
X16866729Y-13075008D02*
X16876253Y-13084531D01*
X16876253Y-13084531D02*
X16885777Y-13103579D01*
X16885777Y-13103579D02*
X16895301Y-13141674D01*
X16895301Y-13141674D02*
X16895301Y-13189293D01*
X16895301Y-13189293D02*
X16885777Y-13227388D01*
X16885777Y-13227388D02*
X16876253Y-13246436D01*
X16876253Y-13246436D02*
X16866729Y-13255960D01*
X16866729Y-13255960D02*
X16847682Y-13265484D01*
X16847682Y-13265484D02*
X16828634Y-13265484D01*
X16828634Y-13265484D02*
X16809587Y-13255960D01*
X16809587Y-13255960D02*
X16800063Y-13246436D01*
X16800063Y-13246436D02*
X16790539Y-13227388D01*
X16790539Y-13227388D02*
X16781015Y-13189293D01*
X16781015Y-13189293D02*
X16781015Y-13141674D01*
X16781015Y-13141674D02*
X16790539Y-13103579D01*
X16790539Y-13103579D02*
X16800063Y-13084531D01*
X16800063Y-13084531D02*
X16809587Y-13075008D01*
X16809587Y-13075008D02*
X16828634Y-13065484D01*
X16981015Y-13246436D02*
X16990539Y-13255960D01*
X16990539Y-13255960D02*
X16981015Y-13265484D01*
X16981015Y-13265484D02*
X16971491Y-13255960D01*
X16971491Y-13255960D02*
X16981015Y-13246436D01*
X16981015Y-13246436D02*
X16981015Y-13265484D01*
X17114348Y-13065484D02*
X17133396Y-13065484D01*
X17133396Y-13065484D02*
X17152444Y-13075008D01*
X17152444Y-13075008D02*
X17161968Y-13084531D01*
X17161968Y-13084531D02*
X17171491Y-13103579D01*
X17171491Y-13103579D02*
X17181015Y-13141674D01*
X17181015Y-13141674D02*
X17181015Y-13189293D01*
X17181015Y-13189293D02*
X17171491Y-13227388D01*
X17171491Y-13227388D02*
X17161968Y-13246436D01*
X17161968Y-13246436D02*
X17152444Y-13255960D01*
X17152444Y-13255960D02*
X17133396Y-13265484D01*
X17133396Y-13265484D02*
X17114348Y-13265484D01*
X17114348Y-13265484D02*
X17095301Y-13255960D01*
X17095301Y-13255960D02*
X17085777Y-13246436D01*
X17085777Y-13246436D02*
X17076253Y-13227388D01*
X17076253Y-13227388D02*
X17066729Y-13189293D01*
X17066729Y-13189293D02*
X17066729Y-13141674D01*
X17066729Y-13141674D02*
X17076253Y-13103579D01*
X17076253Y-13103579D02*
X17085777Y-13084531D01*
X17085777Y-13084531D02*
X17095301Y-13075008D01*
X17095301Y-13075008D02*
X17114348Y-13065484D01*
X17257206Y-13084531D02*
X17266729Y-13075008D01*
X17266729Y-13075008D02*
X17285777Y-13065484D01*
X17285777Y-13065484D02*
X17333396Y-13065484D01*
X17333396Y-13065484D02*
X17352444Y-13075008D01*
X17352444Y-13075008D02*
X17361968Y-13084531D01*
X17361968Y-13084531D02*
X17371491Y-13103579D01*
X17371491Y-13103579D02*
X17371491Y-13122627D01*
X17371491Y-13122627D02*
X17361968Y-13151198D01*
X17361968Y-13151198D02*
X17247682Y-13265484D01*
X17247682Y-13265484D02*
X17371491Y-13265484D01*
X17552444Y-13065484D02*
X17457206Y-13065484D01*
X17457206Y-13065484D02*
X17447682Y-13160722D01*
X17447682Y-13160722D02*
X17457206Y-13151198D01*
X17457206Y-13151198D02*
X17476253Y-13141674D01*
X17476253Y-13141674D02*
X17523872Y-13141674D01*
X17523872Y-13141674D02*
X17542920Y-13151198D01*
X17542920Y-13151198D02*
X17552444Y-13160722D01*
X17552444Y-13160722D02*
X17561968Y-13179769D01*
X17561968Y-13179769D02*
X17561968Y-13227388D01*
X17561968Y-13227388D02*
X17552444Y-13246436D01*
X17552444Y-13246436D02*
X17542920Y-13255960D01*
X17542920Y-13255960D02*
X17523872Y-13265484D01*
X17523872Y-13265484D02*
X17476253Y-13265484D01*
X17476253Y-13265484D02*
X17457206Y-13255960D01*
X17457206Y-13255960D02*
X17447682Y-13246436D01*
X17733396Y-13065484D02*
X17695301Y-13065484D01*
X17695301Y-13065484D02*
X17676253Y-13075008D01*
X17676253Y-13075008D02*
X17666729Y-13084531D01*
X17666729Y-13084531D02*
X17647682Y-13113103D01*
X17647682Y-13113103D02*
X17638158Y-13151198D01*
X17638158Y-13151198D02*
X17638158Y-13227388D01*
X17638158Y-13227388D02*
X17647682Y-13246436D01*
X17647682Y-13246436D02*
X17657206Y-13255960D01*
X17657206Y-13255960D02*
X17676253Y-13265484D01*
X17676253Y-13265484D02*
X17714349Y-13265484D01*
X17714349Y-13265484D02*
X17733396Y-13255960D01*
X17733396Y-13255960D02*
X17742920Y-13246436D01*
X17742920Y-13246436D02*
X17752444Y-13227388D01*
X17752444Y-13227388D02*
X17752444Y-13179769D01*
X17752444Y-13179769D02*
X17742920Y-13160722D01*
X17742920Y-13160722D02*
X17733396Y-13151198D01*
X17733396Y-13151198D02*
X17714349Y-13141674D01*
X17714349Y-13141674D02*
X17676253Y-13141674D01*
X17676253Y-13141674D02*
X17657206Y-13151198D01*
X17657206Y-13151198D02*
X17647682Y-13160722D01*
X17647682Y-13160722D02*
X17638158Y-13179769D01*
X17828634Y-13065484D02*
X17828634Y-13103579D01*
X17904825Y-13065484D02*
X17904825Y-13103579D01*
X18200063Y-13341674D02*
X18190539Y-13332150D01*
X18190539Y-13332150D02*
X18171491Y-13303579D01*
X18171491Y-13303579D02*
X18161968Y-13284531D01*
X18161968Y-13284531D02*
X18152444Y-13255960D01*
X18152444Y-13255960D02*
X18142920Y-13208341D01*
X18142920Y-13208341D02*
X18142920Y-13170246D01*
X18142920Y-13170246D02*
X18152444Y-13122627D01*
X18152444Y-13122627D02*
X18161968Y-13094055D01*
X18161968Y-13094055D02*
X18171491Y-13075008D01*
X18171491Y-13075008D02*
X18190539Y-13046436D01*
X18190539Y-13046436D02*
X18200063Y-13036912D01*
X18381015Y-13265484D02*
X18266730Y-13265484D01*
X18323872Y-13265484D02*
X18323872Y-13065484D01*
X18323872Y-13065484D02*
X18304825Y-13094055D01*
X18304825Y-13094055D02*
X18285777Y-13113103D01*
X18285777Y-13113103D02*
X18266730Y-13122627D01*
X18457206Y-13084531D02*
X18466730Y-13075008D01*
X18466730Y-13075008D02*
X18485777Y-13065484D01*
X18485777Y-13065484D02*
X18533396Y-13065484D01*
X18533396Y-13065484D02*
X18552444Y-13075008D01*
X18552444Y-13075008D02*
X18561968Y-13084531D01*
X18561968Y-13084531D02*
X18571491Y-13103579D01*
X18571491Y-13103579D02*
X18571491Y-13122627D01*
X18571491Y-13122627D02*
X18561968Y-13151198D01*
X18561968Y-13151198D02*
X18447682Y-13265484D01*
X18447682Y-13265484D02*
X18571491Y-13265484D01*
X18809587Y-13265484D02*
X18809587Y-13065484D01*
X18895301Y-13265484D02*
X18895301Y-13160722D01*
X18895301Y-13160722D02*
X18885777Y-13141674D01*
X18885777Y-13141674D02*
X18866730Y-13132150D01*
X18866730Y-13132150D02*
X18838158Y-13132150D01*
X18838158Y-13132150D02*
X18819111Y-13141674D01*
X18819111Y-13141674D02*
X18809587Y-13151198D01*
X19019111Y-13265484D02*
X19000063Y-13255960D01*
X19000063Y-13255960D02*
X18990539Y-13246436D01*
X18990539Y-13246436D02*
X18981015Y-13227388D01*
X18981015Y-13227388D02*
X18981015Y-13170246D01*
X18981015Y-13170246D02*
X18990539Y-13151198D01*
X18990539Y-13151198D02*
X19000063Y-13141674D01*
X19000063Y-13141674D02*
X19019111Y-13132150D01*
X19019111Y-13132150D02*
X19047682Y-13132150D01*
X19047682Y-13132150D02*
X19066730Y-13141674D01*
X19066730Y-13141674D02*
X19076253Y-13151198D01*
X19076253Y-13151198D02*
X19085777Y-13170246D01*
X19085777Y-13170246D02*
X19085777Y-13227388D01*
X19085777Y-13227388D02*
X19076253Y-13246436D01*
X19076253Y-13246436D02*
X19066730Y-13255960D01*
X19066730Y-13255960D02*
X19047682Y-13265484D01*
X19047682Y-13265484D02*
X19019111Y-13265484D01*
X19200063Y-13265484D02*
X19181015Y-13255960D01*
X19181015Y-13255960D02*
X19171492Y-13236912D01*
X19171492Y-13236912D02*
X19171492Y-13065484D01*
X19352444Y-13255960D02*
X19333396Y-13265484D01*
X19333396Y-13265484D02*
X19295301Y-13265484D01*
X19295301Y-13265484D02*
X19276253Y-13255960D01*
X19276253Y-13255960D02*
X19266730Y-13236912D01*
X19266730Y-13236912D02*
X19266730Y-13160722D01*
X19266730Y-13160722D02*
X19276253Y-13141674D01*
X19276253Y-13141674D02*
X19295301Y-13132150D01*
X19295301Y-13132150D02*
X19333396Y-13132150D01*
X19333396Y-13132150D02*
X19352444Y-13141674D01*
X19352444Y-13141674D02*
X19361968Y-13160722D01*
X19361968Y-13160722D02*
X19361968Y-13179769D01*
X19361968Y-13179769D02*
X19266730Y-13198817D01*
X19438158Y-13255960D02*
X19457206Y-13265484D01*
X19457206Y-13265484D02*
X19495301Y-13265484D01*
X19495301Y-13265484D02*
X19514349Y-13255960D01*
X19514349Y-13255960D02*
X19523873Y-13236912D01*
X19523873Y-13236912D02*
X19523873Y-13227388D01*
X19523873Y-13227388D02*
X19514349Y-13208341D01*
X19514349Y-13208341D02*
X19495301Y-13198817D01*
X19495301Y-13198817D02*
X19466730Y-13198817D01*
X19466730Y-13198817D02*
X19447682Y-13189293D01*
X19447682Y-13189293D02*
X19438158Y-13170246D01*
X19438158Y-13170246D02*
X19438158Y-13160722D01*
X19438158Y-13160722D02*
X19447682Y-13141674D01*
X19447682Y-13141674D02*
X19466730Y-13132150D01*
X19466730Y-13132150D02*
X19495301Y-13132150D01*
X19495301Y-13132150D02*
X19514349Y-13141674D01*
X19590539Y-13341674D02*
X19600063Y-13332150D01*
X19600063Y-13332150D02*
X19619111Y-13303579D01*
X19619111Y-13303579D02*
X19628634Y-13284531D01*
X19628634Y-13284531D02*
X19638158Y-13255960D01*
X19638158Y-13255960D02*
X19647682Y-13208341D01*
X19647682Y-13208341D02*
X19647682Y-13170246D01*
X19647682Y-13170246D02*
X19638158Y-13122627D01*
X19638158Y-13122627D02*
X19628634Y-13094055D01*
X19628634Y-13094055D02*
X19619111Y-13075008D01*
X19619111Y-13075008D02*
X19600063Y-13046436D01*
X19600063Y-13046436D02*
X19590539Y-13036912D01*
X14525000Y-13338000D02*
X14525000Y-13538000D01*
X14425000Y-13438000D02*
X14625000Y-13438000D01*
X14866729Y-13329484D02*
X14990539Y-13329484D01*
X14990539Y-13329484D02*
X14923872Y-13405674D01*
X14923872Y-13405674D02*
X14952443Y-13405674D01*
X14952443Y-13405674D02*
X14971491Y-13415198D01*
X14971491Y-13415198D02*
X14981015Y-13424722D01*
X14981015Y-13424722D02*
X14990539Y-13443769D01*
X14990539Y-13443769D02*
X14990539Y-13491388D01*
X14990539Y-13491388D02*
X14981015Y-13510436D01*
X14981015Y-13510436D02*
X14971491Y-13519960D01*
X14971491Y-13519960D02*
X14952443Y-13529484D01*
X14952443Y-13529484D02*
X14895301Y-13529484D01*
X14895301Y-13529484D02*
X14876253Y-13519960D01*
X14876253Y-13519960D02*
X14866729Y-13510436D01*
X15076253Y-13510436D02*
X15085777Y-13519960D01*
X15085777Y-13519960D02*
X15076253Y-13529484D01*
X15076253Y-13529484D02*
X15066729Y-13519960D01*
X15066729Y-13519960D02*
X15076253Y-13510436D01*
X15076253Y-13510436D02*
X15076253Y-13529484D01*
X15161967Y-13348531D02*
X15171491Y-13339008D01*
X15171491Y-13339008D02*
X15190539Y-13329484D01*
X15190539Y-13329484D02*
X15238158Y-13329484D01*
X15238158Y-13329484D02*
X15257205Y-13339008D01*
X15257205Y-13339008D02*
X15266729Y-13348531D01*
X15266729Y-13348531D02*
X15276253Y-13367579D01*
X15276253Y-13367579D02*
X15276253Y-13386627D01*
X15276253Y-13386627D02*
X15266729Y-13415198D01*
X15266729Y-13415198D02*
X15152443Y-13529484D01*
X15152443Y-13529484D02*
X15276253Y-13529484D01*
X15400062Y-13329484D02*
X15419110Y-13329484D01*
X15419110Y-13329484D02*
X15438158Y-13339008D01*
X15438158Y-13339008D02*
X15447682Y-13348531D01*
X15447682Y-13348531D02*
X15457205Y-13367579D01*
X15457205Y-13367579D02*
X15466729Y-13405674D01*
X15466729Y-13405674D02*
X15466729Y-13453293D01*
X15466729Y-13453293D02*
X15457205Y-13491388D01*
X15457205Y-13491388D02*
X15447682Y-13510436D01*
X15447682Y-13510436D02*
X15438158Y-13519960D01*
X15438158Y-13519960D02*
X15419110Y-13529484D01*
X15419110Y-13529484D02*
X15400062Y-13529484D01*
X15400062Y-13529484D02*
X15381015Y-13519960D01*
X15381015Y-13519960D02*
X15371491Y-13510436D01*
X15371491Y-13510436D02*
X15361967Y-13491388D01*
X15361967Y-13491388D02*
X15352443Y-13453293D01*
X15352443Y-13453293D02*
X15352443Y-13405674D01*
X15352443Y-13405674D02*
X15361967Y-13367579D01*
X15361967Y-13367579D02*
X15371491Y-13348531D01*
X15371491Y-13348531D02*
X15381015Y-13339008D01*
X15381015Y-13339008D02*
X15400062Y-13329484D01*
X15590539Y-13329484D02*
X15609586Y-13329484D01*
X15609586Y-13329484D02*
X15628634Y-13339008D01*
X15628634Y-13339008D02*
X15638158Y-13348531D01*
X15638158Y-13348531D02*
X15647682Y-13367579D01*
X15647682Y-13367579D02*
X15657205Y-13405674D01*
X15657205Y-13405674D02*
X15657205Y-13453293D01*
X15657205Y-13453293D02*
X15647682Y-13491388D01*
X15647682Y-13491388D02*
X15638158Y-13510436D01*
X15638158Y-13510436D02*
X15628634Y-13519960D01*
X15628634Y-13519960D02*
X15609586Y-13529484D01*
X15609586Y-13529484D02*
X15590539Y-13529484D01*
X15590539Y-13529484D02*
X15571491Y-13519960D01*
X15571491Y-13519960D02*
X15561967Y-13510436D01*
X15561967Y-13510436D02*
X15552443Y-13491388D01*
X15552443Y-13491388D02*
X15542920Y-13453293D01*
X15542920Y-13453293D02*
X15542920Y-13405674D01*
X15542920Y-13405674D02*
X15552443Y-13367579D01*
X15552443Y-13367579D02*
X15561967Y-13348531D01*
X15561967Y-13348531D02*
X15571491Y-13339008D01*
X15571491Y-13339008D02*
X15590539Y-13329484D01*
X15742920Y-13529484D02*
X15742920Y-13396150D01*
X15742920Y-13415198D02*
X15752443Y-13405674D01*
X15752443Y-13405674D02*
X15771491Y-13396150D01*
X15771491Y-13396150D02*
X15800063Y-13396150D01*
X15800063Y-13396150D02*
X15819110Y-13405674D01*
X15819110Y-13405674D02*
X15828634Y-13424722D01*
X15828634Y-13424722D02*
X15828634Y-13529484D01*
X15828634Y-13424722D02*
X15838158Y-13405674D01*
X15838158Y-13405674D02*
X15857205Y-13396150D01*
X15857205Y-13396150D02*
X15885777Y-13396150D01*
X15885777Y-13396150D02*
X15904824Y-13405674D01*
X15904824Y-13405674D02*
X15914348Y-13424722D01*
X15914348Y-13424722D02*
X15914348Y-13529484D01*
X16009586Y-13529484D02*
X16009586Y-13396150D01*
X16009586Y-13415198D02*
X16019110Y-13405674D01*
X16019110Y-13405674D02*
X16038158Y-13396150D01*
X16038158Y-13396150D02*
X16066729Y-13396150D01*
X16066729Y-13396150D02*
X16085777Y-13405674D01*
X16085777Y-13405674D02*
X16095301Y-13424722D01*
X16095301Y-13424722D02*
X16095301Y-13529484D01*
X16095301Y-13424722D02*
X16104824Y-13405674D01*
X16104824Y-13405674D02*
X16123872Y-13396150D01*
X16123872Y-13396150D02*
X16152443Y-13396150D01*
X16152443Y-13396150D02*
X16171491Y-13405674D01*
X16171491Y-13405674D02*
X16181015Y-13424722D01*
X16181015Y-13424722D02*
X16181015Y-13529484D01*
X16571491Y-13319960D02*
X16400063Y-13577103D01*
X16828634Y-13329484D02*
X16847682Y-13329484D01*
X16847682Y-13329484D02*
X16866729Y-13339008D01*
X16866729Y-13339008D02*
X16876253Y-13348531D01*
X16876253Y-13348531D02*
X16885777Y-13367579D01*
X16885777Y-13367579D02*
X16895301Y-13405674D01*
X16895301Y-13405674D02*
X16895301Y-13453293D01*
X16895301Y-13453293D02*
X16885777Y-13491388D01*
X16885777Y-13491388D02*
X16876253Y-13510436D01*
X16876253Y-13510436D02*
X16866729Y-13519960D01*
X16866729Y-13519960D02*
X16847682Y-13529484D01*
X16847682Y-13529484D02*
X16828634Y-13529484D01*
X16828634Y-13529484D02*
X16809587Y-13519960D01*
X16809587Y-13519960D02*
X16800063Y-13510436D01*
X16800063Y-13510436D02*
X16790539Y-13491388D01*
X16790539Y-13491388D02*
X16781015Y-13453293D01*
X16781015Y-13453293D02*
X16781015Y-13405674D01*
X16781015Y-13405674D02*
X16790539Y-13367579D01*
X16790539Y-13367579D02*
X16800063Y-13348531D01*
X16800063Y-13348531D02*
X16809587Y-13339008D01*
X16809587Y-13339008D02*
X16828634Y-13329484D01*
X16981015Y-13510436D02*
X16990539Y-13519960D01*
X16990539Y-13519960D02*
X16981015Y-13529484D01*
X16981015Y-13529484D02*
X16971491Y-13519960D01*
X16971491Y-13519960D02*
X16981015Y-13510436D01*
X16981015Y-13510436D02*
X16981015Y-13529484D01*
X17181015Y-13529484D02*
X17066729Y-13529484D01*
X17123872Y-13529484D02*
X17123872Y-13329484D01*
X17123872Y-13329484D02*
X17104825Y-13358055D01*
X17104825Y-13358055D02*
X17085777Y-13377103D01*
X17085777Y-13377103D02*
X17066729Y-13386627D01*
X17257206Y-13348531D02*
X17266729Y-13339008D01*
X17266729Y-13339008D02*
X17285777Y-13329484D01*
X17285777Y-13329484D02*
X17333396Y-13329484D01*
X17333396Y-13329484D02*
X17352444Y-13339008D01*
X17352444Y-13339008D02*
X17361968Y-13348531D01*
X17361968Y-13348531D02*
X17371491Y-13367579D01*
X17371491Y-13367579D02*
X17371491Y-13386627D01*
X17371491Y-13386627D02*
X17361968Y-13415198D01*
X17361968Y-13415198D02*
X17247682Y-13529484D01*
X17247682Y-13529484D02*
X17371491Y-13529484D01*
X17542920Y-13329484D02*
X17504825Y-13329484D01*
X17504825Y-13329484D02*
X17485777Y-13339008D01*
X17485777Y-13339008D02*
X17476253Y-13348531D01*
X17476253Y-13348531D02*
X17457206Y-13377103D01*
X17457206Y-13377103D02*
X17447682Y-13415198D01*
X17447682Y-13415198D02*
X17447682Y-13491388D01*
X17447682Y-13491388D02*
X17457206Y-13510436D01*
X17457206Y-13510436D02*
X17466729Y-13519960D01*
X17466729Y-13519960D02*
X17485777Y-13529484D01*
X17485777Y-13529484D02*
X17523872Y-13529484D01*
X17523872Y-13529484D02*
X17542920Y-13519960D01*
X17542920Y-13519960D02*
X17552444Y-13510436D01*
X17552444Y-13510436D02*
X17561968Y-13491388D01*
X17561968Y-13491388D02*
X17561968Y-13443769D01*
X17561968Y-13443769D02*
X17552444Y-13424722D01*
X17552444Y-13424722D02*
X17542920Y-13415198D01*
X17542920Y-13415198D02*
X17523872Y-13405674D01*
X17523872Y-13405674D02*
X17485777Y-13405674D01*
X17485777Y-13405674D02*
X17466729Y-13415198D01*
X17466729Y-13415198D02*
X17457206Y-13424722D01*
X17457206Y-13424722D02*
X17447682Y-13443769D01*
X17685777Y-13329484D02*
X17704825Y-13329484D01*
X17704825Y-13329484D02*
X17723872Y-13339008D01*
X17723872Y-13339008D02*
X17733396Y-13348531D01*
X17733396Y-13348531D02*
X17742920Y-13367579D01*
X17742920Y-13367579D02*
X17752444Y-13405674D01*
X17752444Y-13405674D02*
X17752444Y-13453293D01*
X17752444Y-13453293D02*
X17742920Y-13491388D01*
X17742920Y-13491388D02*
X17733396Y-13510436D01*
X17733396Y-13510436D02*
X17723872Y-13519960D01*
X17723872Y-13519960D02*
X17704825Y-13529484D01*
X17704825Y-13529484D02*
X17685777Y-13529484D01*
X17685777Y-13529484D02*
X17666729Y-13519960D01*
X17666729Y-13519960D02*
X17657206Y-13510436D01*
X17657206Y-13510436D02*
X17647682Y-13491388D01*
X17647682Y-13491388D02*
X17638158Y-13453293D01*
X17638158Y-13453293D02*
X17638158Y-13405674D01*
X17638158Y-13405674D02*
X17647682Y-13367579D01*
X17647682Y-13367579D02*
X17657206Y-13348531D01*
X17657206Y-13348531D02*
X17666729Y-13339008D01*
X17666729Y-13339008D02*
X17685777Y-13329484D01*
X17828634Y-13329484D02*
X17828634Y-13367579D01*
X17904825Y-13329484D02*
X17904825Y-13367579D01*
X18200063Y-13605674D02*
X18190539Y-13596150D01*
X18190539Y-13596150D02*
X18171491Y-13567579D01*
X18171491Y-13567579D02*
X18161968Y-13548531D01*
X18161968Y-13548531D02*
X18152444Y-13519960D01*
X18152444Y-13519960D02*
X18142920Y-13472341D01*
X18142920Y-13472341D02*
X18142920Y-13434246D01*
X18142920Y-13434246D02*
X18152444Y-13386627D01*
X18152444Y-13386627D02*
X18161968Y-13358055D01*
X18161968Y-13358055D02*
X18171491Y-13339008D01*
X18171491Y-13339008D02*
X18190539Y-13310436D01*
X18190539Y-13310436D02*
X18200063Y-13300912D01*
X18361968Y-13396150D02*
X18361968Y-13529484D01*
X18314349Y-13319960D02*
X18266730Y-13462817D01*
X18266730Y-13462817D02*
X18390539Y-13462817D01*
X18619111Y-13529484D02*
X18619111Y-13329484D01*
X18704825Y-13529484D02*
X18704825Y-13424722D01*
X18704825Y-13424722D02*
X18695301Y-13405674D01*
X18695301Y-13405674D02*
X18676253Y-13396150D01*
X18676253Y-13396150D02*
X18647682Y-13396150D01*
X18647682Y-13396150D02*
X18628634Y-13405674D01*
X18628634Y-13405674D02*
X18619111Y-13415198D01*
X18828634Y-13529484D02*
X18809587Y-13519960D01*
X18809587Y-13519960D02*
X18800063Y-13510436D01*
X18800063Y-13510436D02*
X18790539Y-13491388D01*
X18790539Y-13491388D02*
X18790539Y-13434246D01*
X18790539Y-13434246D02*
X18800063Y-13415198D01*
X18800063Y-13415198D02*
X18809587Y-13405674D01*
X18809587Y-13405674D02*
X18828634Y-13396150D01*
X18828634Y-13396150D02*
X18857206Y-13396150D01*
X18857206Y-13396150D02*
X18876253Y-13405674D01*
X18876253Y-13405674D02*
X18885777Y-13415198D01*
X18885777Y-13415198D02*
X18895301Y-13434246D01*
X18895301Y-13434246D02*
X18895301Y-13491388D01*
X18895301Y-13491388D02*
X18885777Y-13510436D01*
X18885777Y-13510436D02*
X18876253Y-13519960D01*
X18876253Y-13519960D02*
X18857206Y-13529484D01*
X18857206Y-13529484D02*
X18828634Y-13529484D01*
X19009587Y-13529484D02*
X18990539Y-13519960D01*
X18990539Y-13519960D02*
X18981015Y-13500912D01*
X18981015Y-13500912D02*
X18981015Y-13329484D01*
X19161968Y-13519960D02*
X19142920Y-13529484D01*
X19142920Y-13529484D02*
X19104825Y-13529484D01*
X19104825Y-13529484D02*
X19085777Y-13519960D01*
X19085777Y-13519960D02*
X19076253Y-13500912D01*
X19076253Y-13500912D02*
X19076253Y-13424722D01*
X19076253Y-13424722D02*
X19085777Y-13405674D01*
X19085777Y-13405674D02*
X19104825Y-13396150D01*
X19104825Y-13396150D02*
X19142920Y-13396150D01*
X19142920Y-13396150D02*
X19161968Y-13405674D01*
X19161968Y-13405674D02*
X19171492Y-13424722D01*
X19171492Y-13424722D02*
X19171492Y-13443769D01*
X19171492Y-13443769D02*
X19076253Y-13462817D01*
X19247682Y-13519960D02*
X19266730Y-13529484D01*
X19266730Y-13529484D02*
X19304825Y-13529484D01*
X19304825Y-13529484D02*
X19323873Y-13519960D01*
X19323873Y-13519960D02*
X19333396Y-13500912D01*
X19333396Y-13500912D02*
X19333396Y-13491388D01*
X19333396Y-13491388D02*
X19323873Y-13472341D01*
X19323873Y-13472341D02*
X19304825Y-13462817D01*
X19304825Y-13462817D02*
X19276253Y-13462817D01*
X19276253Y-13462817D02*
X19257206Y-13453293D01*
X19257206Y-13453293D02*
X19247682Y-13434246D01*
X19247682Y-13434246D02*
X19247682Y-13424722D01*
X19247682Y-13424722D02*
X19257206Y-13405674D01*
X19257206Y-13405674D02*
X19276253Y-13396150D01*
X19276253Y-13396150D02*
X19304825Y-13396150D01*
X19304825Y-13396150D02*
X19323873Y-13405674D01*
X19400063Y-13605674D02*
X19409587Y-13596150D01*
X19409587Y-13596150D02*
X19428634Y-13567579D01*
X19428634Y-13567579D02*
X19438158Y-13548531D01*
X19438158Y-13548531D02*
X19447682Y-13519960D01*
X19447682Y-13519960D02*
X19457206Y-13472341D01*
X19457206Y-13472341D02*
X19457206Y-13434246D01*
X19457206Y-13434246D02*
X19447682Y-13386627D01*
X19447682Y-13386627D02*
X19438158Y-13358055D01*
X19438158Y-13358055D02*
X19428634Y-13339008D01*
X19428634Y-13339008D02*
X19409587Y-13310436D01*
X19409587Y-13310436D02*
X19400063Y-13300912D01*
M02*
