%TF.GenerationSoftware,KiCad,Pcbnew,8.0.1*%
%TF.CreationDate,2024-09-25T00:59:11+02:00*%
%TF.ProjectId,speckle_amp_pcb_rev1,73706563-6b6c-4655-9f61-6d705f706362,rev?*%
%TF.SameCoordinates,Original*%
%TF.FileFunction,Paste,Top*%
%TF.FilePolarity,Positive*%
%FSLAX46Y46*%
G04 Gerber Fmt 4.6, Leading zero omitted, Abs format (unit mm)*
G04 Created by KiCad (PCBNEW 8.0.1) date 2024-09-25 00:59:11*
%MOMM*%
%LPD*%
G01*
G04 APERTURE LIST*
G04 Aperture macros list*
%AMRoundRect*
0 Rectangle with rounded corners*
0 $1 Rounding radius*
0 $2 $3 $4 $5 $6 $7 $8 $9 X,Y pos of 4 corners*
0 Add a 4 corners polygon primitive as box body*
4,1,4,$2,$3,$4,$5,$6,$7,$8,$9,$2,$3,0*
0 Add four circle primitives for the rounded corners*
1,1,$1+$1,$2,$3*
1,1,$1+$1,$4,$5*
1,1,$1+$1,$6,$7*
1,1,$1+$1,$8,$9*
0 Add four rect primitives between the rounded corners*
20,1,$1+$1,$2,$3,$4,$5,0*
20,1,$1+$1,$4,$5,$6,$7,0*
20,1,$1+$1,$6,$7,$8,$9,0*
20,1,$1+$1,$8,$9,$2,$3,0*%
G04 Aperture macros list end*
%ADD10R,1.800000X1.150000*%
%ADD11R,1.400000X0.450000*%
%ADD12RoundRect,0.225000X-0.225000X-0.250000X0.225000X-0.250000X0.225000X0.250000X-0.225000X0.250000X0*%
%ADD13RoundRect,0.200000X-0.200000X-0.275000X0.200000X-0.275000X0.200000X0.275000X-0.200000X0.275000X0*%
%ADD14RoundRect,0.225000X-0.250000X0.225000X-0.250000X-0.225000X0.250000X-0.225000X0.250000X0.225000X0*%
%ADD15R,1.150000X1.800000*%
%ADD16RoundRect,0.200000X0.275000X-0.200000X0.275000X0.200000X-0.275000X0.200000X-0.275000X-0.200000X0*%
%ADD17RoundRect,0.225000X0.225000X0.250000X-0.225000X0.250000X-0.225000X-0.250000X0.225000X-0.250000X0*%
%ADD18RoundRect,0.225000X0.250000X-0.225000X0.250000X0.225000X-0.250000X0.225000X-0.250000X-0.225000X0*%
%ADD19R,1.150000X0.600000*%
%ADD20R,0.450000X1.400000*%
G04 APERTURE END LIST*
D10*
%TO.C,R1*%
X165153800Y-95832800D03*
X165153800Y-98732800D03*
%TD*%
D11*
%TO.C,IC3*%
X161669800Y-111889600D03*
X161669800Y-111239600D03*
X161669800Y-110589600D03*
X161669800Y-109939600D03*
X157269800Y-109939600D03*
X157269800Y-110589600D03*
X157269800Y-111239600D03*
X157269800Y-111889600D03*
%TD*%
D12*
%TO.C,C19*%
X204525000Y-102425000D03*
X206075000Y-102425000D03*
%TD*%
D13*
%TO.C,R17*%
X195275000Y-116500000D03*
X196925000Y-116500000D03*
%TD*%
D14*
%TO.C,C2*%
X188775000Y-105025000D03*
X188775000Y-106575000D03*
%TD*%
D11*
%TO.C,IC1*%
X157286000Y-97422000D03*
X157286000Y-98072000D03*
X157286000Y-98722000D03*
X157286000Y-99372000D03*
X161686000Y-99372000D03*
X161686000Y-98722000D03*
X161686000Y-98072000D03*
X161686000Y-97422000D03*
%TD*%
D10*
%TO.C,R11*%
X179420000Y-95850000D03*
X179420000Y-98750000D03*
%TD*%
D12*
%TO.C,C17*%
X200125000Y-97475000D03*
X201675000Y-97475000D03*
%TD*%
D15*
%TO.C,R22*%
X182300000Y-108733800D03*
X185200000Y-108733800D03*
%TD*%
D12*
%TO.C,C16*%
X196525000Y-119375000D03*
X198075000Y-119375000D03*
%TD*%
D11*
%TO.C,IC4*%
X171745400Y-97437600D03*
X171745400Y-98087600D03*
X171745400Y-98737600D03*
X171745400Y-99387600D03*
X176145400Y-99387600D03*
X176145400Y-98737600D03*
X176145400Y-98087600D03*
X176145400Y-97437600D03*
%TD*%
D10*
%TO.C,R5*%
X153901600Y-95172400D03*
X153901600Y-98072400D03*
%TD*%
%TO.C,R8*%
X165350000Y-114150000D03*
X165350000Y-111250000D03*
%TD*%
D12*
%TO.C,C21*%
X204575000Y-108075000D03*
X206125000Y-108075000D03*
%TD*%
%TO.C,C13*%
X202500000Y-110700000D03*
X204050000Y-110700000D03*
%TD*%
D16*
%TO.C,R4*%
X187200000Y-104975000D03*
X187200000Y-103325000D03*
%TD*%
D17*
%TO.C,C22*%
X162025000Y-95600000D03*
X160475000Y-95600000D03*
%TD*%
D12*
%TO.C,C12*%
X197850000Y-95000000D03*
X199400000Y-95000000D03*
%TD*%
%TO.C,C24*%
X157375000Y-113650000D03*
X158925000Y-113650000D03*
%TD*%
D13*
%TO.C,R21*%
X201450000Y-102425000D03*
X203100000Y-102425000D03*
%TD*%
D12*
%TO.C,C23*%
X171750000Y-113600000D03*
X173300000Y-113600000D03*
%TD*%
D13*
%TO.C,R15*%
X199400000Y-110700000D03*
X201050000Y-110700000D03*
%TD*%
%TO.C,R14*%
X194800000Y-95000000D03*
X196450000Y-95000000D03*
%TD*%
D12*
%TO.C,C18*%
X202150000Y-99825000D03*
X203700000Y-99825000D03*
%TD*%
%TO.C,C11*%
X195800000Y-92775000D03*
X197350000Y-92775000D03*
%TD*%
D13*
%TO.C,R24*%
X201475000Y-108075000D03*
X203125000Y-108075000D03*
%TD*%
%TO.C,R19*%
X197100000Y-97475000D03*
X198750000Y-97475000D03*
%TD*%
%TO.C,R16*%
X197025000Y-113575000D03*
X198675000Y-113575000D03*
%TD*%
D10*
%TO.C,R10*%
X168590000Y-95190000D03*
X168590000Y-98090000D03*
%TD*%
D18*
%TO.C,C26*%
X185250000Y-105725000D03*
X185250000Y-104175000D03*
%TD*%
D10*
%TO.C,R6*%
X179350000Y-114100000D03*
X179350000Y-111200000D03*
%TD*%
D14*
%TO.C,C1*%
X194925000Y-104900000D03*
X194925000Y-106450000D03*
%TD*%
D10*
%TO.C,R9*%
X153890000Y-113490000D03*
X153890000Y-110590000D03*
%TD*%
D13*
%TO.C,R20*%
X199100000Y-99825000D03*
X200750000Y-99825000D03*
%TD*%
%TO.C,R13*%
X192725000Y-92775000D03*
X194375000Y-92775000D03*
%TD*%
%TO.C,R18*%
X193300000Y-119375000D03*
X194950000Y-119375000D03*
%TD*%
D15*
%TO.C,R12*%
X185850000Y-97850000D03*
X182950000Y-97850000D03*
%TD*%
D19*
%TO.C,IC6*%
X193050000Y-106900000D03*
X193050000Y-105950000D03*
X193050000Y-105000000D03*
X190550000Y-105000000D03*
X190550000Y-105950000D03*
X190550000Y-106900000D03*
%TD*%
D17*
%TO.C,C25*%
X176150000Y-95725000D03*
X174600000Y-95725000D03*
%TD*%
D12*
%TO.C,C15*%
X198500000Y-116500000D03*
X200050000Y-116500000D03*
%TD*%
D11*
%TO.C,IC2*%
X176193000Y-111844600D03*
X176193000Y-111194600D03*
X176193000Y-110544600D03*
X176193000Y-109894600D03*
X171793000Y-109894600D03*
X171793000Y-110544600D03*
X171793000Y-111194600D03*
X171793000Y-111844600D03*
%TD*%
D10*
%TO.C,R7*%
X168481200Y-113450000D03*
X168481200Y-110550000D03*
%TD*%
D20*
%TO.C,IC5*%
X183578400Y-101113000D03*
X182928400Y-101113000D03*
X182278400Y-101113000D03*
X181628400Y-101113000D03*
X181628400Y-105513000D03*
X182278400Y-105513000D03*
X182928400Y-105513000D03*
X183578400Y-105513000D03*
%TD*%
D12*
%TO.C,C14*%
X200425000Y-113525000D03*
X201975000Y-113525000D03*
%TD*%
M02*
