%TF.GenerationSoftware,KiCad,Pcbnew,8.0.1*%
%TF.CreationDate,2024-09-25T01:00:24+02:00*%
%TF.ProjectId,speckle_amp_pcb_rev1,73706563-6b6c-4655-9f61-6d705f706362,rev?*%
%TF.SameCoordinates,Original*%
%TF.FileFunction,Drillmap*%
%TF.FilePolarity,Positive*%
%FSLAX45Y45*%
G04 Gerber Fmt 4.5, Leading zero omitted, Abs format (unit mm)*
G04 Created by KiCad (PCBNEW 8.0.1) date 2024-09-25 01:00:24*
%MOMM*%
%LPD*%
G01*
G04 APERTURE LIST*
%ADD10C,0.200000*%
G04 APERTURE END LIST*
D10*
X14635000Y-8760000D02*
X21635000Y-8760000D01*
X21635000Y-12260000D01*
X14635000Y-12260000D01*
X14635000Y-8760000D01*
X14885777Y-12581484D02*
X14885777Y-12381484D01*
X14885777Y-12381484D02*
X14933396Y-12381484D01*
X14933396Y-12381484D02*
X14961967Y-12391008D01*
X14961967Y-12391008D02*
X14981015Y-12410055D01*
X14981015Y-12410055D02*
X14990539Y-12429103D01*
X14990539Y-12429103D02*
X15000062Y-12467198D01*
X15000062Y-12467198D02*
X15000062Y-12495769D01*
X15000062Y-12495769D02*
X14990539Y-12533865D01*
X14990539Y-12533865D02*
X14981015Y-12552912D01*
X14981015Y-12552912D02*
X14961967Y-12571960D01*
X14961967Y-12571960D02*
X14933396Y-12581484D01*
X14933396Y-12581484D02*
X14885777Y-12581484D01*
X15085777Y-12581484D02*
X15085777Y-12448150D01*
X15085777Y-12486246D02*
X15095301Y-12467198D01*
X15095301Y-12467198D02*
X15104824Y-12457674D01*
X15104824Y-12457674D02*
X15123872Y-12448150D01*
X15123872Y-12448150D02*
X15142920Y-12448150D01*
X15209586Y-12581484D02*
X15209586Y-12448150D01*
X15209586Y-12381484D02*
X15200062Y-12391008D01*
X15200062Y-12391008D02*
X15209586Y-12400531D01*
X15209586Y-12400531D02*
X15219110Y-12391008D01*
X15219110Y-12391008D02*
X15209586Y-12381484D01*
X15209586Y-12381484D02*
X15209586Y-12400531D01*
X15333396Y-12581484D02*
X15314348Y-12571960D01*
X15314348Y-12571960D02*
X15304824Y-12552912D01*
X15304824Y-12552912D02*
X15304824Y-12381484D01*
X15438158Y-12581484D02*
X15419110Y-12571960D01*
X15419110Y-12571960D02*
X15409586Y-12552912D01*
X15409586Y-12552912D02*
X15409586Y-12381484D01*
X15666729Y-12581484D02*
X15666729Y-12381484D01*
X15666729Y-12381484D02*
X15733396Y-12524341D01*
X15733396Y-12524341D02*
X15800062Y-12381484D01*
X15800062Y-12381484D02*
X15800062Y-12581484D01*
X15981015Y-12581484D02*
X15981015Y-12476722D01*
X15981015Y-12476722D02*
X15971491Y-12457674D01*
X15971491Y-12457674D02*
X15952443Y-12448150D01*
X15952443Y-12448150D02*
X15914348Y-12448150D01*
X15914348Y-12448150D02*
X15895301Y-12457674D01*
X15981015Y-12571960D02*
X15961967Y-12581484D01*
X15961967Y-12581484D02*
X15914348Y-12581484D01*
X15914348Y-12581484D02*
X15895301Y-12571960D01*
X15895301Y-12571960D02*
X15885777Y-12552912D01*
X15885777Y-12552912D02*
X15885777Y-12533865D01*
X15885777Y-12533865D02*
X15895301Y-12514817D01*
X15895301Y-12514817D02*
X15914348Y-12505293D01*
X15914348Y-12505293D02*
X15961967Y-12505293D01*
X15961967Y-12505293D02*
X15981015Y-12495769D01*
X16076253Y-12448150D02*
X16076253Y-12648150D01*
X16076253Y-12457674D02*
X16095301Y-12448150D01*
X16095301Y-12448150D02*
X16133396Y-12448150D01*
X16133396Y-12448150D02*
X16152443Y-12457674D01*
X16152443Y-12457674D02*
X16161967Y-12467198D01*
X16161967Y-12467198D02*
X16171491Y-12486246D01*
X16171491Y-12486246D02*
X16171491Y-12543388D01*
X16171491Y-12543388D02*
X16161967Y-12562436D01*
X16161967Y-12562436D02*
X16152443Y-12571960D01*
X16152443Y-12571960D02*
X16133396Y-12581484D01*
X16133396Y-12581484D02*
X16095301Y-12581484D01*
X16095301Y-12581484D02*
X16076253Y-12571960D01*
X16257205Y-12562436D02*
X16266729Y-12571960D01*
X16266729Y-12571960D02*
X16257205Y-12581484D01*
X16257205Y-12581484D02*
X16247682Y-12571960D01*
X16247682Y-12571960D02*
X16257205Y-12562436D01*
X16257205Y-12562436D02*
X16257205Y-12581484D01*
X16257205Y-12457674D02*
X16266729Y-12467198D01*
X16266729Y-12467198D02*
X16257205Y-12476722D01*
X16257205Y-12476722D02*
X16247682Y-12467198D01*
X16247682Y-12467198D02*
X16257205Y-12457674D01*
X16257205Y-12457674D02*
X16257205Y-12476722D01*
M02*
