M48
; DRILL file {KiCad 8.0.1} date 2024-09-25T01:00:07+0200
; FORMAT={-:-/ absolute / metric / decimal}
; #@! TF.CreationDate,2024-09-25T01:00:07+02:00
; #@! TF.GenerationSoftware,Kicad,Pcbnew,8.0.1
; #@! TF.FileFunction,Plated,1,2,PTH
FMAT,2
METRIC
; #@! TA.AperFunction,Plated,PTH,ViaDrill
T1C0.200
; #@! TA.AperFunction,Plated,PTH,ComponentDrill
T2C0.650
; #@! TA.AperFunction,Plated,PTH,ComponentDrill
T3C3.200
%
G90
G05
T1
X147.3Y-95.375
X147.3Y-97.35
X147.4Y-113.025
X147.4Y-115.075
X147.425Y-100.45
X147.425Y-102.975
X147.425Y-105.0
X147.425Y-107.6
X147.425Y-110.85
X149.025Y-99.075
X149.1Y-95.4
X149.15Y-108.9
X149.3Y-106.2
X149.55Y-113.425
X150.15Y-111.075
X150.175Y-97.3
X150.35Y-101.225
X150.925Y-104.575
X151.075Y-95.4
X151.85Y-113.15
X152.3Y-98.675
X152.35Y-97.5
X152.39Y-110.76
X152.41Y-109.86
X152.6Y-111.48
X153.15Y-99.375
X153.15Y-116.25
X153.175Y-88.35
X153.19Y-109.43
X153.3Y-103.075
X153.475Y-96.975
X153.625Y-107.725
X153.65Y-93.425
X153.79Y-111.53
X154.4Y-109.43
X154.475Y-99.4
X154.6Y-121.675
X154.725Y-105.025
X154.775Y-90.475
X154.86Y-111.56
X155.0Y-101.625
X155.025Y-97.05
X155.33Y-109.85
X155.4Y-99.125
X155.54Y-111.08
X155.775Y-119.25
X155.83Y-97.55
X155.9Y-114.05
X155.9Y-117.025
X156.03Y-109.91
X156.1Y-98.59
X156.125Y-94.3
X156.25Y-112.6
X156.575Y-101.15
X156.7Y-106.15
X157.25Y-100.1
X157.3Y-103.525
X157.375Y-115.525
X157.65Y-121.675
X157.725Y-93.2
X157.825Y-108.625
X158.3Y-95.975
X158.4Y-109.55
X158.425Y-100.875
X158.5Y-99.375
X158.55Y-88.35
X158.6Y-104.55
X158.75Y-94.05
X158.96Y-98.57
X158.975Y-97.85
X159.0Y-110.25
X159.075Y-102.175
X159.075Y-111.975
X159.125Y-120.3
X159.15Y-109.1
X159.23Y-117.46
X159.26Y-111.08
X159.575Y-99.175
X159.6Y-115.075
X159.61Y-106.15
X159.625Y-100.4
X159.675Y-103.675
X159.7Y-102.875
X159.72Y-105.23
X159.825Y-91.3
X159.84Y-108.61
X159.85Y-101.35
X159.93Y-110.0
X159.98Y-106.85
X160.29Y-107.78
X160.35Y-98.375
X160.45Y-99.2
X160.48Y-111.18
X160.57Y-105.15
X160.77Y-109.22
X160.95Y-119.475
X160.97Y-102.52
X160.975Y-112.975
X161.125Y-114.825
X161.13Y-116.02
X161.375Y-100.2
X161.375Y-118.125
X161.425Y-92.7
X161.55Y-107.15
X161.55Y-108.3
X161.6Y-105.15
X161.7Y-109.3
X161.75Y-94.325
X161.9Y-114.05
X162.05Y-89.275
X162.125Y-102.025
X162.175Y-103.75
X162.35Y-121.725
X162.45Y-102.775
X162.475Y-101.3
X162.54Y-109.33
X162.67Y-110.56
X162.7Y-98.733
X162.875Y-99.75
X162.9Y-100.55
X163.0Y-111.25
X163.21Y-112.07
X163.27Y-115.95
X163.5Y-106.39
X163.525Y-98.225
X163.55Y-114.875
X163.775Y-102.975
X163.78Y-108.69
X163.86Y-110.56
X163.87Y-99.19
X163.875Y-119.925
X163.9Y-92.45
X163.9Y-109.67
X163.96Y-111.87
X163.975Y-91.225
X164.17Y-108.01
X164.25Y-97.725
X164.25Y-118.0
X164.4Y-100.25
X164.45Y-101.1
X164.46Y-112.48
X164.53Y-106.41
X165.0Y-102.75
X165.02Y-107.39
X165.125Y-101.7
X165.15Y-110.09
X165.3Y-88.35
X165.3Y-97.65
X165.5Y-99.925
X165.53Y-112.35
X165.625Y-115.85
X165.75Y-119.175
X165.88Y-104.67
X166.125Y-106.425
X166.125Y-121.725
X166.4Y-97.825
X166.425Y-99.825
X166.51Y-110.37
X166.55Y-116.975
X166.575Y-98.875
X166.61Y-112.32
X166.63Y-111.22
X166.65Y-108.025
X166.75Y-102.7
X166.775Y-109.125
X166.975Y-117.85
X167.15Y-97.1
X167.175Y-105.6
X167.2Y-98.2
X167.25Y-100.875
X167.75Y-99.3
X167.8Y-119.975
X168.0Y-106.8
X168.3Y-111.6
X168.35Y-109.3
X168.5Y-96.85
X168.5Y-104.4
X168.65Y-118.75
X168.875Y-89.225
X169.3Y-103.1
X169.3Y-106.1
X169.35Y-99.2
X169.75Y-107.5
X169.75Y-109.05
X169.8Y-104.35
X169.9Y-109.95
X169.925Y-119.825
X169.95Y-111.3
X170.05Y-102.1
X170.25Y-97.4
X170.35Y-98.7
X170.475Y-94.5
X170.5Y-110.55
X170.55Y-105.1
X170.775Y-121.725
X170.9Y-101.25
X171.175Y-116.05
X171.2Y-106.85
X171.2Y-107.65
X171.25Y-104.45
X171.3Y-109.0
X171.825Y-94.1
X172.1Y-102.45
X172.15Y-107.8
X172.25Y-103.5
X172.25Y-106.55
X172.3Y-95.625
X172.35Y-100.2
X172.4Y-88.35
X172.5Y-101.35
X172.625Y-114.825
X172.7Y-105.55
X172.8Y-108.6
X172.9Y-99.4
X173.05Y-109.9
X173.125Y-94.725
X173.325Y-96.425
X173.39Y-98.5
X173.45Y-103.0
X173.45Y-106.25
X173.5Y-111.025
X173.75Y-100.45
X173.8Y-97.8
X173.85Y-103.7
X174.2Y-99.3
X174.2Y-105.65
X174.2Y-117.325
X174.25Y-109.4
X174.3Y-108.3
X174.35Y-101.25
X174.475Y-112.725
X174.5Y-111.05
X174.6Y-94.075
X174.65Y-110.2
X174.9Y-106.35
X175.05Y-98.75
X175.15Y-103.075
X175.15Y-121.875
X175.25Y-107.25
X175.6Y-101.25
X175.675Y-115.55
X175.775Y-89.275
X175.825Y-113.55
X175.925Y-108.425
X175.975Y-105.625
X176.0Y-104.5
X176.03Y-93.81
X176.2Y-100.55
X176.2Y-109.2
X176.4Y-102.05
X176.875Y-107.65
X177.05Y-99.85
X177.075Y-96.65
X177.3Y-103.35
X177.43Y-95.45
X177.45Y-101.05
X177.45Y-117.6
X177.5Y-98.75
X177.575Y-105.275
X177.65Y-110.65
X177.7Y-111.85
X178.0Y-97.95
X178.0Y-102.1
X178.025Y-115.325
X178.1Y-99.4
X178.125Y-109.175
X178.275Y-96.85
X178.6Y-110.075
X178.85Y-121.875
X178.875Y-106.95
X179.075Y-88.35
X179.225Y-108.225
X179.275Y-105.325
X179.3Y-112.25
X179.45Y-97.55
X179.5Y-100.05
X179.55Y-103.4
X179.85Y-102.15
X179.925Y-110.075
X180.3Y-115.25
X180.4Y-106.1
X180.425Y-109.25
X180.6Y-99.7
X180.625Y-107.375
X180.8Y-98.3
X180.8Y-112.25
X180.875Y-111.275
X181.075Y-108.675
X181.15Y-89.15
X181.275Y-96.075
X181.4Y-103.55
X181.55Y-99.45
X181.65Y-102.25
X181.7Y-107.225
X181.85Y-121.875
X181.9Y-96.75
X182.1Y-117.425
X182.125Y-111.175
X182.15Y-102.8
X182.278Y-106.7
X182.35Y-110.15
X182.375Y-99.375
X182.475Y-113.375
X182.58Y-93.57
X182.775Y-115.025
X183.05Y-103.1
X183.05Y-107.3
X183.25Y-104.075
X183.35Y-96.35
X183.45Y-99.55
X183.475Y-108.875
X183.475Y-109.9
X183.6Y-88.125
X183.875Y-102.65
X184.1Y-98.8
X184.2Y-107.575
X184.35Y-96.85
X184.45Y-98.05
X184.625Y-110.525
X185.05Y-121.875
X185.325Y-116.95
X185.675Y-101.775
X185.75Y-88.925
X185.95Y-100.35
X186.05Y-113.3
X186.25Y-91.15
X186.8Y-111.3
X187.07Y-106.12
X187.075Y-94.425
X187.1Y-98.6
X187.2Y-101.725
X187.225Y-115.05
X187.325Y-91.175
X187.325Y-100.225
X187.5Y-106.9
X188.275Y-117.425
X188.325Y-94.225
X188.525Y-103.625
X188.65Y-108.26
X188.75Y-107.55
X189.0Y-99.025
X189.25Y-121.8
X189.275Y-89.6
X189.475Y-88.125
X189.6Y-91.4
X189.8Y-94.725
X189.81Y-118.51
X189.9Y-115.85
X190.2Y-99.1
X190.2Y-113.2
X190.275Y-100.875
X190.325Y-111.025
X190.925Y-103.725
X191.1Y-108.3
X191.125Y-92.725
X191.675Y-119.925
X191.775Y-102.725
X192.3Y-99.875
X192.7Y-115.63
X192.725Y-90.975
X192.85Y-121.8
X193.05Y-110.725
X193.1Y-112.975
X193.2Y-93.925
X193.225Y-89.9
X193.25Y-108.4
X193.4Y-103.625
X193.45Y-96.2
X193.7Y-118.075
X194.15Y-101.925
X194.65Y-120.6
X194.95Y-107.4
X195.15Y-98.75
X195.275Y-115.1
X195.35Y-108.4
X195.4Y-111.85
X195.65Y-112.85
X196.2Y-121.725
X196.225Y-88.425
X196.225Y-96.2
X196.8Y-100.975
X196.9Y-117.6
X196.975Y-107.325
X197.0Y-98.75
X197.025Y-109.325
X197.525Y-111.425
X197.55Y-103.625
X197.925Y-120.6
X197.975Y-90.35
X197.975Y-114.8
X198.125Y-106.575
X199.55Y-100.975
X199.87Y-109.29
X199.925Y-92.875
X200.075Y-121.725
X200.425Y-118.8
X200.725Y-103.725
X201.13Y-106.67
X201.15Y-94.95
X201.575Y-109.275
X202.075Y-115.725
X202.35Y-89.6
X202.575Y-119.75
X202.625Y-92.875
X202.9Y-105.45
X203.075Y-95.425
X203.125Y-97.725
X203.525Y-113.1
X203.825Y-90.75
X203.91Y-103.44
X203.95Y-121.55
X204.0Y-117.15
X204.45Y-96.725
X205.225Y-93.25
X205.225Y-115.925
X205.25Y-114.25
X205.375Y-94.95
X205.5Y-98.1
X205.525Y-91.275
X205.65Y-119.75
X205.8Y-100.025
X205.825Y-110.425
X206.375Y-111.45
X206.55Y-88.525
X206.6Y-117.5
X206.7Y-99.4
X206.725Y-112.875
X206.825Y-105.45
X207.475Y-121.45
X207.625Y-107.825
X207.725Y-106.05
X207.825Y-100.275
X207.875Y-102.15
X207.975Y-91.275
X208.025Y-108.65
X208.075Y-102.975
X208.175Y-110.4
X208.325Y-119.75
X208.575Y-115.525
X208.65Y-95.0
X208.95Y-97.625
X209.075Y-93.25
X209.425Y-99.825
X209.425Y-107.875
X209.45Y-88.525
X210.05Y-121.375
X210.725Y-113.475
X211.25Y-114.85
X211.85Y-95.25
X212.65Y-97.3
X212.725Y-99.925
X212.825Y-102.5
X212.925Y-107.55
X213.025Y-110.125
X213.05Y-105.025
X213.825Y-113.3
X214.1Y-111.4
X214.75Y-108.825
X214.8Y-106.3
X214.975Y-101.2
X215.025Y-98.725
X215.025Y-103.725
X215.5Y-94.075
X215.575Y-96.1
T2
X210.35Y-98.05
X210.35Y-99.32
X210.35Y-100.59
X210.35Y-101.86
X210.35Y-103.13
X210.35Y-104.4
X210.35Y-105.67
X210.35Y-106.94
X210.35Y-108.21
X210.35Y-109.48
X210.35Y-110.75
X210.35Y-112.02
T3
X149.95Y-91.2
X149.975Y-118.975
X212.75Y-119.0
X212.775Y-91.175
M30
