%TF.GenerationSoftware,KiCad,Pcbnew,8.0.1*%
%TF.CreationDate,2024-09-25T00:59:11+02:00*%
%TF.ProjectId,speckle_amp_pcb_rev1,73706563-6b6c-4655-9f61-6d705f706362,rev?*%
%TF.SameCoordinates,Original*%
%TF.FileFunction,Legend,Top*%
%TF.FilePolarity,Positive*%
%FSLAX46Y46*%
G04 Gerber Fmt 4.6, Leading zero omitted, Abs format (unit mm)*
G04 Created by KiCad (PCBNEW 8.0.1) date 2024-09-25 00:59:11*
%MOMM*%
%LPD*%
G01*
G04 APERTURE LIST*
G04 Aperture macros list*
%AMRoundRect*
0 Rectangle with rounded corners*
0 $1 Rounding radius*
0 $2 $3 $4 $5 $6 $7 $8 $9 X,Y pos of 4 corners*
0 Add a 4 corners polygon primitive as box body*
4,1,4,$2,$3,$4,$5,$6,$7,$8,$9,$2,$3,0*
0 Add four circle primitives for the rounded corners*
1,1,$1+$1,$2,$3*
1,1,$1+$1,$4,$5*
1,1,$1+$1,$6,$7*
1,1,$1+$1,$8,$9*
0 Add four rect primitives between the rounded corners*
20,1,$1+$1,$2,$3,$4,$5,0*
20,1,$1+$1,$4,$5,$6,$7,0*
20,1,$1+$1,$6,$7,$8,$9,0*
20,1,$1+$1,$8,$9,$2,$3,0*%
G04 Aperture macros list end*
%ADD10C,0.125000*%
%ADD11C,0.150000*%
%ADD12C,0.100000*%
%ADD13C,0.200000*%
%ADD14C,0.120000*%
%ADD15RoundRect,0.040000X-0.900000X0.575000X-0.900000X-0.575000X0.900000X-0.575000X0.900000X0.575000X0*%
%ADD16RoundRect,0.040000X-0.700000X0.225000X-0.700000X-0.225000X0.700000X-0.225000X0.700000X0.225000X0*%
%ADD17C,5.680000*%
%ADD18RoundRect,0.245000X-0.245000X-0.270000X0.245000X-0.270000X0.245000X0.270000X-0.245000X0.270000X0*%
%ADD19RoundRect,0.220000X-0.220000X-0.295000X0.220000X-0.295000X0.220000X0.295000X-0.220000X0.295000X0*%
%ADD20RoundRect,0.245000X-0.270000X0.245000X-0.270000X-0.245000X0.270000X-0.245000X0.270000X0.245000X0*%
%ADD21RoundRect,0.040000X0.700000X-0.225000X0.700000X0.225000X-0.700000X0.225000X-0.700000X-0.225000X0*%
%ADD22RoundRect,0.040000X-0.575000X-0.900000X0.575000X-0.900000X0.575000X0.900000X-0.575000X0.900000X0*%
%ADD23RoundRect,0.040000X0.900000X-0.575000X0.900000X0.575000X-0.900000X0.575000X-0.900000X-0.575000X0*%
%ADD24RoundRect,0.220000X0.295000X-0.220000X0.295000X0.220000X-0.295000X0.220000X-0.295000X-0.220000X0*%
%ADD25RoundRect,0.245000X0.245000X0.270000X-0.245000X0.270000X-0.245000X-0.270000X0.245000X-0.270000X0*%
%ADD26RoundRect,0.245000X0.270000X-0.245000X0.270000X0.245000X-0.270000X0.245000X-0.270000X-0.245000X0*%
%ADD27RoundRect,0.040000X0.575000X0.900000X-0.575000X0.900000X-0.575000X-0.900000X0.575000X-0.900000X0*%
%ADD28RoundRect,0.040000X-0.575000X0.300000X-0.575000X-0.300000X0.575000X-0.300000X0.575000X0.300000X0*%
%ADD29C,1.080000*%
%ADD30RoundRect,0.040000X-0.225000X-0.700000X0.225000X-0.700000X0.225000X0.700000X-0.225000X0.700000X0*%
%ADD31RoundRect,0.040000X-0.500000X-0.500000X0.500000X-0.500000X0.500000X0.500000X-0.500000X0.500000X0*%
%ADD32O,1.080000X1.080000*%
G04 APERTURE END LIST*
D10*
X209092166Y-104364378D02*
X209092166Y-104126283D01*
X209092166Y-104126283D02*
X208758833Y-104102474D01*
X208758833Y-104102474D02*
X208792166Y-104126283D01*
X208792166Y-104126283D02*
X208825500Y-104173902D01*
X208825500Y-104173902D02*
X208825500Y-104292950D01*
X208825500Y-104292950D02*
X208792166Y-104340569D01*
X208792166Y-104340569D02*
X208758833Y-104364378D01*
X208758833Y-104364378D02*
X208692166Y-104388188D01*
X208692166Y-104388188D02*
X208525500Y-104388188D01*
X208525500Y-104388188D02*
X208458833Y-104364378D01*
X208458833Y-104364378D02*
X208425500Y-104340569D01*
X208425500Y-104340569D02*
X208392166Y-104292950D01*
X208392166Y-104292950D02*
X208392166Y-104173902D01*
X208392166Y-104173902D02*
X208425500Y-104126283D01*
X208425500Y-104126283D02*
X208458833Y-104102474D01*
X209092166Y-104531045D02*
X208392166Y-104697711D01*
X208392166Y-104697711D02*
X209092166Y-104864378D01*
D11*
X208418466Y-106982017D02*
X208418466Y-106582017D01*
X208418466Y-106782017D02*
X209118466Y-106782017D01*
X209118466Y-106782017D02*
X209018466Y-106715350D01*
X209018466Y-106715350D02*
X208951800Y-106648684D01*
X208951800Y-106648684D02*
X208918466Y-106582017D01*
X209118466Y-107415351D02*
X209118466Y-107482017D01*
X209118466Y-107482017D02*
X209085133Y-107548684D01*
X209085133Y-107548684D02*
X209051800Y-107582017D01*
X209051800Y-107582017D02*
X208985133Y-107615351D01*
X208985133Y-107615351D02*
X208851800Y-107648684D01*
X208851800Y-107648684D02*
X208685133Y-107648684D01*
X208685133Y-107648684D02*
X208551800Y-107615351D01*
X208551800Y-107615351D02*
X208485133Y-107582017D01*
X208485133Y-107582017D02*
X208451800Y-107548684D01*
X208451800Y-107548684D02*
X208418466Y-107482017D01*
X208418466Y-107482017D02*
X208418466Y-107415351D01*
X208418466Y-107415351D02*
X208451800Y-107348684D01*
X208451800Y-107348684D02*
X208485133Y-107315351D01*
X208485133Y-107315351D02*
X208551800Y-107282017D01*
X208551800Y-107282017D02*
X208685133Y-107248684D01*
X208685133Y-107248684D02*
X208851800Y-107248684D01*
X208851800Y-107248684D02*
X208985133Y-107282017D01*
X208985133Y-107282017D02*
X209051800Y-107315351D01*
X209051800Y-107315351D02*
X209085133Y-107348684D01*
X209085133Y-107348684D02*
X209118466Y-107415351D01*
X209118466Y-108415351D02*
X209118466Y-108848684D01*
X209118466Y-108848684D02*
X208851800Y-108615351D01*
X208851800Y-108615351D02*
X208851800Y-108715351D01*
X208851800Y-108715351D02*
X208818466Y-108782017D01*
X208818466Y-108782017D02*
X208785133Y-108815351D01*
X208785133Y-108815351D02*
X208718466Y-108848684D01*
X208718466Y-108848684D02*
X208551800Y-108848684D01*
X208551800Y-108848684D02*
X208485133Y-108815351D01*
X208485133Y-108815351D02*
X208451800Y-108782017D01*
X208451800Y-108782017D02*
X208418466Y-108715351D01*
X208418466Y-108715351D02*
X208418466Y-108515351D01*
X208418466Y-108515351D02*
X208451800Y-108448684D01*
X208451800Y-108448684D02*
X208485133Y-108415351D01*
X208885133Y-109982017D02*
X208418466Y-109982017D01*
X209151800Y-109815351D02*
X208651800Y-109648684D01*
X208651800Y-109648684D02*
X208651800Y-110082017D01*
X209118466Y-111215351D02*
X209118466Y-110882017D01*
X209118466Y-110882017D02*
X208785133Y-110848684D01*
X208785133Y-110848684D02*
X208818466Y-110882017D01*
X208818466Y-110882017D02*
X208851800Y-110948684D01*
X208851800Y-110948684D02*
X208851800Y-111115351D01*
X208851800Y-111115351D02*
X208818466Y-111182017D01*
X208818466Y-111182017D02*
X208785133Y-111215351D01*
X208785133Y-111215351D02*
X208718466Y-111248684D01*
X208718466Y-111248684D02*
X208551800Y-111248684D01*
X208551800Y-111248684D02*
X208485133Y-111215351D01*
X208485133Y-111215351D02*
X208451800Y-111182017D01*
X208451800Y-111182017D02*
X208418466Y-111115351D01*
X208418466Y-111115351D02*
X208418466Y-110948684D01*
X208418466Y-110948684D02*
X208451800Y-110882017D01*
X208451800Y-110882017D02*
X208485133Y-110848684D01*
X209118466Y-112382017D02*
X209118466Y-112248684D01*
X209118466Y-112248684D02*
X209085133Y-112182017D01*
X209085133Y-112182017D02*
X209051800Y-112148684D01*
X209051800Y-112148684D02*
X208951800Y-112082017D01*
X208951800Y-112082017D02*
X208818466Y-112048684D01*
X208818466Y-112048684D02*
X208551800Y-112048684D01*
X208551800Y-112048684D02*
X208485133Y-112082017D01*
X208485133Y-112082017D02*
X208451800Y-112115351D01*
X208451800Y-112115351D02*
X208418466Y-112182017D01*
X208418466Y-112182017D02*
X208418466Y-112315351D01*
X208418466Y-112315351D02*
X208451800Y-112382017D01*
X208451800Y-112382017D02*
X208485133Y-112415351D01*
X208485133Y-112415351D02*
X208551800Y-112448684D01*
X208551800Y-112448684D02*
X208718466Y-112448684D01*
X208718466Y-112448684D02*
X208785133Y-112415351D01*
X208785133Y-112415351D02*
X208818466Y-112382017D01*
X208818466Y-112382017D02*
X208851800Y-112315351D01*
X208851800Y-112315351D02*
X208851800Y-112182017D01*
X208851800Y-112182017D02*
X208818466Y-112115351D01*
X208818466Y-112115351D02*
X208785133Y-112082017D01*
X208785133Y-112082017D02*
X208718466Y-112048684D01*
D12*
X209057533Y-105395550D02*
X209090866Y-105357455D01*
X209090866Y-105357455D02*
X209090866Y-105300312D01*
X209090866Y-105300312D02*
X209057533Y-105243169D01*
X209057533Y-105243169D02*
X208990866Y-105205074D01*
X208990866Y-105205074D02*
X208924200Y-105186027D01*
X208924200Y-105186027D02*
X208790866Y-105166979D01*
X208790866Y-105166979D02*
X208690866Y-105166979D01*
X208690866Y-105166979D02*
X208557533Y-105186027D01*
X208557533Y-105186027D02*
X208490866Y-105205074D01*
X208490866Y-105205074D02*
X208424200Y-105243169D01*
X208424200Y-105243169D02*
X208390866Y-105300312D01*
X208390866Y-105300312D02*
X208390866Y-105338408D01*
X208390866Y-105338408D02*
X208424200Y-105395550D01*
X208424200Y-105395550D02*
X208457533Y-105414598D01*
X208457533Y-105414598D02*
X208690866Y-105414598D01*
X208690866Y-105414598D02*
X208690866Y-105338408D01*
X208390866Y-105586027D02*
X209090866Y-105586027D01*
X209090866Y-105586027D02*
X208390866Y-105814598D01*
X208390866Y-105814598D02*
X209090866Y-105814598D01*
X208390866Y-106005075D02*
X209090866Y-106005075D01*
X209090866Y-106005075D02*
X209090866Y-106100313D01*
X209090866Y-106100313D02*
X209057533Y-106157456D01*
X209057533Y-106157456D02*
X208990866Y-106195551D01*
X208990866Y-106195551D02*
X208924200Y-106214598D01*
X208924200Y-106214598D02*
X208790866Y-106233646D01*
X208790866Y-106233646D02*
X208690866Y-106233646D01*
X208690866Y-106233646D02*
X208557533Y-106214598D01*
X208557533Y-106214598D02*
X208490866Y-106195551D01*
X208490866Y-106195551D02*
X208424200Y-106157456D01*
X208424200Y-106157456D02*
X208390866Y-106100313D01*
X208390866Y-106100313D02*
X208390866Y-106005075D01*
D10*
X190348902Y-88953911D02*
X190348902Y-88253911D01*
X190348902Y-88253911D02*
X190615569Y-88253911D01*
X190615569Y-88253911D02*
X190682236Y-88287244D01*
X190682236Y-88287244D02*
X190715569Y-88320578D01*
X190715569Y-88320578D02*
X190748902Y-88387244D01*
X190748902Y-88387244D02*
X190748902Y-88487244D01*
X190748902Y-88487244D02*
X190715569Y-88553911D01*
X190715569Y-88553911D02*
X190682236Y-88587244D01*
X190682236Y-88587244D02*
X190615569Y-88620578D01*
X190615569Y-88620578D02*
X190348902Y-88620578D01*
X191048902Y-88953911D02*
X191048902Y-88253911D01*
X191348902Y-88953911D02*
X191348902Y-88587244D01*
X191348902Y-88587244D02*
X191315569Y-88520578D01*
X191315569Y-88520578D02*
X191248902Y-88487244D01*
X191248902Y-88487244D02*
X191148902Y-88487244D01*
X191148902Y-88487244D02*
X191082236Y-88520578D01*
X191082236Y-88520578D02*
X191048902Y-88553911D01*
X191782235Y-88953911D02*
X191715569Y-88920578D01*
X191715569Y-88920578D02*
X191682235Y-88887244D01*
X191682235Y-88887244D02*
X191648902Y-88820578D01*
X191648902Y-88820578D02*
X191648902Y-88620578D01*
X191648902Y-88620578D02*
X191682235Y-88553911D01*
X191682235Y-88553911D02*
X191715569Y-88520578D01*
X191715569Y-88520578D02*
X191782235Y-88487244D01*
X191782235Y-88487244D02*
X191882235Y-88487244D01*
X191882235Y-88487244D02*
X191948902Y-88520578D01*
X191948902Y-88520578D02*
X191982235Y-88553911D01*
X191982235Y-88553911D02*
X192015569Y-88620578D01*
X192015569Y-88620578D02*
X192015569Y-88820578D01*
X192015569Y-88820578D02*
X191982235Y-88887244D01*
X191982235Y-88887244D02*
X191948902Y-88920578D01*
X191948902Y-88920578D02*
X191882235Y-88953911D01*
X191882235Y-88953911D02*
X191782235Y-88953911D01*
X192215568Y-88487244D02*
X192482235Y-88487244D01*
X192315568Y-88253911D02*
X192315568Y-88853911D01*
X192315568Y-88853911D02*
X192348902Y-88920578D01*
X192348902Y-88920578D02*
X192415568Y-88953911D01*
X192415568Y-88953911D02*
X192482235Y-88953911D01*
X192815568Y-88953911D02*
X192748902Y-88920578D01*
X192748902Y-88920578D02*
X192715568Y-88887244D01*
X192715568Y-88887244D02*
X192682235Y-88820578D01*
X192682235Y-88820578D02*
X192682235Y-88620578D01*
X192682235Y-88620578D02*
X192715568Y-88553911D01*
X192715568Y-88553911D02*
X192748902Y-88520578D01*
X192748902Y-88520578D02*
X192815568Y-88487244D01*
X192815568Y-88487244D02*
X192915568Y-88487244D01*
X192915568Y-88487244D02*
X192982235Y-88520578D01*
X192982235Y-88520578D02*
X193015568Y-88553911D01*
X193015568Y-88553911D02*
X193048902Y-88620578D01*
X193048902Y-88620578D02*
X193048902Y-88820578D01*
X193048902Y-88820578D02*
X193015568Y-88887244D01*
X193015568Y-88887244D02*
X192982235Y-88920578D01*
X192982235Y-88920578D02*
X192915568Y-88953911D01*
X192915568Y-88953911D02*
X192815568Y-88953911D01*
X193648901Y-88953911D02*
X193648901Y-88253911D01*
X193648901Y-88920578D02*
X193582235Y-88953911D01*
X193582235Y-88953911D02*
X193448901Y-88953911D01*
X193448901Y-88953911D02*
X193382235Y-88920578D01*
X193382235Y-88920578D02*
X193348901Y-88887244D01*
X193348901Y-88887244D02*
X193315568Y-88820578D01*
X193315568Y-88820578D02*
X193315568Y-88620578D01*
X193315568Y-88620578D02*
X193348901Y-88553911D01*
X193348901Y-88553911D02*
X193382235Y-88520578D01*
X193382235Y-88520578D02*
X193448901Y-88487244D01*
X193448901Y-88487244D02*
X193582235Y-88487244D01*
X193582235Y-88487244D02*
X193648901Y-88520578D01*
X193982234Y-88953911D02*
X193982234Y-88487244D01*
X193982234Y-88253911D02*
X193948901Y-88287244D01*
X193948901Y-88287244D02*
X193982234Y-88320578D01*
X193982234Y-88320578D02*
X194015568Y-88287244D01*
X194015568Y-88287244D02*
X193982234Y-88253911D01*
X193982234Y-88253911D02*
X193982234Y-88320578D01*
X194415567Y-88953911D02*
X194348901Y-88920578D01*
X194348901Y-88920578D02*
X194315567Y-88887244D01*
X194315567Y-88887244D02*
X194282234Y-88820578D01*
X194282234Y-88820578D02*
X194282234Y-88620578D01*
X194282234Y-88620578D02*
X194315567Y-88553911D01*
X194315567Y-88553911D02*
X194348901Y-88520578D01*
X194348901Y-88520578D02*
X194415567Y-88487244D01*
X194415567Y-88487244D02*
X194515567Y-88487244D01*
X194515567Y-88487244D02*
X194582234Y-88520578D01*
X194582234Y-88520578D02*
X194615567Y-88553911D01*
X194615567Y-88553911D02*
X194648901Y-88620578D01*
X194648901Y-88620578D02*
X194648901Y-88820578D01*
X194648901Y-88820578D02*
X194615567Y-88887244D01*
X194615567Y-88887244D02*
X194582234Y-88920578D01*
X194582234Y-88920578D02*
X194515567Y-88953911D01*
X194515567Y-88953911D02*
X194415567Y-88953911D01*
X195248900Y-88953911D02*
X195248900Y-88253911D01*
X195248900Y-88920578D02*
X195182234Y-88953911D01*
X195182234Y-88953911D02*
X195048900Y-88953911D01*
X195048900Y-88953911D02*
X194982234Y-88920578D01*
X194982234Y-88920578D02*
X194948900Y-88887244D01*
X194948900Y-88887244D02*
X194915567Y-88820578D01*
X194915567Y-88820578D02*
X194915567Y-88620578D01*
X194915567Y-88620578D02*
X194948900Y-88553911D01*
X194948900Y-88553911D02*
X194982234Y-88520578D01*
X194982234Y-88520578D02*
X195048900Y-88487244D01*
X195048900Y-88487244D02*
X195182234Y-88487244D01*
X195182234Y-88487244D02*
X195248900Y-88520578D01*
X195848900Y-88920578D02*
X195782233Y-88953911D01*
X195782233Y-88953911D02*
X195648900Y-88953911D01*
X195648900Y-88953911D02*
X195582233Y-88920578D01*
X195582233Y-88920578D02*
X195548900Y-88853911D01*
X195548900Y-88853911D02*
X195548900Y-88587244D01*
X195548900Y-88587244D02*
X195582233Y-88520578D01*
X195582233Y-88520578D02*
X195648900Y-88487244D01*
X195648900Y-88487244D02*
X195782233Y-88487244D01*
X195782233Y-88487244D02*
X195848900Y-88520578D01*
X195848900Y-88520578D02*
X195882233Y-88587244D01*
X195882233Y-88587244D02*
X195882233Y-88653911D01*
X195882233Y-88653911D02*
X195548900Y-88720578D01*
X196682233Y-88753911D02*
X197015566Y-88753911D01*
X196615566Y-88953911D02*
X196848900Y-88253911D01*
X196848900Y-88253911D02*
X197082233Y-88953911D01*
X197315566Y-88953911D02*
X197315566Y-88487244D01*
X197315566Y-88620578D02*
X197348900Y-88553911D01*
X197348900Y-88553911D02*
X197382233Y-88520578D01*
X197382233Y-88520578D02*
X197448900Y-88487244D01*
X197448900Y-88487244D02*
X197515566Y-88487244D01*
X197748899Y-88953911D02*
X197748899Y-88487244D01*
X197748899Y-88620578D02*
X197782233Y-88553911D01*
X197782233Y-88553911D02*
X197815566Y-88520578D01*
X197815566Y-88520578D02*
X197882233Y-88487244D01*
X197882233Y-88487244D02*
X197948899Y-88487244D01*
X198482232Y-88953911D02*
X198482232Y-88587244D01*
X198482232Y-88587244D02*
X198448899Y-88520578D01*
X198448899Y-88520578D02*
X198382232Y-88487244D01*
X198382232Y-88487244D02*
X198248899Y-88487244D01*
X198248899Y-88487244D02*
X198182232Y-88520578D01*
X198482232Y-88920578D02*
X198415566Y-88953911D01*
X198415566Y-88953911D02*
X198248899Y-88953911D01*
X198248899Y-88953911D02*
X198182232Y-88920578D01*
X198182232Y-88920578D02*
X198148899Y-88853911D01*
X198148899Y-88853911D02*
X198148899Y-88787244D01*
X198148899Y-88787244D02*
X198182232Y-88720578D01*
X198182232Y-88720578D02*
X198248899Y-88687244D01*
X198248899Y-88687244D02*
X198415566Y-88687244D01*
X198415566Y-88687244D02*
X198482232Y-88653911D01*
X198748899Y-88487244D02*
X198915565Y-88953911D01*
X199082232Y-88487244D02*
X198915565Y-88953911D01*
X198915565Y-88953911D02*
X198848899Y-89120578D01*
X198848899Y-89120578D02*
X198815565Y-89153911D01*
X198815565Y-89153911D02*
X198748899Y-89187244D01*
X199848898Y-88753911D02*
X200182231Y-88753911D01*
X199782231Y-88953911D02*
X200015565Y-88253911D01*
X200015565Y-88253911D02*
X200248898Y-88953911D01*
X200482231Y-88953911D02*
X200482231Y-88487244D01*
X200482231Y-88553911D02*
X200515565Y-88520578D01*
X200515565Y-88520578D02*
X200582231Y-88487244D01*
X200582231Y-88487244D02*
X200682231Y-88487244D01*
X200682231Y-88487244D02*
X200748898Y-88520578D01*
X200748898Y-88520578D02*
X200782231Y-88587244D01*
X200782231Y-88587244D02*
X200782231Y-88953911D01*
X200782231Y-88587244D02*
X200815565Y-88520578D01*
X200815565Y-88520578D02*
X200882231Y-88487244D01*
X200882231Y-88487244D02*
X200982231Y-88487244D01*
X200982231Y-88487244D02*
X201048898Y-88520578D01*
X201048898Y-88520578D02*
X201082231Y-88587244D01*
X201082231Y-88587244D02*
X201082231Y-88953911D01*
X201415564Y-88487244D02*
X201415564Y-89187244D01*
X201415564Y-88520578D02*
X201482231Y-88487244D01*
X201482231Y-88487244D02*
X201615564Y-88487244D01*
X201615564Y-88487244D02*
X201682231Y-88520578D01*
X201682231Y-88520578D02*
X201715564Y-88553911D01*
X201715564Y-88553911D02*
X201748898Y-88620578D01*
X201748898Y-88620578D02*
X201748898Y-88820578D01*
X201748898Y-88820578D02*
X201715564Y-88887244D01*
X201715564Y-88887244D02*
X201682231Y-88920578D01*
X201682231Y-88920578D02*
X201615564Y-88953911D01*
X201615564Y-88953911D02*
X201482231Y-88953911D01*
X201482231Y-88953911D02*
X201415564Y-88920578D01*
X202148897Y-88953911D02*
X202082231Y-88920578D01*
X202082231Y-88920578D02*
X202048897Y-88853911D01*
X202048897Y-88853911D02*
X202048897Y-88253911D01*
X202415564Y-88953911D02*
X202415564Y-88487244D01*
X202415564Y-88253911D02*
X202382231Y-88287244D01*
X202382231Y-88287244D02*
X202415564Y-88320578D01*
X202415564Y-88320578D02*
X202448898Y-88287244D01*
X202448898Y-88287244D02*
X202415564Y-88253911D01*
X202415564Y-88253911D02*
X202415564Y-88320578D01*
X202648897Y-88487244D02*
X202915564Y-88487244D01*
X202748897Y-88953911D02*
X202748897Y-88353911D01*
X202748897Y-88353911D02*
X202782231Y-88287244D01*
X202782231Y-88287244D02*
X202848897Y-88253911D01*
X202848897Y-88253911D02*
X202915564Y-88253911D01*
X203148897Y-88953911D02*
X203148897Y-88487244D01*
X203148897Y-88253911D02*
X203115564Y-88287244D01*
X203115564Y-88287244D02*
X203148897Y-88320578D01*
X203148897Y-88320578D02*
X203182231Y-88287244D01*
X203182231Y-88287244D02*
X203148897Y-88253911D01*
X203148897Y-88253911D02*
X203148897Y-88320578D01*
X203748897Y-88920578D02*
X203682230Y-88953911D01*
X203682230Y-88953911D02*
X203548897Y-88953911D01*
X203548897Y-88953911D02*
X203482230Y-88920578D01*
X203482230Y-88920578D02*
X203448897Y-88853911D01*
X203448897Y-88853911D02*
X203448897Y-88587244D01*
X203448897Y-88587244D02*
X203482230Y-88520578D01*
X203482230Y-88520578D02*
X203548897Y-88487244D01*
X203548897Y-88487244D02*
X203682230Y-88487244D01*
X203682230Y-88487244D02*
X203748897Y-88520578D01*
X203748897Y-88520578D02*
X203782230Y-88587244D01*
X203782230Y-88587244D02*
X203782230Y-88653911D01*
X203782230Y-88653911D02*
X203448897Y-88720578D01*
X204082230Y-88953911D02*
X204082230Y-88487244D01*
X204082230Y-88620578D02*
X204115564Y-88553911D01*
X204115564Y-88553911D02*
X204148897Y-88520578D01*
X204148897Y-88520578D02*
X204215564Y-88487244D01*
X204215564Y-88487244D02*
X204282230Y-88487244D01*
X190682236Y-90080872D02*
X190348902Y-90080872D01*
X190348902Y-90080872D02*
X190348902Y-89380872D01*
X191215569Y-90080872D02*
X191215569Y-89714205D01*
X191215569Y-89714205D02*
X191182236Y-89647539D01*
X191182236Y-89647539D02*
X191115569Y-89614205D01*
X191115569Y-89614205D02*
X190982236Y-89614205D01*
X190982236Y-89614205D02*
X190915569Y-89647539D01*
X191215569Y-90047539D02*
X191148903Y-90080872D01*
X191148903Y-90080872D02*
X190982236Y-90080872D01*
X190982236Y-90080872D02*
X190915569Y-90047539D01*
X190915569Y-90047539D02*
X190882236Y-89980872D01*
X190882236Y-89980872D02*
X190882236Y-89914205D01*
X190882236Y-89914205D02*
X190915569Y-89847539D01*
X190915569Y-89847539D02*
X190982236Y-89814205D01*
X190982236Y-89814205D02*
X191148903Y-89814205D01*
X191148903Y-89814205D02*
X191215569Y-89780872D01*
X191515569Y-90047539D02*
X191582236Y-90080872D01*
X191582236Y-90080872D02*
X191715569Y-90080872D01*
X191715569Y-90080872D02*
X191782236Y-90047539D01*
X191782236Y-90047539D02*
X191815569Y-89980872D01*
X191815569Y-89980872D02*
X191815569Y-89947539D01*
X191815569Y-89947539D02*
X191782236Y-89880872D01*
X191782236Y-89880872D02*
X191715569Y-89847539D01*
X191715569Y-89847539D02*
X191615569Y-89847539D01*
X191615569Y-89847539D02*
X191548902Y-89814205D01*
X191548902Y-89814205D02*
X191515569Y-89747539D01*
X191515569Y-89747539D02*
X191515569Y-89714205D01*
X191515569Y-89714205D02*
X191548902Y-89647539D01*
X191548902Y-89647539D02*
X191615569Y-89614205D01*
X191615569Y-89614205D02*
X191715569Y-89614205D01*
X191715569Y-89614205D02*
X191782236Y-89647539D01*
X192382236Y-90047539D02*
X192315569Y-90080872D01*
X192315569Y-90080872D02*
X192182236Y-90080872D01*
X192182236Y-90080872D02*
X192115569Y-90047539D01*
X192115569Y-90047539D02*
X192082236Y-89980872D01*
X192082236Y-89980872D02*
X192082236Y-89714205D01*
X192082236Y-89714205D02*
X192115569Y-89647539D01*
X192115569Y-89647539D02*
X192182236Y-89614205D01*
X192182236Y-89614205D02*
X192315569Y-89614205D01*
X192315569Y-89614205D02*
X192382236Y-89647539D01*
X192382236Y-89647539D02*
X192415569Y-89714205D01*
X192415569Y-89714205D02*
X192415569Y-89780872D01*
X192415569Y-89780872D02*
X192082236Y-89847539D01*
X192715569Y-90080872D02*
X192715569Y-89614205D01*
X192715569Y-89747539D02*
X192748903Y-89680872D01*
X192748903Y-89680872D02*
X192782236Y-89647539D01*
X192782236Y-89647539D02*
X192848903Y-89614205D01*
X192848903Y-89614205D02*
X192915569Y-89614205D01*
X193648902Y-90047539D02*
X193748902Y-90080872D01*
X193748902Y-90080872D02*
X193915569Y-90080872D01*
X193915569Y-90080872D02*
X193982235Y-90047539D01*
X193982235Y-90047539D02*
X194015569Y-90014205D01*
X194015569Y-90014205D02*
X194048902Y-89947539D01*
X194048902Y-89947539D02*
X194048902Y-89880872D01*
X194048902Y-89880872D02*
X194015569Y-89814205D01*
X194015569Y-89814205D02*
X193982235Y-89780872D01*
X193982235Y-89780872D02*
X193915569Y-89747539D01*
X193915569Y-89747539D02*
X193782235Y-89714205D01*
X193782235Y-89714205D02*
X193715569Y-89680872D01*
X193715569Y-89680872D02*
X193682235Y-89647539D01*
X193682235Y-89647539D02*
X193648902Y-89580872D01*
X193648902Y-89580872D02*
X193648902Y-89514205D01*
X193648902Y-89514205D02*
X193682235Y-89447539D01*
X193682235Y-89447539D02*
X193715569Y-89414205D01*
X193715569Y-89414205D02*
X193782235Y-89380872D01*
X193782235Y-89380872D02*
X193948902Y-89380872D01*
X193948902Y-89380872D02*
X194048902Y-89414205D01*
X194348902Y-89614205D02*
X194348902Y-90314205D01*
X194348902Y-89647539D02*
X194415569Y-89614205D01*
X194415569Y-89614205D02*
X194548902Y-89614205D01*
X194548902Y-89614205D02*
X194615569Y-89647539D01*
X194615569Y-89647539D02*
X194648902Y-89680872D01*
X194648902Y-89680872D02*
X194682236Y-89747539D01*
X194682236Y-89747539D02*
X194682236Y-89947539D01*
X194682236Y-89947539D02*
X194648902Y-90014205D01*
X194648902Y-90014205D02*
X194615569Y-90047539D01*
X194615569Y-90047539D02*
X194548902Y-90080872D01*
X194548902Y-90080872D02*
X194415569Y-90080872D01*
X194415569Y-90080872D02*
X194348902Y-90047539D01*
X195248902Y-90047539D02*
X195182235Y-90080872D01*
X195182235Y-90080872D02*
X195048902Y-90080872D01*
X195048902Y-90080872D02*
X194982235Y-90047539D01*
X194982235Y-90047539D02*
X194948902Y-89980872D01*
X194948902Y-89980872D02*
X194948902Y-89714205D01*
X194948902Y-89714205D02*
X194982235Y-89647539D01*
X194982235Y-89647539D02*
X195048902Y-89614205D01*
X195048902Y-89614205D02*
X195182235Y-89614205D01*
X195182235Y-89614205D02*
X195248902Y-89647539D01*
X195248902Y-89647539D02*
X195282235Y-89714205D01*
X195282235Y-89714205D02*
X195282235Y-89780872D01*
X195282235Y-89780872D02*
X194948902Y-89847539D01*
X195882235Y-90047539D02*
X195815569Y-90080872D01*
X195815569Y-90080872D02*
X195682235Y-90080872D01*
X195682235Y-90080872D02*
X195615569Y-90047539D01*
X195615569Y-90047539D02*
X195582235Y-90014205D01*
X195582235Y-90014205D02*
X195548902Y-89947539D01*
X195548902Y-89947539D02*
X195548902Y-89747539D01*
X195548902Y-89747539D02*
X195582235Y-89680872D01*
X195582235Y-89680872D02*
X195615569Y-89647539D01*
X195615569Y-89647539D02*
X195682235Y-89614205D01*
X195682235Y-89614205D02*
X195815569Y-89614205D01*
X195815569Y-89614205D02*
X195882235Y-89647539D01*
X196182235Y-90080872D02*
X196182235Y-89380872D01*
X196248902Y-89814205D02*
X196448902Y-90080872D01*
X196448902Y-89614205D02*
X196182235Y-89880872D01*
X196848902Y-90080872D02*
X196782236Y-90047539D01*
X196782236Y-90047539D02*
X196748902Y-89980872D01*
X196748902Y-89980872D02*
X196748902Y-89380872D01*
X197382236Y-90047539D02*
X197315569Y-90080872D01*
X197315569Y-90080872D02*
X197182236Y-90080872D01*
X197182236Y-90080872D02*
X197115569Y-90047539D01*
X197115569Y-90047539D02*
X197082236Y-89980872D01*
X197082236Y-89980872D02*
X197082236Y-89714205D01*
X197082236Y-89714205D02*
X197115569Y-89647539D01*
X197115569Y-89647539D02*
X197182236Y-89614205D01*
X197182236Y-89614205D02*
X197315569Y-89614205D01*
X197315569Y-89614205D02*
X197382236Y-89647539D01*
X197382236Y-89647539D02*
X197415569Y-89714205D01*
X197415569Y-89714205D02*
X197415569Y-89780872D01*
X197415569Y-89780872D02*
X197082236Y-89847539D01*
X198248902Y-90080872D02*
X198248902Y-89380872D01*
X198248902Y-89380872D02*
X198515569Y-89380872D01*
X198515569Y-89380872D02*
X198582236Y-89414205D01*
X198582236Y-89414205D02*
X198615569Y-89447539D01*
X198615569Y-89447539D02*
X198648902Y-89514205D01*
X198648902Y-89514205D02*
X198648902Y-89614205D01*
X198648902Y-89614205D02*
X198615569Y-89680872D01*
X198615569Y-89680872D02*
X198582236Y-89714205D01*
X198582236Y-89714205D02*
X198515569Y-89747539D01*
X198515569Y-89747539D02*
X198248902Y-89747539D01*
X198948902Y-90080872D02*
X198948902Y-89614205D01*
X198948902Y-89747539D02*
X198982236Y-89680872D01*
X198982236Y-89680872D02*
X199015569Y-89647539D01*
X199015569Y-89647539D02*
X199082236Y-89614205D01*
X199082236Y-89614205D02*
X199148902Y-89614205D01*
X199482235Y-90080872D02*
X199415569Y-90047539D01*
X199415569Y-90047539D02*
X199382235Y-90014205D01*
X199382235Y-90014205D02*
X199348902Y-89947539D01*
X199348902Y-89947539D02*
X199348902Y-89747539D01*
X199348902Y-89747539D02*
X199382235Y-89680872D01*
X199382235Y-89680872D02*
X199415569Y-89647539D01*
X199415569Y-89647539D02*
X199482235Y-89614205D01*
X199482235Y-89614205D02*
X199582235Y-89614205D01*
X199582235Y-89614205D02*
X199648902Y-89647539D01*
X199648902Y-89647539D02*
X199682235Y-89680872D01*
X199682235Y-89680872D02*
X199715569Y-89747539D01*
X199715569Y-89747539D02*
X199715569Y-89947539D01*
X199715569Y-89947539D02*
X199682235Y-90014205D01*
X199682235Y-90014205D02*
X199648902Y-90047539D01*
X199648902Y-90047539D02*
X199582235Y-90080872D01*
X199582235Y-90080872D02*
X199482235Y-90080872D01*
X200015568Y-89614205D02*
X200015568Y-90214205D01*
X200015568Y-90214205D02*
X199982235Y-90280872D01*
X199982235Y-90280872D02*
X199915568Y-90314205D01*
X199915568Y-90314205D02*
X199882235Y-90314205D01*
X200015568Y-89380872D02*
X199982235Y-89414205D01*
X199982235Y-89414205D02*
X200015568Y-89447539D01*
X200015568Y-89447539D02*
X200048902Y-89414205D01*
X200048902Y-89414205D02*
X200015568Y-89380872D01*
X200015568Y-89380872D02*
X200015568Y-89447539D01*
X200615568Y-90047539D02*
X200548901Y-90080872D01*
X200548901Y-90080872D02*
X200415568Y-90080872D01*
X200415568Y-90080872D02*
X200348901Y-90047539D01*
X200348901Y-90047539D02*
X200315568Y-89980872D01*
X200315568Y-89980872D02*
X200315568Y-89714205D01*
X200315568Y-89714205D02*
X200348901Y-89647539D01*
X200348901Y-89647539D02*
X200415568Y-89614205D01*
X200415568Y-89614205D02*
X200548901Y-89614205D01*
X200548901Y-89614205D02*
X200615568Y-89647539D01*
X200615568Y-89647539D02*
X200648901Y-89714205D01*
X200648901Y-89714205D02*
X200648901Y-89780872D01*
X200648901Y-89780872D02*
X200315568Y-89847539D01*
X201248901Y-90047539D02*
X201182235Y-90080872D01*
X201182235Y-90080872D02*
X201048901Y-90080872D01*
X201048901Y-90080872D02*
X200982235Y-90047539D01*
X200982235Y-90047539D02*
X200948901Y-90014205D01*
X200948901Y-90014205D02*
X200915568Y-89947539D01*
X200915568Y-89947539D02*
X200915568Y-89747539D01*
X200915568Y-89747539D02*
X200948901Y-89680872D01*
X200948901Y-89680872D02*
X200982235Y-89647539D01*
X200982235Y-89647539D02*
X201048901Y-89614205D01*
X201048901Y-89614205D02*
X201182235Y-89614205D01*
X201182235Y-89614205D02*
X201248901Y-89647539D01*
X201448901Y-89614205D02*
X201715568Y-89614205D01*
X201548901Y-89380872D02*
X201548901Y-89980872D01*
X201548901Y-89980872D02*
X201582235Y-90047539D01*
X201582235Y-90047539D02*
X201648901Y-90080872D01*
X201648901Y-90080872D02*
X201715568Y-90080872D01*
X201982235Y-90047539D02*
X201982235Y-90080872D01*
X201982235Y-90080872D02*
X201948901Y-90147539D01*
X201948901Y-90147539D02*
X201915568Y-90180872D01*
X202782234Y-90047539D02*
X202882234Y-90080872D01*
X202882234Y-90080872D02*
X203048901Y-90080872D01*
X203048901Y-90080872D02*
X203115567Y-90047539D01*
X203115567Y-90047539D02*
X203148901Y-90014205D01*
X203148901Y-90014205D02*
X203182234Y-89947539D01*
X203182234Y-89947539D02*
X203182234Y-89880872D01*
X203182234Y-89880872D02*
X203148901Y-89814205D01*
X203148901Y-89814205D02*
X203115567Y-89780872D01*
X203115567Y-89780872D02*
X203048901Y-89747539D01*
X203048901Y-89747539D02*
X202915567Y-89714205D01*
X202915567Y-89714205D02*
X202848901Y-89680872D01*
X202848901Y-89680872D02*
X202815567Y-89647539D01*
X202815567Y-89647539D02*
X202782234Y-89580872D01*
X202782234Y-89580872D02*
X202782234Y-89514205D01*
X202782234Y-89514205D02*
X202815567Y-89447539D01*
X202815567Y-89447539D02*
X202848901Y-89414205D01*
X202848901Y-89414205D02*
X202915567Y-89380872D01*
X202915567Y-89380872D02*
X203082234Y-89380872D01*
X203082234Y-89380872D02*
X203182234Y-89414205D01*
X203482234Y-90080872D02*
X203482234Y-89380872D01*
X203815567Y-90080872D02*
X203815567Y-89380872D01*
X203815567Y-89380872D02*
X204082234Y-89380872D01*
X204082234Y-89380872D02*
X204148901Y-89414205D01*
X204148901Y-89414205D02*
X204182234Y-89447539D01*
X204182234Y-89447539D02*
X204215567Y-89514205D01*
X204215567Y-89514205D02*
X204215567Y-89614205D01*
X204215567Y-89614205D02*
X204182234Y-89680872D01*
X204182234Y-89680872D02*
X204148901Y-89714205D01*
X204148901Y-89714205D02*
X204082234Y-89747539D01*
X204082234Y-89747539D02*
X203815567Y-89747539D01*
X204848901Y-90080872D02*
X204515567Y-90080872D01*
X204515567Y-90080872D02*
X204515567Y-89380872D01*
X205048901Y-89880872D02*
X205382234Y-89880872D01*
X204982234Y-90080872D02*
X205215568Y-89380872D01*
X205215568Y-89380872D02*
X205448901Y-90080872D01*
X205915568Y-89714205D02*
X206015568Y-89747539D01*
X206015568Y-89747539D02*
X206048901Y-89780872D01*
X206048901Y-89780872D02*
X206082234Y-89847539D01*
X206082234Y-89847539D02*
X206082234Y-89947539D01*
X206082234Y-89947539D02*
X206048901Y-90014205D01*
X206048901Y-90014205D02*
X206015568Y-90047539D01*
X206015568Y-90047539D02*
X205948901Y-90080872D01*
X205948901Y-90080872D02*
X205682234Y-90080872D01*
X205682234Y-90080872D02*
X205682234Y-89380872D01*
X205682234Y-89380872D02*
X205915568Y-89380872D01*
X205915568Y-89380872D02*
X205982234Y-89414205D01*
X205982234Y-89414205D02*
X206015568Y-89447539D01*
X206015568Y-89447539D02*
X206048901Y-89514205D01*
X206048901Y-89514205D02*
X206048901Y-89580872D01*
X206048901Y-89580872D02*
X206015568Y-89647539D01*
X206015568Y-89647539D02*
X205982234Y-89680872D01*
X205982234Y-89680872D02*
X205915568Y-89714205D01*
X205915568Y-89714205D02*
X205682234Y-89714205D01*
X206915567Y-89714205D02*
X207148901Y-89714205D01*
X207248901Y-90080872D02*
X206915567Y-90080872D01*
X206915567Y-90080872D02*
X206915567Y-89380872D01*
X206915567Y-89380872D02*
X207248901Y-89380872D01*
X207448900Y-89380872D02*
X207848900Y-89380872D01*
X207648900Y-90080872D02*
X207648900Y-89380872D01*
X208082233Y-90080872D02*
X208082233Y-89380872D01*
X208082233Y-89714205D02*
X208482233Y-89714205D01*
X208482233Y-90080872D02*
X208482233Y-89380872D01*
X208748900Y-89380872D02*
X209215566Y-89380872D01*
X209215566Y-89380872D02*
X208748900Y-90080872D01*
X208748900Y-90080872D02*
X209215566Y-90080872D01*
X190315569Y-91174500D02*
X190415569Y-91207833D01*
X190415569Y-91207833D02*
X190582236Y-91207833D01*
X190582236Y-91207833D02*
X190648902Y-91174500D01*
X190648902Y-91174500D02*
X190682236Y-91141166D01*
X190682236Y-91141166D02*
X190715569Y-91074500D01*
X190715569Y-91074500D02*
X190715569Y-91007833D01*
X190715569Y-91007833D02*
X190682236Y-90941166D01*
X190682236Y-90941166D02*
X190648902Y-90907833D01*
X190648902Y-90907833D02*
X190582236Y-90874500D01*
X190582236Y-90874500D02*
X190448902Y-90841166D01*
X190448902Y-90841166D02*
X190382236Y-90807833D01*
X190382236Y-90807833D02*
X190348902Y-90774500D01*
X190348902Y-90774500D02*
X190315569Y-90707833D01*
X190315569Y-90707833D02*
X190315569Y-90641166D01*
X190315569Y-90641166D02*
X190348902Y-90574500D01*
X190348902Y-90574500D02*
X190382236Y-90541166D01*
X190382236Y-90541166D02*
X190448902Y-90507833D01*
X190448902Y-90507833D02*
X190615569Y-90507833D01*
X190615569Y-90507833D02*
X190715569Y-90541166D01*
X191315569Y-91207833D02*
X191315569Y-90841166D01*
X191315569Y-90841166D02*
X191282236Y-90774500D01*
X191282236Y-90774500D02*
X191215569Y-90741166D01*
X191215569Y-90741166D02*
X191082236Y-90741166D01*
X191082236Y-90741166D02*
X191015569Y-90774500D01*
X191315569Y-91174500D02*
X191248903Y-91207833D01*
X191248903Y-91207833D02*
X191082236Y-91207833D01*
X191082236Y-91207833D02*
X191015569Y-91174500D01*
X191015569Y-91174500D02*
X190982236Y-91107833D01*
X190982236Y-91107833D02*
X190982236Y-91041166D01*
X190982236Y-91041166D02*
X191015569Y-90974500D01*
X191015569Y-90974500D02*
X191082236Y-90941166D01*
X191082236Y-90941166D02*
X191248903Y-90941166D01*
X191248903Y-90941166D02*
X191315569Y-90907833D01*
X191648902Y-91207833D02*
X191648902Y-90741166D01*
X191648902Y-90807833D02*
X191682236Y-90774500D01*
X191682236Y-90774500D02*
X191748902Y-90741166D01*
X191748902Y-90741166D02*
X191848902Y-90741166D01*
X191848902Y-90741166D02*
X191915569Y-90774500D01*
X191915569Y-90774500D02*
X191948902Y-90841166D01*
X191948902Y-90841166D02*
X191948902Y-91207833D01*
X191948902Y-90841166D02*
X191982236Y-90774500D01*
X191982236Y-90774500D02*
X192048902Y-90741166D01*
X192048902Y-90741166D02*
X192148902Y-90741166D01*
X192148902Y-90741166D02*
X192215569Y-90774500D01*
X192215569Y-90774500D02*
X192248902Y-90841166D01*
X192248902Y-90841166D02*
X192248902Y-91207833D01*
X193082235Y-91174500D02*
X193182235Y-91207833D01*
X193182235Y-91207833D02*
X193348902Y-91207833D01*
X193348902Y-91207833D02*
X193415568Y-91174500D01*
X193415568Y-91174500D02*
X193448902Y-91141166D01*
X193448902Y-91141166D02*
X193482235Y-91074500D01*
X193482235Y-91074500D02*
X193482235Y-91007833D01*
X193482235Y-91007833D02*
X193448902Y-90941166D01*
X193448902Y-90941166D02*
X193415568Y-90907833D01*
X193415568Y-90907833D02*
X193348902Y-90874500D01*
X193348902Y-90874500D02*
X193215568Y-90841166D01*
X193215568Y-90841166D02*
X193148902Y-90807833D01*
X193148902Y-90807833D02*
X193115568Y-90774500D01*
X193115568Y-90774500D02*
X193082235Y-90707833D01*
X193082235Y-90707833D02*
X193082235Y-90641166D01*
X193082235Y-90641166D02*
X193115568Y-90574500D01*
X193115568Y-90574500D02*
X193148902Y-90541166D01*
X193148902Y-90541166D02*
X193215568Y-90507833D01*
X193215568Y-90507833D02*
X193382235Y-90507833D01*
X193382235Y-90507833D02*
X193482235Y-90541166D01*
X194082235Y-90741166D02*
X194082235Y-91207833D01*
X193782235Y-90741166D02*
X193782235Y-91107833D01*
X193782235Y-91107833D02*
X193815569Y-91174500D01*
X193815569Y-91174500D02*
X193882235Y-91207833D01*
X193882235Y-91207833D02*
X193982235Y-91207833D01*
X193982235Y-91207833D02*
X194048902Y-91174500D01*
X194048902Y-91174500D02*
X194082235Y-91141166D01*
X194515568Y-91207833D02*
X194448902Y-91174500D01*
X194448902Y-91174500D02*
X194415568Y-91107833D01*
X194415568Y-91107833D02*
X194415568Y-90507833D01*
X195082235Y-91207833D02*
X195082235Y-90841166D01*
X195082235Y-90841166D02*
X195048902Y-90774500D01*
X195048902Y-90774500D02*
X194982235Y-90741166D01*
X194982235Y-90741166D02*
X194848902Y-90741166D01*
X194848902Y-90741166D02*
X194782235Y-90774500D01*
X195082235Y-91174500D02*
X195015569Y-91207833D01*
X195015569Y-91207833D02*
X194848902Y-91207833D01*
X194848902Y-91207833D02*
X194782235Y-91174500D01*
X194782235Y-91174500D02*
X194748902Y-91107833D01*
X194748902Y-91107833D02*
X194748902Y-91041166D01*
X194748902Y-91041166D02*
X194782235Y-90974500D01*
X194782235Y-90974500D02*
X194848902Y-90941166D01*
X194848902Y-90941166D02*
X195015569Y-90941166D01*
X195015569Y-90941166D02*
X195082235Y-90907833D01*
X195415568Y-91207833D02*
X195415568Y-90741166D01*
X195415568Y-90507833D02*
X195382235Y-90541166D01*
X195382235Y-90541166D02*
X195415568Y-90574500D01*
X195415568Y-90574500D02*
X195448902Y-90541166D01*
X195448902Y-90541166D02*
X195415568Y-90507833D01*
X195415568Y-90507833D02*
X195415568Y-90574500D01*
X195748901Y-91207833D02*
X195748901Y-90741166D01*
X195748901Y-90807833D02*
X195782235Y-90774500D01*
X195782235Y-90774500D02*
X195848901Y-90741166D01*
X195848901Y-90741166D02*
X195948901Y-90741166D01*
X195948901Y-90741166D02*
X196015568Y-90774500D01*
X196015568Y-90774500D02*
X196048901Y-90841166D01*
X196048901Y-90841166D02*
X196048901Y-91207833D01*
X196048901Y-90841166D02*
X196082235Y-90774500D01*
X196082235Y-90774500D02*
X196148901Y-90741166D01*
X196148901Y-90741166D02*
X196248901Y-90741166D01*
X196248901Y-90741166D02*
X196315568Y-90774500D01*
X196315568Y-90774500D02*
X196348901Y-90841166D01*
X196348901Y-90841166D02*
X196348901Y-91207833D01*
X196982234Y-91207833D02*
X196982234Y-90841166D01*
X196982234Y-90841166D02*
X196948901Y-90774500D01*
X196948901Y-90774500D02*
X196882234Y-90741166D01*
X196882234Y-90741166D02*
X196748901Y-90741166D01*
X196748901Y-90741166D02*
X196682234Y-90774500D01*
X196982234Y-91174500D02*
X196915568Y-91207833D01*
X196915568Y-91207833D02*
X196748901Y-91207833D01*
X196748901Y-91207833D02*
X196682234Y-91174500D01*
X196682234Y-91174500D02*
X196648901Y-91107833D01*
X196648901Y-91107833D02*
X196648901Y-91041166D01*
X196648901Y-91041166D02*
X196682234Y-90974500D01*
X196682234Y-90974500D02*
X196748901Y-90941166D01*
X196748901Y-90941166D02*
X196915568Y-90941166D01*
X196915568Y-90941166D02*
X196982234Y-90907833D01*
X197315567Y-90741166D02*
X197315567Y-91207833D01*
X197315567Y-90807833D02*
X197348901Y-90774500D01*
X197348901Y-90774500D02*
X197415567Y-90741166D01*
X197415567Y-90741166D02*
X197515567Y-90741166D01*
X197515567Y-90741166D02*
X197582234Y-90774500D01*
X197582234Y-90774500D02*
X197615567Y-90841166D01*
X197615567Y-90841166D02*
X197615567Y-91207833D01*
X198048900Y-91207833D02*
X197982234Y-91174500D01*
X197982234Y-91174500D02*
X197948900Y-91141166D01*
X197948900Y-91141166D02*
X197915567Y-91074500D01*
X197915567Y-91074500D02*
X197915567Y-90874500D01*
X197915567Y-90874500D02*
X197948900Y-90807833D01*
X197948900Y-90807833D02*
X197982234Y-90774500D01*
X197982234Y-90774500D02*
X198048900Y-90741166D01*
X198048900Y-90741166D02*
X198148900Y-90741166D01*
X198148900Y-90741166D02*
X198215567Y-90774500D01*
X198215567Y-90774500D02*
X198248900Y-90807833D01*
X198248900Y-90807833D02*
X198282234Y-90874500D01*
X198282234Y-90874500D02*
X198282234Y-91074500D01*
X198282234Y-91074500D02*
X198248900Y-91141166D01*
X198248900Y-91141166D02*
X198215567Y-91174500D01*
X198215567Y-91174500D02*
X198148900Y-91207833D01*
X198148900Y-91207833D02*
X198048900Y-91207833D01*
X198515567Y-90741166D02*
X198682233Y-91207833D01*
X198682233Y-91207833D02*
X198848900Y-90741166D01*
X199148900Y-91174500D02*
X199148900Y-91207833D01*
X199148900Y-91207833D02*
X199115566Y-91274500D01*
X199115566Y-91274500D02*
X199082233Y-91307833D01*
X199948899Y-90574500D02*
X199982232Y-90541166D01*
X199982232Y-90541166D02*
X200048899Y-90507833D01*
X200048899Y-90507833D02*
X200215566Y-90507833D01*
X200215566Y-90507833D02*
X200282232Y-90541166D01*
X200282232Y-90541166D02*
X200315566Y-90574500D01*
X200315566Y-90574500D02*
X200348899Y-90641166D01*
X200348899Y-90641166D02*
X200348899Y-90707833D01*
X200348899Y-90707833D02*
X200315566Y-90807833D01*
X200315566Y-90807833D02*
X199915566Y-91207833D01*
X199915566Y-91207833D02*
X200348899Y-91207833D01*
X200782233Y-90507833D02*
X200848899Y-90507833D01*
X200848899Y-90507833D02*
X200915566Y-90541166D01*
X200915566Y-90541166D02*
X200948899Y-90574500D01*
X200948899Y-90574500D02*
X200982233Y-90641166D01*
X200982233Y-90641166D02*
X201015566Y-90774500D01*
X201015566Y-90774500D02*
X201015566Y-90941166D01*
X201015566Y-90941166D02*
X200982233Y-91074500D01*
X200982233Y-91074500D02*
X200948899Y-91141166D01*
X200948899Y-91141166D02*
X200915566Y-91174500D01*
X200915566Y-91174500D02*
X200848899Y-91207833D01*
X200848899Y-91207833D02*
X200782233Y-91207833D01*
X200782233Y-91207833D02*
X200715566Y-91174500D01*
X200715566Y-91174500D02*
X200682233Y-91141166D01*
X200682233Y-91141166D02*
X200648899Y-91074500D01*
X200648899Y-91074500D02*
X200615566Y-90941166D01*
X200615566Y-90941166D02*
X200615566Y-90774500D01*
X200615566Y-90774500D02*
X200648899Y-90641166D01*
X200648899Y-90641166D02*
X200682233Y-90574500D01*
X200682233Y-90574500D02*
X200715566Y-90541166D01*
X200715566Y-90541166D02*
X200782233Y-90507833D01*
X201282233Y-90574500D02*
X201315566Y-90541166D01*
X201315566Y-90541166D02*
X201382233Y-90507833D01*
X201382233Y-90507833D02*
X201548900Y-90507833D01*
X201548900Y-90507833D02*
X201615566Y-90541166D01*
X201615566Y-90541166D02*
X201648900Y-90574500D01*
X201648900Y-90574500D02*
X201682233Y-90641166D01*
X201682233Y-90641166D02*
X201682233Y-90707833D01*
X201682233Y-90707833D02*
X201648900Y-90807833D01*
X201648900Y-90807833D02*
X201248900Y-91207833D01*
X201248900Y-91207833D02*
X201682233Y-91207833D01*
X202282233Y-90741166D02*
X202282233Y-91207833D01*
X202115567Y-90474500D02*
X201948900Y-90974500D01*
X201948900Y-90974500D02*
X202382233Y-90974500D01*
X208392166Y-98390569D02*
X208392166Y-97990569D01*
X208392166Y-98190569D02*
X209092166Y-98190569D01*
X209092166Y-98190569D02*
X208992166Y-98123902D01*
X208992166Y-98123902D02*
X208925500Y-98057236D01*
X208925500Y-98057236D02*
X208892166Y-97990569D01*
X209025500Y-99190569D02*
X209058833Y-99223902D01*
X209058833Y-99223902D02*
X209092166Y-99290569D01*
X209092166Y-99290569D02*
X209092166Y-99457236D01*
X209092166Y-99457236D02*
X209058833Y-99523902D01*
X209058833Y-99523902D02*
X209025500Y-99557236D01*
X209025500Y-99557236D02*
X208958833Y-99590569D01*
X208958833Y-99590569D02*
X208892166Y-99590569D01*
X208892166Y-99590569D02*
X208792166Y-99557236D01*
X208792166Y-99557236D02*
X208392166Y-99157236D01*
X208392166Y-99157236D02*
X208392166Y-99590569D01*
X209092166Y-100357236D02*
X209092166Y-100823902D01*
X209092166Y-100823902D02*
X208392166Y-100523902D01*
X208792166Y-101723902D02*
X208825500Y-101657236D01*
X208825500Y-101657236D02*
X208858833Y-101623902D01*
X208858833Y-101623902D02*
X208925500Y-101590569D01*
X208925500Y-101590569D02*
X208958833Y-101590569D01*
X208958833Y-101590569D02*
X209025500Y-101623902D01*
X209025500Y-101623902D02*
X209058833Y-101657236D01*
X209058833Y-101657236D02*
X209092166Y-101723902D01*
X209092166Y-101723902D02*
X209092166Y-101857236D01*
X209092166Y-101857236D02*
X209058833Y-101923902D01*
X209058833Y-101923902D02*
X209025500Y-101957236D01*
X209025500Y-101957236D02*
X208958833Y-101990569D01*
X208958833Y-101990569D02*
X208925500Y-101990569D01*
X208925500Y-101990569D02*
X208858833Y-101957236D01*
X208858833Y-101957236D02*
X208825500Y-101923902D01*
X208825500Y-101923902D02*
X208792166Y-101857236D01*
X208792166Y-101857236D02*
X208792166Y-101723902D01*
X208792166Y-101723902D02*
X208758833Y-101657236D01*
X208758833Y-101657236D02*
X208725500Y-101623902D01*
X208725500Y-101623902D02*
X208658833Y-101590569D01*
X208658833Y-101590569D02*
X208525500Y-101590569D01*
X208525500Y-101590569D02*
X208458833Y-101623902D01*
X208458833Y-101623902D02*
X208425500Y-101657236D01*
X208425500Y-101657236D02*
X208392166Y-101723902D01*
X208392166Y-101723902D02*
X208392166Y-101857236D01*
X208392166Y-101857236D02*
X208425500Y-101923902D01*
X208425500Y-101923902D02*
X208458833Y-101957236D01*
X208458833Y-101957236D02*
X208525500Y-101990569D01*
X208525500Y-101990569D02*
X208658833Y-101990569D01*
X208658833Y-101990569D02*
X208725500Y-101957236D01*
X208725500Y-101957236D02*
X208758833Y-101923902D01*
X208758833Y-101923902D02*
X208792166Y-101857236D01*
X208392166Y-102857236D02*
X208392166Y-102990569D01*
X208392166Y-102990569D02*
X208425500Y-103057236D01*
X208425500Y-103057236D02*
X208458833Y-103090569D01*
X208458833Y-103090569D02*
X208558833Y-103157236D01*
X208558833Y-103157236D02*
X208692166Y-103190569D01*
X208692166Y-103190569D02*
X208958833Y-103190569D01*
X208958833Y-103190569D02*
X209025500Y-103157236D01*
X209025500Y-103157236D02*
X209058833Y-103123902D01*
X209058833Y-103123902D02*
X209092166Y-103057236D01*
X209092166Y-103057236D02*
X209092166Y-102923902D01*
X209092166Y-102923902D02*
X209058833Y-102857236D01*
X209058833Y-102857236D02*
X209025500Y-102823902D01*
X209025500Y-102823902D02*
X208958833Y-102790569D01*
X208958833Y-102790569D02*
X208792166Y-102790569D01*
X208792166Y-102790569D02*
X208725500Y-102823902D01*
X208725500Y-102823902D02*
X208692166Y-102857236D01*
X208692166Y-102857236D02*
X208658833Y-102923902D01*
X208658833Y-102923902D02*
X208658833Y-103057236D01*
X208658833Y-103057236D02*
X208692166Y-103123902D01*
X208692166Y-103123902D02*
X208725500Y-103157236D01*
X208725500Y-103157236D02*
X208792166Y-103190569D01*
D13*
%TO.C,IC3*%
X162369800Y-112464600D02*
X161969800Y-112464600D01*
D14*
%TO.C,C19*%
X205159420Y-101915000D02*
X205440580Y-101915000D01*
X205159420Y-102935000D02*
X205440580Y-102935000D01*
%TO.C,R17*%
X195862742Y-115977500D02*
X196337258Y-115977500D01*
X195862742Y-117022500D02*
X196337258Y-117022500D01*
%TO.C,C2*%
X188265000Y-105659420D02*
X188265000Y-105940580D01*
X189285000Y-105659420D02*
X189285000Y-105940580D01*
D13*
%TO.C,IC1*%
X156586000Y-96847000D02*
X156986000Y-96847000D01*
D14*
%TO.C,C17*%
X200759420Y-96965000D02*
X201040580Y-96965000D01*
X200759420Y-97985000D02*
X201040580Y-97985000D01*
%TO.C,C16*%
X197159420Y-118865000D02*
X197440580Y-118865000D01*
X197159420Y-119885000D02*
X197440580Y-119885000D01*
D13*
%TO.C,IC4*%
X171045400Y-96862600D02*
X171445400Y-96862600D01*
D14*
%TO.C,C21*%
X205209420Y-107565000D02*
X205490580Y-107565000D01*
X205209420Y-108585000D02*
X205490580Y-108585000D01*
%TO.C,C13*%
X203134420Y-110190000D02*
X203415580Y-110190000D01*
X203134420Y-111210000D02*
X203415580Y-111210000D01*
%TO.C,R4*%
X186677500Y-104387258D02*
X186677500Y-103912742D01*
X187722500Y-104387258D02*
X187722500Y-103912742D01*
%TO.C,C22*%
X161390580Y-95090000D02*
X161109420Y-95090000D01*
X161390580Y-96110000D02*
X161109420Y-96110000D01*
%TO.C,C12*%
X198484420Y-94490000D02*
X198765580Y-94490000D01*
X198484420Y-95510000D02*
X198765580Y-95510000D01*
%TO.C,C24*%
X158009420Y-113140000D02*
X158290580Y-113140000D01*
X158009420Y-114160000D02*
X158290580Y-114160000D01*
%TO.C,R21*%
X202037742Y-101902500D02*
X202512258Y-101902500D01*
X202037742Y-102947500D02*
X202512258Y-102947500D01*
%TO.C,C23*%
X172384420Y-113090000D02*
X172665580Y-113090000D01*
X172384420Y-114110000D02*
X172665580Y-114110000D01*
%TO.C,R15*%
X199987742Y-110177500D02*
X200462258Y-110177500D01*
X199987742Y-111222500D02*
X200462258Y-111222500D01*
%TO.C,R14*%
X195387742Y-94477500D02*
X195862258Y-94477500D01*
X195387742Y-95522500D02*
X195862258Y-95522500D01*
%TO.C,C18*%
X202784420Y-99315000D02*
X203065580Y-99315000D01*
X202784420Y-100335000D02*
X203065580Y-100335000D01*
%TO.C,C11*%
X196434420Y-92265000D02*
X196715580Y-92265000D01*
X196434420Y-93285000D02*
X196715580Y-93285000D01*
%TO.C,R24*%
X202062742Y-107552500D02*
X202537258Y-107552500D01*
X202062742Y-108597500D02*
X202537258Y-108597500D01*
%TO.C,R19*%
X197687742Y-96952500D02*
X198162258Y-96952500D01*
X197687742Y-97997500D02*
X198162258Y-97997500D01*
%TO.C,R16*%
X197612742Y-113052500D02*
X198087258Y-113052500D01*
X197612742Y-114097500D02*
X198087258Y-114097500D01*
%TO.C,C26*%
X184740000Y-105090580D02*
X184740000Y-104809420D01*
X185760000Y-105090580D02*
X185760000Y-104809420D01*
%TO.C,C1*%
X194415000Y-105534420D02*
X194415000Y-105815580D01*
X195435000Y-105534420D02*
X195435000Y-105815580D01*
%TO.C,R20*%
X199687742Y-99302500D02*
X200162258Y-99302500D01*
X199687742Y-100347500D02*
X200162258Y-100347500D01*
%TO.C,R13*%
X193312742Y-92252500D02*
X193787258Y-92252500D01*
X193312742Y-93297500D02*
X193787258Y-93297500D01*
%TO.C,R18*%
X193887742Y-118852500D02*
X194362258Y-118852500D01*
X193887742Y-119897500D02*
X194362258Y-119897500D01*
D13*
%TO.C,IC6*%
X191475000Y-104500000D02*
X192125000Y-104500000D01*
X191475000Y-107400000D02*
X191475000Y-104500000D01*
X192125000Y-104500000D02*
X192125000Y-107400000D01*
X192125000Y-107400000D02*
X191475000Y-107400000D01*
X193625000Y-107550000D02*
X192475000Y-107550000D01*
D14*
%TO.C,C25*%
X175515580Y-95215000D02*
X175234420Y-95215000D01*
X175515580Y-96235000D02*
X175234420Y-96235000D01*
%TO.C,TP3*%
X190400000Y-102400000D02*
G75*
G02*
X189000000Y-102400000I-700000J0D01*
G01*
X189000000Y-102400000D02*
G75*
G02*
X190400000Y-102400000I700000J0D01*
G01*
%TO.C,C15*%
X199134420Y-115990000D02*
X199415580Y-115990000D01*
X199134420Y-117010000D02*
X199415580Y-117010000D01*
D13*
%TO.C,IC2*%
X176893000Y-112419600D02*
X176493000Y-112419600D01*
%TO.C,IC5*%
X184153400Y-100413000D02*
X184153400Y-100813000D01*
D14*
%TO.C,J3*%
X209590000Y-97290000D02*
X210350000Y-97290000D01*
X209590000Y-98050000D02*
X209590000Y-97290000D01*
X210790000Y-99939677D02*
X210790000Y-99970323D01*
X210790000Y-99955000D02*
X211910000Y-99955000D01*
X210790000Y-101209677D02*
X210790000Y-101240323D01*
X210790000Y-101225000D02*
X211910000Y-101225000D01*
X210790000Y-102479677D02*
X210790000Y-102510323D01*
X210790000Y-102495000D02*
X211910000Y-102495000D01*
X210790000Y-103749677D02*
X210790000Y-103780323D01*
X210790000Y-103765000D02*
X211910000Y-103765000D01*
X210790000Y-105019677D02*
X210790000Y-105050323D01*
X210790000Y-105035000D02*
X211910000Y-105035000D01*
X210790000Y-106289677D02*
X210790000Y-106320323D01*
X210790000Y-106305000D02*
X211910000Y-106305000D01*
X210790000Y-107559677D02*
X210790000Y-107590323D01*
X210790000Y-107575000D02*
X211910000Y-107575000D01*
X210790000Y-108829677D02*
X210790000Y-108860323D01*
X210790000Y-108845000D02*
X211910000Y-108845000D01*
X210790000Y-110099677D02*
X210790000Y-110130323D01*
X210790000Y-110115000D02*
X211910000Y-110115000D01*
X210790000Y-111369677D02*
X210790000Y-111400323D01*
X210790000Y-111385000D02*
X211910000Y-111385000D01*
X210790000Y-112715000D02*
X210790000Y-112639677D01*
X211110000Y-97355000D02*
X211910000Y-97355000D01*
X211110000Y-98685000D02*
X211910000Y-98685000D01*
X211910000Y-97355000D02*
X211910000Y-112715000D01*
X211910000Y-97790000D02*
X215910000Y-97790000D01*
X211910000Y-97850000D02*
X215910000Y-97850000D01*
X211910000Y-97970000D02*
X215910000Y-97970000D01*
X211910000Y-98090000D02*
X215910000Y-98090000D01*
X211910000Y-98210000D02*
X215910000Y-98210000D01*
X211910000Y-99060000D02*
X215910000Y-99060000D01*
X211910000Y-100330000D02*
X215910000Y-100330000D01*
X211910000Y-101600000D02*
X215910000Y-101600000D01*
X211910000Y-102870000D02*
X215910000Y-102870000D01*
X211910000Y-104140000D02*
X215910000Y-104140000D01*
X211910000Y-105410000D02*
X215910000Y-105410000D01*
X211910000Y-106680000D02*
X215910000Y-106680000D01*
X211910000Y-107950000D02*
X215910000Y-107950000D01*
X211910000Y-109220000D02*
X215910000Y-109220000D01*
X211910000Y-110490000D02*
X215910000Y-110490000D01*
X211910000Y-111760000D02*
X215910000Y-111760000D01*
X211910000Y-112715000D02*
X210790000Y-112715000D01*
X215910000Y-97790000D02*
X215910000Y-98310000D01*
X215910000Y-98310000D02*
X211910000Y-98310000D01*
X215910000Y-99060000D02*
X215910000Y-99580000D01*
X215910000Y-99580000D02*
X211910000Y-99580000D01*
X215910000Y-100330000D02*
X215910000Y-100850000D01*
X215910000Y-100850000D02*
X211910000Y-100850000D01*
X215910000Y-101600000D02*
X215910000Y-102120000D01*
X215910000Y-102120000D02*
X211910000Y-102120000D01*
X215910000Y-102870000D02*
X215910000Y-103390000D01*
X215910000Y-103390000D02*
X211910000Y-103390000D01*
X215910000Y-104140000D02*
X215910000Y-104660000D01*
X215910000Y-104660000D02*
X211910000Y-104660000D01*
X215910000Y-105410000D02*
X215910000Y-105930000D01*
X215910000Y-105930000D02*
X211910000Y-105930000D01*
X215910000Y-106680000D02*
X215910000Y-107200000D01*
X215910000Y-107200000D02*
X211910000Y-107200000D01*
X215910000Y-107950000D02*
X215910000Y-108470000D01*
X215910000Y-108470000D02*
X211910000Y-108470000D01*
X215910000Y-109220000D02*
X215910000Y-109740000D01*
X215910000Y-109740000D02*
X211910000Y-109740000D01*
X215910000Y-110490000D02*
X215910000Y-111010000D01*
X215910000Y-111010000D02*
X211910000Y-111010000D01*
X215910000Y-111760000D02*
X215910000Y-112280000D01*
X215910000Y-112280000D02*
X211910000Y-112280000D01*
%TO.C,TP1*%
X188875000Y-111850000D02*
G75*
G02*
X187475000Y-111850000I-700000J0D01*
G01*
X187475000Y-111850000D02*
G75*
G02*
X188875000Y-111850000I700000J0D01*
G01*
%TO.C,TP2*%
X205100000Y-106125000D02*
G75*
G02*
X203700000Y-106125000I-700000J0D01*
G01*
X203700000Y-106125000D02*
G75*
G02*
X205100000Y-106125000I700000J0D01*
G01*
%TO.C,C14*%
X201059420Y-113015000D02*
X201340580Y-113015000D01*
X201059420Y-114035000D02*
X201340580Y-114035000D01*
%TD*%
%LPC*%
D13*
X184500000Y-96250000D02*
X184700000Y-96850000D01*
X184700000Y-98750000D01*
X183900000Y-99350000D01*
X183700000Y-99850000D01*
X183250000Y-100350000D01*
X183200000Y-101800000D01*
X183350000Y-103200000D01*
X182600000Y-103900000D01*
X182650000Y-106200000D01*
X183300000Y-107025000D01*
X183750000Y-107950000D01*
X183750000Y-110175000D01*
X182375000Y-110475000D01*
X181225000Y-109725000D01*
X180275000Y-107475000D01*
X177975000Y-107525000D01*
X177200000Y-106450000D01*
X177225000Y-103950000D01*
X176900000Y-103850000D01*
X175550000Y-105350000D01*
X175650000Y-106300000D01*
X175650000Y-107600000D01*
X174750000Y-108700000D01*
X174750000Y-109600000D01*
X175250000Y-110200000D01*
X177600000Y-110200000D01*
X178475000Y-109600000D01*
X180175000Y-109750000D01*
X181000000Y-110600000D01*
X181275000Y-111725000D01*
X180925000Y-112650000D01*
X177750000Y-112650000D01*
X177000000Y-111500000D01*
X175425000Y-111500000D01*
X173700000Y-111850000D01*
X172600000Y-110900000D01*
X171000000Y-110900000D01*
X170000000Y-111750000D01*
X167400000Y-111900000D01*
X166925000Y-112550000D01*
X163750000Y-112775000D01*
X162400000Y-111500000D01*
X159900000Y-111500000D01*
X158100000Y-110900000D01*
X156500000Y-110900000D01*
X155525000Y-111250000D01*
X155050000Y-111775000D01*
X152125000Y-111800000D01*
X151750000Y-110775000D01*
X151950000Y-109325000D01*
X153100000Y-108625000D01*
X155125000Y-108700000D01*
X156475000Y-109600000D01*
X157975000Y-109600000D01*
X159200000Y-107925000D01*
X159275000Y-105250000D01*
X159875000Y-104350000D01*
X158150000Y-102200000D01*
X158150000Y-98975000D01*
X156175000Y-98975000D01*
X154900000Y-100150000D01*
X152375000Y-100125000D01*
X150975000Y-98800000D01*
X150950000Y-97725000D01*
X152150000Y-96500000D01*
X155075000Y-96500000D01*
X156250000Y-97575000D01*
X159125000Y-97550000D01*
X159775000Y-98000000D01*
X162500000Y-98300000D01*
X163725000Y-97325000D01*
X166250000Y-97250000D01*
X167150000Y-96300000D01*
X169800000Y-96475000D01*
X170600000Y-96650000D01*
X170950000Y-97750000D01*
X172550000Y-97750000D01*
X173400000Y-97450000D01*
X174250000Y-97500000D01*
X174650000Y-98600000D01*
X175350000Y-98350000D01*
X176900000Y-98350000D01*
X177800000Y-97600000D01*
X178650000Y-97200000D01*
X180850000Y-97250000D01*
X181150000Y-98600000D01*
X181050000Y-100050000D01*
X181300000Y-102000000D01*
X181975000Y-102075000D01*
X182150000Y-101700000D01*
X182050000Y-99350000D01*
X181850000Y-98500000D01*
X181600000Y-96550000D01*
X182950000Y-95950000D01*
X184500000Y-96250000D01*
G36*
X184500000Y-96250000D02*
G01*
X184700000Y-96850000D01*
X184700000Y-98750000D01*
X183900000Y-99350000D01*
X183700000Y-99850000D01*
X183250000Y-100350000D01*
X183200000Y-101800000D01*
X183350000Y-103200000D01*
X182600000Y-103900000D01*
X182650000Y-106200000D01*
X183300000Y-107025000D01*
X183750000Y-107950000D01*
X183750000Y-110175000D01*
X182375000Y-110475000D01*
X181225000Y-109725000D01*
X180275000Y-107475000D01*
X177975000Y-107525000D01*
X177200000Y-106450000D01*
X177225000Y-103950000D01*
X176900000Y-103850000D01*
X175550000Y-105350000D01*
X175650000Y-106300000D01*
X175650000Y-107600000D01*
X174750000Y-108700000D01*
X174750000Y-109600000D01*
X175250000Y-110200000D01*
X177600000Y-110200000D01*
X178475000Y-109600000D01*
X180175000Y-109750000D01*
X181000000Y-110600000D01*
X181275000Y-111725000D01*
X180925000Y-112650000D01*
X177750000Y-112650000D01*
X177000000Y-111500000D01*
X175425000Y-111500000D01*
X173700000Y-111850000D01*
X172600000Y-110900000D01*
X171000000Y-110900000D01*
X170000000Y-111750000D01*
X167400000Y-111900000D01*
X166925000Y-112550000D01*
X163750000Y-112775000D01*
X162400000Y-111500000D01*
X159900000Y-111500000D01*
X158100000Y-110900000D01*
X156500000Y-110900000D01*
X155525000Y-111250000D01*
X155050000Y-111775000D01*
X152125000Y-111800000D01*
X151750000Y-110775000D01*
X151950000Y-109325000D01*
X153100000Y-108625000D01*
X155125000Y-108700000D01*
X156475000Y-109600000D01*
X157975000Y-109600000D01*
X159200000Y-107925000D01*
X159275000Y-105250000D01*
X159875000Y-104350000D01*
X158150000Y-102200000D01*
X158150000Y-98975000D01*
X156175000Y-98975000D01*
X154900000Y-100150000D01*
X152375000Y-100125000D01*
X150975000Y-98800000D01*
X150950000Y-97725000D01*
X152150000Y-96500000D01*
X155075000Y-96500000D01*
X156250000Y-97575000D01*
X159125000Y-97550000D01*
X159775000Y-98000000D01*
X162500000Y-98300000D01*
X163725000Y-97325000D01*
X166250000Y-97250000D01*
X167150000Y-96300000D01*
X169800000Y-96475000D01*
X170600000Y-96650000D01*
X170950000Y-97750000D01*
X172550000Y-97750000D01*
X173400000Y-97450000D01*
X174250000Y-97500000D01*
X174650000Y-98600000D01*
X175350000Y-98350000D01*
X176900000Y-98350000D01*
X177800000Y-97600000D01*
X178650000Y-97200000D01*
X180850000Y-97250000D01*
X181150000Y-98600000D01*
X181050000Y-100050000D01*
X181300000Y-102000000D01*
X181975000Y-102075000D01*
X182150000Y-101700000D01*
X182050000Y-99350000D01*
X181850000Y-98500000D01*
X181600000Y-96550000D01*
X182950000Y-95950000D01*
X184500000Y-96250000D01*
G37*
D15*
%TO.C,R1*%
X165153800Y-95832800D03*
X165153800Y-98732800D03*
%TD*%
D16*
%TO.C,IC3*%
X161669800Y-111889600D03*
X161669800Y-111239600D03*
X161669800Y-110589600D03*
X161669800Y-109939600D03*
X157269800Y-109939600D03*
X157269800Y-110589600D03*
X157269800Y-111239600D03*
X157269800Y-111889600D03*
%TD*%
D17*
%TO.C,H3*%
X149950000Y-91200000D03*
%TD*%
D18*
%TO.C,C19*%
X204525000Y-102425000D03*
X206075000Y-102425000D03*
%TD*%
D19*
%TO.C,R17*%
X195275000Y-116500000D03*
X196925000Y-116500000D03*
%TD*%
D17*
%TO.C,H1*%
X212775000Y-91175000D03*
%TD*%
D20*
%TO.C,C2*%
X188775000Y-105025000D03*
X188775000Y-106575000D03*
%TD*%
D21*
%TO.C,IC1*%
X157286000Y-97422000D03*
X157286000Y-98072000D03*
X157286000Y-98722000D03*
X157286000Y-99372000D03*
X161686000Y-99372000D03*
X161686000Y-98722000D03*
X161686000Y-98072000D03*
X161686000Y-97422000D03*
%TD*%
D15*
%TO.C,R11*%
X179420000Y-95850000D03*
X179420000Y-98750000D03*
%TD*%
D18*
%TO.C,C17*%
X200125000Y-97475000D03*
X201675000Y-97475000D03*
%TD*%
D22*
%TO.C,R22*%
X182300000Y-108733800D03*
X185200000Y-108733800D03*
%TD*%
D18*
%TO.C,C16*%
X196525000Y-119375000D03*
X198075000Y-119375000D03*
%TD*%
D21*
%TO.C,IC4*%
X171745400Y-97437600D03*
X171745400Y-98087600D03*
X171745400Y-98737600D03*
X171745400Y-99387600D03*
X176145400Y-99387600D03*
X176145400Y-98737600D03*
X176145400Y-98087600D03*
X176145400Y-97437600D03*
%TD*%
D15*
%TO.C,R5*%
X153901600Y-95172400D03*
X153901600Y-98072400D03*
%TD*%
D23*
%TO.C,R8*%
X165350000Y-114150000D03*
X165350000Y-111250000D03*
%TD*%
D18*
%TO.C,C21*%
X204575000Y-108075000D03*
X206125000Y-108075000D03*
%TD*%
D17*
%TO.C,H2*%
X212750000Y-119000000D03*
%TD*%
D18*
%TO.C,C13*%
X202500000Y-110700000D03*
X204050000Y-110700000D03*
%TD*%
D24*
%TO.C,R4*%
X187200000Y-104975000D03*
X187200000Y-103325000D03*
%TD*%
D25*
%TO.C,C22*%
X162025000Y-95600000D03*
X160475000Y-95600000D03*
%TD*%
D18*
%TO.C,C12*%
X197850000Y-95000000D03*
X199400000Y-95000000D03*
%TD*%
%TO.C,C24*%
X157375000Y-113650000D03*
X158925000Y-113650000D03*
%TD*%
D19*
%TO.C,R21*%
X201450000Y-102425000D03*
X203100000Y-102425000D03*
%TD*%
D18*
%TO.C,C23*%
X171750000Y-113600000D03*
X173300000Y-113600000D03*
%TD*%
D19*
%TO.C,R15*%
X199400000Y-110700000D03*
X201050000Y-110700000D03*
%TD*%
%TO.C,R14*%
X194800000Y-95000000D03*
X196450000Y-95000000D03*
%TD*%
D18*
%TO.C,C18*%
X202150000Y-99825000D03*
X203700000Y-99825000D03*
%TD*%
%TO.C,C11*%
X195800000Y-92775000D03*
X197350000Y-92775000D03*
%TD*%
D19*
%TO.C,R24*%
X201475000Y-108075000D03*
X203125000Y-108075000D03*
%TD*%
%TO.C,R19*%
X197100000Y-97475000D03*
X198750000Y-97475000D03*
%TD*%
%TO.C,R16*%
X197025000Y-113575000D03*
X198675000Y-113575000D03*
%TD*%
D15*
%TO.C,R10*%
X168590000Y-95190000D03*
X168590000Y-98090000D03*
%TD*%
D26*
%TO.C,C26*%
X185250000Y-105725000D03*
X185250000Y-104175000D03*
%TD*%
D23*
%TO.C,R6*%
X179350000Y-114100000D03*
X179350000Y-111200000D03*
%TD*%
D20*
%TO.C,C1*%
X194925000Y-104900000D03*
X194925000Y-106450000D03*
%TD*%
D23*
%TO.C,R9*%
X153890000Y-113490000D03*
X153890000Y-110590000D03*
%TD*%
D19*
%TO.C,R20*%
X199100000Y-99825000D03*
X200750000Y-99825000D03*
%TD*%
%TO.C,R13*%
X192725000Y-92775000D03*
X194375000Y-92775000D03*
%TD*%
%TO.C,R18*%
X193300000Y-119375000D03*
X194950000Y-119375000D03*
%TD*%
D27*
%TO.C,R12*%
X185850000Y-97850000D03*
X182950000Y-97850000D03*
%TD*%
D28*
%TO.C,IC6*%
X193050000Y-106900000D03*
X193050000Y-105950000D03*
X193050000Y-105000000D03*
X190550000Y-105000000D03*
X190550000Y-105950000D03*
X190550000Y-106900000D03*
%TD*%
D17*
%TO.C,H4*%
X149975000Y-118975000D03*
%TD*%
D25*
%TO.C,C25*%
X176150000Y-95725000D03*
X174600000Y-95725000D03*
%TD*%
D29*
%TO.C,TP3*%
X189700000Y-102400000D03*
%TD*%
D18*
%TO.C,C15*%
X198500000Y-116500000D03*
X200050000Y-116500000D03*
%TD*%
D16*
%TO.C,IC2*%
X176193000Y-111844600D03*
X176193000Y-111194600D03*
X176193000Y-110544600D03*
X176193000Y-109894600D03*
X171793000Y-109894600D03*
X171793000Y-110544600D03*
X171793000Y-111194600D03*
X171793000Y-111844600D03*
%TD*%
D23*
%TO.C,R7*%
X168481200Y-113450000D03*
X168481200Y-110550000D03*
%TD*%
D30*
%TO.C,IC5*%
X183578400Y-101113000D03*
X182928400Y-101113000D03*
X182278400Y-101113000D03*
X181628400Y-101113000D03*
X181628400Y-105513000D03*
X182278400Y-105513000D03*
X182928400Y-105513000D03*
X183578400Y-105513000D03*
%TD*%
D31*
%TO.C,J3*%
X210350000Y-98050000D03*
D32*
X210350000Y-99320000D03*
X210350000Y-100590000D03*
X210350000Y-101860000D03*
X210350000Y-103130000D03*
X210350000Y-104400000D03*
X210350000Y-105670000D03*
X210350000Y-106940000D03*
X210350000Y-108210000D03*
X210350000Y-109480000D03*
X210350000Y-110750000D03*
X210350000Y-112020000D03*
%TD*%
D29*
%TO.C,TP1*%
X188175000Y-111850000D03*
%TD*%
%TO.C,TP2*%
X204400000Y-106125000D03*
%TD*%
D18*
%TO.C,C14*%
X200425000Y-113525000D03*
X201975000Y-113525000D03*
%TD*%
%LPD*%
M02*
