0
SECTION
2
HEADER
9
$INSUNITS
70
4
9
$ACADVER
1
AC1014
9
$HANDSEED
5
FFFF
0
ENDSEC
0
SECTION
2
TABLES
0
TABLE
2
VPORT
5
8
100
AcDbSymbolTable
0
ENDTAB
0
TABLE
2
LTYPE
5
5
100
AcDbSymbolTable
0
LTYPE
5
14
100
AcDbSymbolTableRecord
100
AcDbLinetypeTableRecord
2
BYBLOCK
70
0
0
LTYPE
5
15
100
AcDbSymbolTableRecord
100
AcDbLinetypeTableRecord
2
BYLAYER
70
0
0
ENDTAB
0
TABLE
2
LAYER
5
2
100
AcDbSymbolTable
70
2
0
LAYER
5
50
100
AcDbSymbolTableRecord
100
AcDbLayerTableRecord
2
0
70
0
6
CONTINUOUS
0
ENDTAB
0
TABLE
2
STYLE
5
3
100
AcDbSymbolTable
70
1
0
STYLE
5
11
100
AcDbSymbolTableRecord
100
AcDbTextStyleTableRecord
2
STANDARD
70
0
0
ENDTAB
0
TABLE
2
VIEW
5
6
100
AcDbSymbolTable
70
0
0
ENDTAB
0
TABLE
2
UCS
5
7
100
AcDbSymbolTable
70
0
0
ENDTAB
0
TABLE
2
APPID
5
9
100
AcDbSymbolTable
70
2
0
APPID
5
12
100
AcDbSymbolTableRecord
100
AcDbRegAppTableRecord
2
ACAD
70
0
0
ENDTAB
0
TABLE
2
DIMSTYLE
5
A
100
AcDbSymbolTable
70
1
0
ENDTAB
0
TABLE
2
BLOCK_RECORD
5
1
100
AcDbSymbolTable
70
1
0
BLOCK_RECORD
5
1F
100
AcDbSymbolTableRecord
100
AcDbBlockTableRecord
2
*MODEL_SPACE
0
BLOCK_RECORD
5
1B
100
AcDbSymbolTableRecord
100
AcDbBlockTableRecord
2
*PAPER_SPACE
0
ENDTAB
0
ENDSEC
0
SECTION
2
BLOCKS
0
BLOCK
5
20
100
AcDbEntity
100
AcDbBlockBegin
2
*MODEL_SPACE
0
ENDBLK
5
21
100
AcDbEntity
100
AcDbBlockEnd
0
BLOCK
5
1C
100
AcDbEntity
100
AcDbBlockBegin
2
*PAPER_SPACE
0
ENDBLK
5
1D
100
AcDbEntity
100
AcDbBlockEnd
0
ENDSEC
0
SECTION
2
ENTITIES
0
LWPOLYLINE
5
100
100
AcDbEntity
8
0
100
AcDbPolyline
90
8
70
1
43
0.0
10
-4.0921838486685616
20
5.4078076505976336
42
0.4142135623730952
10
-1.0921838486685673
20
2.4078076505976393
10
5.4078161513314189
20
2.4078076505976398
42
0.41421356237309509
10
8.4078161513314136
20
5.4078076505976336
10
8.4078161513314136
20
11.907807650597618
42
0.41421356237309509
10
5.4078161513314189
20
14.907807650597613
10
-1.0921838486685664
20
14.907807650597615
42
0.41421356237309515
10
-4.0921838486685616
20
11.907807650597618
0
LWPOLYLINE
5
101
100
AcDbEntity
8
0
100
AcDbPolyline
90
4
70
1
43
0.0
10
4.7559626382910638
20
13.599661163638023
10
4.7559626382910638
20
13.715954137557276
10
4.6396696643718123
20
13.715954137557274
10
4.6396696643718123
20
13.599661163638022
0
LWPOLYLINE
5
102
100
AcDbEntity
8
0
100
AcDbPolyline
90
4
70
1
43
0.0
10
3.4859626382910571
20
13.599661163638023
10
3.4859626382910571
20
13.715954137557276
10
3.3696696643718056
20
13.715954137557274
10
3.3696696643718056
20
13.599661163638022
0
LWPOLYLINE
5
103
100
AcDbEntity
8
0
100
AcDbPolyline
90
4
70
1
43
0.0
10
4.7559626382910638
20
3.5996611636380162
10
4.7559626382910638
20
3.7159541375572673
10
4.6396696643718123
20
3.7159541375572669
10
4.6396696643718123
20
3.5996611636380154
0
LWPOLYLINE
5
104
100
AcDbEntity
8
0
100
AcDbPolyline
90
4
70
1
43
0.0
10
3.4859626382910571
20
3.5996611636380162
10
3.4859626382910571
20
3.7159541375572673
10
3.3696696643718056
20
3.7159541375572669
10
3.3696696643718056
20
3.5996611636380154
0
LWPOLYLINE
5
105
100
AcDbEntity
8
0
100
AcDbPolyline
90
4
70
1
43
0.0
10
-0.32403736170895237
20
3.5996611636380162
10
-0.32403736170895231
20
3.7159541375572673
10
-0.44033033562820378
20
3.7159541375572669
10
-0.44033033562820378
20
3.5996611636380154
0
LWPOLYLINE
5
106
100
AcDbEntity
8
0
100
AcDbPolyline
90
4
70
1
43
0.0
10
-0.32403736170895181
20
13.599661163638023
10
-0.32403736170895175
20
13.715954137557276
10
-0.44033033562820323
20
13.715954137557274
10
-0.44033033562820323
20
13.599661163638022
0
LWPOLYLINE
5
107
100
AcDbEntity
8
0
100
AcDbPolyline
90
4
70
1
43
0.0
10
5.0256706271837608
20
11.670694996043432
10
-0.77432937281625147
20
11.670694996043432
10
-0.77432937281625158
20
5.6506949960434323
10
5.0256706271837608
20
5.6506949960434323
0
LWPOLYLINE
5
108
100
AcDbEntity
8
0
100
AcDbPolyline
90
4
70
1
43
0.0
10
1.2256706271837527
20
5.6506949960434323
10
3.0256706271837568
20
5.6506949960434323
10
3.0256706271837568
20
11.670694996043432
10
1.2256706271837527
20
11.670694996043432
0
ENDSEC
0
SECTION
2
OBJECTS
0
DICTIONARY
5
C
100
AcDbDictionary
3
ACAD_GROUP
350
D
3
ACAD_MLINESTYLE
350
17
0
DICTIONARY
5
D
100
AcDbDictionary
0
DICTIONARY
5
1A
330
C
100
AcDbDictionary
0
DICTIONARY
5
17
100
AcDbDictionary
0
ENDSEC
0
EOF
