M48
; DRILL file {KiCad 8.0.1} date 2024-09-25T01:17:41+0200
; FORMAT={-:-/ absolute / metric / decimal}
; #@! TF.CreationDate,2024-09-25T01:17:41+02:00
; #@! TF.GenerationSoftware,Kicad,Pcbnew,8.0.1
; #@! TF.FileFunction,Plated,1,2,PTH
FMAT,2
METRIC
; #@! TA.AperFunction,Plated,PTH,ViaDrill
T1C0.300
; #@! TA.AperFunction,Plated,PTH,ComponentDrill
T2C0.650
%
G90
G05
T1
X192.47Y-88.48
X192.5Y-86.34
X192.5Y-90.41
X192.54Y-83.84
X193.47Y-82.37
X193.53Y-92.22
X194.1Y-85.11
X194.1Y-87.29
X194.12Y-89.35
X194.3Y-90.89
X195.64Y-83.17
X195.68Y-89.24
X195.69Y-90.57
X195.75Y-87.27
X197.06Y-83.15
X197.73Y-90.9
X197.76Y-87.3
X197.8Y-89.24
X198.31Y-83.0
X198.85Y-83.77
X199.63Y-82.97
X199.72Y-87.16
X199.73Y-85.17
X200.38Y-91.0
X201.48Y-85.22
X201.48Y-87.24
X201.48Y-89.3
X201.94Y-82.66
X201.96Y-92.0
X202.85Y-84.16
X202.87Y-91.09
X202.91Y-86.85
X202.93Y-88.89
T2
X195.18Y-92.23
X195.19Y-82.22
X196.45Y-92.23
X196.46Y-82.22
X197.72Y-92.23
X197.73Y-82.22
X198.99Y-92.23
X199.0Y-82.22
X200.26Y-92.23
X200.27Y-82.22
M30
