%TF.GenerationSoftware,KiCad,Pcbnew,8.0.1*%
%TF.CreationDate,2024-09-25T01:17:28+02:00*%
%TF.ProjectId,speckle_pcb_rev1,73706563-6b6c-4655-9f70-63625f726576,rev?*%
%TF.SameCoordinates,Original*%
%TF.FileFunction,Legend,Top*%
%TF.FilePolarity,Positive*%
%FSLAX46Y46*%
G04 Gerber Fmt 4.6, Leading zero omitted, Abs format (unit mm)*
G04 Created by KiCad (PCBNEW 8.0.1) date 2024-09-25 01:17:28*
%MOMM*%
%LPD*%
G01*
G04 APERTURE LIST*
%ADD10C,0.175000*%
%ADD11C,0.120000*%
%ADD12R,1.000000X1.000000*%
%ADD13O,1.000000X1.000000*%
G04 APERTURE END LIST*
D10*
X202531900Y-89441535D02*
X202565233Y-89341535D01*
X202565233Y-89341535D02*
X202565233Y-89174869D01*
X202565233Y-89174869D02*
X202531900Y-89108202D01*
X202531900Y-89108202D02*
X202498566Y-89074869D01*
X202498566Y-89074869D02*
X202431900Y-89041535D01*
X202431900Y-89041535D02*
X202365233Y-89041535D01*
X202365233Y-89041535D02*
X202298566Y-89074869D01*
X202298566Y-89074869D02*
X202265233Y-89108202D01*
X202265233Y-89108202D02*
X202231900Y-89174869D01*
X202231900Y-89174869D02*
X202198566Y-89308202D01*
X202198566Y-89308202D02*
X202165233Y-89374869D01*
X202165233Y-89374869D02*
X202131900Y-89408202D01*
X202131900Y-89408202D02*
X202065233Y-89441535D01*
X202065233Y-89441535D02*
X201998566Y-89441535D01*
X201998566Y-89441535D02*
X201931900Y-89408202D01*
X201931900Y-89408202D02*
X201898566Y-89374869D01*
X201898566Y-89374869D02*
X201865233Y-89308202D01*
X201865233Y-89308202D02*
X201865233Y-89141535D01*
X201865233Y-89141535D02*
X201898566Y-89041535D01*
X202531900Y-88774868D02*
X202565233Y-88674868D01*
X202565233Y-88674868D02*
X202565233Y-88508202D01*
X202565233Y-88508202D02*
X202531900Y-88441535D01*
X202531900Y-88441535D02*
X202498566Y-88408202D01*
X202498566Y-88408202D02*
X202431900Y-88374868D01*
X202431900Y-88374868D02*
X202365233Y-88374868D01*
X202365233Y-88374868D02*
X202298566Y-88408202D01*
X202298566Y-88408202D02*
X202265233Y-88441535D01*
X202265233Y-88441535D02*
X202231900Y-88508202D01*
X202231900Y-88508202D02*
X202198566Y-88641535D01*
X202198566Y-88641535D02*
X202165233Y-88708202D01*
X202165233Y-88708202D02*
X202131900Y-88741535D01*
X202131900Y-88741535D02*
X202065233Y-88774868D01*
X202065233Y-88774868D02*
X201998566Y-88774868D01*
X201998566Y-88774868D02*
X201931900Y-88741535D01*
X201931900Y-88741535D02*
X201898566Y-88708202D01*
X201898566Y-88708202D02*
X201865233Y-88641535D01*
X201865233Y-88641535D02*
X201865233Y-88474868D01*
X201865233Y-88474868D02*
X201898566Y-88374868D01*
X201931900Y-87574868D02*
X201898566Y-87541535D01*
X201898566Y-87541535D02*
X201865233Y-87474868D01*
X201865233Y-87474868D02*
X201865233Y-87308202D01*
X201865233Y-87308202D02*
X201898566Y-87241535D01*
X201898566Y-87241535D02*
X201931900Y-87208202D01*
X201931900Y-87208202D02*
X201998566Y-87174868D01*
X201998566Y-87174868D02*
X202065233Y-87174868D01*
X202065233Y-87174868D02*
X202165233Y-87208202D01*
X202165233Y-87208202D02*
X202565233Y-87608202D01*
X202565233Y-87608202D02*
X202565233Y-87174868D01*
X201865233Y-86741535D02*
X201865233Y-86674868D01*
X201865233Y-86674868D02*
X201898566Y-86608201D01*
X201898566Y-86608201D02*
X201931900Y-86574868D01*
X201931900Y-86574868D02*
X201998566Y-86541535D01*
X201998566Y-86541535D02*
X202131900Y-86508201D01*
X202131900Y-86508201D02*
X202298566Y-86508201D01*
X202298566Y-86508201D02*
X202431900Y-86541535D01*
X202431900Y-86541535D02*
X202498566Y-86574868D01*
X202498566Y-86574868D02*
X202531900Y-86608201D01*
X202531900Y-86608201D02*
X202565233Y-86674868D01*
X202565233Y-86674868D02*
X202565233Y-86741535D01*
X202565233Y-86741535D02*
X202531900Y-86808201D01*
X202531900Y-86808201D02*
X202498566Y-86841535D01*
X202498566Y-86841535D02*
X202431900Y-86874868D01*
X202431900Y-86874868D02*
X202298566Y-86908201D01*
X202298566Y-86908201D02*
X202131900Y-86908201D01*
X202131900Y-86908201D02*
X201998566Y-86874868D01*
X201998566Y-86874868D02*
X201931900Y-86841535D01*
X201931900Y-86841535D02*
X201898566Y-86808201D01*
X201898566Y-86808201D02*
X201865233Y-86741535D01*
X201931900Y-86241534D02*
X201898566Y-86208201D01*
X201898566Y-86208201D02*
X201865233Y-86141534D01*
X201865233Y-86141534D02*
X201865233Y-85974868D01*
X201865233Y-85974868D02*
X201898566Y-85908201D01*
X201898566Y-85908201D02*
X201931900Y-85874868D01*
X201931900Y-85874868D02*
X201998566Y-85841534D01*
X201998566Y-85841534D02*
X202065233Y-85841534D01*
X202065233Y-85841534D02*
X202165233Y-85874868D01*
X202165233Y-85874868D02*
X202565233Y-86274868D01*
X202565233Y-86274868D02*
X202565233Y-85841534D01*
X202098566Y-85241534D02*
X202565233Y-85241534D01*
X201831900Y-85408201D02*
X202331900Y-85574867D01*
X202331900Y-85574867D02*
X202331900Y-85141534D01*
X193605233Y-90734869D02*
X193605233Y-90601535D01*
X193605233Y-90601535D02*
X193571900Y-90534869D01*
X193571900Y-90534869D02*
X193538566Y-90501535D01*
X193538566Y-90501535D02*
X193438566Y-90434869D01*
X193438566Y-90434869D02*
X193305233Y-90401535D01*
X193305233Y-90401535D02*
X193038566Y-90401535D01*
X193038566Y-90401535D02*
X192971900Y-90434869D01*
X192971900Y-90434869D02*
X192938566Y-90468202D01*
X192938566Y-90468202D02*
X192905233Y-90534869D01*
X192905233Y-90534869D02*
X192905233Y-90668202D01*
X192905233Y-90668202D02*
X192938566Y-90734869D01*
X192938566Y-90734869D02*
X192971900Y-90768202D01*
X192971900Y-90768202D02*
X193038566Y-90801535D01*
X193038566Y-90801535D02*
X193205233Y-90801535D01*
X193205233Y-90801535D02*
X193271900Y-90768202D01*
X193271900Y-90768202D02*
X193305233Y-90734869D01*
X193305233Y-90734869D02*
X193338566Y-90668202D01*
X193338566Y-90668202D02*
X193338566Y-90534869D01*
X193338566Y-90534869D02*
X193305233Y-90468202D01*
X193305233Y-90468202D02*
X193271900Y-90434869D01*
X193271900Y-90434869D02*
X193205233Y-90401535D01*
X193605233Y-90168202D02*
X193138566Y-89801535D01*
X193138566Y-90168202D02*
X193605233Y-89801535D01*
X193605233Y-89501535D02*
X193605233Y-89368201D01*
X193605233Y-89368201D02*
X193571900Y-89301535D01*
X193571900Y-89301535D02*
X193538566Y-89268201D01*
X193538566Y-89268201D02*
X193438566Y-89201535D01*
X193438566Y-89201535D02*
X193305233Y-89168201D01*
X193305233Y-89168201D02*
X193038566Y-89168201D01*
X193038566Y-89168201D02*
X192971900Y-89201535D01*
X192971900Y-89201535D02*
X192938566Y-89234868D01*
X192938566Y-89234868D02*
X192905233Y-89301535D01*
X192905233Y-89301535D02*
X192905233Y-89434868D01*
X192905233Y-89434868D02*
X192938566Y-89501535D01*
X192938566Y-89501535D02*
X192971900Y-89534868D01*
X192971900Y-89534868D02*
X193038566Y-89568201D01*
X193038566Y-89568201D02*
X193205233Y-89568201D01*
X193205233Y-89568201D02*
X193271900Y-89534868D01*
X193271900Y-89534868D02*
X193305233Y-89501535D01*
X193305233Y-89501535D02*
X193338566Y-89434868D01*
X193338566Y-89434868D02*
X193338566Y-89301535D01*
X193338566Y-89301535D02*
X193305233Y-89234868D01*
X193305233Y-89234868D02*
X193271900Y-89201535D01*
X193271900Y-89201535D02*
X193205233Y-89168201D01*
X192905233Y-88434868D02*
X193605233Y-88201535D01*
X193605233Y-88201535D02*
X192905233Y-87968201D01*
X193238566Y-87734868D02*
X193238566Y-87501535D01*
X193605233Y-87401535D02*
X193605233Y-87734868D01*
X193605233Y-87734868D02*
X192905233Y-87734868D01*
X192905233Y-87734868D02*
X192905233Y-87401535D01*
X193605233Y-87101535D02*
X192905233Y-87101535D01*
X192905233Y-87101535D02*
X193405233Y-86868202D01*
X193405233Y-86868202D02*
X192905233Y-86634868D01*
X192905233Y-86634868D02*
X193605233Y-86634868D01*
X193605233Y-86301535D02*
X192905233Y-86301535D01*
X192905233Y-86301535D02*
X192905233Y-86134868D01*
X192905233Y-86134868D02*
X192938566Y-86034868D01*
X192938566Y-86034868D02*
X193005233Y-85968202D01*
X193005233Y-85968202D02*
X193071900Y-85934868D01*
X193071900Y-85934868D02*
X193205233Y-85901535D01*
X193205233Y-85901535D02*
X193305233Y-85901535D01*
X193305233Y-85901535D02*
X193438566Y-85934868D01*
X193438566Y-85934868D02*
X193505233Y-85968202D01*
X193505233Y-85968202D02*
X193571900Y-86034868D01*
X193571900Y-86034868D02*
X193605233Y-86134868D01*
X193605233Y-86134868D02*
X193605233Y-86301535D01*
X192971900Y-85634868D02*
X192938566Y-85601535D01*
X192938566Y-85601535D02*
X192905233Y-85534868D01*
X192905233Y-85534868D02*
X192905233Y-85368202D01*
X192905233Y-85368202D02*
X192938566Y-85301535D01*
X192938566Y-85301535D02*
X192971900Y-85268202D01*
X192971900Y-85268202D02*
X193038566Y-85234868D01*
X193038566Y-85234868D02*
X193105233Y-85234868D01*
X193105233Y-85234868D02*
X193205233Y-85268202D01*
X193205233Y-85268202D02*
X193605233Y-85668202D01*
X193605233Y-85668202D02*
X193605233Y-85234868D01*
X192905233Y-85001535D02*
X192905233Y-84534868D01*
X192905233Y-84534868D02*
X193605233Y-84834868D01*
X192905233Y-84134868D02*
X192905233Y-84068201D01*
X192905233Y-84068201D02*
X192938566Y-84001534D01*
X192938566Y-84001534D02*
X192971900Y-83968201D01*
X192971900Y-83968201D02*
X193038566Y-83934868D01*
X193038566Y-83934868D02*
X193171900Y-83901534D01*
X193171900Y-83901534D02*
X193338566Y-83901534D01*
X193338566Y-83901534D02*
X193471900Y-83934868D01*
X193471900Y-83934868D02*
X193538566Y-83968201D01*
X193538566Y-83968201D02*
X193571900Y-84001534D01*
X193571900Y-84001534D02*
X193605233Y-84068201D01*
X193605233Y-84068201D02*
X193605233Y-84134868D01*
X193605233Y-84134868D02*
X193571900Y-84201534D01*
X193571900Y-84201534D02*
X193538566Y-84234868D01*
X193538566Y-84234868D02*
X193471900Y-84268201D01*
X193471900Y-84268201D02*
X193338566Y-84301534D01*
X193338566Y-84301534D02*
X193171900Y-84301534D01*
X193171900Y-84301534D02*
X193038566Y-84268201D01*
X193038566Y-84268201D02*
X192971900Y-84234868D01*
X192971900Y-84234868D02*
X192938566Y-84201534D01*
X192938566Y-84201534D02*
X192905233Y-84134868D01*
X193138566Y-83301534D02*
X193605233Y-83301534D01*
X192871900Y-83468201D02*
X193371900Y-83634867D01*
X193371900Y-83634867D02*
X193371900Y-83201534D01*
X198008566Y-90488202D02*
X198041900Y-90521535D01*
X198041900Y-90521535D02*
X198075233Y-90621535D01*
X198075233Y-90621535D02*
X198075233Y-90688202D01*
X198075233Y-90688202D02*
X198041900Y-90788202D01*
X198041900Y-90788202D02*
X197975233Y-90854869D01*
X197975233Y-90854869D02*
X197908566Y-90888202D01*
X197908566Y-90888202D02*
X197775233Y-90921535D01*
X197775233Y-90921535D02*
X197675233Y-90921535D01*
X197675233Y-90921535D02*
X197541900Y-90888202D01*
X197541900Y-90888202D02*
X197475233Y-90854869D01*
X197475233Y-90854869D02*
X197408566Y-90788202D01*
X197408566Y-90788202D02*
X197375233Y-90688202D01*
X197375233Y-90688202D02*
X197375233Y-90621535D01*
X197375233Y-90621535D02*
X197408566Y-90521535D01*
X197408566Y-90521535D02*
X197441900Y-90488202D01*
X198075233Y-90088202D02*
X198041900Y-90154869D01*
X198041900Y-90154869D02*
X198008566Y-90188202D01*
X198008566Y-90188202D02*
X197941900Y-90221535D01*
X197941900Y-90221535D02*
X197741900Y-90221535D01*
X197741900Y-90221535D02*
X197675233Y-90188202D01*
X197675233Y-90188202D02*
X197641900Y-90154869D01*
X197641900Y-90154869D02*
X197608566Y-90088202D01*
X197608566Y-90088202D02*
X197608566Y-89988202D01*
X197608566Y-89988202D02*
X197641900Y-89921535D01*
X197641900Y-89921535D02*
X197675233Y-89888202D01*
X197675233Y-89888202D02*
X197741900Y-89854869D01*
X197741900Y-89854869D02*
X197941900Y-89854869D01*
X197941900Y-89854869D02*
X198008566Y-89888202D01*
X198008566Y-89888202D02*
X198041900Y-89921535D01*
X198041900Y-89921535D02*
X198075233Y-89988202D01*
X198075233Y-89988202D02*
X198075233Y-90088202D01*
X198075233Y-89554869D02*
X197608566Y-89554869D01*
X197675233Y-89554869D02*
X197641900Y-89521536D01*
X197641900Y-89521536D02*
X197608566Y-89454869D01*
X197608566Y-89454869D02*
X197608566Y-89354869D01*
X197608566Y-89354869D02*
X197641900Y-89288202D01*
X197641900Y-89288202D02*
X197708566Y-89254869D01*
X197708566Y-89254869D02*
X198075233Y-89254869D01*
X197708566Y-89254869D02*
X197641900Y-89221536D01*
X197641900Y-89221536D02*
X197608566Y-89154869D01*
X197608566Y-89154869D02*
X197608566Y-89054869D01*
X197608566Y-89054869D02*
X197641900Y-88988202D01*
X197641900Y-88988202D02*
X197708566Y-88954869D01*
X197708566Y-88954869D02*
X198075233Y-88954869D01*
D11*
%TO.C,J2*%
X194430000Y-83330000D02*
X194430000Y-82220000D01*
X195190000Y-83330000D02*
X194430000Y-83330000D01*
X195950000Y-81110000D02*
X200965000Y-81110000D01*
X195950000Y-81656529D02*
X195950000Y-81110000D01*
X195950000Y-83330000D02*
X195950000Y-82783471D01*
X195950000Y-83330000D02*
X200965000Y-83330000D01*
X200965000Y-81912470D02*
X200965000Y-81110000D01*
X200965000Y-83330000D02*
X200965000Y-82527530D01*
%TO.C,J1*%
X194420000Y-93340000D02*
X194420000Y-92230000D01*
X195180000Y-93340000D02*
X194420000Y-93340000D01*
X195940000Y-91120000D02*
X200955000Y-91120000D01*
X195940000Y-91666529D02*
X195940000Y-91120000D01*
X195940000Y-93340000D02*
X195940000Y-92793471D01*
X195940000Y-93340000D02*
X200955000Y-93340000D01*
X200955000Y-91922470D02*
X200955000Y-91120000D01*
X200955000Y-93340000D02*
X200955000Y-92537530D01*
%TD*%
%LPC*%
D12*
%TO.C,J2*%
X195190000Y-82220000D03*
D13*
X196460000Y-82220000D03*
X197730000Y-82220000D03*
X199000000Y-82220000D03*
X200270000Y-82220000D03*
%TD*%
D12*
%TO.C,J1*%
X195180000Y-92230000D03*
D13*
X196450000Y-92230000D03*
X197720000Y-92230000D03*
X198990000Y-92230000D03*
X200260000Y-92230000D03*
%TD*%
%LPD*%
M02*
