%TF.GenerationSoftware,KiCad,Pcbnew,8.0.1*%
%TF.CreationDate,2024-09-25T01:17:28+02:00*%
%TF.ProjectId,speckle_pcb_rev1,73706563-6b6c-4655-9f70-63625f726576,rev?*%
%TF.SameCoordinates,Original*%
%TF.FileFunction,Copper,L1,Top*%
%TF.FilePolarity,Positive*%
%FSLAX46Y46*%
G04 Gerber Fmt 4.6, Leading zero omitted, Abs format (unit mm)*
G04 Created by KiCad (PCBNEW 8.0.1) date 2024-09-25 01:17:28*
%MOMM*%
%LPD*%
G01*
G04 APERTURE LIST*
%TA.AperFunction,ComponentPad*%
%ADD10R,1.000000X1.000000*%
%TD*%
%TA.AperFunction,ComponentPad*%
%ADD11O,1.000000X1.000000*%
%TD*%
%TA.AperFunction,ViaPad*%
%ADD12C,0.600000*%
%TD*%
G04 APERTURE END LIST*
D10*
%TO.P,J2,1,Pin_1*%
%TO.N,D7*%
X195190000Y-82220000D03*
D11*
%TO.P,J2,2,Pin_2*%
%TO.N,D8*%
X196460000Y-82220000D03*
%TO.P,J2,3,Pin_3*%
%TO.N,D4*%
X197730000Y-82220000D03*
%TO.P,J2,4,Pin_4*%
%TO.N,D5*%
X199000000Y-82220000D03*
%TO.P,J2,5,Pin_5*%
%TO.N,D1*%
X200270000Y-82220000D03*
%TD*%
D10*
%TO.P,J1,1,Pin_1*%
%TO.N,D9*%
X195180000Y-92230000D03*
D11*
%TO.P,J1,2,Pin_2*%
%TO.N,D6*%
X196450000Y-92230000D03*
%TO.P,J1,3,Pin_3*%
%TO.N,CommonAnode*%
X197720000Y-92230000D03*
%TO.P,J1,4,Pin_4*%
%TO.N,D3*%
X198990000Y-92230000D03*
%TO.P,J1,5,Pin_5*%
%TO.N,D2*%
X200260000Y-92230000D03*
%TD*%
D12*
%TO.N,CommonAnode*%
X199730000Y-85170000D03*
X201480000Y-85220000D03*
X192540000Y-83840000D03*
X197730000Y-90900000D03*
X201480000Y-89300000D03*
X192500000Y-86340000D03*
X193530000Y-92220000D03*
X199720000Y-87160000D03*
X201940000Y-82660000D03*
X195680000Y-89240000D03*
X192470000Y-88480000D03*
X201960000Y-92000000D03*
X198850000Y-83770000D03*
X195750000Y-87270000D03*
X194300000Y-90890000D03*
X194120000Y-89350000D03*
X201480000Y-87240000D03*
X195640000Y-83170000D03*
X202910000Y-86850000D03*
X197800000Y-89240000D03*
X202930000Y-88890000D03*
X192500000Y-90410000D03*
X198310000Y-83000000D03*
X202870000Y-91090000D03*
X194100000Y-87290000D03*
X195690000Y-90570000D03*
X197060000Y-83150000D03*
X199630000Y-82970000D03*
X200380000Y-91000000D03*
X202850000Y-84160000D03*
X197760000Y-87300000D03*
X194100000Y-85110000D03*
X193470000Y-82370000D03*
%TD*%
%TA.AperFunction,Conductor*%
%TO.N,CommonAnode*%
G36*
X194567551Y-81495184D02*
G01*
X194613306Y-81547988D01*
X194623250Y-81617146D01*
X194603617Y-81668386D01*
X194595331Y-81680786D01*
X194595329Y-81680791D01*
X194589500Y-81710098D01*
X194589500Y-82729894D01*
X194589501Y-82729902D01*
X194595330Y-82759212D01*
X194617542Y-82792457D01*
X194620289Y-82794292D01*
X194650787Y-82814669D01*
X194650790Y-82814669D01*
X194650791Y-82814670D01*
X194660647Y-82816630D01*
X194680101Y-82820500D01*
X195699898Y-82820499D01*
X195729213Y-82814669D01*
X195762457Y-82792457D01*
X195784669Y-82759213D01*
X195790500Y-82729899D01*
X195790499Y-82699211D01*
X195810182Y-82632175D01*
X195862984Y-82586419D01*
X195932143Y-82576474D01*
X195995699Y-82605497D01*
X196012874Y-82623724D01*
X196031718Y-82648282D01*
X196157159Y-82744536D01*
X196303238Y-82805044D01*
X196366876Y-82813422D01*
X196459999Y-82825682D01*
X196460000Y-82825682D01*
X196460001Y-82825682D01*
X196512254Y-82818802D01*
X196616762Y-82805044D01*
X196762841Y-82744536D01*
X196888282Y-82648282D01*
X196984536Y-82522841D01*
X196984541Y-82522828D01*
X196987610Y-82517515D01*
X197038175Y-82469298D01*
X197106782Y-82456072D01*
X197171648Y-82482037D01*
X197202390Y-82517515D01*
X197205461Y-82522834D01*
X197205464Y-82522841D01*
X197301718Y-82648282D01*
X197427159Y-82744536D01*
X197573238Y-82805044D01*
X197636876Y-82813422D01*
X197729999Y-82825682D01*
X197730000Y-82825682D01*
X197730001Y-82825682D01*
X197782254Y-82818802D01*
X197886762Y-82805044D01*
X198032841Y-82744536D01*
X198158282Y-82648282D01*
X198254536Y-82522841D01*
X198254541Y-82522828D01*
X198257610Y-82517515D01*
X198308175Y-82469298D01*
X198376782Y-82456072D01*
X198441648Y-82482037D01*
X198472390Y-82517515D01*
X198475461Y-82522834D01*
X198475464Y-82522841D01*
X198571718Y-82648282D01*
X198697159Y-82744536D01*
X198843238Y-82805044D01*
X198906876Y-82813422D01*
X198999999Y-82825682D01*
X199000000Y-82825682D01*
X199000001Y-82825682D01*
X199052254Y-82818802D01*
X199156762Y-82805044D01*
X199302841Y-82744536D01*
X199428282Y-82648282D01*
X199524536Y-82522841D01*
X199524541Y-82522828D01*
X199527610Y-82517515D01*
X199578175Y-82469298D01*
X199646782Y-82456072D01*
X199711648Y-82482037D01*
X199742390Y-82517515D01*
X199745461Y-82522834D01*
X199745464Y-82522841D01*
X199841718Y-82648282D01*
X199967159Y-82744536D01*
X200113238Y-82805044D01*
X200176876Y-82813422D01*
X200269999Y-82825682D01*
X200270000Y-82825682D01*
X200270001Y-82825682D01*
X200322254Y-82818802D01*
X200426762Y-82805044D01*
X200572841Y-82744536D01*
X200698282Y-82648282D01*
X200794536Y-82522841D01*
X200855044Y-82376762D01*
X200875682Y-82220000D01*
X200855044Y-82063238D01*
X200794536Y-81917159D01*
X200698282Y-81791718D01*
X200698280Y-81791717D01*
X200698280Y-81791716D01*
X200575983Y-81697875D01*
X200534780Y-81641447D01*
X200530625Y-81571701D01*
X200564837Y-81510781D01*
X200626555Y-81478028D01*
X200651469Y-81475499D01*
X200909103Y-81475499D01*
X200971244Y-81475499D01*
X200978731Y-81475725D01*
X201268796Y-81493270D01*
X201283652Y-81495074D01*
X201565798Y-81546778D01*
X201580323Y-81550359D01*
X201854168Y-81635693D01*
X201868160Y-81640998D01*
X202129734Y-81758722D01*
X202142992Y-81765680D01*
X202388461Y-81914071D01*
X202400774Y-81922570D01*
X202626566Y-82099467D01*
X202637774Y-82109396D01*
X202840599Y-82312219D01*
X202850527Y-82323426D01*
X203006757Y-82522839D01*
X203027422Y-82549215D01*
X203035926Y-82561535D01*
X203155426Y-82759212D01*
X203184316Y-82807002D01*
X203191275Y-82820261D01*
X203308996Y-83081827D01*
X203314305Y-83095827D01*
X203399637Y-83369664D01*
X203403221Y-83384203D01*
X203454924Y-83666338D01*
X203456729Y-83681203D01*
X203474274Y-83971245D01*
X203474500Y-83978732D01*
X203474500Y-90471243D01*
X203474274Y-90478730D01*
X203456728Y-90768791D01*
X203454923Y-90783655D01*
X203403221Y-91065790D01*
X203399637Y-91080329D01*
X203314307Y-91354164D01*
X203308998Y-91368165D01*
X203191275Y-91629734D01*
X203184316Y-91642993D01*
X203035929Y-91888457D01*
X203027423Y-91900780D01*
X202850526Y-92126572D01*
X202840596Y-92137780D01*
X202637781Y-92340596D01*
X202626573Y-92350526D01*
X202400781Y-92527423D01*
X202388458Y-92535929D01*
X202142994Y-92684316D01*
X202129735Y-92691275D01*
X201868166Y-92808998D01*
X201854165Y-92814307D01*
X201580330Y-92899637D01*
X201565791Y-92903221D01*
X201283656Y-92954923D01*
X201268792Y-92956728D01*
X200978748Y-92974273D01*
X200971261Y-92974499D01*
X200641472Y-92974499D01*
X200574433Y-92954814D01*
X200528678Y-92902010D01*
X200518734Y-92832852D01*
X200547759Y-92769296D01*
X200565981Y-92752125D01*
X200688282Y-92658282D01*
X200784536Y-92532841D01*
X200845044Y-92386762D01*
X200865682Y-92230000D01*
X200845044Y-92073238D01*
X200784536Y-91927159D01*
X200688282Y-91801718D01*
X200562841Y-91705464D01*
X200555482Y-91702416D01*
X200416762Y-91644956D01*
X200416760Y-91644955D01*
X200260001Y-91624318D01*
X200259999Y-91624318D01*
X200103239Y-91644955D01*
X200103237Y-91644956D01*
X199957160Y-91705463D01*
X199831718Y-91801718D01*
X199735458Y-91927166D01*
X199732387Y-91932487D01*
X199681821Y-91980703D01*
X199613214Y-91993927D01*
X199548349Y-91967959D01*
X199517613Y-91932487D01*
X199514541Y-91927166D01*
X199514528Y-91927149D01*
X199418282Y-91801718D01*
X199292841Y-91705464D01*
X199285482Y-91702416D01*
X199146762Y-91644956D01*
X199146760Y-91644955D01*
X198990001Y-91624318D01*
X198989999Y-91624318D01*
X198833239Y-91644955D01*
X198833234Y-91644957D01*
X198694514Y-91702416D01*
X198625044Y-91709885D01*
X198562565Y-91678609D01*
X198551209Y-91666520D01*
X198430528Y-91519471D01*
X198278260Y-91394507D01*
X198278253Y-91394503D01*
X198104541Y-91301652D01*
X197970000Y-91260839D01*
X197970000Y-92020382D01*
X197919554Y-91969936D01*
X197845445Y-91927149D01*
X197762787Y-91905000D01*
X197677213Y-91905000D01*
X197594555Y-91927149D01*
X197520446Y-91969936D01*
X197470000Y-92020382D01*
X197470000Y-91260839D01*
X197469999Y-91260839D01*
X197335458Y-91301652D01*
X197161746Y-91394503D01*
X197161739Y-91394507D01*
X197009474Y-91519469D01*
X196888790Y-91666521D01*
X196831043Y-91705855D01*
X196761199Y-91707724D01*
X196745485Y-91702416D01*
X196606765Y-91644957D01*
X196606760Y-91644955D01*
X196450001Y-91624318D01*
X196449999Y-91624318D01*
X196293239Y-91644955D01*
X196293237Y-91644956D01*
X196147160Y-91705463D01*
X196128082Y-91720102D01*
X196055626Y-91775700D01*
X196021717Y-91801719D01*
X196002874Y-91826276D01*
X195946445Y-91867478D01*
X195876699Y-91871632D01*
X195815779Y-91837418D01*
X195783027Y-91775700D01*
X195780499Y-91750788D01*
X195780499Y-91720105D01*
X195780498Y-91720097D01*
X195774669Y-91690787D01*
X195752457Y-91657542D01*
X195721076Y-91636576D01*
X195719213Y-91635331D01*
X195719211Y-91635330D01*
X195719208Y-91635329D01*
X195689901Y-91629500D01*
X194670105Y-91629500D01*
X194670097Y-91629501D01*
X194640787Y-91635330D01*
X194607542Y-91657542D01*
X194585332Y-91690785D01*
X194585329Y-91690791D01*
X194579500Y-91720098D01*
X194579500Y-92739894D01*
X194579501Y-92739902D01*
X194585330Y-92769212D01*
X194593614Y-92781610D01*
X194614491Y-92848287D01*
X194596006Y-92915667D01*
X194544026Y-92962357D01*
X194490511Y-92974499D01*
X194478749Y-92974499D01*
X194471262Y-92974273D01*
X194181203Y-92956727D01*
X194166338Y-92954922D01*
X193884201Y-92903218D01*
X193869663Y-92899634D01*
X193595832Y-92814305D01*
X193581831Y-92808996D01*
X193320263Y-92691274D01*
X193307004Y-92684315D01*
X193263940Y-92658282D01*
X193061537Y-92535925D01*
X193049217Y-92527421D01*
X193001534Y-92490064D01*
X192869679Y-92386762D01*
X192823426Y-92350525D01*
X192812218Y-92340595D01*
X192609404Y-92137781D01*
X192599474Y-92126573D01*
X192582224Y-92104555D01*
X192422574Y-91900776D01*
X192414076Y-91888465D01*
X192265681Y-91642989D01*
X192258728Y-91629743D01*
X192141001Y-91368163D01*
X192135694Y-91354167D01*
X192127097Y-91326579D01*
X192050363Y-91080329D01*
X192046781Y-91065798D01*
X191995077Y-90783661D01*
X191993272Y-90768796D01*
X191985903Y-90646971D01*
X191975725Y-90478715D01*
X191975500Y-90471241D01*
X191975500Y-83978749D01*
X191975726Y-83971262D01*
X191993271Y-83681205D01*
X191995076Y-83666340D01*
X191995077Y-83666338D01*
X192046780Y-83384197D01*
X192050364Y-83369663D01*
X192127096Y-83123422D01*
X192135696Y-83095822D01*
X192140998Y-83081841D01*
X192258731Y-82820249D01*
X192265676Y-82807016D01*
X192414080Y-82561526D01*
X192422567Y-82549230D01*
X192599481Y-82323417D01*
X192609396Y-82312226D01*
X192812226Y-82109395D01*
X192823417Y-82099480D01*
X193049231Y-81922567D01*
X193061527Y-81914080D01*
X193307005Y-81765682D01*
X193320264Y-81758724D01*
X193581842Y-81640998D01*
X193595823Y-81635696D01*
X193869669Y-81550362D01*
X193884198Y-81546780D01*
X194166344Y-81495075D01*
X194181201Y-81493271D01*
X194471288Y-81475724D01*
X194478761Y-81475499D01*
X194500512Y-81475499D01*
X194567551Y-81495184D01*
G37*
%TD.AperFunction*%
%TD*%
M02*
