%TF.GenerationSoftware,KiCad,Pcbnew,8.0.1*%
%TF.CreationDate,2024-09-25T01:17:40+02:00*%
%TF.ProjectId,speckle_pcb_rev1,73706563-6b6c-4655-9f70-63625f726576,rev?*%
%TF.SameCoordinates,Original*%
%TF.FileFunction,Drillmap*%
%TF.FilePolarity,Positive*%
%FSLAX45Y45*%
G04 Gerber Fmt 4.5, Leading zero omitted, Abs format (unit mm)*
G04 Created by KiCad (PCBNEW 8.0.1) date 2024-09-25 01:17:40*
%MOMM*%
%LPD*%
G01*
G04 APERTURE LIST*
%ADD10C,0.001000*%
%ADD11C,0.200000*%
%ADD12C,0.100000*%
G04 APERTURE END LIST*
D10*
X20397500Y-9047499D02*
X20397500Y-8397500D01*
X19447500Y-9347500D02*
G75*
G02*
X19147500Y-9047500I0J300000D01*
G01*
X20397500Y-9047499D02*
G75*
G02*
X20097499Y-9347500I-300000J-1D01*
G01*
X19147500Y-8397500D02*
G75*
G02*
X19447500Y-8097500I300000J0D01*
G01*
X19147500Y-8397500D02*
X19147500Y-9047500D01*
X19447500Y-9347500D02*
X20097499Y-9347500D01*
X20097499Y-8097500D02*
X19447500Y-8097500D01*
X20097499Y-8097500D02*
G75*
G02*
X20397500Y-8397500I1J-300000D01*
G01*
D11*
D12*
X19232000Y-8833000D02*
X19262000Y-8863000D01*
X19262000Y-8833000D02*
X19232000Y-8863000D01*
X19235000Y-8619000D02*
X19265000Y-8649000D01*
X19265000Y-8619000D02*
X19235000Y-8649000D01*
X19235000Y-9026000D02*
X19265000Y-9056000D01*
X19265000Y-9026000D02*
X19235000Y-9056000D01*
X19239000Y-8369000D02*
X19269000Y-8399000D01*
X19269000Y-8369000D02*
X19239000Y-8399000D01*
X19332000Y-8222000D02*
X19362000Y-8252000D01*
X19362000Y-8222000D02*
X19332000Y-8252000D01*
X19338000Y-9207000D02*
X19368000Y-9237000D01*
X19368000Y-9207000D02*
X19338000Y-9237000D01*
X19395000Y-8496000D02*
X19425000Y-8526000D01*
X19425000Y-8496000D02*
X19395000Y-8526000D01*
X19395000Y-8714000D02*
X19425000Y-8744000D01*
X19425000Y-8714000D02*
X19395000Y-8744000D01*
X19397000Y-8920000D02*
X19427000Y-8950000D01*
X19427000Y-8920000D02*
X19397000Y-8950000D01*
X19415000Y-9074000D02*
X19445000Y-9104000D01*
X19445000Y-9074000D02*
X19415000Y-9104000D01*
X19549000Y-8302000D02*
X19579000Y-8332000D01*
X19579000Y-8302000D02*
X19549000Y-8332000D01*
X19553000Y-8909000D02*
X19583000Y-8939000D01*
X19583000Y-8909000D02*
X19553000Y-8939000D01*
X19554000Y-9042000D02*
X19584000Y-9072000D01*
X19584000Y-9042000D02*
X19554000Y-9072000D01*
X19560000Y-8712000D02*
X19590000Y-8742000D01*
X19590000Y-8712000D02*
X19560000Y-8742000D01*
X19691000Y-8300000D02*
X19721000Y-8330000D01*
X19721000Y-8300000D02*
X19691000Y-8330000D01*
X19758000Y-9075000D02*
X19788000Y-9105000D01*
X19788000Y-9075000D02*
X19758000Y-9105000D01*
X19761000Y-8715000D02*
X19791000Y-8745000D01*
X19791000Y-8715000D02*
X19761000Y-8745000D01*
X19765000Y-8909000D02*
X19795000Y-8939000D01*
X19795000Y-8909000D02*
X19765000Y-8939000D01*
X19816000Y-8285000D02*
X19846000Y-8315000D01*
X19846000Y-8285000D02*
X19816000Y-8315000D01*
X19870000Y-8362000D02*
X19900000Y-8392000D01*
X19900000Y-8362000D02*
X19870000Y-8392000D01*
X19948000Y-8282000D02*
X19978000Y-8312000D01*
X19978000Y-8282000D02*
X19948000Y-8312000D01*
X19957000Y-8701000D02*
X19987000Y-8731000D01*
X19987000Y-8701000D02*
X19957000Y-8731000D01*
X19958000Y-8502000D02*
X19988000Y-8532000D01*
X19988000Y-8502000D02*
X19958000Y-8532000D01*
X20023000Y-9085000D02*
X20053000Y-9115000D01*
X20053000Y-9085000D02*
X20023000Y-9115000D01*
X20133000Y-8507000D02*
X20163000Y-8537000D01*
X20163000Y-8507000D02*
X20133000Y-8537000D01*
X20133000Y-8709000D02*
X20163000Y-8739000D01*
X20163000Y-8709000D02*
X20133000Y-8739000D01*
X20133000Y-8915000D02*
X20163000Y-8945000D01*
X20163000Y-8915000D02*
X20133000Y-8945000D01*
X20179000Y-8251000D02*
X20209000Y-8281000D01*
X20209000Y-8251000D02*
X20179000Y-8281000D01*
X20181000Y-9185000D02*
X20211000Y-9215000D01*
X20211000Y-9185000D02*
X20181000Y-9215000D01*
X20270000Y-8401000D02*
X20300000Y-8431000D01*
X20300000Y-8401000D02*
X20270000Y-8431000D01*
X20272000Y-9094000D02*
X20302000Y-9124000D01*
X20302000Y-9094000D02*
X20272000Y-9124000D01*
X20276000Y-8670000D02*
X20306000Y-8700000D01*
X20306000Y-8670000D02*
X20276000Y-8700000D01*
X20278000Y-8874000D02*
X20308000Y-8904000D01*
X20308000Y-8874000D02*
X20278000Y-8904000D01*
X19550500Y-9223000D02*
G75*
G02*
X19485500Y-9223000I-32500J0D01*
G01*
X19485500Y-9223000D02*
G75*
G02*
X19550500Y-9223000I32500J0D01*
G01*
X19551500Y-8222000D02*
G75*
G02*
X19486500Y-8222000I-32500J0D01*
G01*
X19486500Y-8222000D02*
G75*
G02*
X19551500Y-8222000I32500J0D01*
G01*
X19677500Y-9223000D02*
G75*
G02*
X19612500Y-9223000I-32500J0D01*
G01*
X19612500Y-9223000D02*
G75*
G02*
X19677500Y-9223000I32500J0D01*
G01*
X19678500Y-8222000D02*
G75*
G02*
X19613500Y-8222000I-32500J0D01*
G01*
X19613500Y-8222000D02*
G75*
G02*
X19678500Y-8222000I32500J0D01*
G01*
X19804500Y-9223000D02*
G75*
G02*
X19739500Y-9223000I-32500J0D01*
G01*
X19739500Y-9223000D02*
G75*
G02*
X19804500Y-9223000I32500J0D01*
G01*
X19805500Y-8222000D02*
G75*
G02*
X19740500Y-8222000I-32500J0D01*
G01*
X19740500Y-8222000D02*
G75*
G02*
X19805500Y-8222000I32500J0D01*
G01*
X19931500Y-9223000D02*
G75*
G02*
X19866500Y-9223000I-32500J0D01*
G01*
X19866500Y-9223000D02*
G75*
G02*
X19931500Y-9223000I32500J0D01*
G01*
X19932500Y-8222000D02*
G75*
G02*
X19867500Y-8222000I-32500J0D01*
G01*
X19867500Y-8222000D02*
G75*
G02*
X19932500Y-8222000I32500J0D01*
G01*
X20058500Y-9223000D02*
G75*
G02*
X19993500Y-9223000I-32500J0D01*
G01*
X19993500Y-9223000D02*
G75*
G02*
X20058500Y-9223000I32500J0D01*
G01*
X20059500Y-8222000D02*
G75*
G02*
X19994500Y-8222000I-32500J0D01*
G01*
X19994500Y-8222000D02*
G75*
G02*
X20059500Y-8222000I32500J0D01*
G01*
D11*
X19408227Y-9659034D02*
X19408227Y-9459034D01*
X19408227Y-9459034D02*
X19455846Y-9459034D01*
X19455846Y-9459034D02*
X19484417Y-9468558D01*
X19484417Y-9468558D02*
X19503465Y-9487605D01*
X19503465Y-9487605D02*
X19512989Y-9506653D01*
X19512989Y-9506653D02*
X19522513Y-9544748D01*
X19522513Y-9544748D02*
X19522513Y-9573320D01*
X19522513Y-9573320D02*
X19512989Y-9611415D01*
X19512989Y-9611415D02*
X19503465Y-9630462D01*
X19503465Y-9630462D02*
X19484417Y-9649510D01*
X19484417Y-9649510D02*
X19455846Y-9659034D01*
X19455846Y-9659034D02*
X19408227Y-9659034D01*
X19608227Y-9659034D02*
X19608227Y-9525700D01*
X19608227Y-9563796D02*
X19617751Y-9544748D01*
X19617751Y-9544748D02*
X19627274Y-9535224D01*
X19627274Y-9535224D02*
X19646322Y-9525700D01*
X19646322Y-9525700D02*
X19665370Y-9525700D01*
X19732036Y-9659034D02*
X19732036Y-9525700D01*
X19732036Y-9459034D02*
X19722513Y-9468558D01*
X19722513Y-9468558D02*
X19732036Y-9478081D01*
X19732036Y-9478081D02*
X19741560Y-9468558D01*
X19741560Y-9468558D02*
X19732036Y-9459034D01*
X19732036Y-9459034D02*
X19732036Y-9478081D01*
X19855846Y-9659034D02*
X19836798Y-9649510D01*
X19836798Y-9649510D02*
X19827274Y-9630462D01*
X19827274Y-9630462D02*
X19827274Y-9459034D01*
X19960608Y-9659034D02*
X19941560Y-9649510D01*
X19941560Y-9649510D02*
X19932036Y-9630462D01*
X19932036Y-9630462D02*
X19932036Y-9459034D01*
X20189179Y-9659034D02*
X20189179Y-9459034D01*
X20189179Y-9459034D02*
X20255846Y-9601891D01*
X20255846Y-9601891D02*
X20322513Y-9459034D01*
X20322513Y-9459034D02*
X20322513Y-9659034D01*
X20503465Y-9659034D02*
X20503465Y-9554272D01*
X20503465Y-9554272D02*
X20493941Y-9535224D01*
X20493941Y-9535224D02*
X20474894Y-9525700D01*
X20474894Y-9525700D02*
X20436798Y-9525700D01*
X20436798Y-9525700D02*
X20417751Y-9535224D01*
X20503465Y-9649510D02*
X20484417Y-9659034D01*
X20484417Y-9659034D02*
X20436798Y-9659034D01*
X20436798Y-9659034D02*
X20417751Y-9649510D01*
X20417751Y-9649510D02*
X20408227Y-9630462D01*
X20408227Y-9630462D02*
X20408227Y-9611415D01*
X20408227Y-9611415D02*
X20417751Y-9592367D01*
X20417751Y-9592367D02*
X20436798Y-9582843D01*
X20436798Y-9582843D02*
X20484417Y-9582843D01*
X20484417Y-9582843D02*
X20503465Y-9573320D01*
X20598703Y-9525700D02*
X20598703Y-9725700D01*
X20598703Y-9535224D02*
X20617751Y-9525700D01*
X20617751Y-9525700D02*
X20655846Y-9525700D01*
X20655846Y-9525700D02*
X20674894Y-9535224D01*
X20674894Y-9535224D02*
X20684417Y-9544748D01*
X20684417Y-9544748D02*
X20693941Y-9563796D01*
X20693941Y-9563796D02*
X20693941Y-9620939D01*
X20693941Y-9620939D02*
X20684417Y-9639986D01*
X20684417Y-9639986D02*
X20674894Y-9649510D01*
X20674894Y-9649510D02*
X20655846Y-9659034D01*
X20655846Y-9659034D02*
X20617751Y-9659034D01*
X20617751Y-9659034D02*
X20598703Y-9649510D01*
X20779655Y-9639986D02*
X20789179Y-9649510D01*
X20789179Y-9649510D02*
X20779655Y-9659034D01*
X20779655Y-9659034D02*
X20770132Y-9649510D01*
X20770132Y-9649510D02*
X20779655Y-9639986D01*
X20779655Y-9639986D02*
X20779655Y-9659034D01*
X20779655Y-9535224D02*
X20789179Y-9544748D01*
X20789179Y-9544748D02*
X20779655Y-9554272D01*
X20779655Y-9554272D02*
X20770132Y-9544748D01*
X20770132Y-9544748D02*
X20779655Y-9535224D01*
X20779655Y-9535224D02*
X20779655Y-9554272D01*
D12*
X19117450Y-9972550D02*
X19147450Y-10002550D01*
X19147450Y-9972550D02*
X19117450Y-10002550D01*
D11*
X19446322Y-9879034D02*
X19465370Y-9879034D01*
X19465370Y-9879034D02*
X19484417Y-9888558D01*
X19484417Y-9888558D02*
X19493941Y-9898081D01*
X19493941Y-9898081D02*
X19503465Y-9917129D01*
X19503465Y-9917129D02*
X19512989Y-9955224D01*
X19512989Y-9955224D02*
X19512989Y-10002843D01*
X19512989Y-10002843D02*
X19503465Y-10040939D01*
X19503465Y-10040939D02*
X19493941Y-10059986D01*
X19493941Y-10059986D02*
X19484417Y-10069510D01*
X19484417Y-10069510D02*
X19465370Y-10079034D01*
X19465370Y-10079034D02*
X19446322Y-10079034D01*
X19446322Y-10079034D02*
X19427274Y-10069510D01*
X19427274Y-10069510D02*
X19417751Y-10059986D01*
X19417751Y-10059986D02*
X19408227Y-10040939D01*
X19408227Y-10040939D02*
X19398703Y-10002843D01*
X19398703Y-10002843D02*
X19398703Y-9955224D01*
X19398703Y-9955224D02*
X19408227Y-9917129D01*
X19408227Y-9917129D02*
X19417751Y-9898081D01*
X19417751Y-9898081D02*
X19427274Y-9888558D01*
X19427274Y-9888558D02*
X19446322Y-9879034D01*
X19598703Y-10059986D02*
X19608227Y-10069510D01*
X19608227Y-10069510D02*
X19598703Y-10079034D01*
X19598703Y-10079034D02*
X19589179Y-10069510D01*
X19589179Y-10069510D02*
X19598703Y-10059986D01*
X19598703Y-10059986D02*
X19598703Y-10079034D01*
X19674894Y-9879034D02*
X19798703Y-9879034D01*
X19798703Y-9879034D02*
X19732036Y-9955224D01*
X19732036Y-9955224D02*
X19760608Y-9955224D01*
X19760608Y-9955224D02*
X19779655Y-9964748D01*
X19779655Y-9964748D02*
X19789179Y-9974272D01*
X19789179Y-9974272D02*
X19798703Y-9993320D01*
X19798703Y-9993320D02*
X19798703Y-10040939D01*
X19798703Y-10040939D02*
X19789179Y-10059986D01*
X19789179Y-10059986D02*
X19779655Y-10069510D01*
X19779655Y-10069510D02*
X19760608Y-10079034D01*
X19760608Y-10079034D02*
X19703465Y-10079034D01*
X19703465Y-10079034D02*
X19684417Y-10069510D01*
X19684417Y-10069510D02*
X19674894Y-10059986D01*
X19922513Y-9879034D02*
X19941560Y-9879034D01*
X19941560Y-9879034D02*
X19960608Y-9888558D01*
X19960608Y-9888558D02*
X19970132Y-9898081D01*
X19970132Y-9898081D02*
X19979655Y-9917129D01*
X19979655Y-9917129D02*
X19989179Y-9955224D01*
X19989179Y-9955224D02*
X19989179Y-10002843D01*
X19989179Y-10002843D02*
X19979655Y-10040939D01*
X19979655Y-10040939D02*
X19970132Y-10059986D01*
X19970132Y-10059986D02*
X19960608Y-10069510D01*
X19960608Y-10069510D02*
X19941560Y-10079034D01*
X19941560Y-10079034D02*
X19922513Y-10079034D01*
X19922513Y-10079034D02*
X19903465Y-10069510D01*
X19903465Y-10069510D02*
X19893941Y-10059986D01*
X19893941Y-10059986D02*
X19884417Y-10040939D01*
X19884417Y-10040939D02*
X19874894Y-10002843D01*
X19874894Y-10002843D02*
X19874894Y-9955224D01*
X19874894Y-9955224D02*
X19884417Y-9917129D01*
X19884417Y-9917129D02*
X19893941Y-9898081D01*
X19893941Y-9898081D02*
X19903465Y-9888558D01*
X19903465Y-9888558D02*
X19922513Y-9879034D01*
X20112989Y-9879034D02*
X20132036Y-9879034D01*
X20132036Y-9879034D02*
X20151084Y-9888558D01*
X20151084Y-9888558D02*
X20160608Y-9898081D01*
X20160608Y-9898081D02*
X20170132Y-9917129D01*
X20170132Y-9917129D02*
X20179655Y-9955224D01*
X20179655Y-9955224D02*
X20179655Y-10002843D01*
X20179655Y-10002843D02*
X20170132Y-10040939D01*
X20170132Y-10040939D02*
X20160608Y-10059986D01*
X20160608Y-10059986D02*
X20151084Y-10069510D01*
X20151084Y-10069510D02*
X20132036Y-10079034D01*
X20132036Y-10079034D02*
X20112989Y-10079034D01*
X20112989Y-10079034D02*
X20093941Y-10069510D01*
X20093941Y-10069510D02*
X20084417Y-10059986D01*
X20084417Y-10059986D02*
X20074894Y-10040939D01*
X20074894Y-10040939D02*
X20065370Y-10002843D01*
X20065370Y-10002843D02*
X20065370Y-9955224D01*
X20065370Y-9955224D02*
X20074894Y-9917129D01*
X20074894Y-9917129D02*
X20084417Y-9898081D01*
X20084417Y-9898081D02*
X20093941Y-9888558D01*
X20093941Y-9888558D02*
X20112989Y-9879034D01*
X20265370Y-10079034D02*
X20265370Y-9945700D01*
X20265370Y-9964748D02*
X20274894Y-9955224D01*
X20274894Y-9955224D02*
X20293941Y-9945700D01*
X20293941Y-9945700D02*
X20322513Y-9945700D01*
X20322513Y-9945700D02*
X20341560Y-9955224D01*
X20341560Y-9955224D02*
X20351084Y-9974272D01*
X20351084Y-9974272D02*
X20351084Y-10079034D01*
X20351084Y-9974272D02*
X20360608Y-9955224D01*
X20360608Y-9955224D02*
X20379655Y-9945700D01*
X20379655Y-9945700D02*
X20408227Y-9945700D01*
X20408227Y-9945700D02*
X20427275Y-9955224D01*
X20427275Y-9955224D02*
X20436798Y-9974272D01*
X20436798Y-9974272D02*
X20436798Y-10079034D01*
X20532036Y-10079034D02*
X20532036Y-9945700D01*
X20532036Y-9964748D02*
X20541560Y-9955224D01*
X20541560Y-9955224D02*
X20560608Y-9945700D01*
X20560608Y-9945700D02*
X20589179Y-9945700D01*
X20589179Y-9945700D02*
X20608227Y-9955224D01*
X20608227Y-9955224D02*
X20617751Y-9974272D01*
X20617751Y-9974272D02*
X20617751Y-10079034D01*
X20617751Y-9974272D02*
X20627275Y-9955224D01*
X20627275Y-9955224D02*
X20646322Y-9945700D01*
X20646322Y-9945700D02*
X20674894Y-9945700D01*
X20674894Y-9945700D02*
X20693941Y-9955224D01*
X20693941Y-9955224D02*
X20703465Y-9974272D01*
X20703465Y-9974272D02*
X20703465Y-10079034D01*
X21093941Y-9869510D02*
X20922513Y-10126653D01*
X21351084Y-9879034D02*
X21370132Y-9879034D01*
X21370132Y-9879034D02*
X21389179Y-9888558D01*
X21389179Y-9888558D02*
X21398703Y-9898081D01*
X21398703Y-9898081D02*
X21408227Y-9917129D01*
X21408227Y-9917129D02*
X21417751Y-9955224D01*
X21417751Y-9955224D02*
X21417751Y-10002843D01*
X21417751Y-10002843D02*
X21408227Y-10040939D01*
X21408227Y-10040939D02*
X21398703Y-10059986D01*
X21398703Y-10059986D02*
X21389179Y-10069510D01*
X21389179Y-10069510D02*
X21370132Y-10079034D01*
X21370132Y-10079034D02*
X21351084Y-10079034D01*
X21351084Y-10079034D02*
X21332037Y-10069510D01*
X21332037Y-10069510D02*
X21322513Y-10059986D01*
X21322513Y-10059986D02*
X21312989Y-10040939D01*
X21312989Y-10040939D02*
X21303465Y-10002843D01*
X21303465Y-10002843D02*
X21303465Y-9955224D01*
X21303465Y-9955224D02*
X21312989Y-9917129D01*
X21312989Y-9917129D02*
X21322513Y-9898081D01*
X21322513Y-9898081D02*
X21332037Y-9888558D01*
X21332037Y-9888558D02*
X21351084Y-9879034D01*
X21503465Y-10059986D02*
X21512989Y-10069510D01*
X21512989Y-10069510D02*
X21503465Y-10079034D01*
X21503465Y-10079034D02*
X21493941Y-10069510D01*
X21493941Y-10069510D02*
X21503465Y-10059986D01*
X21503465Y-10059986D02*
X21503465Y-10079034D01*
X21636798Y-9879034D02*
X21655846Y-9879034D01*
X21655846Y-9879034D02*
X21674894Y-9888558D01*
X21674894Y-9888558D02*
X21684418Y-9898081D01*
X21684418Y-9898081D02*
X21693941Y-9917129D01*
X21693941Y-9917129D02*
X21703465Y-9955224D01*
X21703465Y-9955224D02*
X21703465Y-10002843D01*
X21703465Y-10002843D02*
X21693941Y-10040939D01*
X21693941Y-10040939D02*
X21684418Y-10059986D01*
X21684418Y-10059986D02*
X21674894Y-10069510D01*
X21674894Y-10069510D02*
X21655846Y-10079034D01*
X21655846Y-10079034D02*
X21636798Y-10079034D01*
X21636798Y-10079034D02*
X21617751Y-10069510D01*
X21617751Y-10069510D02*
X21608227Y-10059986D01*
X21608227Y-10059986D02*
X21598703Y-10040939D01*
X21598703Y-10040939D02*
X21589179Y-10002843D01*
X21589179Y-10002843D02*
X21589179Y-9955224D01*
X21589179Y-9955224D02*
X21598703Y-9917129D01*
X21598703Y-9917129D02*
X21608227Y-9898081D01*
X21608227Y-9898081D02*
X21617751Y-9888558D01*
X21617751Y-9888558D02*
X21636798Y-9879034D01*
X21893941Y-10079034D02*
X21779656Y-10079034D01*
X21836798Y-10079034D02*
X21836798Y-9879034D01*
X21836798Y-9879034D02*
X21817751Y-9907605D01*
X21817751Y-9907605D02*
X21798703Y-9926653D01*
X21798703Y-9926653D02*
X21779656Y-9936177D01*
X22084418Y-10079034D02*
X21970132Y-10079034D01*
X22027275Y-10079034D02*
X22027275Y-9879034D01*
X22027275Y-9879034D02*
X22008227Y-9907605D01*
X22008227Y-9907605D02*
X21989179Y-9926653D01*
X21989179Y-9926653D02*
X21970132Y-9936177D01*
X22198703Y-9964748D02*
X22179656Y-9955224D01*
X22179656Y-9955224D02*
X22170132Y-9945700D01*
X22170132Y-9945700D02*
X22160608Y-9926653D01*
X22160608Y-9926653D02*
X22160608Y-9917129D01*
X22160608Y-9917129D02*
X22170132Y-9898081D01*
X22170132Y-9898081D02*
X22179656Y-9888558D01*
X22179656Y-9888558D02*
X22198703Y-9879034D01*
X22198703Y-9879034D02*
X22236799Y-9879034D01*
X22236799Y-9879034D02*
X22255846Y-9888558D01*
X22255846Y-9888558D02*
X22265370Y-9898081D01*
X22265370Y-9898081D02*
X22274894Y-9917129D01*
X22274894Y-9917129D02*
X22274894Y-9926653D01*
X22274894Y-9926653D02*
X22265370Y-9945700D01*
X22265370Y-9945700D02*
X22255846Y-9955224D01*
X22255846Y-9955224D02*
X22236799Y-9964748D01*
X22236799Y-9964748D02*
X22198703Y-9964748D01*
X22198703Y-9964748D02*
X22179656Y-9974272D01*
X22179656Y-9974272D02*
X22170132Y-9983796D01*
X22170132Y-9983796D02*
X22160608Y-10002843D01*
X22160608Y-10002843D02*
X22160608Y-10040939D01*
X22160608Y-10040939D02*
X22170132Y-10059986D01*
X22170132Y-10059986D02*
X22179656Y-10069510D01*
X22179656Y-10069510D02*
X22198703Y-10079034D01*
X22198703Y-10079034D02*
X22236799Y-10079034D01*
X22236799Y-10079034D02*
X22255846Y-10069510D01*
X22255846Y-10069510D02*
X22265370Y-10059986D01*
X22265370Y-10059986D02*
X22274894Y-10040939D01*
X22274894Y-10040939D02*
X22274894Y-10002843D01*
X22274894Y-10002843D02*
X22265370Y-9983796D01*
X22265370Y-9983796D02*
X22255846Y-9974272D01*
X22255846Y-9974272D02*
X22236799Y-9964748D01*
X22351084Y-9879034D02*
X22351084Y-9917129D01*
X22427275Y-9879034D02*
X22427275Y-9917129D01*
X22722513Y-10155224D02*
X22712989Y-10145700D01*
X22712989Y-10145700D02*
X22693941Y-10117129D01*
X22693941Y-10117129D02*
X22684418Y-10098081D01*
X22684418Y-10098081D02*
X22674894Y-10069510D01*
X22674894Y-10069510D02*
X22665370Y-10021891D01*
X22665370Y-10021891D02*
X22665370Y-9983796D01*
X22665370Y-9983796D02*
X22674894Y-9936177D01*
X22674894Y-9936177D02*
X22684418Y-9907605D01*
X22684418Y-9907605D02*
X22693941Y-9888558D01*
X22693941Y-9888558D02*
X22712989Y-9859986D01*
X22712989Y-9859986D02*
X22722513Y-9850462D01*
X22779656Y-9879034D02*
X22903465Y-9879034D01*
X22903465Y-9879034D02*
X22836798Y-9955224D01*
X22836798Y-9955224D02*
X22865370Y-9955224D01*
X22865370Y-9955224D02*
X22884418Y-9964748D01*
X22884418Y-9964748D02*
X22893941Y-9974272D01*
X22893941Y-9974272D02*
X22903465Y-9993320D01*
X22903465Y-9993320D02*
X22903465Y-10040939D01*
X22903465Y-10040939D02*
X22893941Y-10059986D01*
X22893941Y-10059986D02*
X22884418Y-10069510D01*
X22884418Y-10069510D02*
X22865370Y-10079034D01*
X22865370Y-10079034D02*
X22808227Y-10079034D01*
X22808227Y-10079034D02*
X22789179Y-10069510D01*
X22789179Y-10069510D02*
X22779656Y-10059986D01*
X22970132Y-9879034D02*
X23093941Y-9879034D01*
X23093941Y-9879034D02*
X23027275Y-9955224D01*
X23027275Y-9955224D02*
X23055846Y-9955224D01*
X23055846Y-9955224D02*
X23074894Y-9964748D01*
X23074894Y-9964748D02*
X23084418Y-9974272D01*
X23084418Y-9974272D02*
X23093941Y-9993320D01*
X23093941Y-9993320D02*
X23093941Y-10040939D01*
X23093941Y-10040939D02*
X23084418Y-10059986D01*
X23084418Y-10059986D02*
X23074894Y-10069510D01*
X23074894Y-10069510D02*
X23055846Y-10079034D01*
X23055846Y-10079034D02*
X22998703Y-10079034D01*
X22998703Y-10079034D02*
X22979656Y-10069510D01*
X22979656Y-10069510D02*
X22970132Y-10059986D01*
X23332037Y-10079034D02*
X23332037Y-9879034D01*
X23417751Y-10079034D02*
X23417751Y-9974272D01*
X23417751Y-9974272D02*
X23408227Y-9955224D01*
X23408227Y-9955224D02*
X23389180Y-9945700D01*
X23389180Y-9945700D02*
X23360608Y-9945700D01*
X23360608Y-9945700D02*
X23341560Y-9955224D01*
X23341560Y-9955224D02*
X23332037Y-9964748D01*
X23541560Y-10079034D02*
X23522513Y-10069510D01*
X23522513Y-10069510D02*
X23512989Y-10059986D01*
X23512989Y-10059986D02*
X23503465Y-10040939D01*
X23503465Y-10040939D02*
X23503465Y-9983796D01*
X23503465Y-9983796D02*
X23512989Y-9964748D01*
X23512989Y-9964748D02*
X23522513Y-9955224D01*
X23522513Y-9955224D02*
X23541560Y-9945700D01*
X23541560Y-9945700D02*
X23570132Y-9945700D01*
X23570132Y-9945700D02*
X23589180Y-9955224D01*
X23589180Y-9955224D02*
X23598703Y-9964748D01*
X23598703Y-9964748D02*
X23608227Y-9983796D01*
X23608227Y-9983796D02*
X23608227Y-10040939D01*
X23608227Y-10040939D02*
X23598703Y-10059986D01*
X23598703Y-10059986D02*
X23589180Y-10069510D01*
X23589180Y-10069510D02*
X23570132Y-10079034D01*
X23570132Y-10079034D02*
X23541560Y-10079034D01*
X23722513Y-10079034D02*
X23703465Y-10069510D01*
X23703465Y-10069510D02*
X23693941Y-10050462D01*
X23693941Y-10050462D02*
X23693941Y-9879034D01*
X23874894Y-10069510D02*
X23855846Y-10079034D01*
X23855846Y-10079034D02*
X23817751Y-10079034D01*
X23817751Y-10079034D02*
X23798703Y-10069510D01*
X23798703Y-10069510D02*
X23789180Y-10050462D01*
X23789180Y-10050462D02*
X23789180Y-9974272D01*
X23789180Y-9974272D02*
X23798703Y-9955224D01*
X23798703Y-9955224D02*
X23817751Y-9945700D01*
X23817751Y-9945700D02*
X23855846Y-9945700D01*
X23855846Y-9945700D02*
X23874894Y-9955224D01*
X23874894Y-9955224D02*
X23884418Y-9974272D01*
X23884418Y-9974272D02*
X23884418Y-9993320D01*
X23884418Y-9993320D02*
X23789180Y-10012367D01*
X23960608Y-10069510D02*
X23979656Y-10079034D01*
X23979656Y-10079034D02*
X24017751Y-10079034D01*
X24017751Y-10079034D02*
X24036799Y-10069510D01*
X24036799Y-10069510D02*
X24046322Y-10050462D01*
X24046322Y-10050462D02*
X24046322Y-10040939D01*
X24046322Y-10040939D02*
X24036799Y-10021891D01*
X24036799Y-10021891D02*
X24017751Y-10012367D01*
X24017751Y-10012367D02*
X23989180Y-10012367D01*
X23989180Y-10012367D02*
X23970132Y-10002843D01*
X23970132Y-10002843D02*
X23960608Y-9983796D01*
X23960608Y-9983796D02*
X23960608Y-9974272D01*
X23960608Y-9974272D02*
X23970132Y-9955224D01*
X23970132Y-9955224D02*
X23989180Y-9945700D01*
X23989180Y-9945700D02*
X24017751Y-9945700D01*
X24017751Y-9945700D02*
X24036799Y-9955224D01*
X24112989Y-10155224D02*
X24122513Y-10145700D01*
X24122513Y-10145700D02*
X24141561Y-10117129D01*
X24141561Y-10117129D02*
X24151084Y-10098081D01*
X24151084Y-10098081D02*
X24160608Y-10069510D01*
X24160608Y-10069510D02*
X24170132Y-10021891D01*
X24170132Y-10021891D02*
X24170132Y-9983796D01*
X24170132Y-9983796D02*
X24160608Y-9936177D01*
X24160608Y-9936177D02*
X24151084Y-9907605D01*
X24151084Y-9907605D02*
X24141561Y-9888558D01*
X24141561Y-9888558D02*
X24122513Y-9859986D01*
X24122513Y-9859986D02*
X24112989Y-9850462D01*
D12*
X19147450Y-10251550D02*
G75*
G02*
X19082450Y-10251550I-32500J0D01*
G01*
X19082450Y-10251550D02*
G75*
G02*
X19147450Y-10251550I32500J0D01*
G01*
D11*
X19446322Y-10143034D02*
X19465370Y-10143034D01*
X19465370Y-10143034D02*
X19484417Y-10152558D01*
X19484417Y-10152558D02*
X19493941Y-10162081D01*
X19493941Y-10162081D02*
X19503465Y-10181129D01*
X19503465Y-10181129D02*
X19512989Y-10219224D01*
X19512989Y-10219224D02*
X19512989Y-10266843D01*
X19512989Y-10266843D02*
X19503465Y-10304939D01*
X19503465Y-10304939D02*
X19493941Y-10323986D01*
X19493941Y-10323986D02*
X19484417Y-10333510D01*
X19484417Y-10333510D02*
X19465370Y-10343034D01*
X19465370Y-10343034D02*
X19446322Y-10343034D01*
X19446322Y-10343034D02*
X19427274Y-10333510D01*
X19427274Y-10333510D02*
X19417751Y-10323986D01*
X19417751Y-10323986D02*
X19408227Y-10304939D01*
X19408227Y-10304939D02*
X19398703Y-10266843D01*
X19398703Y-10266843D02*
X19398703Y-10219224D01*
X19398703Y-10219224D02*
X19408227Y-10181129D01*
X19408227Y-10181129D02*
X19417751Y-10162081D01*
X19417751Y-10162081D02*
X19427274Y-10152558D01*
X19427274Y-10152558D02*
X19446322Y-10143034D01*
X19598703Y-10323986D02*
X19608227Y-10333510D01*
X19608227Y-10333510D02*
X19598703Y-10343034D01*
X19598703Y-10343034D02*
X19589179Y-10333510D01*
X19589179Y-10333510D02*
X19598703Y-10323986D01*
X19598703Y-10323986D02*
X19598703Y-10343034D01*
X19779655Y-10143034D02*
X19741560Y-10143034D01*
X19741560Y-10143034D02*
X19722513Y-10152558D01*
X19722513Y-10152558D02*
X19712989Y-10162081D01*
X19712989Y-10162081D02*
X19693941Y-10190653D01*
X19693941Y-10190653D02*
X19684417Y-10228748D01*
X19684417Y-10228748D02*
X19684417Y-10304939D01*
X19684417Y-10304939D02*
X19693941Y-10323986D01*
X19693941Y-10323986D02*
X19703465Y-10333510D01*
X19703465Y-10333510D02*
X19722513Y-10343034D01*
X19722513Y-10343034D02*
X19760608Y-10343034D01*
X19760608Y-10343034D02*
X19779655Y-10333510D01*
X19779655Y-10333510D02*
X19789179Y-10323986D01*
X19789179Y-10323986D02*
X19798703Y-10304939D01*
X19798703Y-10304939D02*
X19798703Y-10257320D01*
X19798703Y-10257320D02*
X19789179Y-10238272D01*
X19789179Y-10238272D02*
X19779655Y-10228748D01*
X19779655Y-10228748D02*
X19760608Y-10219224D01*
X19760608Y-10219224D02*
X19722513Y-10219224D01*
X19722513Y-10219224D02*
X19703465Y-10228748D01*
X19703465Y-10228748D02*
X19693941Y-10238272D01*
X19693941Y-10238272D02*
X19684417Y-10257320D01*
X19979655Y-10143034D02*
X19884417Y-10143034D01*
X19884417Y-10143034D02*
X19874894Y-10238272D01*
X19874894Y-10238272D02*
X19884417Y-10228748D01*
X19884417Y-10228748D02*
X19903465Y-10219224D01*
X19903465Y-10219224D02*
X19951084Y-10219224D01*
X19951084Y-10219224D02*
X19970132Y-10228748D01*
X19970132Y-10228748D02*
X19979655Y-10238272D01*
X19979655Y-10238272D02*
X19989179Y-10257320D01*
X19989179Y-10257320D02*
X19989179Y-10304939D01*
X19989179Y-10304939D02*
X19979655Y-10323986D01*
X19979655Y-10323986D02*
X19970132Y-10333510D01*
X19970132Y-10333510D02*
X19951084Y-10343034D01*
X19951084Y-10343034D02*
X19903465Y-10343034D01*
X19903465Y-10343034D02*
X19884417Y-10333510D01*
X19884417Y-10333510D02*
X19874894Y-10323986D01*
X20112989Y-10143034D02*
X20132036Y-10143034D01*
X20132036Y-10143034D02*
X20151084Y-10152558D01*
X20151084Y-10152558D02*
X20160608Y-10162081D01*
X20160608Y-10162081D02*
X20170132Y-10181129D01*
X20170132Y-10181129D02*
X20179655Y-10219224D01*
X20179655Y-10219224D02*
X20179655Y-10266843D01*
X20179655Y-10266843D02*
X20170132Y-10304939D01*
X20170132Y-10304939D02*
X20160608Y-10323986D01*
X20160608Y-10323986D02*
X20151084Y-10333510D01*
X20151084Y-10333510D02*
X20132036Y-10343034D01*
X20132036Y-10343034D02*
X20112989Y-10343034D01*
X20112989Y-10343034D02*
X20093941Y-10333510D01*
X20093941Y-10333510D02*
X20084417Y-10323986D01*
X20084417Y-10323986D02*
X20074894Y-10304939D01*
X20074894Y-10304939D02*
X20065370Y-10266843D01*
X20065370Y-10266843D02*
X20065370Y-10219224D01*
X20065370Y-10219224D02*
X20074894Y-10181129D01*
X20074894Y-10181129D02*
X20084417Y-10162081D01*
X20084417Y-10162081D02*
X20093941Y-10152558D01*
X20093941Y-10152558D02*
X20112989Y-10143034D01*
X20265370Y-10343034D02*
X20265370Y-10209700D01*
X20265370Y-10228748D02*
X20274894Y-10219224D01*
X20274894Y-10219224D02*
X20293941Y-10209700D01*
X20293941Y-10209700D02*
X20322513Y-10209700D01*
X20322513Y-10209700D02*
X20341560Y-10219224D01*
X20341560Y-10219224D02*
X20351084Y-10238272D01*
X20351084Y-10238272D02*
X20351084Y-10343034D01*
X20351084Y-10238272D02*
X20360608Y-10219224D01*
X20360608Y-10219224D02*
X20379655Y-10209700D01*
X20379655Y-10209700D02*
X20408227Y-10209700D01*
X20408227Y-10209700D02*
X20427275Y-10219224D01*
X20427275Y-10219224D02*
X20436798Y-10238272D01*
X20436798Y-10238272D02*
X20436798Y-10343034D01*
X20532036Y-10343034D02*
X20532036Y-10209700D01*
X20532036Y-10228748D02*
X20541560Y-10219224D01*
X20541560Y-10219224D02*
X20560608Y-10209700D01*
X20560608Y-10209700D02*
X20589179Y-10209700D01*
X20589179Y-10209700D02*
X20608227Y-10219224D01*
X20608227Y-10219224D02*
X20617751Y-10238272D01*
X20617751Y-10238272D02*
X20617751Y-10343034D01*
X20617751Y-10238272D02*
X20627275Y-10219224D01*
X20627275Y-10219224D02*
X20646322Y-10209700D01*
X20646322Y-10209700D02*
X20674894Y-10209700D01*
X20674894Y-10209700D02*
X20693941Y-10219224D01*
X20693941Y-10219224D02*
X20703465Y-10238272D01*
X20703465Y-10238272D02*
X20703465Y-10343034D01*
X21093941Y-10133510D02*
X20922513Y-10390653D01*
X21351084Y-10143034D02*
X21370132Y-10143034D01*
X21370132Y-10143034D02*
X21389179Y-10152558D01*
X21389179Y-10152558D02*
X21398703Y-10162081D01*
X21398703Y-10162081D02*
X21408227Y-10181129D01*
X21408227Y-10181129D02*
X21417751Y-10219224D01*
X21417751Y-10219224D02*
X21417751Y-10266843D01*
X21417751Y-10266843D02*
X21408227Y-10304939D01*
X21408227Y-10304939D02*
X21398703Y-10323986D01*
X21398703Y-10323986D02*
X21389179Y-10333510D01*
X21389179Y-10333510D02*
X21370132Y-10343034D01*
X21370132Y-10343034D02*
X21351084Y-10343034D01*
X21351084Y-10343034D02*
X21332037Y-10333510D01*
X21332037Y-10333510D02*
X21322513Y-10323986D01*
X21322513Y-10323986D02*
X21312989Y-10304939D01*
X21312989Y-10304939D02*
X21303465Y-10266843D01*
X21303465Y-10266843D02*
X21303465Y-10219224D01*
X21303465Y-10219224D02*
X21312989Y-10181129D01*
X21312989Y-10181129D02*
X21322513Y-10162081D01*
X21322513Y-10162081D02*
X21332037Y-10152558D01*
X21332037Y-10152558D02*
X21351084Y-10143034D01*
X21503465Y-10323986D02*
X21512989Y-10333510D01*
X21512989Y-10333510D02*
X21503465Y-10343034D01*
X21503465Y-10343034D02*
X21493941Y-10333510D01*
X21493941Y-10333510D02*
X21503465Y-10323986D01*
X21503465Y-10323986D02*
X21503465Y-10343034D01*
X21636798Y-10143034D02*
X21655846Y-10143034D01*
X21655846Y-10143034D02*
X21674894Y-10152558D01*
X21674894Y-10152558D02*
X21684418Y-10162081D01*
X21684418Y-10162081D02*
X21693941Y-10181129D01*
X21693941Y-10181129D02*
X21703465Y-10219224D01*
X21703465Y-10219224D02*
X21703465Y-10266843D01*
X21703465Y-10266843D02*
X21693941Y-10304939D01*
X21693941Y-10304939D02*
X21684418Y-10323986D01*
X21684418Y-10323986D02*
X21674894Y-10333510D01*
X21674894Y-10333510D02*
X21655846Y-10343034D01*
X21655846Y-10343034D02*
X21636798Y-10343034D01*
X21636798Y-10343034D02*
X21617751Y-10333510D01*
X21617751Y-10333510D02*
X21608227Y-10323986D01*
X21608227Y-10323986D02*
X21598703Y-10304939D01*
X21598703Y-10304939D02*
X21589179Y-10266843D01*
X21589179Y-10266843D02*
X21589179Y-10219224D01*
X21589179Y-10219224D02*
X21598703Y-10181129D01*
X21598703Y-10181129D02*
X21608227Y-10162081D01*
X21608227Y-10162081D02*
X21617751Y-10152558D01*
X21617751Y-10152558D02*
X21636798Y-10143034D01*
X21779656Y-10162081D02*
X21789179Y-10152558D01*
X21789179Y-10152558D02*
X21808227Y-10143034D01*
X21808227Y-10143034D02*
X21855846Y-10143034D01*
X21855846Y-10143034D02*
X21874894Y-10152558D01*
X21874894Y-10152558D02*
X21884418Y-10162081D01*
X21884418Y-10162081D02*
X21893941Y-10181129D01*
X21893941Y-10181129D02*
X21893941Y-10200177D01*
X21893941Y-10200177D02*
X21884418Y-10228748D01*
X21884418Y-10228748D02*
X21770132Y-10343034D01*
X21770132Y-10343034D02*
X21893941Y-10343034D01*
X22074894Y-10143034D02*
X21979656Y-10143034D01*
X21979656Y-10143034D02*
X21970132Y-10238272D01*
X21970132Y-10238272D02*
X21979656Y-10228748D01*
X21979656Y-10228748D02*
X21998703Y-10219224D01*
X21998703Y-10219224D02*
X22046322Y-10219224D01*
X22046322Y-10219224D02*
X22065370Y-10228748D01*
X22065370Y-10228748D02*
X22074894Y-10238272D01*
X22074894Y-10238272D02*
X22084418Y-10257320D01*
X22084418Y-10257320D02*
X22084418Y-10304939D01*
X22084418Y-10304939D02*
X22074894Y-10323986D01*
X22074894Y-10323986D02*
X22065370Y-10333510D01*
X22065370Y-10333510D02*
X22046322Y-10343034D01*
X22046322Y-10343034D02*
X21998703Y-10343034D01*
X21998703Y-10343034D02*
X21979656Y-10333510D01*
X21979656Y-10333510D02*
X21970132Y-10323986D01*
X22255846Y-10143034D02*
X22217751Y-10143034D01*
X22217751Y-10143034D02*
X22198703Y-10152558D01*
X22198703Y-10152558D02*
X22189179Y-10162081D01*
X22189179Y-10162081D02*
X22170132Y-10190653D01*
X22170132Y-10190653D02*
X22160608Y-10228748D01*
X22160608Y-10228748D02*
X22160608Y-10304939D01*
X22160608Y-10304939D02*
X22170132Y-10323986D01*
X22170132Y-10323986D02*
X22179656Y-10333510D01*
X22179656Y-10333510D02*
X22198703Y-10343034D01*
X22198703Y-10343034D02*
X22236799Y-10343034D01*
X22236799Y-10343034D02*
X22255846Y-10333510D01*
X22255846Y-10333510D02*
X22265370Y-10323986D01*
X22265370Y-10323986D02*
X22274894Y-10304939D01*
X22274894Y-10304939D02*
X22274894Y-10257320D01*
X22274894Y-10257320D02*
X22265370Y-10238272D01*
X22265370Y-10238272D02*
X22255846Y-10228748D01*
X22255846Y-10228748D02*
X22236799Y-10219224D01*
X22236799Y-10219224D02*
X22198703Y-10219224D01*
X22198703Y-10219224D02*
X22179656Y-10228748D01*
X22179656Y-10228748D02*
X22170132Y-10238272D01*
X22170132Y-10238272D02*
X22160608Y-10257320D01*
X22351084Y-10143034D02*
X22351084Y-10181129D01*
X22427275Y-10143034D02*
X22427275Y-10181129D01*
X22722513Y-10419224D02*
X22712989Y-10409700D01*
X22712989Y-10409700D02*
X22693941Y-10381129D01*
X22693941Y-10381129D02*
X22684418Y-10362081D01*
X22684418Y-10362081D02*
X22674894Y-10333510D01*
X22674894Y-10333510D02*
X22665370Y-10285891D01*
X22665370Y-10285891D02*
X22665370Y-10247796D01*
X22665370Y-10247796D02*
X22674894Y-10200177D01*
X22674894Y-10200177D02*
X22684418Y-10171605D01*
X22684418Y-10171605D02*
X22693941Y-10152558D01*
X22693941Y-10152558D02*
X22712989Y-10123986D01*
X22712989Y-10123986D02*
X22722513Y-10114462D01*
X22903465Y-10343034D02*
X22789179Y-10343034D01*
X22846322Y-10343034D02*
X22846322Y-10143034D01*
X22846322Y-10143034D02*
X22827275Y-10171605D01*
X22827275Y-10171605D02*
X22808227Y-10190653D01*
X22808227Y-10190653D02*
X22789179Y-10200177D01*
X23027275Y-10143034D02*
X23046322Y-10143034D01*
X23046322Y-10143034D02*
X23065370Y-10152558D01*
X23065370Y-10152558D02*
X23074894Y-10162081D01*
X23074894Y-10162081D02*
X23084418Y-10181129D01*
X23084418Y-10181129D02*
X23093941Y-10219224D01*
X23093941Y-10219224D02*
X23093941Y-10266843D01*
X23093941Y-10266843D02*
X23084418Y-10304939D01*
X23084418Y-10304939D02*
X23074894Y-10323986D01*
X23074894Y-10323986D02*
X23065370Y-10333510D01*
X23065370Y-10333510D02*
X23046322Y-10343034D01*
X23046322Y-10343034D02*
X23027275Y-10343034D01*
X23027275Y-10343034D02*
X23008227Y-10333510D01*
X23008227Y-10333510D02*
X22998703Y-10323986D01*
X22998703Y-10323986D02*
X22989179Y-10304939D01*
X22989179Y-10304939D02*
X22979656Y-10266843D01*
X22979656Y-10266843D02*
X22979656Y-10219224D01*
X22979656Y-10219224D02*
X22989179Y-10181129D01*
X22989179Y-10181129D02*
X22998703Y-10162081D01*
X22998703Y-10162081D02*
X23008227Y-10152558D01*
X23008227Y-10152558D02*
X23027275Y-10143034D01*
X23332037Y-10343034D02*
X23332037Y-10143034D01*
X23417751Y-10343034D02*
X23417751Y-10238272D01*
X23417751Y-10238272D02*
X23408227Y-10219224D01*
X23408227Y-10219224D02*
X23389180Y-10209700D01*
X23389180Y-10209700D02*
X23360608Y-10209700D01*
X23360608Y-10209700D02*
X23341560Y-10219224D01*
X23341560Y-10219224D02*
X23332037Y-10228748D01*
X23541560Y-10343034D02*
X23522513Y-10333510D01*
X23522513Y-10333510D02*
X23512989Y-10323986D01*
X23512989Y-10323986D02*
X23503465Y-10304939D01*
X23503465Y-10304939D02*
X23503465Y-10247796D01*
X23503465Y-10247796D02*
X23512989Y-10228748D01*
X23512989Y-10228748D02*
X23522513Y-10219224D01*
X23522513Y-10219224D02*
X23541560Y-10209700D01*
X23541560Y-10209700D02*
X23570132Y-10209700D01*
X23570132Y-10209700D02*
X23589180Y-10219224D01*
X23589180Y-10219224D02*
X23598703Y-10228748D01*
X23598703Y-10228748D02*
X23608227Y-10247796D01*
X23608227Y-10247796D02*
X23608227Y-10304939D01*
X23608227Y-10304939D02*
X23598703Y-10323986D01*
X23598703Y-10323986D02*
X23589180Y-10333510D01*
X23589180Y-10333510D02*
X23570132Y-10343034D01*
X23570132Y-10343034D02*
X23541560Y-10343034D01*
X23722513Y-10343034D02*
X23703465Y-10333510D01*
X23703465Y-10333510D02*
X23693941Y-10314462D01*
X23693941Y-10314462D02*
X23693941Y-10143034D01*
X23874894Y-10333510D02*
X23855846Y-10343034D01*
X23855846Y-10343034D02*
X23817751Y-10343034D01*
X23817751Y-10343034D02*
X23798703Y-10333510D01*
X23798703Y-10333510D02*
X23789180Y-10314462D01*
X23789180Y-10314462D02*
X23789180Y-10238272D01*
X23789180Y-10238272D02*
X23798703Y-10219224D01*
X23798703Y-10219224D02*
X23817751Y-10209700D01*
X23817751Y-10209700D02*
X23855846Y-10209700D01*
X23855846Y-10209700D02*
X23874894Y-10219224D01*
X23874894Y-10219224D02*
X23884418Y-10238272D01*
X23884418Y-10238272D02*
X23884418Y-10257320D01*
X23884418Y-10257320D02*
X23789180Y-10276367D01*
X23960608Y-10333510D02*
X23979656Y-10343034D01*
X23979656Y-10343034D02*
X24017751Y-10343034D01*
X24017751Y-10343034D02*
X24036799Y-10333510D01*
X24036799Y-10333510D02*
X24046322Y-10314462D01*
X24046322Y-10314462D02*
X24046322Y-10304939D01*
X24046322Y-10304939D02*
X24036799Y-10285891D01*
X24036799Y-10285891D02*
X24017751Y-10276367D01*
X24017751Y-10276367D02*
X23989180Y-10276367D01*
X23989180Y-10276367D02*
X23970132Y-10266843D01*
X23970132Y-10266843D02*
X23960608Y-10247796D01*
X23960608Y-10247796D02*
X23960608Y-10238272D01*
X23960608Y-10238272D02*
X23970132Y-10219224D01*
X23970132Y-10219224D02*
X23989180Y-10209700D01*
X23989180Y-10209700D02*
X24017751Y-10209700D01*
X24017751Y-10209700D02*
X24036799Y-10219224D01*
X24112989Y-10419224D02*
X24122513Y-10409700D01*
X24122513Y-10409700D02*
X24141561Y-10381129D01*
X24141561Y-10381129D02*
X24151084Y-10362081D01*
X24151084Y-10362081D02*
X24160608Y-10333510D01*
X24160608Y-10333510D02*
X24170132Y-10285891D01*
X24170132Y-10285891D02*
X24170132Y-10247796D01*
X24170132Y-10247796D02*
X24160608Y-10200177D01*
X24160608Y-10200177D02*
X24151084Y-10171605D01*
X24151084Y-10171605D02*
X24141561Y-10152558D01*
X24141561Y-10152558D02*
X24122513Y-10123986D01*
X24122513Y-10123986D02*
X24112989Y-10114462D01*
M02*
