%TF.GenerationSoftware,KiCad,Pcbnew,8.0.1*%
%TF.CreationDate,2024-09-25T01:17:28+02:00*%
%TF.ProjectId,speckle_pcb_rev1,73706563-6b6c-4655-9f70-63625f726576,rev?*%
%TF.SameCoordinates,Original*%
%TF.FileFunction,Legend,Bot*%
%TF.FilePolarity,Positive*%
%FSLAX46Y46*%
G04 Gerber Fmt 4.6, Leading zero omitted, Abs format (unit mm)*
G04 Created by KiCad (PCBNEW 8.0.1) date 2024-09-25 01:17:28*
%MOMM*%
%LPD*%
G01*
G04 APERTURE LIST*
%ADD10C,0.001000*%
%ADD11R,1.000000X1.000000*%
%ADD12O,1.000000X1.000000*%
%ADD13R,0.350000X1.850000*%
G04 APERTURE END LIST*
%TO.C,D1*%
D10*
X200590000Y-86210000D02*
X198790000Y-86210000D01*
X198790000Y-84210000D01*
X200590000Y-84210000D01*
X200590000Y-86210000D01*
%TO.C,D8*%
X196581600Y-88223600D02*
X194781600Y-88223600D01*
X194781600Y-86223600D01*
X196581600Y-86223600D01*
X196581600Y-88223600D01*
%TO.C,D7*%
X196600000Y-86210000D02*
X194800000Y-86210000D01*
X194800000Y-84210000D01*
X196600000Y-84210000D01*
X196600000Y-86210000D01*
%TO.C,D6*%
X198588000Y-90230200D02*
X196788000Y-90230200D01*
X196788000Y-88230200D01*
X198588000Y-88230200D01*
X198588000Y-90230200D01*
%TO.C,D4*%
X198588200Y-86217000D02*
X196788200Y-86217000D01*
X196788200Y-84217000D01*
X198588200Y-84217000D01*
X198588200Y-86217000D01*
%TO.C,D5*%
X198588200Y-88223600D02*
X196788200Y-88223600D01*
X196788200Y-86223600D01*
X198588200Y-86223600D01*
X198588200Y-88223600D01*
%TO.C,D9*%
X196581600Y-90230200D02*
X194781600Y-90230200D01*
X194781600Y-88230200D01*
X196581600Y-88230200D01*
X196581600Y-90230200D01*
%TO.C,D3*%
X200594800Y-90230200D02*
X198794800Y-90230200D01*
X198794800Y-88230200D01*
X200594800Y-88230200D01*
X200594800Y-90230200D01*
%TO.C,D2*%
X200594800Y-88223600D02*
X198794800Y-88223600D01*
X198794800Y-86223600D01*
X200594800Y-86223600D01*
X200594800Y-88223600D01*
%TD*%
%LPC*%
D11*
%TO.C,J2*%
X195190000Y-82220000D03*
D12*
X196460000Y-82220000D03*
X197730000Y-82220000D03*
X199000000Y-82220000D03*
X200270000Y-82220000D03*
%TD*%
D11*
%TO.C,J1*%
X195180000Y-92230000D03*
D12*
X196450000Y-92230000D03*
X197720000Y-92230000D03*
X198990000Y-92230000D03*
X200260000Y-92230000D03*
%TD*%
D13*
%TO.C,D1*%
X199010000Y-85210000D03*
X200360000Y-85210000D03*
%TD*%
%TO.C,D8*%
X195001600Y-87223600D03*
X196351600Y-87223600D03*
%TD*%
%TO.C,D7*%
X195020000Y-85210000D03*
X196370000Y-85210000D03*
%TD*%
%TO.C,D6*%
X197008000Y-89230200D03*
X198358000Y-89230200D03*
%TD*%
%TO.C,D4*%
X197008200Y-85217000D03*
X198358200Y-85217000D03*
%TD*%
%TO.C,D5*%
X197008200Y-87223600D03*
X198358200Y-87223600D03*
%TD*%
%TO.C,D9*%
X195001600Y-89230200D03*
X196351600Y-89230200D03*
%TD*%
%TO.C,D3*%
X199014800Y-89230200D03*
X200364800Y-89230200D03*
%TD*%
%TO.C,D2*%
X199014800Y-87223600D03*
X200364800Y-87223600D03*
%TD*%
%LPD*%
M02*
